<?xml version="1.0" standalone="no"?>
<!DOCTYPE svg PUBLIC "-//W3C//DTD SVG 1.1//EN" "http://www.w3.org/Graphics/SVG/1.1/DTD/svg11.dtd" >
<svg xmlns="http://www.w3.org/2000/svg" xmlns:xlink="http://www.w3.org/1999/xlink" version="1.1">
<metadata>
Created by FontForge 20170731 at Sat May 28 02:28:18 2022
 By Aleksey,,,
Copyright 2016 The Muli Project Authors (contact@sansoxygen.com)
</metadata>
<defs>
<font id="Muli-Light" horiz-adv-x="0" >
  <font-face 
    font-family="Muli Light"
    font-weight="300"
    font-stretch="normal"
    units-per-em="2048"
    panose-1="0 0 4 0 0 0 0 0 0 0"
    ascent="1638"
    descent="-410"
    x-height="1026"
    cap-height="1458"
    bbox="-659 -559 2613 2224"
    underline-thickness="102"
    underline-position="-307"
    unicode-range="U+000D-FB02"
  />
<missing-glyph horiz-adv-x="974" 
d="M799 1507v-1949h-617v1949h617zM649 1376h-321v-63h127v-72h-129v-65h323v65h-129v72h129v63zM520 1124h-194v-202h323v67h-129v135zM455 1059v-70h-66v70h66zM649 870h-323v-65h129v-72h-129v-63h194v135h129v65zM649 754h-63v-129h-260v-68h323v197zM649 514h-194v-108
h65v45h66v-93h-197v156h-63v-219h323v219zM649 178h-323v-221h323v221zM586 113v-90h-197v90h197zM649 -88h-323v-64h137l-137 -92v-63h323v63h-198l137 92h61v64z" />
    <glyph glyph-name="fi" unicode="fi" horiz-adv-x="1122" 
d="M344 1026h610v-1026h-125v926h-485v-926h-125v926h-203v100h203v154q0 178 83 256q81 77 288 77h59v-102h-51q-112 0 -163 -19t-71 -75q-20 -57 -20 -170v-121zM807 1460h170v-164h-170v164z" />
    <glyph glyph-name="fl" unicode="fl" horiz-adv-x="1130" 
d="M389 1356q-47 -47 -47 -168v-162h264v-100h-264v-926h-125v926h-201v100h201v184q0 154 76 230t209 76q59 0 127 -17v-113q-57 17 -105 17q-88 0 -135 -47zM834 0v1507h122v-1507h-122z" />
    <glyph glyph-name=".notdef" horiz-adv-x="974" 
d="M799 1507v-1949h-617v1949h617zM649 1376h-321v-63h127v-72h-129v-65h323v65h-129v72h129v63zM520 1124h-194v-202h323v67h-129v135zM455 1059v-70h-66v70h66zM649 870h-323v-65h129v-72h-129v-63h194v135h129v65zM649 754h-63v-129h-260v-68h323v197zM649 514h-194v-108
h65v45h66v-93h-197v156h-63v-219h323v219zM649 178h-323v-221h323v221zM586 113v-90h-197v90h197zM649 -88h-323v-64h137l-137 -92v-63h323v63h-198l137 92h61v64z" />
    <glyph glyph-name=".null" 
 />
    <glyph glyph-name="nonmarkingreturn" unicode="&#xd;" horiz-adv-x="522" 
 />
    <glyph glyph-name="NULL" 
 />
    <glyph glyph-name="NULL" 
 />
    <glyph glyph-name="space" unicode=" " horiz-adv-x="522" 
 />
    <glyph glyph-name="exclam" unicode="!" horiz-adv-x="454" 
d="M188 358l-41 1100h158l-39 -1100h-78zM141 178h174v-178h-174v178z" />
    <glyph glyph-name="quotedbl" unicode="&#x22;" horiz-adv-x="839" 
d="M176 897l-35 561h152l-33 -561h-84zM582 897l-35 561h151l-32 -561h-84z" />
    <glyph glyph-name="numbersign" unicode="#" horiz-adv-x="1241" 
d="M1180 987h-222l-96 -500h275v-102h-295l-74 -385h-111l76 385h-358l-76 -385h-109l74 385h-203v102h224l96 500h-277v103h297l72 368h111l-72 -368h358l72 368h109l-72 -368h201v-103zM752 487l98 500h-358l-99 -500h359z" />
    <glyph glyph-name="dollar" unicode="$" horiz-adv-x="1228" 
d="M1001 115q-118 -109 -309 -127v-226h-114v224q-144 6 -264 55q-124 51 -214 139l54 101q110 -95 205 -135q103 -44 221 -50v565q-150 40 -234 77q-92 41 -153 118q-62 79 -62 207q0 115 56 203q58 91 158 144q105 56 233 63v223h114v-223q121 -10 229 -60
q107 -49 187 -129l-53 -100q-155 155 -365 176v-602q132 -33 224 -73q87 -38 146 -110q58 -71 58 -190q0 -162 -117 -270zM342 885q84 -61 238 -101v576q-151 -11 -235 -89q-85 -79 -85 -208q0 -118 82 -178zM911 190q78 74 78 197q0 104 -77 157q-75 52 -222 91v-535
q143 16 221 90z" />
    <glyph glyph-name="percent" unicode="%" horiz-adv-x="1908" 
d="M215 694q-90 112 -90 334t90 333q91 112 252 112q163 0 255 -112q91 -110 91 -333q0 -221 -92 -334q-91 -112 -254 -112q-162 0 -252 112zM600 0h-131l842 1458h131zM636 764q54 84 54 264q0 178 -54 263t-169 85q-111 0 -166 -85t-55 -263q0 -180 54 -264t167 -84
q115 0 169 84zM1189 98q-91 112 -91 334q0 223 90 334t254 111t254 -111t90 -334q0 -222 -91 -334t-253 -112t-253 112zM1609 168q54 84 54 264q0 178 -54 262t-167 84t-167 -84t-54 -262q0 -180 54 -264t167 -84t167 84z" />
    <glyph glyph-name="ampersand" unicode="&#x26;" horiz-adv-x="1357" 
d="M1366 70l-74 -86q-167 85 -278 202q-84 -97 -197 -149q-111 -51 -244 -51q-134 0 -236 46q-104 47 -160 131t-56 195q0 132 81 238q82 107 267 221q-101 121 -138 195q-38 74 -38 153q0 140 93 224t247 84q144 0 227 -76q84 -77 84 -207q0 -109 -65 -190t-240 -199
l367 -430q100 188 106 475h119q-7 -334 -150 -565q106 -119 285 -211zM451 1044q30 -57 118 -163q150 98 202 160q54 65 54 141q0 84 -52 135q-53 51 -140 51q-98 0 -155 -56q-58 -57 -58 -147q0 -62 31 -121zM942 268l-401 469q-166 -107 -230 -188q-65 -83 -65 -189
q0 -123 90 -195q91 -73 244 -73q218 0 362 176z" />
    <glyph glyph-name="quotesingle" unicode="'" horiz-adv-x="434" 
d="M176 897l-35 561h152l-33 -561h-84z" />
    <glyph glyph-name="parenleft" unicode="(" horiz-adv-x="614" 
d="M270 80q-53 227 -53 465q0 234 53 461q51 219 166 452h111q-109 -253 -155 -471t-46 -442t46 -445q46 -219 155 -473h-109q-117 234 -168 453z" />
    <glyph glyph-name="parenright" unicode=")" horiz-adv-x="614" 
d="M70 -373q105 247 152 474q46 223 46 444q0 224 -46 442q-47 223 -154 471h110q115 -233 166 -452q53 -227 53 -461q0 -238 -53 -465q-51 -219 -168 -453h-106z" />
    <glyph glyph-name="asterisk" unicode="*" horiz-adv-x="927" 
d="M274 756l-84 61l203 262l-319 97l32 98l314 -111l-10 332h102l-8 -332l315 111l31 -98l-318 -97l203 -262l-84 -61l-188 276z" />
    <glyph glyph-name="plus" unicode="+" horiz-adv-x="1228" 
d="M1118 639v-104h-452v-453h-103v453h-452v104h452v453h103v-453h452z" />
    <glyph glyph-name="comma" unicode="," horiz-adv-x="454" 
d="M315 178v-131q0 -77 -24 -143q-23 -64 -82 -123l-66 51q71 80 78 168h-80v178h174z" />
    <glyph glyph-name="hyphen" unicode="-" horiz-adv-x="868" 
d="M154 496v108h561v-108h-561z" />
    <glyph glyph-name="period" unicode="." horiz-adv-x="454" 
d="M141 178h174v-178h-174v178z" />
    <glyph glyph-name="slash" unicode="/" horiz-adv-x="557" 
d="M78 -111h-123l522 1643h125z" />
    <glyph glyph-name="zero" unicode="0" horiz-adv-x="1228" 
d="M241 173q-128 190 -128 556q0 368 127 556q128 190 374 190q248 0 375 -189q127 -188 127 -555q0 -366 -128 -557q-127 -190 -374 -190q-246 0 -373 189zM894 251q91 154 91 480q0 325 -90 478t-281 153q-187 0 -279 -154q-91 -152 -91 -477q0 -324 91 -479
q91 -156 279 -156t280 155z" />
    <glyph glyph-name="one" unicode="1" horiz-adv-x="1228" 
d="M727 111h322v-111h-773v111h324v1179l-301 -194v129l356 233h72v-1347z" />
    <glyph glyph-name="two" unicode="2" horiz-adv-x="1228" 
d="M1100 111v-111h-920v94l518 580q111 128 160 224q49 97 49 194q0 131 -74 201q-76 71 -215 71q-213 0 -419 -176l-54 100q85 84 215 135q132 52 258 52q196 0 307 -102t111 -275q0 -127 -58 -244q-57 -116 -190 -264l-438 -479h750z" />
    <glyph glyph-name="three" unicode="3" horiz-adv-x="1228" 
d="M999 622q68 -92 68 -229q0 -189 -124 -298t-337 -109q-140 0 -266 49q-128 50 -217 137l53 100q100 -88 206 -132t224 -44q159 0 247 77q87 77 87 220q0 291 -360 291h-156v113h125q173 0 265 79q93 80 93 226q0 124 -76 193q-77 69 -213 69q-213 0 -419 -176l-54 100
q87 87 214 137t262 50q189 0 303 -100q112 -99 112 -267q0 -129 -62 -222q-64 -96 -171 -136q129 -38 196 -128z" />
    <glyph glyph-name="four" unicode="4" horiz-adv-x="1228" 
d="M1151 440v-108h-225v-332h-127v332h-690v96l712 1030h105v-1018h225zM250 440h549v793z" />
    <glyph glyph-name="five" unicode="5" horiz-adv-x="1228" 
d="M909 848q103 -57 158 -162q55 -104 55 -240q0 -135 -58 -239t-167 -163q-107 -58 -252 -58q-128 0 -257 50q-126 49 -216 136l53 100q206 -176 422 -176q160 0 253 95t93 255q0 153 -92 251t-242 98q-115 0 -200 -46q-87 -47 -150 -143h-98v852h856v-108h-729v-582
q59 65 144 101q86 36 186 36q139 0 241 -57z" />
    <glyph glyph-name="six" unicode="6" horiz-adv-x="1228" 
d="M903 849q105 -59 162 -163q57 -105 57 -240t-59 -238q-60 -105 -165 -165q-103 -59 -239 -59q-258 0 -398 182t-140 522q0 373 144 580t405 207q119 0 240 -49q118 -48 210 -138l-53 -100q-104 89 -201 133q-95 43 -196 43q-200 0 -311 -178t-111 -498v-55
q45 127 158 201q112 73 258 73q135 0 239 -58zM900 190q93 96 93 256q0 157 -94 252q-95 97 -246 97q-101 0 -183 -44q-80 -43 -126 -124q-45 -79 -45 -181q0 -158 99 -255q98 -97 257 -97q152 0 245 96z" />
    <glyph glyph-name="seven" unicode="7" horiz-adv-x="1228" 
d="M145 1458h938v-94l-692 -1364h-137l688 1348h-797v110z" />
    <glyph glyph-name="eight" unicode="8" horiz-adv-x="1228" 
d="M1047 614q79 -95 79 -231q0 -184 -137 -291q-136 -106 -375 -106q-238 0 -374 106q-138 108 -138 291q0 133 82 230t224 135q-132 39 -202 129q-71 91 -71 213q0 114 60 202q60 89 169 135q113 48 250 48q138 0 251 -48q109 -46 169 -135q60 -88 60 -202q0 -122 -71 -213
q-70 -90 -202 -129q146 -38 226 -134zM358 881q95 -79 256 -95q161 16 256 95q95 78 95 202q0 130 -93 206q-92 75 -258 75t-258 -75t-92 -206q0 -124 94 -202zM899 171q98 74 98 218q0 131 -105 209q-104 77 -278 94q-173 -17 -277 -94q-106 -79 -106 -209q0 -143 99 -218
t284 -75q186 0 285 75z" />
    <glyph glyph-name="nine" unicode="9" horiz-adv-x="1228" 
d="M970 1292q140 -182 140 -522q0 -373 -144 -580q-143 -206 -405 -206q-121 0 -240 48t-210 138l53 100q107 -92 202 -134q94 -42 195 -42q199 0 310 178q112 180 112 498v57q-45 -128 -158 -202t-258 -74q-135 0 -239 58q-105 59 -162 163q-57 105 -57 240t59 238
q60 105 165 165t238 60q258 0 399 -183zM761 708q81 44 126 123t45 181q0 158 -99 255q-98 97 -258 97q-151 0 -244 -96t-93 -256q0 -157 94 -252q94 -96 246 -96q101 0 183 44z" />
    <glyph glyph-name="colon" unicode=":" horiz-adv-x="454" 
d="M141 1004h174v-177h-174v177zM141 178h174v-178h-174v178z" />
    <glyph glyph-name="semicolon" unicode=";" horiz-adv-x="454" 
d="M141 1004h174v-177h-174v177zM141 178h174v-131q0 -77 -24 -143q-23 -64 -82 -123l-66 51q71 80 78 168h-80v178z" />
    <glyph glyph-name="less" unicode="&#x3c;" horiz-adv-x="1228" 
d="M1118 1106v-115l-878 -403l878 -406v-114l-1007 469v102z" />
    <glyph glyph-name="equal" unicode="=" horiz-adv-x="1228" 
d="M1118 846v-105h-1007v105h1007zM1118 432v-104h-1007v104h1007z" />
    <glyph glyph-name="greater" unicode="&#x3e;" horiz-adv-x="1228" 
d="M111 1106l1007 -467v-102l-1007 -469v114l878 406l-878 403v115z" />
    <glyph glyph-name="question" unicode="?" horiz-adv-x="901" 
d="M318 1454q79 19 145 19q169 0 276 -87q105 -85 105 -227q0 -108 -46 -190q-46 -83 -141 -195q-91 -108 -141 -192q-48 -82 -59 -197l-2 -27h-76v35q0 136 48 232q49 99 138 211q77 100 112 165q36 67 36 152q0 96 -68 153q-66 56 -184 56q-137 0 -283 -84v123
q69 36 140 53zM330 0v178h174v-178h-174z" />
    <glyph glyph-name="at" unicode="@" horiz-adv-x="1906" 
d="M516 -200q-195 109 -303 309q-107 199 -107 460q0 268 114 472q115 206 311 316q198 111 444 111q265 0 451 -110q187 -111 282 -284q94 -172 94 -361q0 -211 -62 -338q-63 -129 -156 -186q-91 -56 -195 -56q-112 0 -172 48q-59 48 -64 138h-4q-52 -88 -133 -136
q-83 -50 -185 -50q-131 0 -215 93t-84 263q0 138 55 265q53 123 153 200q98 76 231 76q101 0 177 -50q75 -50 93 -126h2l25 150h110l-100 -580q-6 -39 -6 -72q0 -70 34 -98q35 -29 103 -29q63 0 129 48t110 157t44 283q0 160 -79 309q-80 151 -242 246q-163 96 -396 96
q-216 0 -388 -97q-174 -99 -273 -278q-99 -180 -99 -420q0 -236 91 -409q93 -177 263 -270q173 -95 408 -95q179 0 312 54t206 151h147q-88 -144 -262 -227q-173 -82 -403 -82q-265 0 -461 109zM1043 291q81 66 123 171t42 220q0 123 -61 188q-61 66 -166 66
q-103 0 -182 -64t-119 -164q-41 -103 -41 -210q0 -133 62 -202q63 -71 153 -71q108 0 189 66z" />
    <glyph glyph-name="A" unicode="A" horiz-adv-x="1488" 
d="M1305 0l-166 389h-787l-168 -389h-131l635 1458h115l633 -1458h-131zM399 500h691l-345 805z" />
    <glyph glyph-name="B" unicode="B" horiz-adv-x="1384" 
d="M1182 624q69 -92 69 -229q0 -191 -125 -293q-124 -102 -354 -102h-584v1458h564q222 0 344 -99q121 -99 121 -284q0 -118 -61 -203q-59 -83 -169 -124q127 -34 195 -124zM313 797h420q177 0 266 71q91 73 91 209q0 273 -357 273h-420v-553zM1035 178q87 69 87 213
q0 293 -358 293h-451v-575h451q184 0 271 69z" />
    <glyph glyph-name="C" unicode="C" horiz-adv-x="1400" 
d="M442 73q-149 88 -229 258q-80 171 -80 400q0 228 80 397t229 257q153 90 353 90q148 0 277 -49q128 -49 218 -142l-53 -100q-105 94 -209 136q-105 42 -233 42q-253 0 -392 -165q-139 -164 -139 -466q0 -303 138 -469t393 -166q128 0 233 42q104 42 209 136l53 -100
q-90 -93 -218 -142q-126 -48 -277 -48q-202 0 -353 89z" />
    <glyph glyph-name="D" unicode="D" horiz-adv-x="1513" 
d="M188 1458h469q349 0 537 -188t188 -539t-189 -541t-536 -190h-469v1458zM651 111q297 0 447 156q149 155 149 464q0 617 -596 617h-336v-1237h336z" />
    <glyph glyph-name="E" unicode="E" horiz-adv-x="1198" 
d="M188 0v1458h899v-108h-774v-553h734v-113h-734v-575h774v-109h-899z" />
    <glyph glyph-name="F" unicode="F" horiz-adv-x="1142" 
d="M188 0v1458h879v-108h-752v-553h711v-113h-711v-684h-127z" />
    <glyph glyph-name="G" unicode="G" horiz-adv-x="1486" 
d="M1315 748v-666q-81 -44 -219 -71q-140 -27 -281 -27q-212 0 -366 89t-235 257t-81 401q0 231 81 399t232 256q152 89 359 89q309 0 495 -191l-53 -100q-104 94 -210 136q-105 42 -234 42q-258 0 -399 -164q-140 -162 -140 -467q0 -309 143 -473t410 -164q206 0 383 68
v477h-385v109h500z" />
    <glyph glyph-name="H" unicode="H" horiz-adv-x="1560" 
d="M1245 1458h127v-1458h-127v684h-930v-684h-127v1458h127v-661h930v661z" />
    <glyph glyph-name="I" unicode="I" horiz-adv-x="503" 
d="M188 0v1458h127v-1458h-127z" />
    <glyph glyph-name="J" unicode="J" horiz-adv-x="643" 
d="M-14 -252q89 -16 145 -16q110 0 153 61q44 62 44 213v1452h127v-1456q0 -202 -71 -293q-70 -90 -232 -90q-70 0 -166 16v113z" />
    <glyph glyph-name="K" unicode="K" horiz-adv-x="1267" 
d="M1272 0h-172l-785 698v-698h-127v1458h127v-676l746 676h168l-787 -713z" />
    <glyph glyph-name="L" unicode="L" horiz-adv-x="1101" 
d="M188 0v1458h127v-1347h754v-111h-881z" />
    <glyph glyph-name="M" unicode="M" horiz-adv-x="1736" 
d="M1442 1458h106v-1458h-118v1167l-512 -1167h-95l-516 1157l2 -1157h-119v1458h105l577 -1306z" />
    <glyph glyph-name="N" unicode="N" horiz-adv-x="1519" 
d="M1212 1458h119v-1458h-98l-926 1243v-1243h-119v1458h101l923 -1243v1243z" />
    <glyph glyph-name="O" unicode="O" horiz-adv-x="1566" 
d="M437 74q-145 89 -225 258q-79 167 -79 397q0 229 78 397q78 169 224 258q149 91 347 91q199 0 348 -91q148 -91 226 -257q78 -167 78 -396q0 -230 -79 -398q-79 -169 -226 -259t-347 -90q-198 0 -345 90zM1164 262q136 166 136 469t-135 467t-383 164q-246 0 -382 -165
q-136 -164 -136 -466t136 -468q137 -167 382 -167q246 0 382 166z" />
    <glyph glyph-name="P" unicode="P" horiz-adv-x="1318" 
d="M188 1458h562q220 0 344 -106q125 -107 125 -293q0 -188 -126 -296t-343 -108h-435v-655h-127v1458zM741 766q172 0 260 76q89 77 89 217q0 138 -89 215q-88 76 -260 76h-426v-584h426z" />
    <glyph glyph-name="Q" unicode="Q" horiz-adv-x="1566" 
d="M1264 -299l-88 -92q-77 61 -165 166q-87 104 -149 213q-47 -4 -80 -4q-198 0 -345 90q-145 89 -225 258q-79 167 -79 397q0 229 78 397q78 169 224 258q149 91 347 91q199 0 348 -91q148 -91 226 -257q78 -167 78 -396q0 -279 -114 -465t-321 -252q95 -170 265 -313z
M400 263q137 -167 382 -167q246 0 382 166t136 469t-135 467t-383 164q-246 0 -382 -165q-136 -164 -136 -466t136 -468z" />
    <glyph glyph-name="R" unicode="R" horiz-adv-x="1409" 
d="M1311 0h-131l-183 485q-34 97 -96 132q-61 34 -178 34h-408v-651h-127v1458h564q228 0 352 -103q125 -104 125 -296q0 -142 -75 -238t-214 -135q65 -11 109 -53q45 -44 75 -127zM743 762q359 0 359 299q0 289 -359 289h-430v-588h430z" />
    <glyph glyph-name="S" unicode="S" horiz-adv-x="1255" 
d="M337 30q-136 48 -235 144l54 100q108 -96 220 -137t265 -41q186 0 287 76q102 76 102 213q0 80 -50 130q-50 51 -127 79t-204 57q-174 39 -273 77q-105 40 -177 120t-72 213q0 123 63 217q62 93 182 145q121 52 273 52q147 0 277 -49q128 -48 219 -142l-54 -100
q-102 92 -208 135q-105 43 -234 43q-184 0 -288 -80q-103 -79 -103 -219q0 -120 90 -180q91 -61 264 -101l60 -14q168 -40 260 -76q98 -38 164 -110q67 -73 67 -197q0 -119 -63 -210t-182 -141q-120 -50 -273 -50q-173 0 -304 46z" />
    <glyph glyph-name="T" unicode="T" horiz-adv-x="1220" 
d="M547 0v1348h-522v110h1171v-110h-522v-1348h-127z" />
    <glyph glyph-name="U" unicode="U" horiz-adv-x="1486" 
d="M323 130q-145 148 -145 431v897h127v-911q0 -451 440 -451q216 0 327 114q112 115 112 337v911h125v-897q0 -284 -144 -431q-143 -146 -420 -146q-279 0 -422 146z" />
    <glyph glyph-name="V" unicode="V" horiz-adv-x="1406" 
d="M1262 1458h131l-631 -1458h-117l-631 1458h133l558 -1294z" />
    <glyph glyph-name="W" unicode="W" horiz-adv-x="2267" 
d="M2064 1458h127l-508 -1458h-110l-438 1255l-441 -1255h-108l-508 1458h127l438 -1282l442 1282l101 -2l440 -1276z" />
    <glyph glyph-name="X" unicode="X" horiz-adv-x="1318" 
d="M733 748l553 -748h-149l-478 649l-473 -649h-153l555 750l-525 708h150l449 -614l448 614h147z" />
    <glyph glyph-name="Y" unicode="Y" horiz-adv-x="1222" 
d="M1237 1458l-563 -858v-600h-127v604l-563 854h147l481 -743l482 743h143z" />
    <glyph glyph-name="Z" unicode="Z" horiz-adv-x="1208" 
d="M238 109h892v-109h-1040v92l873 1258h-873v108h1020v-92z" />
    <glyph glyph-name="bracketleft" unicode="[" horiz-adv-x="614" 
d="M229 -373v1831h373v-102h-248v-1624h248v-105h-373z" />
    <glyph glyph-name="backslash" unicode="\" horiz-adv-x="557" 
d="M477 -111l-522 1643h123l524 -1643h-125z" />
    <glyph glyph-name="bracketright" unicode="]" horiz-adv-x="614" 
d="M385 -373h-373v105h248v1624h-248v102h373v-1831z" />
    <glyph glyph-name="asciicircum" unicode="^" horiz-adv-x="1228" 
d="M1133 289h-113l-406 874l-405 -874h-111l465 1009h103z" />
    <glyph glyph-name="underscore" unicode="_" horiz-adv-x="1034" 
d="M12 -88v88h1010v-88h-1010z" />
    <glyph glyph-name="grave" unicode="`" horiz-adv-x="614" 
d="M262 1139l-270 415h160l206 -415h-96z" />
    <glyph glyph-name="a" unicode="a" horiz-adv-x="1210" 
d="M1040 1026v-1026h-125v197q-46 -104 -136 -157q-91 -54 -218 -54q-137 0 -240 64t-160 184t-57 280q0 158 58 282q57 122 161 188q105 67 238 67q122 0 216 -54q91 -52 138 -155v184h125zM827 207q88 110 88 311q0 203 -88 313q-89 111 -249 111q-162 0 -252 -114
t-90 -314q0 -198 90 -308t254 -110q158 0 247 111z" />
    <glyph glyph-name="b" unicode="b" horiz-adv-x="1210" 
d="M889 985q104 -65 161 -184q56 -116 56 -279q0 -160 -57 -281q-58 -123 -161 -189q-104 -66 -239 -66q-127 0 -218 55t-136 160v-201h-125v1507h123v-673q44 105 137 161q92 56 219 56q135 0 240 -66zM885 209q90 113 90 313q0 198 -90 309t-252 111t-250 -111
q-88 -110 -88 -313t88 -312q89 -110 252 -110q160 0 250 113z" />
    <glyph glyph-name="c" unicode="c" horiz-adv-x="1003" 
d="M332 51q-108 66 -168 186t-60 277q0 160 60 282q61 123 170 188q113 67 256 67q106 0 200 -36q93 -35 156 -100l-49 -98q-76 63 -153 95q-72 30 -150 30q-166 0 -262 -114t-96 -314q0 -195 95 -307q95 -111 263 -111q78 0 150 30q75 31 153 93l49 -96q-65 -62 -163 -100
q-96 -37 -197 -37q-148 0 -254 65z" />
    <glyph glyph-name="d" unicode="d" horiz-adv-x="1210" 
d="M1040 1507v-1507h-125v197q-46 -104 -136 -157q-91 -54 -218 -54q-134 0 -238 66q-103 66 -161 189q-58 124 -58 281q0 160 57 280t160 184q104 65 240 65q122 0 216 -54q91 -52 138 -155v665h125zM827 207q88 110 88 311q0 202 -88 312q-89 112 -247 112
q-164 0 -254 -111t-90 -309q0 -200 90 -313t252 -113q160 0 249 111z" />
    <glyph glyph-name="e" unicode="e" horiz-adv-x="1112" 
d="M236 528v-6q0 -206 95 -316t277 -110q186 0 338 127l49 -98q-69 -64 -172 -101q-106 -38 -215 -38q-233 0 -368 141q-136 142 -136 389q0 156 61 280q60 121 169 188q110 67 250 67q202 0 316 -131q114 -130 114 -365v-27h-778zM354 863q-87 -84 -110 -238h651
q-12 157 -92 240t-219 83q-142 0 -230 -85z" />
    <glyph glyph-name="f" unicode="f" horiz-adv-x="663" 
d="M389 1356q-47 -47 -47 -168v-162h264v-100h-264v-926h-125v926h-201v100h201v184q0 154 76 230t209 76q59 0 127 -17v-113q-57 17 -105 17q-88 0 -135 -47z" />
    <glyph glyph-name="g" unicode="g" horiz-adv-x="1218" 
d="M1049 1026v-1030q0 -224 -111 -338q-112 -115 -326 -115q-230 0 -399 111l25 108q101 -60 184 -84q84 -24 192 -24q154 0 233 84q79 83 79 246v264q-45 -102 -140 -161q-90 -56 -221 -56q-135 0 -239 64t-163 180t-59 266q0 151 59 267q59 117 163 179q107 64 239 64
q126 0 220 -54q93 -53 139 -155v184h125zM833 250q91 106 91 291q0 187 -91 294t-251 107q-163 0 -254 -107q-92 -109 -92 -294q0 -186 92 -292t254 -106q159 0 251 107z" />
    <glyph glyph-name="h" unicode="h" horiz-adv-x="1183" 
d="M1018 653v-653h-125v645q0 153 -63 225t-195 72q-154 0 -248 -94t-94 -254v-594h-123v1507h123v-659q49 100 141 151q93 52 213 52q371 0 371 -398z" />
    <glyph glyph-name="i" unicode="i" horiz-adv-x="466" 
d="M170 0v1026h123v-1026h-123zM152 1450h165v-160h-165v160z" />
    <glyph glyph-name="j" unicode="j" horiz-adv-x="466" 
d="M-6 -336q83 0 130 47q46 46 46 168v1147h123v-1169q0 -153 -74 -230q-73 -76 -203 -76q-54 0 -122 17v113q57 -17 100 -17zM152 1450h165v-160h-165v160z" />
    <glyph glyph-name="k" unicode="k" horiz-adv-x="1019" 
d="M1028 0h-170l-565 500v-500h-123v1507h123v-958l516 477h162l-537 -494z" />
    <glyph glyph-name="l" unicode="l" horiz-adv-x="466" 
d="M170 0v1507h123v-1507h-123z" />
    <glyph glyph-name="m" unicode="m" horiz-adv-x="1779" 
d="M1616 653v-653h-125v645q0 156 -55 226q-56 71 -176 71q-142 0 -223 -94t-81 -256v-592h-125v645q0 157 -56 226q-57 71 -177 71q-140 0 -222 -94q-83 -95 -83 -256v-592h-123v741q0 164 -16 285h118l17 -184q44 104 128 155q88 54 197 54q249 0 318 -201q44 95 134 147
q94 54 210 54q340 0 340 -398z" />
    <glyph glyph-name="n" unicode="n" horiz-adv-x="1183" 
d="M1018 653v-653h-125v645q0 153 -63 225t-195 72q-154 0 -248 -94t-94 -254v-594h-123v741q0 164 -16 285h118l17 -188q46 104 141 158q96 55 217 55q371 0 371 -398z" />
    <glyph glyph-name="o" unicode="o" horiz-adv-x="1150" 
d="M329 51q-108 66 -166 187q-59 123 -59 280q0 158 59 281q58 120 166 186t249 66q138 0 245 -66q108 -67 165 -186q59 -123 59 -281q0 -157 -59 -280q-58 -121 -165 -187q-105 -65 -245 -65q-143 0 -249 65zM828 206q90 111 90 312q0 200 -91 312t-249 112
q-161 0 -252 -112q-90 -111 -90 -312q0 -206 88 -313q89 -109 251 -109q164 0 253 110z" />
    <glyph glyph-name="p" unicode="p" horiz-adv-x="1210" 
d="M888 984q104 -66 161 -188t57 -282q0 -162 -56 -278q-58 -120 -161 -185t-240 -65q-130 0 -220 56q-91 57 -136 163v-647h-123v1183q0 164 -16 285h118l17 -201q45 109 138 167q94 59 222 59q134 0 239 -67zM885 206q90 110 90 308q0 200 -90 314t-250 114
q-163 0 -252 -111q-88 -110 -88 -313q0 -201 88 -311q88 -111 250 -111t252 110z" />
    <glyph glyph-name="q" unicode="q" horiz-adv-x="1210" 
d="M1055 1026q-15 -131 -15 -285v-1183h-125v639q-46 -104 -136 -157q-91 -54 -218 -54q-137 0 -240 64t-160 184t-57 280q0 158 58 282q57 122 161 188q105 67 238 67q130 0 223 -58t138 -164l18 197h115zM827 207q88 110 88 311q0 203 -88 313q-89 111 -249 111
q-162 0 -252 -114t-90 -314q0 -198 90 -308t254 -110q158 0 247 111z" />
    <glyph glyph-name="r" unicode="r" horiz-adv-x="714" 
d="M702 1042l-6 -112q-42 8 -94 8q-156 0 -232 -99q-77 -100 -77 -237v-602h-123v741q0 164 -16 285h118l17 -190q38 103 126 159t197 56q43 0 90 -9z" />
    <glyph glyph-name="s" unicode="s" horiz-adv-x="1011" 
d="M109 123l45 96q83 -68 164 -96q84 -29 192 -29q126 0 193 44t67 128q0 69 -44 110q-43 40 -144 64l-174 39q-122 28 -194 103q-71 74 -71 172q0 135 104 216t275 81q108 0 202 -35q93 -35 155 -101l-48 -96q-141 123 -309 123q-117 0 -184 -47q-66 -46 -66 -131
q0 -70 42 -113q40 -42 130 -63l177 -43q276 -61 276 -273q0 -128 -106 -207t-287 -79q-249 0 -395 137z" />
    <glyph glyph-name="t" unicode="t" horiz-adv-x="690" 
d="M344 926v-611q0 -123 47 -170t139 -47q56 0 111 19v-113q-64 -16 -133 -16q-137 0 -212 75q-77 77 -77 228v635h-203v100h203v272l125 48v-320h303v-100h-303z" />
    <glyph glyph-name="u" unicode="u" horiz-adv-x="1165" 
d="M995 1026v-1026h-121v186q-49 -98 -139 -149t-207 -51q-181 0 -272 100q-92 101 -92 297v643h123v-635q0 -152 61 -223q62 -72 191 -72q151 0 241 95t90 253v582h125z" />
    <glyph glyph-name="v" unicode="v" horiz-adv-x="1075" 
d="M913 1026h127l-440 -1026h-129l-434 1026h133l371 -901z" />
    <glyph glyph-name="w" unicode="w" horiz-adv-x="1767" 
d="M1571 1026h127l-373 -1026h-129l-311 866l-314 -866h-131l-370 1026h133l303 -876l319 876h125l310 -876z" />
    <glyph glyph-name="x" unicode="x" horiz-adv-x="1081" 
d="M618 528l422 -528h-153l-346 432l-342 -432h-156l422 528l-399 498h155l320 -401l319 401h156z" />
    <glyph glyph-name="y" unicode="y" horiz-adv-x="1075" 
d="M1040 1026l-483 -1132q-72 -168 -179 -247t-269 -112l-25 98q145 34 222 91q75 56 126 174l43 100l-438 1028h133l371 -901l372 901h127z" />
    <glyph glyph-name="z" unicode="z" horiz-adv-x="1054" 
d="M264 102h697v-102h-857v86l682 840h-657v100h809v-94z" />
    <glyph glyph-name="braceleft" unicode="{" horiz-adv-x="690" 
d="M388 611q-41 -51 -103 -66q60 -15 103 -68q42 -53 42 -141v-447q0 -77 36 -117t99 -40h113v-105h-117q-124 0 -190 66t-66 190v436q0 86 -33 128q-34 43 -118 59l-48 10v57l48 9q85 16 118 58t33 128v434q0 124 71 190q70 66 185 66h117v-102h-113q-63 0 -99 -41
t-36 -119v-442q0 -91 -42 -143z" />
    <glyph glyph-name="bar" unicode="|" horiz-adv-x="524" 
d="M199 -373v1831h125v-1831h-125z" />
    <glyph glyph-name="braceright" unicode="}" horiz-adv-x="692" 
d="M586 573v-57l-49 -10q-86 -17 -119 -59t-33 -128v-436q0 -125 -64 -190q-65 -66 -190 -66h-119v105h115q64 0 98 40q35 41 35 117v447q0 89 43 141q44 53 103 68q-64 16 -104 66q-42 52 -42 143v442q0 78 -36 119t-97 41h-115v102h119q115 0 184 -66q70 -67 70 -190v-434
q0 -86 33 -128q32 -41 119 -58z" />
    <glyph glyph-name="asciitilde" unicode="~" horiz-adv-x="1228" 
d="M1118 647q-85 -196 -262 -196q-69 0 -131 25q-57 23 -152 73q-64 36 -109 55q-46 19 -85 19q-71 0 -112 -37q-40 -36 -68 -105l-88 47q83 195 262 195q65 0 129 -25q57 -22 153 -71q68 -39 110 -56q43 -18 85 -18q68 0 109 37q43 39 71 100z" />
    <glyph glyph-name="uni00A0" unicode="&#xa0;" horiz-adv-x="522" 
 />
    <glyph glyph-name="exclamdown" unicode="&#xa1;" horiz-adv-x="454" 
d="M141 827v177h174v-177h-174zM188 645h78l39 -1018h-158z" />
    <glyph glyph-name="cent" unicode="&#xa2;" horiz-adv-x="1228" 
d="M1038 123q-57 -57 -140 -92q-85 -36 -175 -43v-232h-113v234q-188 24 -301 167q-112 142 -112 357q0 219 113 362q114 144 300 171v233h113v-231q93 -6 177 -41q80 -33 138 -93l-47 -98q-136 111 -268 123v-842q67 6 132 36t136 85zM401 234q73 -108 209 -132v834
q-134 -27 -208 -137t-74 -285q0 -173 73 -280z" />
    <glyph glyph-name="sterling" unicode="&#xa3;" horiz-adv-x="1228" 
d="M407 232q-34 -76 -114 -121h856v-111h-1053v88q115 52 168 126q51 72 51 185v279h-219v104h219v299q0 182 103 288t282 106q126 0 244 -50t209 -141l-53 -100q-86 86 -189 133t-209 47q-127 0 -194 -76q-68 -77 -68 -217v-289h385v-104h-385v-238q0 -135 -33 -208z" />
    <glyph glyph-name="currency" unicode="&#xa4;" horiz-adv-x="1228" 
d="M1112 506q0 -179 -108 -320l108 -112l-82 -82l-108 112q-63 -52 -143 -81q-81 -29 -163 -29q-174 0 -313 112l-110 -114l-80 82l112 114q-106 139 -106 318q0 178 106 317l-112 117l80 82l110 -117q138 115 313 115q82 0 163 -29q78 -28 143 -82l108 113l82 -82
l-108 -113q108 -141 108 -321zM804 157q87 54 138 146q51 91 51 203t-51 203q-51 92 -138 146t-190 54q-104 0 -191 -54t-137 -146t-50 -203t50 -203t137 -146q89 -55 191 -55q101 0 190 55z" />
    <glyph glyph-name="yen" unicode="&#xa5;" horiz-adv-x="1228" 
d="M1235 1458l-490 -672h336v-102h-403v-209h403v-102h-403v-373h-127v373h-404v102h404v209h-404v102h338l-491 672h147l473 -657l473 657h148z" />
    <glyph glyph-name="brokenbar" unicode="&#xa6;" horiz-adv-x="524" 
d="M199 768v690h125v-690h-125zM199 -373v692h125v-692h-125z" />
    <glyph glyph-name="section" unicode="&#xa7;" horiz-adv-x="1083" 
d="M963 244q-29 -65 -84 -117q32 -65 32 -160q0 -163 -104 -258q-105 -96 -279 -96q-237 0 -393 135l49 96q89 -67 167 -93q80 -27 177 -27q124 0 192 62t68 179q0 92 -47 154t-157 117l-178 90q-172 84 -244 171t-72 208q0 71 31 142q30 68 82 116q-29 64 -29 155
q0 161 106 258t281 97q98 0 188 -37q89 -36 150 -99l-47 -96q-78 63 -150 93t-143 30q-126 0 -192 -62q-68 -63 -68 -182q0 -90 45 -150q46 -62 156 -118l178 -90q171 -89 244 -176q71 -84 71 -205q0 -69 -30 -137zM815 215q55 76 55 166q0 76 -52 135q-52 60 -181 127
l-170 90q-138 74 -199 137q-53 -70 -53 -165q0 -74 51 -133q51 -58 183 -128l167 -90q133 -72 199 -139z" />
    <glyph glyph-name="dieresis" unicode="&#xa8;" horiz-adv-x="614" 
d="M61 1423h154v-151h-154v151zM406 1423h153v-151h-153v151z" />
    <glyph glyph-name="copyright" unicode="&#xa9;" horiz-adv-x="1685" 
d="M469 88q-171 100 -267 267q-98 170 -98 376t98 375q98 168 266 265q169 97 376 97t376 -97t266 -266t97 -374q0 -207 -97 -376q-96 -167 -267 -267q-168 -98 -375 -98t-375 98zM1175 159q149 87 234 237q86 151 86 335q0 182 -86 333t-234 236q-149 86 -331 86
q-181 0 -332 -86q-150 -86 -236 -236q-86 -151 -86 -333q0 -184 86 -335q85 -150 236 -237q150 -87 332 -87t331 87zM556 403q-112 123 -112 328q0 204 112 325q111 120 300 120q81 0 166 -31q77 -28 141 -84l-45 -88q-71 56 -128 78q-63 24 -130 24q-139 0 -214 -89
q-75 -88 -75 -255q0 -168 75 -258t214 -90q67 0 131 25q59 23 127 77l45 -88q-64 -56 -141 -84q-82 -30 -166 -30q-190 0 -300 120z" />
    <glyph glyph-name="ordfeminine" unicode="&#xaa;" horiz-adv-x="677" 
d="M519 1411q61 -58 61 -184v-373h-115v94q-24 -49 -73 -77q-48 -27 -107 -27q-92 0 -154 53q-61 52 -61 129q0 70 33 107q34 39 113 55q77 16 218 16h31v37q0 74 -31 105q-30 30 -96 30q-113 0 -203 -65l-39 86q49 32 115 52q64 19 131 19q117 0 177 -57zM418 979
q47 47 47 123v35h-23q-103 0 -161 -11q-56 -11 -75 -31q-20 -22 -20 -59q0 -43 33 -73q34 -31 84 -31q68 0 115 47z" />
    <glyph glyph-name="guillemotleft" unicode="&#xab;" horiz-adv-x="860" 
d="M326 182l-269 365l273 368h123l-263 -366l256 -367h-120zM676 182l-268 365l272 368h123l-262 -366l256 -367h-121z" />
    <glyph glyph-name="logicalnot" unicode="&#xac;" horiz-adv-x="1228" 
d="M1118 856v-537h-98v435h-909v102h1007z" />
    <glyph glyph-name="uni00AD" unicode="&#xad;" horiz-adv-x="868" 
d="M154 496v108h561v-108h-561z" />
    <glyph glyph-name="registered" unicode="&#xae;" horiz-adv-x="1685" 
d="M1220 1371q169 -97 266 -266t97 -374q0 -207 -97 -376q-96 -167 -267 -267q-168 -98 -375 -98t-375 98q-171 100 -267 267q-98 170 -98 376t98 375q98 168 266 265q169 97 376 97t376 -97zM1175 159q149 87 234 237q86 151 86 335q0 182 -86 333t-234 236
q-149 86 -331 86q-181 0 -332 -86q-150 -86 -236 -236q-86 -151 -86 -333q0 -184 86 -335q85 -150 236 -237q150 -87 332 -87t331 87zM1073 571l172 -278h-133l-170 278q-29 48 -61 65q-31 17 -90 17h-125v-360h-117v872h350q139 0 216 -66t77 -188q0 -104 -59 -166
t-168 -79q63 -18 108 -95zM885 754q95 0 142 38q46 37 46 117q0 83 -45 120q-46 38 -143 38h-219v-313h219z" />
    <glyph glyph-name="macron" unicode="&#xaf;" horiz-adv-x="614" 
d="M4 1294v107h612v-107h-612z" />
    <glyph glyph-name="degree" unicode="&#xb0;" horiz-adv-x="753" 
d="M227 913q-66 38 -107 107q-40 67 -40 151q0 85 40 152q41 69 107 107t150 38q127 0 211 -85t84 -212t-84 -212t-211 -85q-83 0 -150 39zM515 1027q54 57 54 144q0 89 -54 146t-138 57q-87 0 -139 -57q-54 -59 -54 -146q0 -88 54 -145q52 -55 139 -55q85 0 138 56z" />
    <glyph glyph-name="plusminus" unicode="&#xb1;" horiz-adv-x="1228" 
d="M666 719h452v-103h-452v-372h-103v372h-452v103h452v373h103v-373zM111 0v104h1007v-104h-1007z" />
    <glyph glyph-name="uni00B2" unicode="&#xb2;" horiz-adv-x="778" 
d="M680 682v-98h-567v88l301 334q61 67 87 118q27 52 27 107q0 68 -40 102q-41 35 -109 35q-55 0 -120 -27t-124 -73l-55 86q63 53 140 82q81 30 167 30q123 0 192 -63q68 -62 68 -168q0 -74 -35 -144t-112 -153l-238 -256h418z" />
    <glyph glyph-name="uni00B3" unicode="&#xb3;" horiz-adv-x="778" 
d="M623 958q41 -53 41 -137q0 -115 -78 -179q-77 -64 -209 -64q-87 0 -168 31t-139 83l55 84q62 -47 125 -74q61 -26 123 -26q85 0 131 37q47 38 47 114q0 152 -193 152h-104v96h84q91 0 140 40q50 41 50 116q0 68 -40 102q-41 35 -107 35q-119 0 -246 -100l-55 86
q61 50 140 81q80 31 163 31q125 0 194 -63q68 -62 68 -164q0 -75 -38 -128q-37 -52 -99 -79q74 -21 115 -74z" />
    <glyph glyph-name="acute" unicode="&#xb4;" horiz-adv-x="614" 
d="M358 1139h-96l207 415h160z" />
    <glyph glyph-name="uni00B5" unicode="&#xb5;" horiz-adv-x="1165" 
d="M995 1026v-1026h-121v186q-49 -98 -139 -149t-207 -51q-158 0 -241 77v-505h-123v1468h123v-635q0 -152 61 -223q62 -72 191 -72q151 0 241 95t90 253v582h125z" />
    <glyph glyph-name="paragraph" unicode="&#xb6;" horiz-adv-x="1175" 
d="M987 -373h-121v1723h-252v-1723h-118v1041q-116 0 -207 50q-90 49 -138 140q-49 92 -49 205q0 112 50 203q50 90 139 141q90 51 209 51h487v-1831z" />
    <glyph glyph-name="periodcentered" unicode="&#xb7;" horiz-adv-x="454" 
d="M141 637h174v-178h-174v178z" />
    <glyph glyph-name="cedilla" unicode="&#xb8;" horiz-adv-x="614" 
d="M505 -121q46 -37 46 -106q0 -74 -62 -121t-167 -47q-46 0 -95 9t-84 30l29 80q69 -29 154 -29q60 0 89 20t29 58q0 29 -18 44t-55 15q-42 0 -101 -20l-39 30l21 199h104l-14 -131q28 6 55 6q62 0 108 -37z" />
    <glyph glyph-name="uni00B9" unicode="&#xb9;" horiz-adv-x="778" 
d="M498 682h153v-98h-422v98h154v639l-143 -92v125l166 104h92v-776z" />
    <glyph glyph-name="ordmasculine" unicode="&#xba;" horiz-adv-x="688" 
d="M129 930q-80 86 -80 229q0 140 80 225q80 84 215 84q133 0 214 -85t81 -224q0 -143 -81 -229t-214 -86q-135 0 -215 86zM475 996q45 57 45 163q0 102 -45 159q-44 56 -131 56t-131 -56q-45 -57 -45 -159q0 -106 45 -163q44 -56 131 -56t131 56z" />
    <glyph glyph-name="guillemotright" unicode="&#xbb;" horiz-adv-x="860" 
d="M186 182h-123l261 367l-265 366h125l271 -368zM537 182h-123l260 367l-264 366h125l270 -368z" />
    <glyph glyph-name="onequarter" unicode="&#xbc;" horiz-adv-x="1900" 
d="M498 682h153v-98h-422v98h154v639l-143 -92v125l166 104h92v-776zM567 -47l-100 55l866 1497l99 -55zM1849 281v-97h-131v-184h-119v184h-399v88l420 602h98v-593h131zM1317 281h282v403z" />
    <glyph glyph-name="onehalf" unicode="&#xbd;" horiz-adv-x="1900" 
d="M498 682h153v-98h-422v98h154v639l-143 -92v125l166 104h92v-776zM567 -47l-100 55l866 1497l99 -55zM1802 98v-98h-567v88l301 334q59 65 87 119t28 106q0 69 -40 103t-110 34q-58 0 -120 -26t-124 -74l-55 86q63 53 140 82q84 31 167 31q122 0 192 -64q68 -62 68 -168
q0 -76 -34 -144t-113 -153l-238 -256h418z" />
    <glyph glyph-name="threequarters" unicode="&#xbe;" horiz-adv-x="1900" 
d="M623 958q41 -53 41 -137q0 -115 -78 -179q-77 -64 -209 -64q-87 0 -168 31t-139 83l55 84q62 -47 125 -74q61 -26 123 -26q85 0 131 37q47 38 47 114q0 152 -193 152h-104v96h84q91 0 140 40q50 41 50 116q0 68 -40 102q-41 35 -107 35q-119 0 -246 -100l-55 86
q61 50 140 81q80 31 163 31q125 0 194 -63q68 -62 68 -164q0 -75 -38 -128q-37 -52 -99 -79q74 -21 115 -74zM567 -47l-100 55l866 1497l99 -55zM1849 281v-97h-131v-184h-119v184h-399v88l420 602h98v-593h131zM1317 281h282v403z" />
    <glyph glyph-name="questiondown" unicode="&#xbf;" horiz-adv-x="901" 
d="M395 827v177h176v-177h-176zM164 -301q-107 86 -107 223q0 110 46 181q47 72 139 163q50 50 100 108q38 44 66 105q28 60 34 139l4 29h78v-37q0 -94 -25 -163q-25 -68 -64 -120q-45 -59 -97 -114q-73 -76 -113 -140q-37 -59 -37 -145q0 -89 69 -146q68 -56 181 -56
q145 0 283 81v-122q-131 -72 -285 -72q-165 0 -272 86z" />
    <glyph glyph-name="Agrave" unicode="&#xc0;" horiz-adv-x="1488" 
d="M1305 0l-166 389h-787l-168 -389h-131l635 1458h115l633 -1458h-131zM399 500h691l-345 805zM696 1583l-264 309h154l207 -309h-97z" />
    <glyph glyph-name="Aacute" unicode="&#xc1;" horiz-adv-x="1488" 
d="M1305 0l-166 389h-787l-168 -389h-131l635 1458h115l633 -1458h-131zM399 500h691l-345 805zM793 1583h-97l207 309h154z" />
    <glyph glyph-name="Acircumflex" unicode="&#xc2;" horiz-adv-x="1488" 
d="M1305 0l-166 389h-787l-168 -389h-131l635 1458h115l633 -1458h-131zM399 500h691l-345 805zM588 1583h-129l237 309h97l237 -309h-129l-156 223z" />
    <glyph glyph-name="Atilde" unicode="&#xc3;" horiz-adv-x="1488" 
d="M1305 0l-166 389h-787l-168 -389h-131l635 1458h115l633 -1458h-131zM399 500h691l-345 805zM466 1795q46 58 128 58q45 0 82 -17q40 -19 94 -52q41 -26 70 -40q26 -13 51 -13q48 0 73 34t25 82h80q0 -103 -46 -159q-47 -58 -128 -58q-43 0 -83 18q-46 20 -93 50
q-35 22 -72 40q-22 11 -49 11q-48 0 -73 -33q-25 -32 -25 -80h-80q0 101 46 159z" />
    <glyph glyph-name="Adieresis" unicode="&#xc4;" horiz-adv-x="1488" 
d="M1305 0l-166 389h-787l-168 -389h-131l635 1458h115l633 -1458h-131zM399 500h691l-345 805zM496 1815h153v-150h-153v150zM840 1815h153v-150h-153v150z" />
    <glyph glyph-name="Aring" unicode="&#xc5;" horiz-adv-x="1488" 
d="M1139 389h-787l-168 -389h-131l615 1411q-59 23 -93 72t-34 112q0 85 60 143q59 58 144 58q86 0 145 -58q60 -58 60 -143q0 -62 -35 -112q-34 -49 -92 -72l613 -1411h-131zM672 1671q-29 -31 -29 -76q0 -44 29 -75t73 -31q45 0 74 31t29 75q0 45 -29 76t-74 31
q-44 0 -73 -31zM399 500h691l-345 805z" />
    <glyph glyph-name="AE" unicode="&#xc6;" horiz-adv-x="2045" 
d="M1935 1348h-796l51 -551h704v-113h-694l53 -573h682v-111h-784l-37 389h-733l-231 -389h-138l879 1458h1044v-110zM1104 500l-78 848h-78l-502 -848h658z" />
    <glyph glyph-name="Ccedilla" unicode="&#xc7;" horiz-adv-x="1400" 
d="M1028 138q104 42 209 136l53 -100q-85 -89 -205 -138q-117 -47 -262 -52l-8 -74q29 6 55 6q62 0 108 -37t46 -106q0 -75 -61 -121q-62 -47 -168 -47q-45 0 -95 9t-84 30l29 80q69 -29 154 -29q60 0 89 20q30 21 30 58q0 28 -19 44q-18 15 -55 15q-42 0 -101 -20l-38 30
l14 146q-273 24 -430 220q-156 195 -156 523q0 228 80 397t229 257q153 90 353 90q148 0 277 -49q128 -49 218 -142l-53 -100q-105 94 -209 136q-105 42 -233 42q-253 0 -392 -165q-139 -164 -139 -466q0 -303 138 -469t393 -166q128 0 233 42z" />
    <glyph glyph-name="Egrave" unicode="&#xc8;" horiz-adv-x="1198" 
d="M188 0v1458h899v-108h-774v-553h734v-113h-734v-575h774v-109h-899zM616 1583l-264 309h154l207 -309h-97z" />
    <glyph glyph-name="Eacute" unicode="&#xc9;" horiz-adv-x="1198" 
d="M188 0v1458h899v-108h-774v-553h734v-113h-734v-575h774v-109h-899zM713 1583h-97l207 309h154z" />
    <glyph glyph-name="Ecircumflex" unicode="&#xca;" horiz-adv-x="1198" 
d="M188 0v1458h899v-108h-774v-553h734v-113h-734v-575h774v-109h-899zM508 1583h-129l237 309h97l237 -309h-129l-155 223z" />
    <glyph glyph-name="Edieresis" unicode="&#xcb;" horiz-adv-x="1198" 
d="M188 0v1458h899v-108h-774v-553h734v-113h-734v-575h774v-109h-899zM416 1815h153v-150h-153v150zM760 1815h153v-150h-153v150z" />
    <glyph glyph-name="Igrave" unicode="&#xcc;" horiz-adv-x="503" 
d="M188 0v1458h127v-1458h-127zM203 1583l-264 309h153l207 -309h-96z" />
    <glyph glyph-name="Iacute" unicode="&#xcd;" horiz-adv-x="503" 
d="M188 0v1458h127v-1458h-127zM299 1583h-96l207 309h153z" />
    <glyph glyph-name="Icircumflex" unicode="&#xce;" horiz-adv-x="503" 
d="M188 0v1458h127v-1458h-127zM94 1583h-129l238 309h96l238 -309h-129l-156 223z" />
    <glyph glyph-name="Idieresis" unicode="&#xcf;" horiz-adv-x="503" 
d="M188 0v1458h127v-1458h-127zM2 1815h154v-150h-154v150zM346 1815h154v-150h-154v150z" />
    <glyph glyph-name="Eth" unicode="&#xd0;" horiz-adv-x="1531" 
d="M1210 1270q189 -189 189 -539q0 -349 -190 -541q-189 -190 -533 -190h-469v686h-195v107h195v665h469q346 0 534 -188zM1116 267q150 156 150 464q0 617 -596 617h-336v-555h401v-107h-401v-575h336q296 0 446 156z" />
    <glyph glyph-name="Ntilde" unicode="&#xd1;" horiz-adv-x="1519" 
d="M1212 1458h119v-1458h-98l-926 1243v-1243h-119v1458h101l923 -1243v1243zM482 1795q46 58 128 58q45 0 82 -17q40 -19 94 -52q41 -26 70 -40q26 -13 51 -13q48 0 73 34q26 35 26 82h79q0 -103 -46 -159q-47 -58 -128 -58q-43 0 -83 18q-46 20 -93 50q-40 24 -71 40
q-22 11 -50 11q-46 0 -72 -33q-26 -34 -26 -80h-80q0 101 46 159z" />
    <glyph glyph-name="Ograve" unicode="&#xd2;" horiz-adv-x="1566" 
d="M437 74q-145 89 -225 258q-79 167 -79 397q0 229 78 397q78 169 224 258q149 91 347 91q199 0 348 -91q148 -91 226 -257q78 -167 78 -396q0 -230 -79 -398q-79 -169 -226 -259t-347 -90q-198 0 -345 90zM1164 262q136 166 136 469t-135 467t-383 164q-246 0 -382 -165
q-136 -164 -136 -466t136 -468q137 -167 382 -167q246 0 382 166zM733 1583l-264 309h154l206 -309h-96z" />
    <glyph glyph-name="Oacute" unicode="&#xd3;" horiz-adv-x="1566" 
d="M437 74q-145 89 -225 258q-79 167 -79 397q0 229 78 397q78 169 224 258q149 91 347 91q199 0 348 -91q148 -91 226 -257q78 -167 78 -396q0 -230 -79 -398q-79 -169 -226 -259t-347 -90q-198 0 -345 90zM1164 262q136 166 136 469t-135 467t-383 164q-246 0 -382 -165
q-136 -164 -136 -466t136 -468q137 -167 382 -167q246 0 382 166zM829 1583h-96l207 309h154z" />
    <glyph glyph-name="Ocircumflex" unicode="&#xd4;" horiz-adv-x="1566" 
d="M437 74q-145 89 -225 258q-79 167 -79 397q0 229 78 397q78 169 224 258q149 91 347 91q199 0 348 -91q148 -91 226 -257q78 -167 78 -396q0 -230 -79 -398q-79 -169 -226 -259t-347 -90q-198 0 -345 90zM1164 262q136 166 136 469t-135 467t-383 164q-246 0 -382 -165
q-136 -164 -136 -466t136 -468q137 -167 382 -167q246 0 382 166zM625 1583h-129l237 309h96l238 -309h-129l-156 223z" />
    <glyph glyph-name="Otilde" unicode="&#xd5;" horiz-adv-x="1566" 
d="M437 74q-145 89 -225 258q-79 167 -79 397q0 229 78 397q78 169 224 258q149 91 347 91q199 0 348 -91q148 -91 226 -257q78 -167 78 -396q0 -230 -79 -398q-79 -169 -226 -259t-347 -90q-198 0 -345 90zM1164 262q136 166 136 469t-135 467t-383 164q-246 0 -382 -165
q-136 -164 -136 -466t136 -468q137 -167 382 -167q246 0 382 166zM503 1795q46 58 128 58q45 0 82 -17q40 -19 94 -52q41 -26 70 -40q26 -13 51 -13q47 0 72 34q26 35 26 82h80q0 -103 -46 -159q-47 -58 -128 -58q-42 0 -83 18q-46 20 -93 50q-35 22 -72 40q-22 11 -49 11
q-47 0 -73 -33q-25 -32 -25 -80h-80q0 101 46 159z" />
    <glyph glyph-name="Odieresis" unicode="&#xd6;" horiz-adv-x="1566" 
d="M437 74q-145 89 -225 258q-79 167 -79 397q0 229 78 397q78 169 224 258q149 91 347 91q199 0 348 -91q148 -91 226 -257q78 -167 78 -396q0 -230 -79 -398q-79 -169 -226 -259t-347 -90q-198 0 -345 90zM1164 262q136 166 136 469t-135 467t-383 164q-246 0 -382 -165
q-136 -164 -136 -466t136 -468q137 -167 382 -167q246 0 382 166zM532 1815h154v-150h-154v150zM877 1815h153v-150h-153v150z" />
    <glyph glyph-name="multiply" unicode="&#xd7;" horiz-adv-x="1228" 
d="M1098 997l-410 -409l410 -412l-74 -72l-410 410l-409 -410l-74 72l410 412l-410 409l74 74l409 -409l410 409z" />
    <glyph glyph-name="Oslash" unicode="&#xd8;" horiz-adv-x="1566" 
d="M1373 1085q61 -156 61 -354q0 -230 -79 -398q-79 -169 -226 -259t-347 -90q-186 0 -325 79l-86 -147l-92 53l90 154q-113 99 -174 253q-62 156 -62 353q0 229 78 397q78 169 224 258q149 91 347 91q189 0 328 -78l86 145l92 -53l-90 -154q115 -97 175 -250zM307 438
q43 -126 123 -209l623 1065q-113 68 -271 68q-246 0 -382 -165q-136 -164 -136 -466q0 -167 43 -293zM1164 262q136 166 136 469q0 335 -163 498l-621 -1065q112 -68 266 -68q246 0 382 166z" />
    <glyph glyph-name="Ugrave" unicode="&#xd9;" horiz-adv-x="1486" 
d="M323 130q-145 148 -145 431v897h127v-911q0 -451 440 -451q216 0 327 114q112 115 112 337v911h125v-897q0 -284 -144 -431q-143 -146 -420 -146q-279 0 -422 146zM696 1583l-264 309h154l207 -309h-97z" />
    <glyph glyph-name="Uacute" unicode="&#xda;" horiz-adv-x="1486" 
d="M323 130q-145 148 -145 431v897h127v-911q0 -451 440 -451q216 0 327 114q112 115 112 337v911h125v-897q0 -284 -144 -431q-143 -146 -420 -146q-279 0 -422 146zM793 1583h-97l207 309h154z" />
    <glyph glyph-name="Ucircumflex" unicode="&#xdb;" horiz-adv-x="1486" 
d="M323 130q-145 148 -145 431v897h127v-911q0 -451 440 -451q216 0 327 114q112 115 112 337v911h125v-897q0 -284 -144 -431q-143 -146 -420 -146q-279 0 -422 146zM588 1583h-129l237 309h97l237 -309h-129l-156 223z" />
    <glyph glyph-name="Udieresis" unicode="&#xdc;" horiz-adv-x="1486" 
d="M323 130q-145 148 -145 431v897h127v-911q0 -451 440 -451q216 0 327 114q112 115 112 337v911h125v-897q0 -284 -144 -431q-143 -146 -420 -146q-279 0 -422 146zM496 1815h153v-150h-153v150zM840 1815h153v-150h-153v150z" />
    <glyph glyph-name="Yacute" unicode="&#xdd;" horiz-adv-x="1222" 
d="M1237 1458l-563 -858v-600h-127v604l-563 854h147l481 -743l482 743h143zM657 1583h-96l207 309h154z" />
    <glyph glyph-name="Thorn" unicode="&#xde;" horiz-adv-x="1318" 
d="M1099 1029q120 -99 120 -284q0 -186 -121 -288q-123 -103 -338 -103h-445v-354h-127v1458h127v-330h445q219 0 339 -99zM1006 532q84 69 84 213q0 139 -83 207t-255 68h-437v-557h437q170 0 254 69z" />
    <glyph glyph-name="germandbls" unicode="&#xdf;" horiz-adv-x="1261" 
d="M1190 315q0 -153 -99 -241q-98 -88 -272 -88q-110 0 -209 36q-101 37 -168 101l52 96q83 -64 163 -95q78 -30 162 -30q120 0 183 57t63 164q0 123 -118 214t-408 169v99q194 78 272 172q78 95 78 223q0 104 -65 161q-63 56 -185 56q-169 0 -258 -92q-88 -91 -88 -277
v-1040h-123v1030q0 236 122 361t345 125q174 0 274 -86q99 -85 99 -240q0 -143 -76 -247t-252 -181q508 -123 508 -447z" />
    <glyph glyph-name="agrave" unicode="&#xe0;" horiz-adv-x="1210" 
d="M1040 1026v-1026h-125v197q-46 -104 -136 -157q-91 -54 -218 -54q-137 0 -240 64t-160 184t-57 280q0 158 58 282q57 122 161 188q105 67 238 67q122 0 216 -54q91 -52 138 -155v184h125zM827 207q88 110 88 311q0 203 -88 313q-89 111 -249 111q-162 0 -252 -114
t-90 -314q0 -198 90 -308t254 -110q158 0 247 111zM557 1161l-270 416h159l207 -416h-96z" />
    <glyph glyph-name="aacute" unicode="&#xe1;" horiz-adv-x="1210" 
d="M1040 1026v-1026h-125v197q-46 -104 -136 -157q-91 -54 -218 -54q-137 0 -240 64t-160 184t-57 280q0 158 58 282q57 122 161 188q105 67 238 67q122 0 216 -54q91 -52 138 -155v184h125zM827 207q88 110 88 311q0 203 -88 313q-89 111 -249 111q-162 0 -252 -114
t-90 -314q0 -198 90 -308t254 -110q158 0 247 111zM653 1161h-96l207 416h160z" />
    <glyph glyph-name="acircumflex" unicode="&#xe2;" horiz-adv-x="1210" 
d="M1040 1026v-1026h-125v197q-46 -104 -136 -157q-91 -54 -218 -54q-137 0 -240 64t-160 184t-57 280q0 158 58 282q57 122 161 188q105 67 238 67q122 0 216 -54q91 -52 138 -155v184h125zM827 207q88 110 88 311q0 203 -88 313q-89 111 -249 111q-162 0 -252 -114
t-90 -314q0 -198 90 -308t254 -110q158 0 247 111zM449 1161h-130l236 416h100l236 -416h-129l-156 312z" />
    <glyph glyph-name="atilde" unicode="&#xe3;" horiz-adv-x="1210" 
d="M1040 1026v-1026h-125v197q-46 -104 -136 -157q-91 -54 -218 -54q-137 0 -240 64t-160 184t-57 280q0 158 58 282q57 122 161 188q105 67 238 67q122 0 216 -54q91 -52 138 -155v184h125zM827 207q88 110 88 311q0 203 -88 313q-89 111 -249 111q-162 0 -252 -114
t-90 -314q0 -198 90 -308t254 -110q158 0 247 111zM327 1425q47 58 128 58q43 0 82 -18q40 -19 94 -52q40 -24 71 -40q22 -11 50 -11q47 0 72 34q26 35 26 81h80q0 -104 -46 -160q-46 -57 -128 -57q-45 0 -82 17q-40 19 -94 52q-35 22 -72 40q-22 11 -49 11q-49 0 -73 -33
q-26 -35 -26 -81h-79q0 103 46 159z" />
    <glyph glyph-name="adieresis" unicode="&#xe4;" horiz-adv-x="1210" 
d="M1040 1026v-1026h-125v197q-46 -104 -136 -157q-91 -54 -218 -54q-137 0 -240 64t-160 184t-57 280q0 158 58 282q57 122 161 188q105 67 238 67q122 0 216 -54q91 -52 138 -155v184h125zM827 207q88 110 88 311q0 203 -88 313q-89 111 -249 111q-162 0 -252 -114
t-90 -314q0 -198 90 -308t254 -110q158 0 247 111zM356 1446h154v-152h-154v152zM700 1446h154v-152h-154v152z" />
    <glyph glyph-name="aring" unicode="&#xe5;" horiz-adv-x="1210" 
d="M1040 1026v-1026h-125v197q-46 -104 -136 -157q-91 -54 -218 -54q-137 0 -240 64t-160 184t-57 280q0 158 58 282q57 122 161 188q105 67 238 67q122 0 216 -54q91 -52 138 -155v184h125zM827 207q88 110 88 311q0 203 -88 313q-89 111 -249 111q-162 0 -252 -114
t-90 -314q0 -198 90 -308t254 -110q158 0 247 111zM461 1227q-60 57 -60 143q0 81 61 139t144 58t144 -58q59 -56 59 -139q0 -87 -59 -143q-61 -58 -144 -58q-84 0 -145 58zM680 1292q29 31 29 78q0 44 -30 74q-31 31 -73 31q-44 0 -75 -31q-29 -29 -29 -74q0 -49 29 -78
q30 -30 75 -30q46 0 74 30z" />
    <glyph glyph-name="ae" unicode="&#xe6;" horiz-adv-x="1814" 
d="M954 528v-8q0 -203 96 -314q95 -110 271 -110q173 0 330 127l47 -98q-66 -60 -170 -100q-102 -39 -205 -39q-160 0 -271 72q-112 73 -165 210q-38 -134 -137 -208t-242 -74q-103 0 -190 41q-84 40 -133 113q-48 72 -48 167q0 113 59 183q59 69 190 102q132 33 357 33h84
v39q0 148 -56 213t-185 65q-178 0 -359 -113l-47 97q75 56 185 91q106 34 215 34q272 0 344 -205q60 99 155 151q99 54 217 54q198 0 309 -132t111 -368v-23h-762zM1072 862q-86 -85 -109 -237h636q-15 159 -93 240q-80 83 -212 83q-134 0 -222 -86zM740 190q87 96 87 250
v88h-79q-182 0 -287 -21q-104 -21 -149 -69q-44 -47 -44 -125q0 -97 70 -158t178 -61q137 0 224 96z" />
    <glyph glyph-name="ccedilla" unicode="&#xe7;" horiz-adv-x="1003" 
d="M797 27q-87 -36 -187 -41l-8 -76q28 6 55 6q62 0 108 -37t46 -106q0 -75 -61 -121q-62 -47 -168 -47q-46 0 -95 9t-84 30l29 80q69 -29 154 -29q60 0 89 20q30 21 30 58q0 28 -19 44q-18 15 -55 15q-42 0 -101 -20l-38 30l14 150q-186 24 -294 165t-108 357q0 160 60 282
q61 123 170 188q113 67 256 67q106 0 200 -36q93 -35 156 -100l-49 -98q-76 63 -153 95q-72 30 -150 30q-166 0 -262 -114t-96 -314q0 -195 95 -307q95 -111 263 -111q78 0 150 30q75 31 153 93l49 -96q-58 -58 -149 -96z" />
    <glyph glyph-name="egrave" unicode="&#xe8;" horiz-adv-x="1112" 
d="M236 528v-6q0 -206 95 -316t277 -110q186 0 338 127l49 -98q-69 -64 -172 -101q-106 -38 -215 -38q-233 0 -368 141q-136 142 -136 389q0 156 61 280q60 121 169 188q110 67 250 67q202 0 316 -131q114 -130 114 -365v-27h-778zM354 863q-87 -84 -110 -238h651
q-12 157 -92 240t-219 83q-142 0 -230 -85zM535 1161l-271 416h160l207 -416h-96z" />
    <glyph glyph-name="eacute" unicode="&#xe9;" horiz-adv-x="1112" 
d="M236 528v-6q0 -206 95 -316t277 -110q186 0 338 127l49 -98q-69 -64 -172 -101q-106 -38 -215 -38q-233 0 -368 141q-136 142 -136 389q0 156 61 280q60 121 169 188q110 67 250 67q202 0 316 -131q114 -130 114 -365v-27h-778zM354 863q-87 -84 -110 -238h651
q-12 157 -92 240t-219 83q-142 0 -230 -85zM631 1161h-96l206 416h160z" />
    <glyph glyph-name="ecircumflex" unicode="&#xea;" horiz-adv-x="1112" 
d="M236 528v-6q0 -206 95 -316t277 -110q186 0 338 127l49 -98q-69 -64 -172 -101q-106 -38 -215 -38q-233 0 -368 141q-136 142 -136 389q0 156 61 280q60 121 169 188q110 67 250 67q202 0 316 -131q114 -130 114 -365v-27h-778zM354 863q-87 -84 -110 -238h651
q-12 157 -92 240t-219 83q-142 0 -230 -85zM426 1161h-129l235 416h101l235 -416h-129l-155 312z" />
    <glyph glyph-name="edieresis" unicode="&#xeb;" horiz-adv-x="1112" 
d="M236 528v-6q0 -206 95 -316t277 -110q186 0 338 127l49 -98q-69 -64 -172 -101q-106 -38 -215 -38q-233 0 -368 141q-136 142 -136 389q0 156 61 280q60 121 169 188q110 67 250 67q202 0 316 -131q114 -130 114 -365v-27h-778zM354 863q-87 -84 -110 -238h651
q-12 157 -92 240t-219 83q-142 0 -230 -85zM334 1446h153v-152h-153v152zM678 1446h153v-152h-153v152z" />
    <glyph glyph-name="igrave" unicode="&#xec;" horiz-adv-x="466" 
d="M170 0v1026h123v-1026h-123zM186 1161l-270 416h160l207 -416h-97z" />
    <glyph glyph-name="iacute" unicode="&#xed;" horiz-adv-x="466" 
d="M170 0v1026h123v-1026h-123zM283 1161h-97l207 416h160z" />
    <glyph glyph-name="icircumflex" unicode="&#xee;" horiz-adv-x="466" 
d="M170 0v1026h123v-1026h-123zM78 1161h-129l235 416h101l235 -416h-129l-155 312z" />
    <glyph glyph-name="idieresis" unicode="&#xef;" horiz-adv-x="466" 
d="M170 0v1026h123v-1026h-123zM-14 1446h153v-152h-153v152zM330 1446h153v-152h-153v152z" />
    <glyph glyph-name="eth" unicode="&#xf0;" horiz-adv-x="1159" 
d="M1055 602q0 -303 -122 -460q-121 -156 -360 -156q-139 0 -245 60t-165 171q-59 112 -59 256q0 146 59 258q59 111 165 171q108 61 245 61q240 0 349 -175q-39 256 -209 426l-330 -129l-31 91l277 108q-123 89 -293 139l35 97q223 -63 377 -191l270 107l31 -90l-226 -89
q232 -244 232 -655zM826 197q92 101 92 276q0 177 -91 279q-90 100 -249 100q-162 0 -252 -99t-90 -280q0 -182 88 -279q89 -98 251 -98q159 0 251 101z" />
    <glyph glyph-name="ntilde" unicode="&#xf1;" horiz-adv-x="1183" 
d="M1018 653v-653h-125v645q0 153 -63 225t-195 72q-154 0 -248 -94t-94 -254v-594h-123v741q0 164 -16 285h118l17 -188q46 104 141 158q96 55 217 55q371 0 371 -398zM312 1425q47 58 128 58q43 0 82 -18q40 -19 94 -52q35 -22 72 -40q22 -11 49 -11q48 0 73 34
q26 35 26 81h79q0 -104 -46 -160q-47 -57 -128 -57q-45 0 -82 17q-40 19 -94 52q-40 24 -71 40q-22 11 -50 11q-48 0 -72 -33q-26 -35 -26 -81h-80q0 103 46 159z" />
    <glyph glyph-name="ograve" unicode="&#xf2;" horiz-adv-x="1150" 
d="M329 51q-108 66 -166 187q-59 123 -59 280q0 158 59 281q58 120 166 186t249 66q138 0 245 -66q108 -67 165 -186q59 -123 59 -281q0 -157 -59 -280q-58 -121 -165 -187q-105 -65 -245 -65q-143 0 -249 65zM828 206q90 111 90 312q0 200 -91 312t-249 112
q-161 0 -252 -112q-90 -111 -90 -312q0 -206 88 -313q89 -109 251 -109q164 0 253 110zM528 1161l-270 416h160l207 -416h-97z" />
    <glyph glyph-name="oacute" unicode="&#xf3;" horiz-adv-x="1150" 
d="M329 51q-108 66 -166 187q-59 123 -59 280q0 158 59 281q58 120 166 186t249 66q138 0 245 -66q108 -67 165 -186q59 -123 59 -281q0 -157 -59 -280q-58 -121 -165 -187q-105 -65 -245 -65q-143 0 -249 65zM828 206q90 111 90 312q0 200 -91 312t-249 112
q-161 0 -252 -112q-90 -111 -90 -312q0 -206 88 -313q89 -109 251 -109q164 0 253 110zM625 1161h-97l207 416h160z" />
    <glyph glyph-name="ocircumflex" unicode="&#xf4;" horiz-adv-x="1150" 
d="M329 51q-108 66 -166 187q-59 123 -59 280q0 158 59 281q58 120 166 186t249 66q138 0 245 -66q108 -67 165 -186q59 -123 59 -281q0 -157 -59 -280q-58 -121 -165 -187q-105 -65 -245 -65q-143 0 -249 65zM828 206q90 111 90 312q0 200 -91 312t-249 112
q-161 0 -252 -112q-90 -111 -90 -312q0 -206 88 -313q89 -109 251 -109q164 0 253 110zM420 1161h-129l235 416h101l235 -416h-129l-155 312z" />
    <glyph glyph-name="otilde" unicode="&#xf5;" horiz-adv-x="1150" 
d="M329 51q-108 66 -166 187q-59 123 -59 280q0 158 59 281q58 120 166 186t249 66q138 0 245 -66q108 -67 165 -186q59 -123 59 -281q0 -157 -59 -280q-58 -121 -165 -187q-105 -65 -245 -65q-143 0 -249 65zM828 206q90 111 90 312q0 200 -91 312t-249 112
q-161 0 -252 -112q-90 -111 -90 -312q0 -206 88 -313q89 -109 251 -109q164 0 253 110zM298 1425q47 58 128 58q43 0 82 -18q40 -19 94 -52q35 -22 72 -40q22 -11 49 -11q48 0 73 34t25 81h80q0 -104 -46 -160q-47 -57 -128 -57q-45 0 -82 17q-40 19 -94 52q-35 22 -72 40
q-22 11 -49 11q-49 0 -73 -33q-25 -34 -25 -81h-80q0 103 46 159z" />
    <glyph glyph-name="odieresis" unicode="&#xf6;" horiz-adv-x="1150" 
d="M329 51q-108 66 -166 187q-59 123 -59 280q0 158 59 281q58 120 166 186t249 66q138 0 245 -66q108 -67 165 -186q59 -123 59 -281q0 -157 -59 -280q-58 -121 -165 -187q-105 -65 -245 -65q-143 0 -249 65zM828 206q90 111 90 312q0 200 -91 312t-249 112
q-161 0 -252 -112q-90 -111 -90 -312q0 -206 88 -313q89 -109 251 -109q164 0 253 110zM328 1446h153v-152h-153v152zM672 1446h153v-152h-153v152z" />
    <glyph glyph-name="divide" unicode="&#xf7;" horiz-adv-x="1228" 
d="M514 909v185h176v-185h-176zM1118 639v-104h-1007v104h1007zM514 80v184h176v-184h-176z" />
    <glyph glyph-name="oslash" unicode="&#xf8;" horiz-adv-x="1150" 
d="M1004 764q43 -107 43 -246q0 -157 -59 -280q-58 -121 -165 -187q-105 -65 -245 -65q-122 0 -224 51l-71 -123l-86 51l73 129q-79 68 -123 178q-43 107 -43 246q0 158 59 281q58 120 166 186t249 66q118 0 219 -52l69 121l90 -47l-75 -131q79 -68 123 -178zM330 197
l411 706q-69 39 -163 39q-161 0 -253 -112t-92 -312q0 -213 97 -321zM828 206q90 111 90 312q0 207 -97 322l-411 -707q68 -37 165 -37q164 0 253 110z" />
    <glyph glyph-name="ugrave" unicode="&#xf9;" horiz-adv-x="1165" 
d="M995 1026v-1026h-121v186q-49 -98 -139 -149t-207 -51q-181 0 -272 100q-92 101 -92 297v643h123v-635q0 -152 61 -223q62 -72 191 -72q151 0 241 95t90 253v582h125zM532 1161l-270 416h160l207 -416h-97z" />
    <glyph glyph-name="uacute" unicode="&#xfa;" horiz-adv-x="1165" 
d="M995 1026v-1026h-121v186q-49 -98 -139 -149t-207 -51q-181 0 -272 100q-92 101 -92 297v643h123v-635q0 -152 61 -223q62 -72 191 -72q151 0 241 95t90 253v582h125zM629 1161h-97l207 416h160z" />
    <glyph glyph-name="ucircumflex" unicode="&#xfb;" horiz-adv-x="1165" 
d="M995 1026v-1026h-121v186q-49 -98 -139 -149t-207 -51q-181 0 -272 100q-92 101 -92 297v643h123v-635q0 -152 61 -223q62 -72 191 -72q151 0 241 95t90 253v582h125zM424 1161h-129l235 416h101l235 -416h-129l-155 312z" />
    <glyph glyph-name="udieresis" unicode="&#xfc;" horiz-adv-x="1165" 
d="M995 1026v-1026h-121v186q-49 -98 -139 -149t-207 -51q-181 0 -272 100q-92 101 -92 297v643h123v-635q0 -152 61 -223q62 -72 191 -72q151 0 241 95t90 253v582h125zM332 1446h153v-152h-153v152zM676 1446h153v-152h-153v152z" />
    <glyph glyph-name="yacute" unicode="&#xfd;" horiz-adv-x="1075" 
d="M1040 1026l-483 -1132q-72 -168 -179 -247t-269 -112l-25 98q145 34 222 91q75 56 126 174l43 100l-438 1028h133l371 -901l372 901h127zM586 1161h-97l207 416h160z" />
    <glyph glyph-name="thorn" unicode="&#xfe;" horiz-adv-x="1210" 
d="M884 986q103 -64 163 -186q59 -119 59 -286q0 -165 -58 -284t-163 -182q-103 -62 -236 -62q-130 0 -220 56q-91 57 -136 163v-647h-123v1949h123v-673q44 105 137 161q92 56 219 56q131 0 235 -65zM886 207q89 112 89 307q0 198 -89 313t-251 115q-163 0 -252 -111
q-88 -110 -88 -313q0 -201 88 -311q88 -111 250 -111q165 0 253 111z" />
    <glyph glyph-name="ydieresis" unicode="&#xff;" horiz-adv-x="1075" 
d="M1040 1026l-483 -1132q-72 -168 -179 -247t-269 -112l-25 98q145 34 222 91q75 56 126 174l43 100l-438 1028h133l371 -901l372 901h127zM289 1446h153v-152h-153v152zM633 1446h153v-152h-153v152z" />
    <glyph glyph-name="Amacron" unicode="&#x100;" horiz-adv-x="1488" 
d="M1305 0l-166 389h-787l-168 -389h-131l635 1458h115l633 -1458h-131zM399 500h691l-345 805zM438 1688v106h613v-106h-613z" />
    <glyph glyph-name="amacron" unicode="&#x101;" horiz-adv-x="1210" 
d="M1040 1026v-1026h-125v197q-46 -104 -136 -157q-91 -54 -218 -54q-137 0 -240 64t-160 184t-57 280q0 158 58 282q57 122 161 188q105 67 238 67q122 0 216 -54q91 -52 138 -155v184h125zM827 207q88 110 88 311q0 203 -88 313q-89 111 -249 111q-162 0 -252 -114
t-90 -314q0 -198 90 -308t254 -110q158 0 247 111zM299 1317v106h612v-106h-612z" />
    <glyph glyph-name="Abreve" unicode="&#x102;" horiz-adv-x="1488" 
d="M1305 0l-166 389h-787l-168 -389h-131l635 1458h115l633 -1458h-131zM399 500h691l-345 805zM549 1661q-86 51 -131 166l92 41q51 -89 105 -124q53 -34 130 -34q75 0 128 34q56 36 106 124l92 -41q-85 -217 -326 -217q-111 0 -196 51z" />
    <glyph glyph-name="abreve" unicode="&#x103;" horiz-adv-x="1210" 
d="M1040 1026v-1026h-125v197q-46 -104 -136 -157q-91 -54 -218 -54q-137 0 -240 64t-160 184t-57 280q0 158 58 282q57 122 161 188q105 67 238 67q122 0 216 -54q91 -52 138 -155v184h125zM827 207q88 110 88 311q0 203 -88 313q-89 111 -249 111q-162 0 -252 -114
t-90 -314q0 -198 90 -308t254 -110q158 0 247 111zM410 1289q-89 60 -134 188l95 41q46 -103 103 -145q59 -44 132 -44q71 0 130 44t104 145l94 -39q-44 -131 -131 -190q-89 -60 -197 -60q-107 0 -196 60z" />
    <glyph glyph-name="Aogonek" unicode="&#x104;" horiz-adv-x="1488" 
d="M1522 -350q-69 -45 -168 -45q-105 0 -171 60q-67 61 -67 153q0 78 42 139q42 62 124 96l-143 336h-787l-168 -389h-131l635 1458h115l633 -1458h-21q-94 0 -141 -47t-47 -121q0 -63 39 -98q40 -35 102 -35q58 0 119 37zM399 500h691l-345 805z" />
    <glyph glyph-name="aogonek" unicode="&#x105;" horiz-adv-x="1210" 
d="M1139 -358q-72 -45 -172 -45q-107 0 -173 60q-67 61 -67 157q0 85 49 147q50 64 139 98v138q-46 -104 -136 -157q-91 -54 -218 -54q-137 0 -240 64t-160 184t-57 280q0 158 58 282q57 122 161 188q105 67 238 67q122 0 216 -54q91 -52 138 -155v184h125v-1026h-10
q-84 0 -138 -48t-54 -124q0 -64 39 -101q40 -38 102 -38q55 0 125 41zM827 207q88 110 88 311q0 203 -88 313q-89 111 -249 111q-162 0 -252 -114t-90 -314q0 -198 90 -308t254 -110q158 0 247 111z" />
    <glyph glyph-name="Cacute" unicode="&#x106;" horiz-adv-x="1400" 
d="M442 73q-149 88 -229 258q-80 171 -80 400q0 228 80 397t229 257q153 90 353 90q148 0 277 -49q128 -49 218 -142l-53 -100q-105 94 -209 136q-105 42 -233 42q-253 0 -392 -165q-139 -164 -139 -466q0 -303 138 -469t393 -166q128 0 233 42q104 42 209 136l53 -100
q-90 -93 -218 -142q-126 -48 -277 -48q-202 0 -353 89zM842 1583h-97l207 309h154z" />
    <glyph glyph-name="cacute" unicode="&#x107;" horiz-adv-x="1003" 
d="M332 51q-108 66 -168 186t-60 277q0 160 60 282q61 123 170 188q113 67 256 67q106 0 200 -36q93 -35 156 -100l-49 -98q-76 63 -153 95q-72 30 -150 30q-166 0 -262 -114t-96 -314q0 -195 95 -307q95 -111 263 -111q78 0 150 30q75 31 153 93l49 -96q-65 -62 -163 -100
q-96 -37 -197 -37q-148 0 -254 65zM631 1161h-96l206 416h160z" />
    <glyph glyph-name="Ccircumflex" unicode="&#x108;" horiz-adv-x="1400" 
d="M442 73q-149 88 -229 258q-80 171 -80 400q0 228 80 397t229 257q153 90 353 90q148 0 277 -49q128 -49 218 -142l-53 -100q-105 94 -209 136q-105 42 -233 42q-253 0 -392 -165q-139 -164 -139 -466q0 -303 138 -469t393 -166q128 0 233 42q104 42 209 136l53 -100
q-90 -93 -218 -142q-126 -48 -277 -48q-202 0 -353 89zM637 1583h-129l237 309h97l237 -309h-129l-155 223z" />
    <glyph glyph-name="ccircumflex" unicode="&#x109;" horiz-adv-x="1003" 
d="M332 51q-108 66 -168 186t-60 277q0 160 60 282q61 123 170 188q113 67 256 67q106 0 200 -36q93 -35 156 -100l-49 -98q-76 63 -153 95q-72 30 -150 30q-166 0 -262 -114t-96 -314q0 -195 95 -307q95 -111 263 -111q78 0 150 30q75 31 153 93l49 -96q-65 -62 -163 -100
q-96 -37 -197 -37q-148 0 -254 65zM426 1161h-129l235 416h101l235 -416h-129l-155 312z" />
    <glyph glyph-name="Cdotaccent" unicode="&#x10a;" horiz-adv-x="1400" 
d="M442 73q-149 88 -229 258q-80 171 -80 400q0 228 80 397t229 257q153 90 353 90q148 0 277 -49q128 -49 218 -142l-53 -100q-105 94 -209 136q-105 42 -233 42q-253 0 -392 -165q-139 -164 -139 -466q0 -303 138 -469t393 -166q128 0 233 42q104 42 209 136l53 -100
q-90 -93 -218 -142q-126 -48 -277 -48q-202 0 -353 89zM711 1821h166v-160h-166v160z" />
    <glyph glyph-name="cdotaccent" unicode="&#x10b;" horiz-adv-x="1003" 
d="M332 51q-108 66 -168 186t-60 277q0 160 60 282q61 123 170 188q113 67 256 67q106 0 200 -36q93 -35 156 -100l-49 -98q-76 63 -153 95q-72 30 -150 30q-166 0 -262 -114t-96 -314q0 -195 95 -307q95 -111 263 -111q78 0 150 30q75 31 153 93l49 -96q-65 -62 -163 -100
q-96 -37 -197 -37q-148 0 -254 65zM500 1450h166v-160h-166v160z" />
    <glyph glyph-name="Ccaron" unicode="&#x10c;" horiz-adv-x="1400" 
d="M442 73q-149 88 -229 258q-80 171 -80 400q0 228 80 397t229 257q153 90 353 90q148 0 277 -49q128 -49 218 -142l-53 -100q-105 94 -209 136q-105 42 -233 42q-253 0 -392 -165q-139 -164 -139 -466q0 -303 138 -469t393 -166q128 0 233 42q104 42 209 136l53 -100
q-90 -93 -218 -142q-126 -48 -277 -48q-202 0 -353 89zM950 1892h129l-237 -309h-97l-237 309h129l158 -223z" />
    <glyph glyph-name="ccaron" unicode="&#x10d;" horiz-adv-x="1003" 
d="M332 51q-108 66 -168 186t-60 277q0 160 60 282q61 123 170 188q113 67 256 67q106 0 200 -36q93 -35 156 -100l-49 -98q-76 63 -153 95q-72 30 -150 30q-166 0 -262 -114t-96 -314q0 -195 95 -307q95 -111 263 -111q78 0 150 30q75 31 153 93l49 -96q-65 -62 -163 -100
q-96 -37 -197 -37q-148 0 -254 65zM739 1577h129l-235 -416h-101l-235 416h129l158 -313z" />
    <glyph glyph-name="Dcaron" unicode="&#x10e;" horiz-adv-x="1513" 
d="M188 1458h469q349 0 537 -188t188 -539t-189 -541t-536 -190h-469v1458zM651 111q297 0 447 156q149 155 149 464q0 617 -596 617h-336v-1237h336zM911 1892h129l-237 -309h-96l-238 309h129l158 -223z" />
    <glyph glyph-name="dcaron" unicode="&#x10f;" horiz-adv-x="1210" 
d="M915 1507h125v-1507h-125v197q-46 -104 -136 -157q-91 -54 -218 -54q-134 0 -238 66q-103 66 -161 189q-58 124 -58 281q0 160 57 280t160 184q104 65 240 65q122 0 216 -54q91 -52 138 -155v665zM1114 1507h127l-55 -399h-72v399zM827 207q88 110 88 311q0 202 -88 312
q-89 112 -247 112q-164 0 -254 -111t-90 -309q0 -200 90 -313t252 -113q160 0 249 111z" />
    <glyph glyph-name="Dcroat" unicode="&#x110;" horiz-adv-x="1531" 
d="M1210 1270q189 -189 189 -539q0 -349 -190 -541q-189 -190 -533 -190h-469v686h-195v107h195v665h469q346 0 534 -188zM1116 267q150 156 150 464q0 617 -596 617h-336v-555h401v-107h-401v-575h336q296 0 446 156z" />
    <glyph glyph-name="dcroat" unicode="&#x111;" horiz-adv-x="1210" 
d="M1239 1206h-199v-1206h-125v197q-46 -104 -136 -157q-91 -54 -218 -54q-134 0 -238 66q-103 66 -161 189q-58 124 -58 281q0 160 57 280t160 184q104 65 240 65q122 0 216 -54q91 -52 138 -155v364h-411v99h411v202h125v-202h199v-99zM827 207q88 110 88 311
q0 202 -88 312q-89 112 -247 112q-164 0 -254 -111t-90 -309q0 -200 90 -313t252 -113q160 0 249 111z" />
    <glyph glyph-name="Emacron" unicode="&#x112;" horiz-adv-x="1198" 
d="M188 0v1458h899v-108h-774v-553h734v-113h-734v-575h774v-109h-899zM358 1688v106h613v-106h-613z" />
    <glyph glyph-name="emacron" unicode="&#x113;" horiz-adv-x="1112" 
d="M236 528v-6q0 -206 95 -316t277 -110q186 0 338 127l49 -98q-69 -64 -172 -101q-106 -38 -215 -38q-233 0 -368 141q-136 142 -136 389q0 156 61 280q60 121 169 188q110 67 250 67q202 0 316 -131q114 -130 114 -365v-27h-778zM354 863q-87 -84 -110 -238h651
q-12 157 -92 240t-219 83q-142 0 -230 -85zM276 1317v106h613v-106h-613z" />
    <glyph glyph-name="Ebreve" unicode="&#x114;" horiz-adv-x="1198" 
d="M188 0v1458h899v-108h-774v-553h734v-113h-734v-575h774v-109h-899zM469 1661q-86 51 -131 166l92 41q50 -88 106 -124q53 -34 130 -34q75 0 128 34q54 35 105 124l92 -41q-85 -217 -325 -217q-112 0 -197 51z" />
    <glyph glyph-name="ebreve" unicode="&#x115;" horiz-adv-x="1112" 
d="M236 528v-6q0 -206 95 -316t277 -110q186 0 338 127l49 -98q-69 -64 -172 -101q-106 -38 -215 -38q-233 0 -368 141q-136 142 -136 389q0 156 61 280q60 121 169 188q110 67 250 67q202 0 316 -131q114 -130 114 -365v-27h-778zM354 863q-87 -84 -110 -238h651
q-12 157 -92 240t-219 83q-142 0 -230 -85zM387 1289q-88 59 -133 188l94 41q45 -101 104 -145t132 -44q71 0 130 44q57 42 103 145l94 -39q-44 -131 -131 -190q-89 -60 -196 -60q-108 0 -197 60z" />
    <glyph glyph-name="Edotaccent" unicode="&#x116;" horiz-adv-x="1198" 
d="M188 0v1458h899v-108h-774v-553h734v-113h-734v-575h774v-109h-899zM582 1821h166v-160h-166v160z" />
    <glyph glyph-name="edotaccent" unicode="&#x117;" horiz-adv-x="1112" 
d="M236 528v-6q0 -206 95 -316t277 -110q186 0 338 127l49 -98q-69 -64 -172 -101q-106 -38 -215 -38q-233 0 -368 141q-136 142 -136 389q0 156 61 280q60 121 169 188q110 67 250 67q202 0 316 -131q114 -130 114 -365v-27h-778zM354 863q-87 -84 -110 -238h651
q-12 157 -92 240t-219 83q-142 0 -230 -85zM500 1450h166v-160h-166v160z" />
    <glyph glyph-name="Eogonek" unicode="&#x118;" horiz-adv-x="1198" 
d="M1157 -350q-74 -45 -170 -45q-104 0 -170 60q-65 59 -65 153q0 110 84 182h-648v1458h899v-108h-774v-553h734v-113h-734v-575h774v-109h-26q-100 0 -149 -46q-50 -47 -50 -122q0 -63 38 -98t101 -35q59 0 121 37z" />
    <glyph glyph-name="eogonek" unicode="&#x119;" horiz-adv-x="1112" 
d="M236 528v-6q0 -206 95 -316t277 -110q186 0 338 127l49 -96q-14 -15 -36 -31q-20 -14 -68 -39q-112 -64 -153 -112q-44 -52 -44 -117q0 -63 38 -101t104 -38q58 0 125 41l34 -88q-72 -45 -172 -45q-107 0 -174 60t-67 157q0 102 80 176q-15 -4 -54 -4q-233 0 -368 141
q-136 142 -136 389q0 156 61 280q60 121 169 188q110 67 250 67q202 0 316 -131q114 -130 114 -365v-27h-778zM353 863q-89 -86 -111 -238h653q-12 157 -92 240t-219 83q-143 0 -231 -85z" />
    <glyph glyph-name="Ecaron" unicode="&#x11a;" horiz-adv-x="1198" 
d="M188 0v1458h899v-108h-774v-553h734v-113h-734v-575h774v-109h-899zM821 1892h129l-237 -309h-97l-237 309h129l158 -223z" />
    <glyph glyph-name="ecaron" unicode="&#x11b;" horiz-adv-x="1112" 
d="M236 528v-6q0 -206 95 -316t277 -110q186 0 338 127l49 -98q-69 -64 -172 -101q-106 -38 -215 -38q-233 0 -368 141q-136 142 -136 389q0 156 61 280q60 121 169 188q110 67 250 67q202 0 316 -131q114 -130 114 -365v-27h-778zM354 863q-87 -84 -110 -238h651
q-12 157 -92 240t-219 83q-142 0 -230 -85zM739 1577h129l-235 -416h-101l-235 416h129l158 -313z" />
    <glyph glyph-name="Gcircumflex" unicode="&#x11c;" horiz-adv-x="1486" 
d="M1315 748v-666q-81 -44 -219 -71q-140 -27 -281 -27q-212 0 -366 89t-235 257t-81 401q0 231 81 399t232 256q152 89 359 89q309 0 495 -191l-53 -100q-104 94 -210 136q-105 42 -234 42q-258 0 -399 -164q-140 -162 -140 -467q0 -309 143 -473t410 -164q206 0 383 68
v477h-385v109h500zM643 1583h-129l238 309h96l237 -309h-129l-155 223z" />
    <glyph glyph-name="gcircumflex" unicode="&#x11d;" horiz-adv-x="1218" 
d="M1049 1026v-1030q0 -224 -111 -338q-112 -115 -326 -115q-230 0 -399 111l25 108q101 -60 184 -84q84 -24 192 -24q154 0 233 84q79 83 79 246v264q-45 -102 -140 -161q-90 -56 -221 -56q-135 0 -239 64t-163 180t-59 266q0 151 59 267q59 117 163 179q107 64 239 64
q126 0 220 -54q93 -53 139 -155v184h125zM833 250q91 106 91 291q0 187 -91 294t-251 107q-163 0 -254 -107q-92 -109 -92 -294q0 -186 92 -292t254 -106q159 0 251 107zM457 1161h-129l235 416h101l235 -416h-129l-156 312z" />
    <glyph glyph-name="Gbreve" unicode="&#x11e;" horiz-adv-x="1486" 
d="M1315 748v-666q-81 -44 -219 -71q-140 -27 -281 -27q-212 0 -366 89t-235 257t-81 401q0 231 81 399t232 256q152 89 359 89q309 0 495 -191l-53 -100q-104 94 -210 136q-105 42 -234 42q-258 0 -399 -164q-140 -162 -140 -467q0 -309 143 -473t410 -164q206 0 383 68
v477h-385v109h500zM604 1661q-86 51 -131 166l92 41q50 -88 106 -124q53 -34 130 -34q75 0 128 34q54 35 105 124l92 -41q-85 -217 -325 -217q-111 0 -197 51z" />
    <glyph glyph-name="gbreve" unicode="&#x11f;" horiz-adv-x="1218" 
d="M1049 1026v-1030q0 -224 -111 -338q-112 -115 -326 -115q-230 0 -399 111l25 108q101 -60 184 -84q84 -24 192 -24q154 0 233 84q79 83 79 246v264q-45 -102 -140 -161q-90 -56 -221 -56q-135 0 -239 64t-163 180t-59 266q0 151 59 267q59 117 163 179q107 64 239 64
q126 0 220 -54q93 -53 139 -155v184h125zM833 250q91 106 91 291q0 187 -91 294t-251 107q-163 0 -254 -107q-92 -109 -92 -294q0 -186 92 -292t254 -106q159 0 251 107zM418 1289q-88 59 -133 188l94 41q46 -103 103 -145q59 -44 132 -44q71 0 130 44t104 145l94 -39
q-44 -131 -131 -190q-89 -60 -197 -60t-196 60z" />
    <glyph glyph-name="Gdotaccent" unicode="&#x120;" horiz-adv-x="1486" 
d="M1315 748v-666q-81 -44 -219 -71q-140 -27 -281 -27q-212 0 -366 89t-235 257t-81 401q0 231 81 399t232 256q152 89 359 89q309 0 495 -191l-53 -100q-104 94 -210 136q-105 42 -234 42q-258 0 -399 -164q-140 -162 -140 -467q0 -309 143 -473t410 -164q206 0 383 68
v477h-385v109h500zM717 1821h166v-160h-166v160z" />
    <glyph glyph-name="gdotaccent" unicode="&#x121;" horiz-adv-x="1218" 
d="M1049 1026v-1030q0 -224 -111 -338q-112 -115 -326 -115q-230 0 -399 111l25 108q101 -60 184 -84q84 -24 192 -24q154 0 233 84q79 83 79 246v264q-45 -102 -140 -161q-90 -56 -221 -56q-135 0 -239 64t-163 180t-59 266q0 151 59 267q59 117 163 179q107 64 239 64
q126 0 220 -54q93 -53 139 -155v184h125zM833 250q91 106 91 291q0 187 -91 294t-251 107q-163 0 -254 -107q-92 -109 -92 -294q0 -186 92 -292t254 -106q159 0 251 107zM530 1450h166v-160h-166v160z" />
    <glyph glyph-name="Gcommaaccent" unicode="&#x122;" horiz-adv-x="1486" 
d="M1315 748v-666q-81 -44 -219 -71q-140 -27 -281 -27q-212 0 -366 89t-235 257t-81 401q0 231 81 399t232 256q152 89 359 89q309 0 495 -191l-53 -100q-104 94 -210 136q-105 42 -234 42q-258 0 -399 -164q-140 -162 -140 -467q0 -309 143 -473t410 -164q206 0 383 68
v477h-385v109h500zM901 -154v-114q0 -79 -22 -141q-22 -61 -78 -119l-66 51q44 47 57 83q16 42 17 89h-82v151h174z" />
    <glyph glyph-name="gcommaaccent" unicode="&#x123;" horiz-adv-x="1218" 
d="M1049 1026v-1030q0 -224 -111 -338q-112 -115 -326 -115q-230 0 -399 111l25 108q101 -60 184 -84q84 -24 192 -24q154 0 233 84q79 83 79 246v264q-45 -102 -140 -161q-90 -56 -221 -56q-135 0 -239 64t-163 180t-59 266q0 151 59 267q59 117 163 179q107 64 239 64
q126 0 220 -54q93 -53 139 -155v184h125zM833 250q91 106 91 291q0 187 -91 294t-251 107q-163 0 -254 -107q-92 -109 -92 -294q0 -186 92 -292t254 -106q159 0 251 107zM700 1372v-151h-174v114q0 77 23 141q22 61 78 119l65 -51q-42 -45 -56 -83q-17 -45 -18 -89h82z" />
    <glyph glyph-name="Hcircumflex" unicode="&#x124;" horiz-adv-x="1560" 
d="M1245 1458h127v-1458h-127v684h-930v-684h-127v1458h127v-661h930v661zM623 1583h-129l237 309h96l238 -309h-129l-156 223z" />
    <glyph glyph-name="hcircumflex" unicode="&#x125;" horiz-adv-x="1183" 
d="M1018 653v-653h-125v645q0 153 -63 225t-195 72q-154 0 -248 -94t-94 -254v-594h-123v1507h123v-659q49 100 141 151q93 52 213 52q371 0 371 -398zM76 1632h-129l237 310h97l237 -310h-129l-156 223z" />
    <glyph glyph-name="Hbar" unicode="&#x126;" horiz-adv-x="1597" 
d="M1585 1190v-107h-194v-1083h-129v684h-928v-684h-127v1083h-195v107h195v268h127v-268h928v268h129v-268h194zM1262 797v286h-928v-286h928z" />
    <glyph glyph-name="hbar" unicode="&#x127;" horiz-adv-x="1183" 
d="M1018 653v-653h-125v645q0 153 -63 225t-195 72q-154 0 -248 -94t-94 -254v-594h-123v1206h-199v99h199v202h123v-202h416v-99h-416v-358q49 100 141 151q93 52 213 52q371 0 371 -398z" />
    <glyph glyph-name="Itilde" unicode="&#x128;" horiz-adv-x="503" 
d="M188 0v1458h127v-1458h-127zM-28 1795q46 58 128 58q45 0 82 -17q40 -19 94 -52q41 -26 70 -40q26 -13 51 -13q48 0 73 34q26 35 26 82h79q0 -103 -46 -159q-47 -58 -128 -58q-43 0 -83 18q-46 20 -93 50q-40 24 -71 40q-22 11 -50 11q-46 0 -72 -33q-26 -34 -26 -80h-80
q0 101 46 159z" />
    <glyph glyph-name="itilde" unicode="&#x129;" horiz-adv-x="466" 
d="M170 0v1026h123v-1026h-123zM-44 1425q47 58 128 58q43 0 82 -18q40 -19 94 -52q35 -22 72 -40q22 -11 49 -11q48 0 73 34t25 81h80q0 -104 -46 -160q-47 -57 -128 -57q-45 0 -82 17q-40 19 -94 52q-35 22 -72 40q-22 11 -49 11q-49 0 -73 -33q-25 -34 -25 -81h-80
q0 103 46 159z" />
    <glyph glyph-name="Imacron" unicode="&#x12a;" horiz-adv-x="503" 
d="M188 0v1458h127v-1458h-127zM-55 1688v106h612v-106h-612z" />
    <glyph glyph-name="imacron" unicode="&#x12b;" horiz-adv-x="466" 
d="M170 0v1026h123v-1026h-123zM-72 1317v106h613v-106h-613z" />
    <glyph glyph-name="Ibreve" unicode="&#x12c;" horiz-adv-x="503" 
d="M188 0v1458h127v-1458h-127zM55 1661q-86 51 -131 166l92 41q50 -88 106 -124q53 -34 130 -34q75 0 128 34q54 35 105 124l93 -41q-85 -217 -326 -217q-112 0 -197 51z" />
    <glyph glyph-name="ibreve" unicode="&#x12d;" horiz-adv-x="466" 
d="M170 0v1026h123v-1026h-123zM39 1289q-88 59 -133 188l94 41q46 -103 103 -145q59 -44 133 -44q71 0 130 44q57 42 103 145l94 -39q-44 -131 -131 -190q-88 -60 -196 -60t-197 60z" />
    <glyph glyph-name="Iogonek" unicode="&#x12e;" horiz-adv-x="503" 
d="M412 -350q-69 -45 -170 -45q-104 0 -170 60t-66 153q0 79 47 143t135 94v1403h127v-1458h-10q-87 0 -136 -48q-50 -48 -50 -120q0 -64 37 -98q38 -35 100 -35q61 0 123 37z" />
    <glyph glyph-name="iogonek" unicode="&#x12f;" horiz-adv-x="466" 
d="M317 1458v-160h-167v160h167zM395 -358q-73 -45 -174 -45q-107 0 -173 60t-66 157q0 82 49 146t139 97v969h123v-1026h-6q-91 0 -143 -49t-52 -123q0 -65 40 -102t106 -37q60 0 122 41z" />
    <glyph glyph-name="Idotaccent" unicode="&#x130;" horiz-adv-x="503" 
d="M188 0v1458h127v-1458h-127zM168 1821h166v-160h-166v160z" />
    <glyph glyph-name="dotlessi" unicode="&#x131;" horiz-adv-x="466" 
d="M170 0v1026h123v-1026h-123z" />
    <glyph glyph-name="Jcircumflex" unicode="&#x134;" horiz-adv-x="643" 
d="M-14 -252q89 -16 145 -16q110 0 153 61q44 62 44 213v1452h127v-1456q0 -202 -71 -293q-70 -90 -232 -90q-70 0 -166 16v113zM233 1583h-129l238 309h96l238 -309h-129l-156 223z" />
    <glyph glyph-name="jcircumflex" unicode="&#x135;" horiz-adv-x="466" 
d="M-6 -336q83 0 130 47q46 46 46 168v1147h123v-1169q0 -153 -74 -230q-73 -76 -203 -76q-54 0 -122 17v113q57 -17 100 -17zM78 1161h-129l235 416h101l235 -416h-129l-155 312z" />
    <glyph glyph-name="Kcommaaccent" unicode="&#x136;" horiz-adv-x="1267" 
d="M1272 0h-172l-785 698v-698h-127v1458h127v-676l746 676h168l-787 -713zM725 -154v-114q0 -77 -23 -141q-23 -63 -77 -119l-66 51q42 45 56 83q17 45 18 89h-82v151h174z" />
    <glyph glyph-name="kcommaaccent" unicode="&#x137;" horiz-adv-x="1019" 
d="M1028 0h-170l-565 500v-500h-123v1507h123v-958l516 477h162l-537 -494zM596 -154v-114q0 -77 -23 -141q-23 -63 -77 -119l-66 51q42 45 56 83q17 45 18 89h-82v151h174z" />
    <glyph glyph-name="kgreenlandic" unicode="&#x138;" horiz-adv-x="1019" 
d="M1028 0h-170l-565 500v-500h-123v1026h123v-477l516 477h162l-537 -494z" />
    <glyph glyph-name="Lacute" unicode="&#x139;" horiz-adv-x="1101" 
d="M188 0v1458h127v-1347h754v-111h-881zM299 1583h-96l207 309h153z" />
    <glyph glyph-name="lacute" unicode="&#x13a;" horiz-adv-x="466" 
d="M170 0v1507h123v-1507h-123zM283 1632h-97l207 310h154z" />
    <glyph glyph-name="Lcommaaccent" unicode="&#x13b;" horiz-adv-x="1101" 
d="M188 0v1458h127v-1347h754v-111h-881zM721 -154v-114q0 -77 -23 -141q-23 -63 -77 -119l-66 51q42 45 56 83q17 45 18 89h-82v151h174z" />
    <glyph glyph-name="lcommaaccent" unicode="&#x13c;" horiz-adv-x="466" 
d="M170 0v1507h123v-1507h-123zM322 -154v-114q0 -77 -23 -141q-22 -61 -78 -119l-65 51q42 45 56 83q16 42 17 89h-82v151h175z" />
    <glyph glyph-name="Lcaron" unicode="&#x13d;" horiz-adv-x="1101" 
d="M188 0v1458h127v-1347h754v-111h-881zM563 1067h-74v391h127z" />
    <glyph glyph-name="lcaron" unicode="&#x13e;" horiz-adv-x="466" 
d="M170 0v1507h123v-1507h-123zM449 1108h-72v399h127z" />
    <glyph glyph-name="Ldot" unicode="&#x13f;" horiz-adv-x="1101" 
d="M188 0v1458h127v-1347h754v-111h-881zM610 813h176v-166h-176v166z" />
    <glyph glyph-name="ldot" unicode="&#x140;" horiz-adv-x="481" 
d="M170 0v1507h123v-1507h-123zM375 817h176v-166h-176v166z" />
    <glyph glyph-name="Lslash" unicode="&#x141;" horiz-adv-x="1120" 
d="M334 111h753v-111h-880v641l-191 -111v125l191 111v692h127v-620l389 225v-125l-389 -225v-602z" />
    <glyph glyph-name="lslash" unicode="&#x142;" horiz-adv-x="550" 
d="M563 856l-225 -129v-727h-125v655l-168 -96l-55 92l223 131v725h125v-653l168 98z" />
    <glyph glyph-name="Nacute" unicode="&#x143;" horiz-adv-x="1519" 
d="M1212 1458h119v-1458h-98l-926 1243v-1243h-119v1458h101l923 -1243v1243zM809 1583h-96l207 309h153z" />
    <glyph glyph-name="nacute" unicode="&#x144;" horiz-adv-x="1183" 
d="M1018 653v-653h-125v645q0 153 -63 225t-195 72q-154 0 -248 -94t-94 -254v-594h-123v741q0 164 -16 285h118l17 -188q46 104 141 158q96 55 217 55q371 0 371 -398zM639 1161h-96l207 416h159z" />
    <glyph glyph-name="Ncommaaccent" unicode="&#x145;" horiz-adv-x="1519" 
d="M1212 1458h119v-1458h-98l-926 1243v-1243h-119v1458h101l923 -1243v1243zM848 -154v-114q0 -77 -23 -141q-23 -63 -77 -119l-66 51q42 45 56 83q17 45 18 89h-82v151h174z" />
    <glyph glyph-name="ncommaaccent" unicode="&#x146;" horiz-adv-x="1183" 
d="M1018 653v-653h-125v645q0 153 -63 225t-195 72q-154 0 -248 -94t-94 -254v-594h-123v741q0 164 -16 285h118l17 -188q46 104 141 158q96 55 217 55q371 0 371 -398zM678 -154v-114q0 -77 -23 -141q-23 -63 -77 -119l-66 51q42 45 56 83q17 45 18 89h-82v151h174z" />
    <glyph glyph-name="Ncaron" unicode="&#x147;" horiz-adv-x="1519" 
d="M1212 1458h119v-1458h-98l-926 1243v-1243h-119v1458h101l923 -1243v1243zM918 1892h129l-238 -309h-96l-238 309h129l158 -223z" />
    <glyph glyph-name="ncaron" unicode="&#x148;" horiz-adv-x="1183" 
d="M1018 653v-653h-125v645q0 153 -63 225t-195 72q-154 0 -248 -94t-94 -254v-594h-123v741q0 164 -16 285h118l17 -188q46 104 141 158q96 55 217 55q371 0 371 -398zM748 1577h129l-236 -416h-100l-236 416h129l158 -313z" />
    <glyph glyph-name="napostrophe" unicode="&#x149;" horiz-adv-x="1183" 
d="M391 1556v-116q0 -79 -22 -141q-22 -61 -78 -117l-66 49q43 46 57 84q16 42 17 88h-82v153h174zM1018 653v-653h-125v645q0 153 -63 225t-195 72q-154 0 -248 -94t-94 -254v-594h-123v741q0 164 -16 285h118l17 -188q46 104 141 158q96 55 217 55q371 0 371 -398z" />
    <glyph glyph-name="Eng" unicode="&#x14a;" horiz-adv-x="1519" 
d="M1331 1458v-1470q0 -342 -342 -365l-121 -8l-8 109l113 8q239 18 239 248v45l-905 1218v-1243h-119v1458h101l923 -1243v1243h119z" />
    <glyph glyph-name="eng" unicode="&#x14b;" horiz-adv-x="1183" 
d="M1018 653v-755q0 -186 -73 -267q-72 -80 -206 -80q-58 0 -121 17v113q53 -17 99 -17q86 0 131 53t45 205v723q0 153 -63 225t-195 72q-154 0 -248 -94t-94 -254v-594h-123v741q0 164 -16 285h118l17 -188q46 104 141 158q96 55 217 55q371 0 371 -398z" />
    <glyph glyph-name="Omacron" unicode="&#x14c;" horiz-adv-x="1566" 
d="M437 74q-145 89 -225 258q-79 167 -79 397q0 229 78 397q78 169 224 258q149 91 347 91q199 0 348 -91q148 -91 226 -257q78 -167 78 -396q0 -230 -79 -398q-79 -169 -226 -259t-347 -90q-198 0 -345 90zM1164 262q136 166 136 469t-135 467t-383 164q-246 0 -382 -165
q-136 -164 -136 -466t136 -468q137 -167 382 -167q246 0 382 166zM475 1688v106h612v-106h-612z" />
    <glyph glyph-name="omacron" unicode="&#x14d;" horiz-adv-x="1150" 
d="M329 51q-108 66 -166 187q-59 123 -59 280q0 158 59 281q58 120 166 186t249 66q138 0 245 -66q108 -67 165 -186q59 -123 59 -281q0 -157 -59 -280q-58 -121 -165 -187q-105 -65 -245 -65q-143 0 -249 65zM828 206q90 111 90 312q0 200 -91 312t-249 112
q-161 0 -252 -112q-90 -111 -90 -312q0 -206 88 -313q89 -109 251 -109q164 0 253 110zM270 1317v106h613v-106h-613z" />
    <glyph glyph-name="Obreve" unicode="&#x14e;" horiz-adv-x="1566" 
d="M437 74q-145 89 -225 258q-79 167 -79 397q0 229 78 397q78 169 224 258q149 91 347 91q199 0 348 -91q148 -91 226 -257q78 -167 78 -396q0 -230 -79 -398q-79 -169 -226 -259t-347 -90q-198 0 -345 90zM1164 262q136 166 136 469t-135 467t-383 164q-246 0 -382 -165
q-136 -164 -136 -466t136 -468q137 -167 382 -167q246 0 382 166zM586 1661q-86 51 -131 166l92 41q51 -89 105 -124q53 -34 130 -34q75 0 128 34q56 36 106 124l92 -41q-85 -217 -326 -217q-110 0 -196 51z" />
    <glyph glyph-name="obreve" unicode="&#x14f;" horiz-adv-x="1150" 
d="M329 51q-108 66 -166 187q-59 123 -59 280q0 158 59 281q58 120 166 186t249 66q138 0 245 -66q108 -67 165 -186q59 -123 59 -281q0 -157 -59 -280q-58 -121 -165 -187q-105 -65 -245 -65q-143 0 -249 65zM828 206q90 111 90 312q0 200 -91 312t-249 112
q-161 0 -252 -112q-90 -111 -90 -312q0 -206 88 -313q89 -109 251 -109q164 0 253 110zM381 1289q-88 59 -133 188l94 41q46 -103 103 -145q59 -44 133 -44q71 0 130 44q57 42 103 145l94 -39q-44 -131 -131 -190q-88 -60 -196 -60t-197 60z" />
    <glyph glyph-name="Ohungarumlaut" unicode="&#x150;" horiz-adv-x="1566" 
d="M437 74q-145 89 -225 258q-79 167 -79 397q0 229 78 397q78 169 224 258q149 91 347 91q199 0 348 -91q148 -91 226 -257q78 -167 78 -396q0 -230 -79 -398q-79 -169 -226 -259t-347 -90q-198 0 -345 90zM1164 262q136 166 136 469t-135 467t-383 164q-246 0 -382 -165
q-136 -164 -136 -466t136 -468q137 -167 382 -167q246 0 382 166zM627 1583l145 309h129l-201 -309h-73zM862 1583l148 309h127l-201 -309h-74z" />
    <glyph glyph-name="ohungarumlaut" unicode="&#x151;" horiz-adv-x="1150" 
d="M329 51q-108 66 -166 187q-59 123 -59 280q0 158 59 281q58 120 166 186t249 66q138 0 245 -66q108 -67 165 -186q59 -123 59 -281q0 -157 -59 -280q-58 -121 -165 -187q-105 -65 -245 -65q-143 0 -249 65zM828 206q90 111 90 312q0 200 -91 312t-249 112
q-161 0 -252 -112q-90 -111 -90 -312q0 -206 88 -313q89 -109 251 -109q164 0 253 110zM492 1161h-70l100 416h133zM731 1161h-69l100 416h133z" />
    <glyph glyph-name="OE" unicode="&#x152;" horiz-adv-x="2164" 
d="M1280 1350v-553h733v-113h-733v-575h774v-109h-895v100q-152 -116 -379 -116q-197 0 -343 91q-145 90 -225 259q-79 167 -79 395q0 229 78 397q78 169 224 258q149 91 345 91q222 0 379 -115v98h895v-108h-774zM400 263q137 -167 382 -167q234 0 373 129v1008
q-139 129 -373 129q-246 0 -382 -166t-136 -465q0 -302 136 -468z" />
    <glyph glyph-name="oe" unicode="&#x153;" horiz-adv-x="1914" 
d="M1817 498h-770q6 -194 101 -298t269 -104q180 0 332 127l51 -98q-65 -61 -171 -100q-105 -39 -210 -39q-159 0 -269 70q-111 71 -167 206q-51 -132 -157 -204q-105 -72 -251 -72q-140 0 -246 65q-108 66 -166 187q-59 123 -59 280q0 158 59 281q58 120 166 186t246 66
q142 0 248 -71q105 -71 158 -200q55 127 163 199t251 72q196 0 309 -131t113 -365v-57zM1156 854q-89 -95 -105 -262h651q-1 172 -83 264q-81 92 -226 92q-149 0 -237 -94zM827 206q88 109 88 312q0 201 -90 312q-91 112 -250 112q-158 0 -249 -112q-90 -111 -90 -312
q0 -206 88 -313q89 -109 251 -109q163 0 252 110z" />
    <glyph glyph-name="Racute" unicode="&#x154;" horiz-adv-x="1409" 
d="M1311 0h-131l-183 485q-34 97 -96 132q-61 34 -178 34h-408v-651h-127v1458h564q228 0 352 -103q125 -104 125 -296q0 -142 -75 -238t-214 -135q65 -11 109 -53q45 -44 75 -127zM743 762q359 0 359 299q0 289 -359 289h-430v-588h430zM743 1583h-96l207 309h154z" />
    <glyph glyph-name="racute" unicode="&#x155;" horiz-adv-x="714" 
d="M702 1042l-6 -112q-42 8 -94 8q-156 0 -232 -99q-77 -100 -77 -237v-602h-123v741q0 164 -16 285h118l17 -190q38 103 126 159t197 56q43 0 90 -9zM487 1161h-96l207 416h160z" />
    <glyph glyph-name="Rcommaaccent" unicode="&#x156;" horiz-adv-x="1409" 
d="M1311 0h-131l-183 485q-34 97 -96 132q-61 34 -178 34h-408v-651h-127v1458h564q228 0 352 -103q125 -104 125 -296q0 -142 -75 -238t-214 -135q65 -11 109 -53q45 -44 75 -127zM743 762q359 0 359 299q0 289 -359 289h-430v-588h430zM782 -154v-114q0 -79 -22 -141
q-22 -61 -78 -119l-66 51q44 47 57 83q16 42 17 89h-82v151h174z" />
    <glyph glyph-name="rcommaaccent" unicode="&#x157;" horiz-adv-x="714" 
d="M702 1042l-6 -112q-42 8 -94 8q-156 0 -232 -99q-77 -100 -77 -237v-602h-123v741q0 164 -16 285h118l17 -190q38 103 126 159t197 56q43 0 90 -9zM322 -154v-114q0 -77 -23 -141q-22 -61 -78 -119l-65 51q42 45 56 83q16 42 17 89h-82v151h175z" />
    <glyph glyph-name="Rcaron" unicode="&#x158;" horiz-adv-x="1409" 
d="M1311 0h-131l-183 485q-34 97 -96 132q-61 34 -178 34h-408v-651h-127v1458h564q228 0 352 -103q125 -104 125 -296q0 -142 -75 -238t-214 -135q65 -11 109 -53q45 -44 75 -127zM743 762q359 0 359 299q0 289 -359 289h-430v-588h430zM852 1892h129l-238 -309h-96
l-237 309h129l157 -223z" />
    <glyph glyph-name="rcaron" unicode="&#x159;" horiz-adv-x="714" 
d="M702 1042l-6 -112q-42 8 -94 8q-156 0 -232 -99q-77 -100 -77 -237v-602h-123v741q0 164 -16 285h118l17 -190q38 103 126 159t197 56q43 0 90 -9zM596 1577h129l-236 -416h-100l-235 416h129l157 -313z" />
    <glyph glyph-name="Sacute" unicode="&#x15a;" horiz-adv-x="1255" 
d="M337 30q-136 48 -235 144l54 100q108 -96 220 -137t265 -41q186 0 287 76q102 76 102 213q0 80 -50 130q-50 51 -127 79t-204 57q-174 39 -273 77q-105 40 -177 120t-72 213q0 123 63 217q62 93 182 145q121 52 273 52q147 0 277 -49q128 -48 219 -142l-54 -100
q-102 92 -208 135q-105 43 -234 43q-184 0 -288 -80q-103 -79 -103 -219q0 -120 90 -180q91 -61 264 -101l60 -14q168 -40 260 -76q98 -38 164 -110q67 -73 67 -197q0 -119 -63 -210t-182 -141q-120 -50 -273 -50q-173 0 -304 46zM676 1583h-96l206 309h154z" />
    <glyph glyph-name="sacute" unicode="&#x15b;" horiz-adv-x="1011" 
d="M109 123l45 96q83 -68 164 -96q84 -29 192 -29q126 0 193 44t67 128q0 69 -44 110q-43 40 -144 64l-174 39q-122 28 -194 103q-71 74 -71 172q0 135 104 216t275 81q108 0 202 -35q93 -35 155 -101l-48 -96q-141 123 -309 123q-117 0 -184 -47q-66 -46 -66 -131
q0 -70 42 -113q40 -42 130 -63l177 -43q276 -61 276 -273q0 -128 -106 -207t-287 -79q-249 0 -395 137zM569 1161h-96l207 416h160z" />
    <glyph glyph-name="Scircumflex" unicode="&#x15c;" horiz-adv-x="1255" 
d="M337 30q-136 48 -235 144l54 100q108 -96 220 -137t265 -41q186 0 287 76q102 76 102 213q0 80 -50 130q-50 51 -127 79t-204 57q-174 39 -273 77q-105 40 -177 120t-72 213q0 123 63 217q62 93 182 145q121 52 273 52q147 0 277 -49q128 -48 219 -142l-54 -100
q-102 92 -208 135q-105 43 -234 43q-184 0 -288 -80q-103 -79 -103 -219q0 -120 90 -180q91 -61 264 -101l60 -14q168 -40 260 -76q98 -38 164 -110q67 -73 67 -197q0 -119 -63 -210t-182 -141q-120 -50 -273 -50q-173 0 -304 46zM471 1583h-129l238 309h96l237 -309h-129
l-155 223z" />
    <glyph glyph-name="scircumflex" unicode="&#x15d;" horiz-adv-x="1011" 
d="M109 123l45 96q83 -68 164 -96q84 -29 192 -29q126 0 193 44t67 128q0 69 -44 110q-43 40 -144 64l-174 39q-122 28 -194 103q-71 74 -71 172q0 135 104 216t275 81q108 0 202 -35q93 -35 155 -101l-48 -96q-141 123 -309 123q-117 0 -184 -47q-66 -46 -66 -131
q0 -70 42 -113q40 -42 130 -63l177 -43q276 -61 276 -273q0 -128 -106 -207t-287 -79q-249 0 -395 137zM365 1161h-129l235 416h100l236 -416h-129l-156 312z" />
    <glyph glyph-name="Scedilla" unicode="&#x15e;" horiz-adv-x="1255" 
d="M1099 179q-60 -89 -171 -140q-110 -50 -260 -55l-9 -74q29 6 56 6q61 0 107 -37t46 -106q0 -75 -61 -121q-62 -47 -168 -47q-45 0 -94 9t-84 30l28 80q69 -29 154 -29q60 0 89 20q30 21 30 58q0 28 -19 44q-18 15 -55 15q-41 0 -100 -20l-39 30l14 144q-146 11 -257 56
q-114 46 -204 132l54 100q108 -96 220 -137t265 -41q186 0 287 76q102 76 102 213q0 80 -50 130q-50 51 -127 79t-204 57q-174 39 -273 77q-105 40 -177 120t-72 213q0 123 63 217q62 93 182 145q121 52 273 52q147 0 277 -49q128 -48 219 -142l-54 -100q-102 92 -208 135
q-105 43 -234 43q-184 0 -288 -80q-103 -79 -103 -219q0 -120 90 -180q91 -61 264 -101l60 -14q168 -40 260 -76q98 -38 164 -110q67 -73 67 -197q0 -117 -60 -206z" />
    <glyph glyph-name="scedilla" unicode="&#x15f;" horiz-adv-x="1011" 
d="M799 71q-100 -78 -267 -85l-8 -76q29 6 56 6q61 0 107 -37t46 -106q0 -75 -61 -121q-62 -47 -168 -47q-44 0 -94 9t-84 30l28 80q69 -29 154 -29q60 0 89 20q30 21 30 58q0 28 -19 44q-18 15 -55 15q-41 0 -100 -20l-39 30l14 148q-199 18 -319 133l45 96q83 -68 164 -96
q84 -29 192 -29q126 0 193 44t67 128q0 69 -44 110q-43 40 -144 64l-174 39q-122 28 -194 103q-71 74 -71 172q0 135 104 216t275 81q108 0 202 -35q93 -35 155 -101l-48 -96q-141 123 -309 123q-117 0 -184 -47q-66 -46 -66 -131q0 -70 42 -113q40 -42 130 -63l177 -43
q276 -61 276 -273q0 -125 -98 -201z" />
    <glyph glyph-name="Scaron" unicode="&#x160;" horiz-adv-x="1255" 
d="M337 30q-136 48 -235 144l54 100q108 -96 220 -137t265 -41q186 0 287 76q102 76 102 213q0 80 -50 130q-50 51 -127 79t-204 57q-174 39 -273 77q-105 40 -177 120t-72 213q0 123 63 217q62 93 182 145q121 52 273 52q147 0 277 -49q128 -48 219 -142l-54 -100
q-102 92 -208 135q-105 43 -234 43q-184 0 -288 -80q-103 -79 -103 -219q0 -120 90 -180q91 -61 264 -101l60 -14q168 -40 260 -76q98 -38 164 -110q67 -73 67 -197q0 -119 -63 -210t-182 -141q-120 -50 -273 -50q-173 0 -304 46zM784 1892h129l-237 -309h-96l-238 309h129
l158 -223z" />
    <glyph glyph-name="scaron" unicode="&#x161;" horiz-adv-x="1011" 
d="M109 123l45 96q83 -68 164 -96q84 -29 192 -29q126 0 193 44t67 128q0 69 -44 110q-43 40 -144 64l-174 39q-122 28 -194 103q-71 74 -71 172q0 135 104 216t275 81q108 0 202 -35q93 -35 155 -101l-48 -96q-141 123 -309 123q-117 0 -184 -47q-66 -46 -66 -131
q0 -70 42 -113q40 -42 130 -63l177 -43q276 -61 276 -273q0 -128 -106 -207t-287 -79q-249 0 -395 137zM678 1577h129l-236 -416h-100l-235 416h129l157 -313z" />
    <glyph glyph-name="uni0162" unicode="&#x162;" horiz-adv-x="1220" 
d="M643 0l-10 -90q28 6 55 6q62 0 108 -37t46 -106q0 -74 -62 -121t-168 -47q-44 0 -94 9t-84 30l29 80q69 -29 153 -29q61 0 90 20t29 58q0 29 -18 44t-55 15q-42 0 -101 -20l-39 30l21 199h4v1307h-522v110h1171v-110h-522v-1348h-31z" />
    <glyph glyph-name="uni0163" unicode="&#x163;" horiz-adv-x="690" 
d="M632 -121q46 -37 46 -106q0 -74 -62 -121t-167 -47q-46 0 -95 9q-50 9 -84 30l29 80q69 -29 154 -29q60 0 89 20t29 58q0 29 -18 44t-55 15q-42 0 -101 -20l-39 30l17 168q-74 30 -115 102q-41 71 -41 179v635h-203v100h203v272l125 48v-320h303v-100h-303v-611
q0 -123 47 -170t139 -47q56 0 111 19v-113q-64 -16 -133 -16h-31l-8 -78q29 6 55 6q62 0 108 -37z" />
    <glyph glyph-name="Tcaron" unicode="&#x164;" horiz-adv-x="1220" 
d="M547 0v1348h-522v110h1171v-110h-522v-1348h-127zM766 1892h129l-238 -309h-96l-237 309h129l157 -223z" />
    <glyph glyph-name="tcaron" unicode="&#x165;" horiz-adv-x="690" 
d="M584 1462l-54 -352h-75v352h129zM344 926v-611q0 -123 47 -170t139 -47q56 0 111 19v-113q-64 -16 -133 -16q-137 0 -212 75q-77 77 -77 228v635h-203v100h203v272l125 48v-320h303v-100h-303z" />
    <glyph glyph-name="Tbar" unicode="&#x166;" horiz-adv-x="1220" 
d="M1196 1348h-522v-555h299v-107h-299v-686h-127v686h-299v107h299v555h-522v110h1171v-110z" />
    <glyph glyph-name="tbar" unicode="&#x167;" horiz-adv-x="710" 
d="M354 926v-283h260v-98h-260v-230q0 -123 48 -170q49 -47 139 -47q55 0 110 19v-113q-64 -16 -133 -16q-137 0 -212 75q-77 77 -77 228v254h-159v98h159v283h-202v100h202v272l125 48v-320h303v-100h-303z" />
    <glyph glyph-name="Utilde" unicode="&#x168;" horiz-adv-x="1486" 
d="M323 130q-145 148 -145 431v897h127v-911q0 -451 440 -451q216 0 327 114q112 115 112 337v911h125v-897q0 -284 -144 -431q-143 -146 -420 -146q-279 0 -422 146zM466 1795q46 58 128 58q45 0 82 -17q40 -19 94 -52q41 -26 70 -40q26 -13 51 -13q48 0 73 34t25 82h80
q0 -103 -46 -159q-47 -58 -128 -58q-43 0 -83 18q-46 20 -93 50q-35 22 -72 40q-22 11 -49 11q-48 0 -73 -33q-25 -32 -25 -80h-80q0 101 46 159z" />
    <glyph glyph-name="utilde" unicode="&#x169;" horiz-adv-x="1165" 
d="M995 1026v-1026h-121v186q-49 -98 -139 -149t-207 -51q-181 0 -272 100q-92 101 -92 297v643h123v-635q0 -152 61 -223q62 -72 191 -72q151 0 241 95t90 253v582h125zM302 1425q47 58 128 58q43 0 82 -18q40 -19 94 -52q35 -22 72 -40q22 -11 49 -11q48 0 73 34t25 81h80
q0 -104 -46 -160q-47 -57 -128 -57q-45 0 -82 17q-40 19 -94 52q-35 22 -72 40q-22 11 -49 11q-49 0 -73 -33q-25 -34 -25 -81h-80q0 103 46 159z" />
    <glyph glyph-name="Umacron" unicode="&#x16a;" horiz-adv-x="1486" 
d="M323 130q-145 148 -145 431v897h127v-911q0 -451 440 -451q216 0 327 114q112 115 112 337v911h125v-897q0 -284 -144 -431q-143 -146 -420 -146q-279 0 -422 146zM438 1688v106h613v-106h-613z" />
    <glyph glyph-name="umacron" unicode="&#x16b;" horiz-adv-x="1165" 
d="M995 1026v-1026h-121v186q-49 -98 -139 -149t-207 -51q-181 0 -272 100q-92 101 -92 297v643h123v-635q0 -152 61 -223q62 -72 191 -72q151 0 241 95t90 253v582h125zM274 1317v106h613v-106h-613z" />
    <glyph glyph-name="Ubreve" unicode="&#x16c;" horiz-adv-x="1486" 
d="M323 130q-145 148 -145 431v897h127v-911q0 -451 440 -451q216 0 327 114q112 115 112 337v911h125v-897q0 -284 -144 -431q-143 -146 -420 -146q-279 0 -422 146zM549 1661q-86 51 -131 166l92 41q51 -89 105 -124q53 -34 130 -34q75 0 128 34q56 36 106 124l92 -41
q-85 -217 -326 -217q-111 0 -196 51z" />
    <glyph glyph-name="ubreve" unicode="&#x16d;" horiz-adv-x="1165" 
d="M995 1026v-1026h-121v186q-49 -98 -139 -149t-207 -51q-181 0 -272 100q-92 101 -92 297v643h123v-635q0 -152 61 -223q62 -72 191 -72q151 0 241 95t90 253v582h125zM385 1289q-88 59 -133 188l94 41q45 -101 104 -145t132 -44q71 0 130 44q57 42 103 145l94 -39
q-44 -131 -131 -190q-88 -60 -196 -60q-109 0 -197 60z" />
    <glyph glyph-name="Uring" unicode="&#x16e;" horiz-adv-x="1486" 
d="M323 130q-145 148 -145 431v897h127v-911q0 -451 440 -451q216 0 327 114q112 115 112 337v911h125v-897q0 -284 -144 -431q-143 -146 -420 -146q-279 0 -422 146zM600 1630q-59 56 -59 144q0 81 60 141q59 59 144 59t144 -59t59 -141q0 -88 -59 -144q-60 -57 -144 -57
q-85 0 -145 57zM819 1696q29 31 29 78q0 43 -29 74q-29 30 -74 30q-44 0 -74 -30t-30 -74q0 -48 30 -78q31 -31 74 -31q45 0 74 31z" />
    <glyph glyph-name="uring" unicode="&#x16f;" horiz-adv-x="1165" 
d="M995 1026v-1026h-121v186q-49 -98 -139 -149t-207 -51q-181 0 -272 100q-92 101 -92 297v643h123v-635q0 -152 61 -223q62 -72 191 -72q151 0 241 95t90 253v582h125zM436 1227q-59 56 -59 143q0 82 60 139q61 58 145 58q82 0 143 -58q59 -56 59 -139q0 -87 -59 -143
q-61 -58 -143 -58q-85 0 -146 58zM655 1292q29 31 29 78q0 44 -30 74q-31 31 -72 31q-44 0 -75 -31q-30 -30 -30 -74q0 -48 30 -78t75 -30q44 0 73 30z" />
    <glyph glyph-name="Uhungarumlaut" unicode="&#x170;" horiz-adv-x="1486" 
d="M323 130q-145 148 -145 431v897h127v-911q0 -451 440 -451q216 0 327 114q112 115 112 337v911h125v-897q0 -284 -144 -431q-143 -146 -420 -146q-279 0 -422 146zM590 1583l145 309h129l-200 -309h-74zM825 1583l148 309h127l-201 -309h-74z" />
    <glyph glyph-name="uhungarumlaut" unicode="&#x171;" horiz-adv-x="1165" 
d="M995 1026v-1026h-121v186q-49 -98 -139 -149t-207 -51q-181 0 -272 100q-92 101 -92 297v643h123v-635q0 -152 61 -223q62 -72 191 -72q151 0 241 95t90 253v582h125zM496 1161h-70l100 416h133zM735 1161h-69l100 416h133z" />
    <glyph glyph-name="Uogonek" unicode="&#x172;" horiz-adv-x="1486" 
d="M1309 1458v-897q0 -221 -86 -358q-87 -139 -256 -191q-94 -29 -134 -71q-42 -43 -42 -109q0 -62 36 -97q37 -36 101 -36q55 0 123 37l32 -86q-72 -45 -168 -45q-105 0 -170 59t-65 154q0 104 78 166h-13q-279 0 -422 146q-145 148 -145 431v897h127v-911q0 -451 440 -451
q216 0 327 114q112 115 112 337v911h125z" />
    <glyph glyph-name="uogonek" unicode="&#x173;" horiz-adv-x="1165" 
d="M1094 -358q-74 -45 -172 -45q-107 0 -173 60q-67 61 -67 157q0 82 50 149q48 64 142 98v125q-49 -98 -139 -149t-207 -51q-181 0 -272 100q-92 101 -92 297v643h123v-635q0 -152 61 -223q62 -72 191 -72q151 0 241 95t90 253v582h125v-1026h-10q-84 0 -138 -48t-54 -124
q0 -64 37 -101q38 -38 106 -38q56 0 123 41z" />
    <glyph glyph-name="Wcircumflex" unicode="&#x174;" horiz-adv-x="2267" 
d="M2064 1458h127l-508 -1458h-110l-438 1255l-441 -1255h-108l-508 1458h127l438 -1282l442 1282l101 -2l440 -1276zM975 1583h-129l237 309h97l237 -309h-129l-155 223z" />
    <glyph glyph-name="wcircumflex" unicode="&#x175;" horiz-adv-x="1767" 
d="M1571 1026h127l-373 -1026h-129l-311 866l-314 -866h-131l-370 1026h133l303 -876l319 876h125l310 -876zM727 1161h-129l236 416h100l235 -416h-129l-155 312z" />
    <glyph glyph-name="Ycircumflex" unicode="&#x176;" horiz-adv-x="1222" 
d="M1237 1458l-563 -858v-600h-127v604l-563 854h147l481 -743l482 743h143zM453 1583h-129l237 309h96l238 -309h-129l-156 223z" />
    <glyph glyph-name="ycircumflex" unicode="&#x177;" horiz-adv-x="1075" 
d="M1040 1026l-483 -1132q-72 -168 -179 -247t-269 -112l-25 98q145 34 222 91q75 56 126 174l43 100l-438 1028h133l371 -901l372 901h127zM381 1161h-129l235 416h101l235 -416h-129l-155 312z" />
    <glyph glyph-name="Ydieresis" unicode="&#x178;" horiz-adv-x="1222" 
d="M1237 1458l-563 -858v-600h-127v604l-563 854h147l481 -743l482 743h143zM360 1815h154v-150h-154v150zM705 1815h153v-150h-153v150z" />
    <glyph glyph-name="Zacute" unicode="&#x179;" horiz-adv-x="1208" 
d="M238 109h892v-109h-1040v92l873 1258h-873v108h1020v-92zM649 1583h-96l207 309h153z" />
    <glyph glyph-name="zacute" unicode="&#x17a;" horiz-adv-x="1054" 
d="M264 102h697v-102h-857v86l682 840h-657v100h809v-94zM582 1161h-97l207 416h160z" />
    <glyph glyph-name="Zdotaccent" unicode="&#x17b;" horiz-adv-x="1208" 
d="M238 109h892v-109h-1040v92l873 1258h-873v108h1020v-92zM518 1821h166v-160h-166v160z" />
    <glyph glyph-name="zdotaccent" unicode="&#x17c;" horiz-adv-x="1054" 
d="M264 102h697v-102h-857v86l682 840h-657v100h809v-94zM451 1450h165v-160h-165v160z" />
    <glyph glyph-name="Zcaron" unicode="&#x17d;" horiz-adv-x="1208" 
d="M238 109h892v-109h-1040v92l873 1258h-873v108h1020v-92zM758 1892h129l-238 -309h-96l-238 309h129l158 -223z" />
    <glyph glyph-name="zcaron" unicode="&#x17e;" horiz-adv-x="1054" 
d="M264 102h697v-102h-857v86l682 840h-657v100h809v-94zM690 1577h129l-235 -416h-101l-235 416h129l158 -313z" />
    <glyph glyph-name="uni018F" unicode="&#x18f;" horiz-adv-x="1521" 
d="M1072 1385q152 -88 235 -257q82 -167 82 -397q0 -228 -77 -397q-76 -167 -218 -259q-140 -91 -332 -91t-334 89q-141 89 -218 256q-77 168 -77 394v74h1122q-17 275 -156 420q-141 147 -384 147q-266 0 -467 -180l-53 100q96 91 230 140q141 51 288 51q203 0 359 -90z
M1116 250q129 153 141 432h-995q12 -280 142 -432q131 -154 358 -154q224 0 354 154z" />
    <glyph glyph-name="florin" unicode="&#x192;" horiz-adv-x="1228" 
d="M1139 1466v-104h-92q-101 0 -159 -51q-59 -52 -83 -172l-29 -133h264v-103h-286l-205 -964q-72 -322 -369 -322h-92v107h92q101 0 159 52q59 53 83 171l205 956h-260v103h280l31 141q72 319 369 319h92z" />
    <glyph glyph-name="Ohorn" unicode="&#x1a0;" horiz-adv-x="1566" 
d="M1358 1457q-77 -80 -211 -87q139 -92 213 -255q74 -165 74 -384q0 -230 -79 -398t-227 -259q-147 -90 -346 -90q-197 0 -344 90t-226 259q-79 168 -79 396q0 230 79 397q80 168 226 258q149 91 353 91q35 0 157 -9q101 -8 131 -8q132 2 186 54t54 178v28h115v-47
q0 -135 -76 -214zM1165 1198q-135 164 -383 164q-246 0 -382 -165q-136 -164 -136 -466t136 -468q137 -167 382 -167q246 0 382 166t136 469t-135 467z" />
    <glyph glyph-name="ohorn" unicode="&#x1a1;" horiz-adv-x="1150" 
d="M994 783q53 -115 53 -265q0 -157 -59 -280q-58 -121 -165 -187q-105 -65 -245 -65q-143 0 -249 65q-108 66 -166 187q-59 123 -59 280q0 158 59 281q58 120 166 186t246 66q25 0 53 -2q8 -1 20 -3t16 -2q33 -6 57 -6q106 0 156 56q49 55 49 182v27h114v-48
q0 -109 -50 -185q-50 -75 -144 -105q95 -67 148 -182zM828 206q90 111 90 312q0 200 -91 312t-249 112q-161 0 -252 -112q-90 -111 -90 -312q0 -206 88 -313q89 -109 251 -109q164 0 253 110z" />
    <glyph glyph-name="Uhorn" unicode="&#x1af;" horiz-adv-x="1486" 
d="M1554 1718v-47q0 -125 -63 -202t-182 -95v-813q0 -284 -144 -431q-143 -146 -420 -146q-279 0 -422 146q-145 148 -145 431v897h127v-911q0 -451 440 -451q216 0 327 114q112 115 112 337v911h37q116 1 168 55q51 53 51 177v28h114z" />
    <glyph glyph-name="uhorn" unicode="&#x1b0;" horiz-adv-x="1187" 
d="M1245 1303v-48q0 -133 -64 -212q-63 -78 -186 -93v-950h-121v186q-49 -98 -139 -149t-207 -51q-181 0 -272 100q-92 101 -92 297v643h123v-635q0 -152 61 -223q62 -72 191 -72q151 0 241 95t90 253v582h37q119 2 171 60t52 190v27h115z" />
    <glyph glyph-name="uni01C4" unicode="&#x1c4;" horiz-adv-x="2691" 
d="M188 1458h469q349 0 537 -188t188 -539t-189 -541t-536 -190h-469v1458zM651 111q297 0 447 156q149 155 149 464q0 617 -596 617h-336v-1237h336zM1720 109h893v-109h-1040v92l872 1258h-872v108h1020v-92zM2241 1892h129l-238 -309h-96l-238 309h129l158 -223z" />
    <glyph glyph-name="uni01C5" unicode="&#x1c5;" horiz-adv-x="2568" 
d="M188 1458h469q349 0 537 -188t188 -539t-189 -541t-536 -190h-469v1458zM651 111q297 0 447 156q149 155 149 464q0 617 -596 617h-336v-1237h336zM1778 102h696v-102h-856v86l682 840h-658v100h809v-94zM2204 1577h129l-236 -416h-100l-236 416h129l158 -313z" />
    <glyph glyph-name="uni01C6" unicode="&#x1c6;" horiz-adv-x="2265" 
d="M1040 1507v-1507h-125v197q-46 -104 -136 -157q-91 -54 -218 -54q-134 0 -238 66q-103 66 -161 189q-58 124 -58 281q0 160 57 280t160 184q104 65 240 65q122 0 216 -54q91 -52 138 -155v665h125zM827 207q88 110 88 311q0 202 -88 312q-89 112 -247 112
q-164 0 -254 -111t-90 -309q0 -200 90 -313t252 -113q160 0 249 111zM1475 102h696v-102h-856v86l682 840h-658v100h809v-94zM1901 1577h129l-236 -416h-100l-236 416h129l158 -313z" />
    <glyph glyph-name="uni01C7" unicode="&#x1c7;" horiz-adv-x="1572" 
d="M188 0v1458h127v-1347h693v-111h-820zM915 -252q89 -16 146 -16q109 0 152 61q44 62 44 213v1452h127v-1456q0 -204 -70 -293q-70 -90 -233 -90q-70 0 -166 16v113z" />
    <glyph glyph-name="uni01C8" unicode="&#x1c8;" horiz-adv-x="1568" 
d="M188 0v1458h127v-1347h754v-111h-881zM1096 -336q83 0 130 47q46 46 46 168v1147h123v-1169q0 -153 -74 -230q-73 -76 -203 -76q-55 0 -123 17v113q57 -17 101 -17zM1253 1450h166v-160h-166v160z" />
    <glyph glyph-name="uni01C9" unicode="&#x1c9;" horiz-adv-x="933" 
d="M170 0v1507h123v-1507h-123zM461 -336q83 0 130 47q46 46 46 168v1147h123v-1169q0 -153 -74 -230q-73 -76 -203 -76q-55 0 -123 17v113q57 -17 101 -17zM618 1450h166v-160h-166v160z" />
    <glyph glyph-name="uni01CA" unicode="&#x1ca;" horiz-adv-x="2162" 
d="M1212 1458h119v-1458h-98l-926 1243v-1243h-119v1458h101l923 -1243v1243zM1505 -252q89 -16 146 -16q109 0 152 61q44 62 44 213v1452h127v-1456q0 -204 -70 -293q-70 -90 -233 -90q-70 0 -166 16v113z" />
    <glyph glyph-name="uni01CB" unicode="&#x1cb;" horiz-adv-x="1986" 
d="M1212 1458h119v-1458h-98l-926 1243v-1243h-119v1458h101l923 -1243v1243zM1513 -336q84 0 131 47q46 46 46 168v1147h122v-1169q0 -154 -73 -230t-203 -76q-55 0 -123 17v113q57 -17 100 -17zM1671 1450h166v-160h-166v160z" />
    <glyph glyph-name="uni01CC" unicode="&#x1cc;" horiz-adv-x="1650" 
d="M1018 653v-653h-125v645q0 153 -63 225t-195 72q-154 0 -248 -94t-94 -254v-594h-123v741q0 164 -16 285h118l17 -188q46 104 141 158q96 55 217 55q371 0 371 -398zM1178 -336q83 0 130 47q46 46 46 168v1147h123v-1169q0 -153 -74 -230q-73 -76 -203 -76q-55 0 -123 17
v113q57 -17 101 -17zM1335 1450h166v-160h-166v160z" />
    <glyph glyph-name="uni01CE" unicode="&#x1ce;" horiz-adv-x="1210" 
d="M1040 1026v-1026h-125v197q-46 -104 -136 -157q-91 -54 -218 -54q-137 0 -240 64t-160 184t-57 280q0 158 58 282q57 122 161 188q105 67 238 67q122 0 216 -54q91 -52 138 -155v184h125zM827 207q88 110 88 311q0 203 -88 313q-89 111 -249 111q-162 0 -252 -114
t-90 -314q0 -198 90 -308t254 -110q158 0 247 111zM762 1577h129l-236 -416h-100l-236 416h130l157 -313z" />
    <glyph glyph-name="Gcaron" unicode="&#x1e6;" horiz-adv-x="1486" 
d="M1315 748v-666q-81 -44 -219 -71q-140 -27 -281 -27q-212 0 -366 89t-235 257t-81 401q0 231 81 399t232 256q152 89 359 89q309 0 495 -191l-53 -100q-104 94 -210 136q-105 42 -234 42q-258 0 -399 -164q-140 -162 -140 -467q0 -309 143 -473t410 -164q206 0 383 68
v477h-385v109h500zM956 1892h129l-237 -309h-96l-238 309h129l158 -223z" />
    <glyph glyph-name="gcaron" unicode="&#x1e7;" horiz-adv-x="1218" 
d="M1049 1026v-1030q0 -224 -111 -338q-112 -115 -326 -115q-230 0 -399 111l25 108q101 -60 184 -84q84 -24 192 -24q154 0 233 84q79 83 79 246v264q-45 -102 -140 -161q-90 -56 -221 -56q-135 0 -239 64t-163 180t-59 266q0 151 59 267q59 117 163 179q107 64 239 64
q126 0 220 -54q93 -53 139 -155v184h125zM833 250q91 106 91 291q0 187 -91 294t-251 107q-163 0 -254 -107q-92 -109 -92 -294q0 -186 92 -292t254 -106q159 0 251 107zM770 1577h129l-235 -416h-101l-235 416h129l157 -313z" />
    <glyph glyph-name="uni01EA" unicode="&#x1ea;" horiz-adv-x="1566" 
d="M815 -168q0 -61 37 -97q38 -36 102 -36q53 0 121 37l33 -86q-72 -45 -168 -45q-106 0 -171 59q-67 61 -67 154q0 96 70 166q-194 1 -339 92q-144 90 -222 258t-78 395q0 230 79 397q80 169 225 258q149 91 345 91q198 0 347 -91q146 -89 226 -257q79 -165 79 -396
q0 -287 -121 -475t-342 -250q-156 -44 -156 -174zM400 263q137 -167 382 -167q246 0 382 166t136 469t-135 467t-383 164q-246 0 -382 -165q-136 -164 -136 -466t136 -468z" />
    <glyph glyph-name="uni01EB" unicode="&#x1eb;" horiz-adv-x="1150" 
d="M603 -58q-42 -42 -42 -114q0 -64 39 -101q40 -38 105 -38q54 0 124 41l33 -88q-72 -45 -172 -45q-105 0 -172 60t-67 157q0 107 73 174q-192 18 -306 160t-114 370q0 158 59 281q58 120 166 186t249 66q138 0 245 -66q108 -67 165 -186q59 -123 59 -281q0 -189 -80 -323
t-219 -179q-105 -34 -145 -74zM324 205q89 -109 251 -109q164 0 253 110q90 111 90 312q0 200 -91 312t-249 112q-161 0 -252 -112q-90 -111 -90 -312q0 -206 88 -313z" />
    <glyph glyph-name="Aringacute" unicode="&#x1fa;" horiz-adv-x="1488" 
d="M1139 389h-787l-168 -389h-131l615 1411q-59 23 -93 72t-34 112q0 85 60 143q59 58 144 58q61 0 113 -33l172 179h162l-277 -234q35 -52 35 -113q0 -62 -35 -112q-34 -49 -92 -72l613 -1411h-131zM672 1671q-29 -31 -29 -76q0 -44 29 -75t73 -31q45 0 74 31t29 75
q0 45 -29 76t-74 31q-44 0 -73 -31zM399 500h691l-345 805z" />
    <glyph glyph-name="aringacute" unicode="&#x1fb;" horiz-adv-x="1210" 
d="M460 1233q-61 61 -61 145q0 85 61 146q59 59 146 59q63 0 115 -35l172 250l151 -4l-264 -303q35 -52 35 -113q0 -85 -61 -145q-60 -59 -148 -59q-87 0 -146 59zM531 1455q-29 -30 -29 -77q0 -46 29 -76q30 -32 75 -32q46 0 76 32q31 33 31 76q0 44 -31 77q-30 32 -76 32
q-45 0 -75 -32zM915 1026h125v-1026h-125v197q-46 -104 -136 -157q-91 -54 -218 -54q-137 0 -240 64t-160 184t-57 280q0 158 58 282q57 122 161 188q105 67 238 67q122 0 216 -54q91 -52 138 -155v184zM827 207q88 110 88 311q0 203 -88 313q-89 111 -249 111
q-162 0 -252 -114t-90 -314q0 -198 90 -308t254 -110q158 0 247 111z" />
    <glyph glyph-name="AEacute" unicode="&#x1fc;" horiz-adv-x="2045" 
d="M1935 1348h-796l51 -551h704v-113h-694l53 -573h682v-111h-784l-37 389h-733l-231 -389h-138l879 1458h1044v-110zM1104 500l-78 848h-78l-502 -848h658zM1075 1583h-96l207 309h153z" />
    <glyph glyph-name="aeacute" unicode="&#x1fd;" horiz-adv-x="1814" 
d="M954 528v-8q0 -203 96 -314q95 -110 271 -110q173 0 330 127l47 -98q-66 -60 -170 -100q-102 -39 -205 -39q-160 0 -271 72q-112 73 -165 210q-38 -134 -137 -208t-242 -74q-103 0 -190 41q-84 40 -133 113q-48 72 -48 167q0 113 59 183q59 69 190 102q132 33 357 33h84
v39q0 148 -56 213t-185 65q-178 0 -359 -113l-47 97q75 56 185 91q106 34 215 34q272 0 344 -205q60 99 155 151q99 54 217 54q198 0 309 -132t111 -368v-23h-762zM1072 862q-86 -85 -109 -237h636q-15 159 -93 240q-80 83 -212 83q-134 0 -222 -86zM740 190q87 96 87 250
v88h-79q-182 0 -287 -21q-104 -21 -149 -69q-44 -47 -44 -125q0 -97 70 -158t178 -61q137 0 224 96zM940 1161h-96l207 416h159z" />
    <glyph glyph-name="Oslashacute" unicode="&#x1fe;" horiz-adv-x="1566" 
d="M1373 1085q61 -156 61 -354q0 -230 -79 -398q-79 -169 -226 -259t-347 -90q-186 0 -325 79l-86 -147l-92 53l90 154q-113 99 -174 253q-62 156 -62 353q0 229 78 397q78 169 224 258q149 91 347 91q189 0 328 -78l86 145l92 -53l-90 -154q115 -97 175 -250zM307 438
q43 -126 123 -209l623 1065q-113 68 -271 68q-246 0 -382 -165q-136 -164 -136 -466q0 -167 43 -293zM1164 262q136 166 136 469q0 335 -163 498l-621 -1065q112 -68 266 -68q246 0 382 166zM829 1583h-96l207 309h154z" />
    <glyph glyph-name="oslashacute" unicode="&#x1ff;" horiz-adv-x="1150" 
d="M1004 764q43 -107 43 -246q0 -157 -59 -280q-58 -121 -165 -187q-105 -65 -245 -65q-122 0 -224 51l-71 -123l-86 51l73 129q-79 68 -123 178q-43 107 -43 246q0 158 59 281q58 120 166 186t249 66q118 0 219 -52l69 121l90 -47l-75 -131q79 -68 123 -178zM330 197
l411 706q-69 39 -163 39q-161 0 -253 -112t-92 -312q0 -213 97 -321zM828 206q90 111 90 312q0 207 -97 322l-411 -707q68 -37 165 -37q164 0 253 110zM625 1161h-97l207 416h160z" />
    <glyph glyph-name="uni0200" unicode="&#x200;" horiz-adv-x="1488" 
d="M1305 0l-166 389h-787l-168 -389h-131l635 1458h115l633 -1458h-131zM399 500h691l-345 805zM590 1583l-201 309h127l148 -309h-74zM825 1583l-200 309h129l145 -309h-74z" />
    <glyph glyph-name="uni0201" unicode="&#x201;" horiz-adv-x="1210" 
d="M1040 1026v-1026h-125v197q-46 -104 -136 -157q-91 -54 -218 -54q-137 0 -240 64t-160 184t-57 280q0 158 58 282q57 122 161 188q105 67 238 67q122 0 216 -54q91 -52 138 -155v184h125zM827 207q88 110 88 311q0 203 -88 313q-89 111 -249 111q-162 0 -252 -114
t-90 -314q0 -198 90 -308t254 -110q158 0 247 111zM451 1161l-164 416h133l100 -416h-69zM690 1161l-164 416h133l101 -416h-70z" />
    <glyph glyph-name="uni0202" unicode="&#x202;" horiz-adv-x="1488" 
d="M1305 0l-166 389h-787l-168 -389h-131l635 1458h115l633 -1458h-131zM399 500h691l-345 805zM940 1818q86 -53 131 -167l-92 -39q-50 88 -106 124q-52 33 -128 33q-78 0 -130 -33q-54 -35 -105 -124l-92 39q46 117 132 168q85 51 195 51t195 -52z" />
    <glyph glyph-name="uni0203" unicode="&#x203;" horiz-adv-x="1210" 
d="M1040 1026v-1026h-125v197q-46 -104 -136 -157q-91 -54 -218 -54q-137 0 -240 64t-160 184t-57 280q0 158 58 282q57 122 161 188q105 67 238 67q122 0 216 -54q91 -52 138 -155v184h125zM827 207q88 110 88 311q0 203 -88 313q-89 111 -249 111q-162 0 -252 -114
t-90 -314q0 -198 90 -308t254 -110q158 0 247 111zM802 1455q87 -60 132 -189l-94 -41q-45 102 -103 146t-131 44t-132 -44q-57 -43 -103 -146l-95 39q44 131 132 191q90 61 198 61t196 -61z" />
    <glyph glyph-name="uni0204" unicode="&#x204;" horiz-adv-x="1198" 
d="M188 0v1458h899v-108h-774v-553h734v-113h-734v-575h774v-109h-899zM510 1583l-201 309h127l148 -309h-74zM745 1583l-200 309h129l145 -309h-74z" />
    <glyph glyph-name="uni0205" unicode="&#x205;" horiz-adv-x="1112" 
d="M236 528v-6q0 -206 95 -316t277 -110q186 0 338 127l49 -98q-69 -64 -172 -101q-106 -38 -215 -38q-233 0 -368 141q-136 142 -136 389q0 156 61 280q60 121 169 188q110 67 250 67q202 0 316 -131q114 -130 114 -365v-27h-778zM354 863q-87 -84 -110 -238h651
q-12 157 -92 240t-219 83q-142 0 -230 -85zM428 1161l-164 416h133l101 -416h-70zM668 1161l-164 416h133l100 -416h-69z" />
    <glyph glyph-name="uni0206" unicode="&#x206;" horiz-adv-x="1198" 
d="M188 0v1458h899v-108h-774v-553h734v-113h-734v-575h774v-109h-899zM860 1818q86 -53 131 -167l-92 -39q-51 89 -105 124q-52 33 -128 33q-78 0 -130 -33q-56 -36 -106 -124l-92 39q46 117 132 168q85 51 196 51q109 0 194 -52z" />
    <glyph glyph-name="uni0207" unicode="&#x207;" horiz-adv-x="1112" 
d="M236 528v-6q0 -206 95 -316t277 -110q186 0 338 127l49 -98q-69 -64 -172 -101q-106 -38 -215 -38q-233 0 -368 141q-136 142 -136 389q0 156 61 280q60 121 169 188q110 67 250 67q202 0 316 -131q114 -130 114 -365v-27h-778zM354 863q-87 -84 -110 -238h651
q-12 157 -92 240t-219 83q-142 0 -230 -85zM779 1455q87 -60 132 -189l-94 -41q-45 103 -102 146q-58 44 -131 44t-132 -44t-104 -146l-94 39q44 132 131 191q90 61 199 61q107 0 195 -61z" />
    <glyph glyph-name="uni0208" unicode="&#x208;" horiz-adv-x="503" 
d="M188 0v1458h127v-1458h-127zM96 1583l-200 309h127l147 -309h-74zM332 1583l-201 309h129l146 -309h-74z" />
    <glyph glyph-name="uni0209" unicode="&#x209;" horiz-adv-x="466" 
d="M170 0v1026h123v-1026h-123zM80 1161l-164 416h133l101 -416h-70zM319 1161l-163 416h133l100 -416h-70z" />
    <glyph glyph-name="uni020A" unicode="&#x20a;" horiz-adv-x="503" 
d="M188 0v1458h127v-1458h-127zM446 1818q87 -54 132 -167l-93 -39q-51 89 -105 124q-52 33 -128 33q-78 0 -130 -33q-56 -36 -106 -124l-92 39q46 117 132 168t196 51q109 0 194 -52z" />
    <glyph glyph-name="uni020B" unicode="&#x20b;" horiz-adv-x="466" 
d="M170 0v1026h123v-1026h-123zM431 1455q87 -60 132 -189l-94 -41q-45 103 -102 146q-58 44 -131 44q-74 0 -133 -44q-57 -43 -103 -146l-94 39q44 132 131 191q90 61 199 61q107 0 195 -61z" />
    <glyph glyph-name="uni020C" unicode="&#x20c;" horiz-adv-x="1566" 
d="M437 74q-145 89 -225 258q-79 167 -79 397q0 229 78 397q78 169 224 258q149 91 347 91q199 0 348 -91q148 -91 226 -257q78 -167 78 -396q0 -230 -79 -398q-79 -169 -226 -259t-347 -90q-198 0 -345 90zM1164 262q136 166 136 469t-135 467t-383 164q-246 0 -382 -165
q-136 -164 -136 -466t136 -468q137 -167 382 -167q246 0 382 166zM627 1583l-201 309h127l147 -309h-73zM862 1583l-200 309h129l145 -309h-74z" />
    <glyph glyph-name="uni020D" unicode="&#x20d;" horiz-adv-x="1150" 
d="M329 51q-108 66 -166 187q-59 123 -59 280q0 158 59 281q58 120 166 186t249 66q138 0 245 -66q108 -67 165 -186q59 -123 59 -281q0 -157 -59 -280q-58 -121 -165 -187q-105 -65 -245 -65q-143 0 -249 65zM828 206q90 111 90 312q0 200 -91 312t-249 112
q-161 0 -252 -112q-90 -111 -90 -312q0 -206 88 -313q89 -109 251 -109q164 0 253 110zM422 1161l-164 416h133l101 -416h-70zM662 1161l-164 416h133l100 -416h-69z" />
    <glyph glyph-name="uni020E" unicode="&#x20e;" horiz-adv-x="1566" 
d="M437 74q-145 89 -225 258q-79 167 -79 397q0 229 78 397q78 169 224 258q149 91 347 91q199 0 348 -91q148 -91 226 -257q78 -167 78 -396q0 -230 -79 -398q-79 -169 -226 -259t-347 -90q-198 0 -345 90zM1164 262q136 166 136 469t-135 467t-383 164q-246 0 -382 -165
q-136 -164 -136 -466t136 -468q137 -167 382 -167q246 0 382 166zM977 1818q86 -53 131 -167l-92 -39q-50 88 -106 124q-52 33 -128 33q-78 0 -130 -33q-54 -35 -105 -124l-92 39q47 117 132 168t195 51t195 -52z" />
    <glyph glyph-name="uni020F" unicode="&#x20f;" horiz-adv-x="1150" 
d="M329 51q-108 66 -166 187q-59 123 -59 280q0 158 59 281q58 120 166 186t249 66q138 0 245 -66q108 -67 165 -186q59 -123 59 -281q0 -157 -59 -280q-58 -121 -165 -187q-105 -65 -245 -65q-143 0 -249 65zM828 206q90 111 90 312q0 200 -91 312t-249 112
q-161 0 -252 -112q-90 -111 -90 -312q0 -206 88 -313q89 -109 251 -109q164 0 253 110zM773 1455q87 -60 132 -189l-94 -41q-45 103 -102 146q-58 44 -131 44q-74 0 -133 -44q-57 -43 -103 -146l-94 39q44 132 131 191q90 61 199 61q107 0 195 -61z" />
    <glyph glyph-name="uni0210" unicode="&#x210;" horiz-adv-x="1409" 
d="M1311 0h-131l-183 485q-34 97 -96 132q-61 34 -178 34h-408v-651h-127v1458h564q228 0 352 -103q125 -104 125 -296q0 -142 -75 -238t-214 -135q65 -11 109 -53q45 -44 75 -127zM743 762q359 0 359 299q0 289 -359 289h-430v-588h430zM541 1583l-201 309h127l147 -309
h-73zM776 1583l-201 309h130l145 -309h-74z" />
    <glyph glyph-name="uni0211" unicode="&#x211;" horiz-adv-x="714" 
d="M702 1042l-6 -112q-42 8 -94 8q-156 0 -232 -99q-77 -100 -77 -237v-602h-123v741q0 164 -16 285h118l17 -190q38 103 126 159t197 56q43 0 90 -9zM285 1161l-164 416h133l100 -416h-69zM524 1161l-164 416h134l100 -416h-70z" />
    <glyph glyph-name="uni0212" unicode="&#x212;" horiz-adv-x="1409" 
d="M1311 0h-131l-183 485q-34 97 -96 132q-61 34 -178 34h-408v-651h-127v1458h564q228 0 352 -103q125 -104 125 -296q0 -142 -75 -238t-214 -135q65 -11 109 -53q45 -44 75 -127zM743 762q359 0 359 299q0 289 -359 289h-430v-588h430zM891 1818q86 -53 131 -167l-92 -39
q-50 88 -106 124q-52 33 -128 33q-78 0 -130 -33q-54 -35 -105 -124l-92 39q47 117 132 168q86 51 195 51q110 0 195 -52z" />
    <glyph glyph-name="uni0213" unicode="&#x213;" horiz-adv-x="714" 
d="M702 1042l-6 -112q-42 8 -94 8q-156 0 -232 -99q-77 -100 -77 -237v-602h-123v741q0 164 -16 285h118l17 -190q38 103 126 159t197 56q43 0 90 -9zM636 1455q87 -60 132 -189l-94 -41q-45 102 -103 146t-131 44t-132 -44q-57 -43 -103 -146l-94 39q44 132 131 191
q90 61 198 61t196 -61z" />
    <glyph glyph-name="uni0214" unicode="&#x214;" horiz-adv-x="1486" 
d="M323 130q-145 148 -145 431v897h127v-911q0 -451 440 -451q216 0 327 114q112 115 112 337v911h125v-897q0 -284 -144 -431q-143 -146 -420 -146q-279 0 -422 146zM590 1583l-201 309h127l148 -309h-74zM825 1583l-200 309h129l145 -309h-74z" />
    <glyph glyph-name="uni0215" unicode="&#x215;" horiz-adv-x="1165" 
d="M995 1026v-1026h-121v186q-49 -98 -139 -149t-207 -51q-181 0 -272 100q-92 101 -92 297v643h123v-635q0 -152 61 -223q62 -72 191 -72q151 0 241 95t90 253v582h125zM426 1161l-164 416h133l101 -416h-70zM666 1161l-164 416h133l100 -416h-69z" />
    <glyph glyph-name="uni0216" unicode="&#x216;" horiz-adv-x="1486" 
d="M323 130q-145 148 -145 431v897h127v-911q0 -451 440 -451q216 0 327 114q112 115 112 337v911h125v-897q0 -284 -144 -431q-143 -146 -420 -146q-279 0 -422 146zM940 1818q86 -53 131 -167l-92 -39q-50 88 -106 124q-52 33 -128 33q-78 0 -130 -33q-54 -35 -105 -124
l-92 39q46 117 132 168q85 51 195 51t195 -52z" />
    <glyph glyph-name="uni0217" unicode="&#x217;" horiz-adv-x="1165" 
d="M995 1026v-1026h-121v186q-49 -98 -139 -149t-207 -51q-181 0 -272 100q-92 101 -92 297v643h123v-635q0 -152 61 -223q62 -72 191 -72q151 0 241 95t90 253v582h125zM777 1455q87 -60 132 -189l-94 -41q-45 103 -102 146q-58 44 -131 44t-132 -44t-104 -146l-94 39
q44 132 131 191q90 61 199 61q107 0 195 -61z" />
    <glyph glyph-name="Scommaaccent" unicode="&#x218;" horiz-adv-x="1255" 
d="M337 30q-136 48 -235 144l54 100q108 -96 220 -137t265 -41q186 0 287 76q102 76 102 213q0 80 -50 130q-50 51 -127 79t-204 57q-174 39 -273 77q-105 40 -177 120t-72 213q0 123 63 217q62 93 182 145q121 52 273 52q147 0 277 -49q128 -48 219 -142l-54 -100
q-102 92 -208 135q-105 43 -234 43q-184 0 -288 -80q-103 -79 -103 -219q0 -120 90 -180q91 -61 264 -101l60 -14q168 -40 260 -76q98 -38 164 -110q67 -73 67 -197q0 -119 -63 -210t-182 -141q-120 -50 -273 -50q-173 0 -304 46zM723 -154v-114q0 -77 -23 -141
q-23 -63 -77 -119l-66 51q42 45 56 83q17 45 18 89h-82v151h174z" />
    <glyph glyph-name="scommaaccent" unicode="&#x219;" horiz-adv-x="1011" 
d="M109 123l45 96q83 -68 164 -96q84 -29 192 -29q126 0 193 44t67 128q0 69 -44 110q-43 40 -144 64l-174 39q-122 28 -194 103q-71 74 -71 172q0 135 104 216t275 81q108 0 202 -35q93 -35 155 -101l-48 -96q-141 123 -309 123q-117 0 -184 -47q-66 -46 -66 -131
q0 -70 42 -113q40 -42 130 -63l177 -43q276 -61 276 -273q0 -128 -106 -207t-287 -79q-249 0 -395 137zM588 -154v-114q0 -77 -23 -141q-22 -61 -78 -119l-65 51q42 45 56 83q17 45 18 89h-82v151h174z" />
    <glyph glyph-name="uni021A" unicode="&#x21a;" horiz-adv-x="1220" 
d="M547 0v1348h-522v110h1171v-110h-522v-1348h-127zM696 -154v-114q0 -79 -22 -141q-22 -61 -78 -119l-66 51q44 47 57 83q16 42 17 89h-82v151h174z" />
    <glyph glyph-name="uni021B" unicode="&#x21b;" horiz-adv-x="690" 
d="M344 926v-611q0 -123 47 -170t139 -47q56 0 111 19v-113q-64 -16 -133 -16q-137 0 -212 75q-77 77 -77 228v635h-203v100h203v272l125 48v-320h303v-100h-303zM532 -154v-114q0 -79 -22 -141q-22 -61 -78 -119l-65 51q42 45 56 83q16 42 17 89h-82v151h174z" />
    <glyph glyph-name="uni0227" unicode="&#x227;" horiz-adv-x="1210" 
d="M1040 1026v-1026h-125v197q-46 -104 -136 -157q-91 -54 -218 -54q-137 0 -240 64t-160 184t-57 280q0 158 58 282q57 122 161 188q105 67 238 67q122 0 216 -54q91 -52 138 -155v184h125zM827 207q88 110 88 311q0 203 -88 313q-89 111 -249 111q-162 0 -252 -114
t-90 -314q0 -198 90 -308t254 -110q158 0 247 111zM522 1450h166v-160h-166v160z" />
    <glyph glyph-name="uni0228" unicode="&#x228;" horiz-adv-x="1198" 
d="M313 1350v-553h734v-113h-734v-575h774v-109h-389l-10 -90q28 6 55 6q62 0 108 -37t46 -106q0 -75 -61 -121q-62 -47 -168 -47q-46 0 -95 9t-84 30l29 80q69 -29 154 -29q60 0 89 20q30 21 30 58q0 28 -19 44q-18 15 -55 15q-42 0 -101 -20l-38 30l16 158h-406v1458h899
v-108h-774z" />
    <glyph glyph-name="uni022A" unicode="&#x22a;" horiz-adv-x="1566" 
d="M437 74q-145 89 -225 258q-79 167 -79 397q0 229 78 397q78 169 224 258q149 91 347 91q199 0 348 -91q148 -91 226 -257q78 -167 78 -396q0 -230 -79 -398q-79 -169 -226 -259t-347 -90q-198 0 -345 90zM1164 262q136 166 136 469t-135 467t-383 164q-246 0 -382 -165
q-136 -164 -136 -466t136 -468q137 -167 382 -167q246 0 382 166zM532 1815h154v-150h-154v150zM877 1815h153v-150h-153v150zM475 2019v107h612v-107h-612z" />
    <glyph glyph-name="uni022B" unicode="&#x22b;" horiz-adv-x="1150" 
d="M329 51q-108 66 -166 187q-59 123 -59 280q0 158 59 281q58 120 166 186t249 66q138 0 245 -66q108 -67 165 -186q59 -123 59 -281q0 -157 -59 -280q-58 -121 -165 -187q-105 -65 -245 -65q-143 0 -249 65zM828 206q90 111 90 312q0 200 -91 312t-249 112
q-161 0 -252 -112q-90 -111 -90 -312q0 -206 88 -313q89 -109 251 -109q164 0 253 110zM328 1446h153v-152h-153v152zM672 1446h153v-152h-153v152zM270 1720v107h613v-107h-613z" />
    <glyph glyph-name="uni022C" unicode="&#x22c;" horiz-adv-x="1566" 
d="M437 74q-145 89 -225 258q-79 167 -79 397q0 229 78 397q78 169 224 258q149 91 347 91q199 0 348 -91q148 -91 226 -257q78 -167 78 -396q0 -230 -79 -398q-79 -169 -226 -259t-347 -90q-198 0 -345 90zM1164 262q136 166 136 469t-135 467t-383 164q-246 0 -382 -165
q-136 -164 -136 -466t136 -468q137 -167 382 -167q246 0 382 166zM503 1795q46 58 128 58q45 0 82 -17q40 -19 94 -52q41 -26 70 -40q26 -13 51 -13q47 0 72 34q26 35 26 82h80q0 -103 -46 -159q-47 -58 -128 -58q-42 0 -83 18q-46 20 -93 50q-35 22 -72 40q-22 11 -49 11
q-47 0 -73 -33q-25 -32 -25 -80h-80q0 101 46 159zM475 2019v107h612v-107h-612z" />
    <glyph glyph-name="uni022D" unicode="&#x22d;" horiz-adv-x="1150" 
d="M329 51q-108 66 -166 187q-59 123 -59 280q0 158 59 281q58 120 166 186t249 66q138 0 245 -66q108 -67 165 -186q59 -123 59 -281q0 -157 -59 -280q-58 -121 -165 -187q-105 -65 -245 -65q-143 0 -249 65zM828 206q90 111 90 312q0 200 -91 312t-249 112
q-161 0 -252 -112q-90 -111 -90 -312q0 -206 88 -313q89 -109 251 -109q164 0 253 110zM298 1425q47 58 128 58q43 0 82 -18q40 -19 94 -52q35 -22 72 -40q22 -11 49 -11q48 0 73 34t25 81h80q0 -104 -46 -160q-47 -57 -128 -57q-45 0 -82 17q-40 19 -94 52q-35 22 -72 40
q-22 11 -49 11q-49 0 -73 -33q-25 -34 -25 -81h-80q0 103 46 159zM270 1720v107h613v-107h-613z" />
    <glyph glyph-name="uni0230" unicode="&#x230;" horiz-adv-x="1566" 
d="M437 74q-145 89 -225 258q-79 167 -79 397q0 229 78 397q78 169 224 258q149 91 347 91q199 0 348 -91q148 -91 226 -257q78 -167 78 -396q0 -230 -79 -398q-79 -169 -226 -259t-347 -90q-198 0 -345 90zM1164 262q136 166 136 469t-135 467t-383 164q-246 0 -382 -165
q-136 -164 -136 -466t136 -468q137 -167 382 -167q246 0 382 166zM698 1821h166v-160h-166v160zM475 2019v107h612v-107h-612z" />
    <glyph glyph-name="uni0231" unicode="&#x231;" horiz-adv-x="1150" 
d="M329 51q-108 66 -166 187q-59 123 -59 280q0 158 59 281q58 120 166 186t249 66q138 0 245 -66q108 -67 165 -186q59 -123 59 -281q0 -157 -59 -280q-58 -121 -165 -187q-105 -65 -245 -65q-143 0 -249 65zM828 206q90 111 90 312q0 200 -91 312t-249 112
q-161 0 -252 -112q-90 -111 -90 -312q0 -206 88 -313q89 -109 251 -109q164 0 253 110zM494 1450h165v-160h-165v160zM270 1720v107h613v-107h-613z" />
    <glyph glyph-name="uni0232" unicode="&#x232;" horiz-adv-x="1222" 
d="M1237 1458l-563 -858v-600h-127v604l-563 854h147l481 -743l482 743h143zM303 1688v106h612v-106h-612z" />
    <glyph glyph-name="uni0233" unicode="&#x233;" horiz-adv-x="1075" 
d="M1040 1026l-483 -1132q-72 -168 -179 -247t-269 -112l-25 98q145 34 222 91q75 56 126 174l43 100l-438 1028h133l371 -901l372 901h127zM231 1317v106h613v-106h-613z" />
    <glyph glyph-name="uni0237" unicode="&#x237;" horiz-adv-x="466" 
d="M-6 -336q83 0 130 47q46 46 46 168v1147h123v-1169q0 -153 -74 -230q-73 -76 -203 -76q-54 0 -122 17v113q57 -17 100 -17z" />
    <glyph glyph-name="uni0259" unicode="&#x259;" horiz-adv-x="1110" 
d="M873 909q133 -142 133 -389q0 -158 -58 -282q-56 -120 -163 -187q-103 -65 -246 -65q-207 0 -324 132t-117 369v23h781v6q-1 205 -98 317q-94 109 -271 109q-171 0 -346 -127l-49 96q72 66 179 103t216 37q230 0 363 -142zM764 172q86 84 108 240h-651q12 -159 93 -241
q81 -83 223 -83q141 0 227 84z" />
    <glyph glyph-name="uni02BB" unicode="&#x2bb;" horiz-adv-x="614" 
d="M397 1350v-152h-174v115q0 76 23 140q22 63 78 120l65 -51q-42 -45 -56 -83q-17 -45 -18 -89h82z" />
    <glyph glyph-name="uni02BC" unicode="&#x2bc;" horiz-adv-x="614" 
d="M391 1556v-116q0 -79 -22 -141q-22 -61 -78 -117l-66 49q43 46 57 84q16 42 17 88h-82v153h174z" />
    <glyph glyph-name="uni02BE" unicode="&#x2be;" horiz-adv-x="614" 
d="M455 1489q59 -56 59 -141q0 -86 -59 -142q-60 -57 -144 -57v92q45 0 74 31t29 76q0 44 -29 75t-74 31v92q84 0 144 -57z" />
    <glyph glyph-name="uni02BF" unicode="&#x2bf;" horiz-adv-x="614" 
d="M311 1454q-43 0 -74 -31q-30 -30 -30 -75q0 -46 30 -76q31 -31 74 -31v-92q-85 0 -145 57t-60 142q0 84 60 141t145 57v-92z" />
    <glyph glyph-name="circumflex" unicode="&#x2c6;" horiz-adv-x="614" 
d="M154 1139h-129l235 415h100l236 -415h-129l-156 311z" />
    <glyph glyph-name="caron" unicode="&#x2c7;" horiz-adv-x="614" 
d="M467 1554h129l-236 -415h-100l-235 415h129l157 -313z" />
    <glyph glyph-name="uni02C8" unicode="&#x2c8;" horiz-adv-x="614" 
d="M256 1139v411h109v-411h-109z" />
    <glyph glyph-name="uni02C9" unicode="&#x2c9;" horiz-adv-x="614" 
d="M4 1294v107h612v-107h-612z" />
    <glyph glyph-name="uni02CA" unicode="&#x2ca;" horiz-adv-x="614" 
d="M358 1139h-96l207 415h160z" />
    <glyph glyph-name="uni02CB" unicode="&#x2cb;" horiz-adv-x="614" 
d="M262 1139l-270 415h160l206 -415h-96z" />
    <glyph glyph-name="uni02CC" unicode="&#x2cc;" horiz-adv-x="614" 
d="M256 -559v412h109v-412h-109z" />
    <glyph glyph-name="breve" unicode="&#x2d8;" horiz-adv-x="614" 
d="M115 1267q-88 60 -133 187l94 41q45 -101 103 -144q59 -44 132 -44q71 0 130 44t104 144l94 -39q-44 -130 -131 -189q-90 -61 -197 -61q-106 0 -196 61z" />
    <glyph glyph-name="dotaccent" unicode="&#x2d9;" horiz-adv-x="614" 
d="M227 1427h166v-159h-166v159z" />
    <glyph glyph-name="ring" unicode="&#x2da;" horiz-adv-x="614" 
d="M166 1204q-60 57 -60 144q0 81 61 139q60 57 144 57t144 -57q59 -56 59 -139q0 -88 -59 -144q-60 -57 -144 -57q-85 0 -145 57zM385 1270q29 31 29 78q0 43 -30 73q-31 31 -73 31q-43 0 -74 -31q-30 -30 -30 -73q0 -48 30 -78q31 -31 74 -31q45 0 74 31z" />
    <glyph glyph-name="ogonek" unicode="&#x2db;" horiz-adv-x="614" 
d="M78 -335q-66 60 -66 153q0 102 72 174q71 71 201 92l26 -64q-94 -18 -140 -67t-46 -121q0 -64 37 -98q38 -35 100 -35q58 0 123 37l33 -86q-69 -45 -170 -45q-104 0 -170 60z" />
    <glyph glyph-name="tilde" unicode="&#x2dc;" horiz-adv-x="614" 
d="M32 1403q47 57 128 57q45 0 82 -17q40 -19 94 -52q35 -22 72 -40q24 -12 49 -12q47 0 72 34q26 35 26 81h80q0 -104 -46 -160q-47 -57 -128 -57q-45 0 -82 17q-34 16 -94 53q-35 22 -72 40q-22 11 -49 11q-48 0 -73 -34t-25 -81h-80q0 104 46 160z" />
    <glyph glyph-name="hungarumlaut" unicode="&#x2dd;" horiz-adv-x="614" 
d="M225 1139h-69l100 415h133zM465 1139h-70l101 415h133z" />
    <glyph glyph-name="gravecomb" unicode="&#x300;" 
d="M-352 1139l-271 415h160l207 -415h-96z" />
    <glyph glyph-name="acutecomb" unicode="&#x301;" 
d="M-256 1139h-96l207 415h159z" />
    <glyph glyph-name="uni0302" unicode="&#x302;" 
d="M-461 1139h-129l236 415h100l236 -415h-129l-156 311z" />
    <glyph glyph-name="tildecomb" unicode="&#x303;" 
d="M-583 1403q47 57 128 57q45 0 82 -17q40 -19 94 -52q35 -22 72 -40q24 -12 49 -12q48 0 73 34q26 35 26 81h79q0 -104 -46 -160q-46 -57 -128 -57q-45 0 -82 17q-34 16 -94 53q-40 24 -71 40q-22 11 -50 11q-47 0 -72 -34q-26 -35 -26 -81h-80q0 104 46 160z" />
    <glyph glyph-name="uni0304" unicode="&#x304;" 
d="M-610 1294v107h612v-107h-612z" />
    <glyph glyph-name="uni0306" unicode="&#x306;" 
d="M-500 1267q-88 60 -133 187l94 41q45 -100 104 -144t132 -44q71 0 130 44q58 43 103 144l95 -39q-44 -130 -131 -189q-90 -61 -197 -61t-197 61z" />
    <glyph glyph-name="uni0307" unicode="&#x307;" 
d="M-387 1427h166v-159h-166v159z" />
    <glyph glyph-name="uni0308" unicode="&#x308;" 
d="M-553 1423h154v-151h-154v151zM-209 1423h154v-151h-154v151z" />
    <glyph glyph-name="hookabovecomb" unicode="&#x309;" 
d="M-252 1139h-96v59q0 43 19 69q18 25 61 68q31 29 42 44q13 17 13 38q0 25 -24 38q-23 13 -64 13q-61 0 -127 -24l-29 82q78 37 164 37q90 0 143 -39q54 -40 54 -99q0 -45 -22 -76q-20 -29 -62 -63q-34 -27 -54 -54q-18 -24 -18 -61v-32z" />
    <glyph glyph-name="uni030A" unicode="&#x30a;" 
d="M-449 1204q-59 56 -59 144q0 81 61 139q60 57 144 57q83 0 143 -57t60 -139q0 -87 -60 -144t-143 -57q-86 0 -146 57zM-229 1270q28 29 28 78q0 44 -29 73q-31 31 -73 31q-44 0 -75 -31q-30 -30 -30 -73q0 -48 30 -78q31 -31 75 -31q45 0 74 31z" />
    <glyph glyph-name="uni030B" unicode="&#x30b;" 
d="M-389 1139h-70l101 415h133zM-150 1139h-69l100 415h133z" />
    <glyph glyph-name="uni030C" unicode="&#x30c;" 
d="M-147 1554h129l-236 -415h-100l-236 415h129l158 -313z" />
    <glyph glyph-name="uni030F" unicode="&#x30f;" 
d="M-459 1139l-164 415h134l100 -415h-70zM-219 1139l-164 415h133l100 -415h-69z" />
    <glyph glyph-name="uni0311" unicode="&#x311;" 
d="M-108 1433q88 -61 133 -190l-95 -41q-46 104 -102 147q-58 44 -131 44t-132 -44q-58 -43 -104 -147l-94 39q44 133 131 192q88 60 199 60q108 0 195 -60z" />
    <glyph glyph-name="uni0312" unicode="&#x312;" 
d="M-217 1350v-152h-174v115q0 78 22 140q23 63 78 120l66 -51q-44 -47 -57 -83q-16 -42 -17 -89h82z" />
    <glyph glyph-name="uni031B" unicode="&#x31b;" 
d="M-307 967v47q134 1 187 57q52 55 52 176v27h115v-47q0 -138 -76 -217q-78 -81 -219 -88z" />
    <glyph glyph-name="dotbelowcomb" unicode="&#x323;" 
d="M-385 -209h162v-160h-162v160z" />
    <glyph glyph-name="uni0324" unicode="&#x324;" 
d="M-553 -213h154v-152h-154v152zM-209 -213h154v-152h-154v152z" />
    <glyph glyph-name="uni0326" unicode="&#x326;" 
d="M-217 -154v-114q0 -77 -23 -141q-23 -63 -77 -119l-66 51q42 45 56 83q17 45 18 89h-82v151h174z" />
    <glyph glyph-name="uni0327" unicode="&#x327;" 
d="M-110 -121q47 -38 47 -106q0 -74 -62 -121t-168 -47q-44 0 -94 9q-49 9 -84 30l29 80q69 -29 153 -29q60 0 89 20q30 21 30 58q0 29 -18 44t-56 15q-41 0 -100 -20l-39 30l21 199h104l-14 -131q27 6 55 6q61 0 107 -37z" />
    <glyph glyph-name="uni0328" unicode="&#x328;" 
d="M-537 -335q-65 59 -65 153q0 102 72 174q71 71 200 92l27 -64q-94 -18 -140 -67t-46 -121q0 -65 36 -98q38 -35 101 -35q58 0 123 37l32 -86q-69 -45 -170 -45q-104 0 -170 60z" />
    <glyph glyph-name="uni032E" unicode="&#x32e;" 
d="M-501 -368q-87 60 -132 190l94 41q45 -101 104 -145t132 -44q71 0 130 44q57 42 103 145l95 -39q-44 -133 -131 -192q-88 -60 -197 -60q-111 0 -198 60z" />
    <glyph glyph-name="uni0331" unicode="&#x331;" 
d="M-610 -342v106h612v-106h-612z" />
    <glyph glyph-name="uni0335" unicode="&#x335;" 
d="M-610 459v98h612v-98h-612z" />
    <glyph glyph-name="uni0394" unicode="&#x394;" horiz-adv-x="1474" 
d="M793 1458l616 -1388v-70h-1343v70l616 1388h111zM737 1294l-522 -1183h1045z" />
    <glyph glyph-name="Sigma" unicode="&#x3a3;" horiz-adv-x="1189" 
d="M1104 1458v-110h-866l526 -756v-96l-524 -756h864v-113h-1022v94l567 824l-567 821v92h1022z" />
    <glyph glyph-name="uni03A9" unicode="&#x3a9;" horiz-adv-x="1591" 
d="M1376 467q-93 -176 -293 -356h377v-111h-520v104q191 175 296 369q103 191 103 373q0 244 -143 380t-399 136q-258 0 -401 -136q-144 -136 -144 -380q0 -183 103 -373q104 -191 298 -369v-104h-520v111h375q-202 179 -294 356q-93 179 -93 379q0 194 82 334
q84 143 234 218q154 77 360 77t358 -77q151 -76 234 -218q81 -138 81 -334q0 -201 -94 -379z" />
    <glyph glyph-name="uni03BC" unicode="&#x3bc;" horiz-adv-x="1165" 
d="M995 1026v-1026h-121v186q-49 -98 -139 -149t-207 -51q-158 0 -241 77v-505h-123v1468h123v-635q0 -152 61 -223q62 -72 191 -72q151 0 241 95t90 253v582h125z" />
    <glyph glyph-name="pi" unicode="&#x3c0;" horiz-adv-x="1189" 
d="M1184 92l-13 -104l-92 6q-352 22 -352 373v559h-381q-5 -281 -39 -509q-34 -226 -104 -417h-135q142 384 153 926h-211v100h1102v-100h-260v-570q0 -240 240 -258z" />
    <glyph glyph-name="uni1E08" unicode="&#x1e08;" horiz-adv-x="1400" 
d="M1106 1892l-264 -309h-97l207 309h154zM1028 138q104 42 209 136l53 -100q-85 -89 -205 -138q-117 -47 -262 -52l-8 -74q29 6 55 6q62 0 108 -37t46 -106q0 -75 -61 -121q-62 -47 -168 -47q-45 0 -95 9t-84 30l29 80q69 -29 154 -29q60 0 89 20q30 21 30 58q0 28 -19 44
q-18 15 -55 15q-42 0 -101 -20l-38 30l14 146q-273 24 -430 220q-156 195 -156 523q0 228 80 397t229 257q153 90 353 90q148 0 277 -49q128 -49 218 -142l-53 -100q-105 94 -209 136q-105 42 -233 42q-253 0 -392 -165q-139 -164 -139 -466q0 -303 138 -469t393 -166
q128 0 233 42z" />
    <glyph glyph-name="uni1E09" unicode="&#x1e09;" horiz-adv-x="1003" 
d="M901 1577l-270 -416h-96l206 416h160zM797 27q-87 -36 -187 -41l-8 -76q28 6 55 6q62 0 108 -37t46 -106q0 -75 -61 -121q-62 -47 -168 -47q-46 0 -95 9t-84 30l29 80q69 -29 154 -29q60 0 89 20q30 21 30 58q0 28 -19 44q-18 15 -55 15q-42 0 -101 -20l-38 30l14 150
q-186 24 -294 165t-108 357q0 160 60 282q61 123 170 188q113 67 256 67q106 0 200 -36q93 -35 156 -100l-49 -98q-76 63 -153 95q-72 30 -150 30q-166 0 -262 -114t-96 -314q0 -195 95 -307q95 -111 263 -111q78 0 150 30q75 31 153 93l49 -96q-58 -58 -149 -96z" />
    <glyph glyph-name="uni1E0C" unicode="&#x1e0c;" horiz-adv-x="1513" 
d="M188 1458h469q349 0 537 -188t188 -539t-189 -541t-536 -190h-469v1458zM651 111q297 0 447 156q149 155 149 464q0 617 -596 617h-336v-1237h336zM676 -209h162v-160h-162v160z" />
    <glyph glyph-name="uni1E0D" unicode="&#x1e0d;" horiz-adv-x="1210" 
d="M1040 1507v-1507h-125v197q-46 -104 -136 -157q-91 -54 -218 -54q-134 0 -238 66q-103 66 -161 189q-58 124 -58 281q0 160 57 280t160 184q104 65 240 65q122 0 216 -54q91 -52 138 -155v665h125zM827 207q88 110 88 311q0 202 -88 312q-89 112 -247 112
q-164 0 -254 -111t-90 -309q0 -200 90 -313t252 -113q160 0 249 111zM526 -209h162v-160h-162v160z" />
    <glyph glyph-name="uni1E0E" unicode="&#x1e0e;" horiz-adv-x="1513" 
d="M188 1458h469q349 0 537 -188t188 -539t-189 -541t-536 -190h-469v1458zM651 111q297 0 447 156q149 155 149 464q0 617 -596 617h-336v-1237h336zM451 -342v106h612v-106h-612z" />
    <glyph glyph-name="uni1E0F" unicode="&#x1e0f;" horiz-adv-x="1210" 
d="M1040 1507v-1507h-125v197q-46 -104 -136 -157q-91 -54 -218 -54q-134 0 -238 66q-103 66 -161 189q-58 124 -58 281q0 160 57 280t160 184q104 65 240 65q122 0 216 -54q91 -52 138 -155v665h125zM827 207q88 110 88 311q0 202 -88 312q-89 112 -247 112
q-164 0 -254 -111t-90 -309q0 -200 90 -313t252 -113q160 0 249 111zM301 -342v106h612v-106h-612z" />
    <glyph glyph-name="uni1E14" unicode="&#x1e14;" horiz-adv-x="1198" 
d="M188 0v1458h899v-108h-774v-553h734v-113h-734v-575h774v-109h-899zM358 1688v106h613v-106h-613zM616 1915l-264 309h154l207 -309h-97z" />
    <glyph glyph-name="uni1E15" unicode="&#x1e15;" horiz-adv-x="1112" 
d="M236 528v-6q0 -206 95 -316t277 -110q186 0 338 127l49 -98q-69 -64 -172 -101q-106 -38 -215 -38q-233 0 -368 141q-136 142 -136 389q0 156 61 280q60 121 169 188q110 67 250 67q202 0 316 -131q114 -130 114 -365v-27h-778zM354 863q-87 -84 -110 -238h651
q-12 157 -92 240t-219 83q-142 0 -230 -85zM276 1317v106h613v-106h-613zM535 1565l-271 415h160l207 -415h-96z" />
    <glyph glyph-name="uni1E16" unicode="&#x1e16;" horiz-adv-x="1198" 
d="M188 0v1458h899v-108h-774v-553h734v-113h-734v-575h774v-109h-899zM358 1688v106h613v-106h-613zM713 1915h-97l207 309h154z" />
    <glyph glyph-name="uni1E17" unicode="&#x1e17;" horiz-adv-x="1112" 
d="M236 528v-6q0 -206 95 -316t277 -110q186 0 338 127l49 -98q-69 -64 -172 -101q-106 -38 -215 -38q-233 0 -368 141q-136 142 -136 389q0 156 61 280q60 121 169 188q110 67 250 67q202 0 316 -131q114 -130 114 -365v-27h-778zM354 863q-87 -84 -110 -238h651
q-12 157 -92 240t-219 83q-142 0 -230 -85zM276 1317v106h613v-106h-613zM631 1565h-96l206 415h160z" />
    <glyph glyph-name="uni1E1C" unicode="&#x1e1c;" horiz-adv-x="1198" 
d="M469 1661q-86 51 -131 166l92 41q50 -88 106 -124q53 -34 130 -34q75 0 128 34q54 35 105 124l92 -41q-85 -217 -325 -217q-112 0 -197 51zM313 1350v-553h734v-113h-734v-575h774v-109h-389l-10 -90q28 6 55 6q62 0 108 -37t46 -106q0 -75 -61 -121q-62 -47 -168 -47
q-46 0 -95 9t-84 30l29 80q69 -29 154 -29q60 0 89 20q30 21 30 58q0 28 -19 44q-18 15 -55 15q-42 0 -101 -20l-38 30l16 158h-406v1458h899v-108h-774z" />
    <glyph glyph-name="uni1E1D" unicode="&#x1e1d;" horiz-adv-x="1112" 
d="M387 1289q-88 59 -133 188l94 41q45 -101 104 -145t132 -44q71 0 130 44q57 42 103 145l94 -39q-44 -131 -131 -190q-89 -60 -196 -60q-108 0 -197 60zM236 528v-6q0 -206 95 -316t277 -110q186 0 338 127l49 -98q-60 -57 -158 -96q-93 -37 -198 -43l-8 -76q29 6 55 6
q62 0 108 -37t46 -106q0 -74 -62 -121t-168 -47q-44 0 -94 9t-84 30l29 80q69 -29 153 -29q60 0 89 20q30 21 30 58q0 29 -18 44t-56 15q-41 0 -100 -20l-39 30l15 148q-203 23 -317 161t-114 365q0 156 61 280q60 121 169 188q110 67 250 67q202 0 316 -131
q114 -130 114 -365v-27h-778zM354 863q-87 -84 -110 -238h651q-12 157 -92 240t-219 83q-142 0 -230 -85z" />
    <glyph glyph-name="uni1E20" unicode="&#x1e20;" horiz-adv-x="1486" 
d="M1315 748v-666q-81 -44 -219 -71q-140 -27 -281 -27q-212 0 -366 89t-235 257t-81 401q0 231 81 399t232 256q152 89 359 89q309 0 495 -191l-53 -100q-104 94 -210 136q-105 42 -234 42q-258 0 -399 -164q-140 -162 -140 -467q0 -309 143 -473t410 -164q206 0 383 68
v477h-385v109h500zM494 1688v106h612v-106h-612z" />
    <glyph glyph-name="uni1E21" unicode="&#x1e21;" horiz-adv-x="1218" 
d="M1049 1026v-1030q0 -224 -111 -338q-112 -115 -326 -115q-230 0 -399 111l25 108q101 -60 184 -84q84 -24 192 -24q154 0 233 84q79 83 79 246v264q-45 -102 -140 -161q-90 -56 -221 -56q-135 0 -239 64t-163 180t-59 266q0 151 59 267q59 117 163 179q107 64 239 64
q126 0 220 -54q93 -53 139 -155v184h125zM833 250q91 106 91 291q0 187 -91 294t-251 107q-163 0 -254 -107q-92 -109 -92 -294q0 -186 92 -292t254 -106q159 0 251 107zM307 1317v106h613v-106h-613z" />
    <glyph glyph-name="uni1E24" unicode="&#x1e24;" horiz-adv-x="1560" 
d="M1245 1458h127v-1458h-127v684h-930v-684h-127v1458h127v-661h930v661zM700 -209h162v-160h-162v160z" />
    <glyph glyph-name="uni1E25" unicode="&#x1e25;" horiz-adv-x="1183" 
d="M1018 653v-653h-125v645q0 153 -63 225t-195 72q-154 0 -248 -94t-94 -254v-594h-123v1507h123v-659q49 100 141 151q93 52 213 52q371 0 371 -398zM510 -209h162v-160h-162v160z" />
    <glyph glyph-name="uni1E2A" unicode="&#x1e2a;" horiz-adv-x="1560" 
d="M1245 1458h127v-1458h-127v684h-930v-684h-127v1458h127v-661h930v661zM585 -368q-87 60 -132 190l94 41q46 -103 103 -145q59 -44 132 -44q71 0 130 44t104 145l94 -39q-44 -133 -131 -192q-88 -60 -197 -60q-110 0 -197 60z" />
    <glyph glyph-name="uni1E2B" unicode="&#x1e2b;" horiz-adv-x="1183" 
d="M1018 653v-653h-125v645q0 153 -63 225t-195 72q-154 0 -248 -94t-94 -254v-594h-123v1507h123v-659q49 100 141 151q93 52 213 52q371 0 371 -398zM394 -368q-87 60 -132 190l94 41q45 -101 104 -145t132 -44q71 0 130 44q57 42 103 145l95 -39q-44 -132 -132 -192
t-196 -60q-111 0 -198 60z" />
    <glyph glyph-name="uni1E2E" unicode="&#x1e2e;" horiz-adv-x="503" 
d="M188 0v1458h127v-1458h-127zM2 1815h154v-150h-154v150zM346 1815h154v-150h-154v150zM299 1915h-96l207 309h153z" />
    <glyph glyph-name="uni1E2F" unicode="&#x1e2f;" horiz-adv-x="466" 
d="M170 0v1026h123v-1026h-123zM-14 1446h153v-152h-153v152zM330 1446h153v-152h-153v152zM283 1565h-97l207 415h160z" />
    <glyph glyph-name="uni1E36" unicode="&#x1e36;" horiz-adv-x="1101" 
d="M188 0v1458h127v-1347h754v-111h-881zM553 -209h162v-160h-162v160z" />
    <glyph glyph-name="uni1E37" unicode="&#x1e37;" horiz-adv-x="466" 
d="M170 0v1507h123v-1507h-123zM154 -209h161v-160h-161v160z" />
    <glyph glyph-name="uni1E3A" unicode="&#x1e3a;" horiz-adv-x="1101" 
d="M188 0v1458h127v-1347h754v-111h-881zM328 -342v106h612v-106h-612z" />
    <glyph glyph-name="uni1E3B" unicode="&#x1e3b;" horiz-adv-x="466" 
d="M170 0v1507h123v-1507h-123zM-72 -342v106h613v-106h-613z" />
    <glyph glyph-name="uni1E42" unicode="&#x1e42;" horiz-adv-x="1736" 
d="M1442 1458h106v-1458h-118v1167l-512 -1167h-95l-516 1157l2 -1157h-119v1458h105l577 -1306zM786 -209h162v-160h-162v160z" />
    <glyph glyph-name="uni1E43" unicode="&#x1e43;" horiz-adv-x="1779" 
d="M1616 653v-653h-125v645q0 156 -55 226q-56 71 -176 71q-142 0 -223 -94t-81 -256v-592h-125v645q0 157 -56 226q-57 71 -177 71q-140 0 -222 -94q-83 -95 -83 -256v-592h-123v741q0 164 -16 285h118l17 -184q44 104 128 155q88 54 197 54q249 0 318 -201q44 95 134 147
q94 54 210 54q340 0 340 -398zM813 -209h162v-160h-162v160z" />
    <glyph glyph-name="uni1E44" unicode="&#x1e44;" horiz-adv-x="1519" 
d="M1212 1458h119v-1458h-98l-926 1243v-1243h-119v1458h101l923 -1243v1243zM678 1821h166v-160h-166v160z" />
    <glyph glyph-name="uni1E45" unicode="&#x1e45;" horiz-adv-x="1183" 
d="M1018 653v-653h-125v645q0 153 -63 225t-195 72q-154 0 -248 -94t-94 -254v-594h-123v741q0 164 -16 285h118l17 -188q46 104 141 158q96 55 217 55q371 0 371 -398zM508 1450h166v-160h-166v160z" />
    <glyph glyph-name="uni1E46" unicode="&#x1e46;" horiz-adv-x="1519" 
d="M1212 1458h119v-1458h-98l-926 1243v-1243h-119v1458h101l923 -1243v1243zM680 -209h162v-160h-162v160z" />
    <glyph glyph-name="uni1E47" unicode="&#x1e47;" horiz-adv-x="1183" 
d="M1018 653v-653h-125v645q0 153 -63 225t-195 72q-154 0 -248 -94t-94 -254v-594h-123v741q0 164 -16 285h118l17 -188q46 104 141 158q96 55 217 55q371 0 371 -398zM510 -209h162v-160h-162v160z" />
    <glyph glyph-name="uni1E48" unicode="&#x1e48;" horiz-adv-x="1519" 
d="M1212 1458h119v-1458h-98l-926 1243v-1243h-119v1458h101l923 -1243v1243zM455 -342v106h612v-106h-612z" />
    <glyph glyph-name="uni1E49" unicode="&#x1e49;" horiz-adv-x="1183" 
d="M1018 653v-653h-125v645q0 153 -63 225t-195 72q-154 0 -248 -94t-94 -254v-594h-123v741q0 164 -16 285h118l17 -188q46 104 141 158q96 55 217 55q371 0 371 -398zM285 -342v106h612v-106h-612z" />
    <glyph glyph-name="uni1E4C" unicode="&#x1e4c;" horiz-adv-x="1566" 
d="M437 74q-145 89 -225 258q-79 167 -79 397q0 229 78 397q78 169 224 258q149 91 347 91q199 0 348 -91q148 -91 226 -257q78 -167 78 -396q0 -230 -79 -398q-79 -169 -226 -259t-347 -90q-198 0 -345 90zM1164 262q136 166 136 469t-135 467t-383 164q-246 0 -382 -165
q-136 -164 -136 -466t136 -468q137 -167 382 -167q246 0 382 166zM503 1795q46 58 128 58q45 0 82 -17q40 -19 94 -52q41 -26 70 -40q26 -13 51 -13q47 0 72 34q26 35 26 82h80q0 -103 -46 -159q-47 -58 -128 -58q-42 0 -83 18q-46 20 -93 50q-35 22 -72 40q-22 11 -49 11
q-47 0 -73 -33q-25 -32 -25 -80h-80q0 101 46 159zM829 1915h-96l207 309h154z" />
    <glyph glyph-name="uni1E4D" unicode="&#x1e4d;" horiz-adv-x="1150" 
d="M329 51q-108 66 -166 187q-59 123 -59 280q0 158 59 281q58 120 166 186t249 66q138 0 245 -66q108 -67 165 -186q59 -123 59 -281q0 -157 -59 -280q-58 -121 -165 -187q-105 -65 -245 -65q-143 0 -249 65zM828 206q90 111 90 312q0 200 -91 312t-249 112
q-161 0 -252 -112q-90 -111 -90 -312q0 -206 88 -313q89 -109 251 -109q164 0 253 110zM298 1425q47 58 128 58q43 0 82 -18q40 -19 94 -52q35 -22 72 -40q22 -11 49 -11q48 0 73 34t25 81h80q0 -104 -46 -160q-47 -57 -128 -57q-45 0 -82 17q-40 19 -94 52q-35 22 -72 40
q-22 11 -49 11q-49 0 -73 -33q-25 -34 -25 -81h-80q0 103 46 159zM625 1565h-97l207 415h160z" />
    <glyph glyph-name="uni1E4E" unicode="&#x1e4e;" horiz-adv-x="1566" 
d="M437 74q-145 89 -225 258q-79 167 -79 397q0 229 78 397q78 169 224 258q149 91 347 91q199 0 348 -91q148 -91 226 -257q78 -167 78 -396q0 -230 -79 -398q-79 -169 -226 -259t-347 -90q-198 0 -345 90zM1164 262q136 166 136 469t-135 467t-383 164q-246 0 -382 -165
q-136 -164 -136 -466t136 -468q137 -167 382 -167q246 0 382 166zM503 1795q46 58 128 58q45 0 82 -17q40 -19 94 -52q41 -26 70 -40q26 -13 51 -13q47 0 72 34q26 35 26 82h80q0 -103 -46 -159q-47 -58 -128 -58q-42 0 -83 18q-46 20 -93 50q-35 22 -72 40q-22 11 -49 11
q-47 0 -73 -33q-25 -32 -25 -80h-80q0 101 46 159zM532 2146h154v-149h-154v149zM877 2146h153v-149h-153v149z" />
    <glyph glyph-name="uni1E4F" unicode="&#x1e4f;" horiz-adv-x="1150" 
d="M329 51q-108 66 -166 187q-59 123 -59 280q0 158 59 281q58 120 166 186t249 66q138 0 245 -66q108 -67 165 -186q59 -123 59 -281q0 -157 -59 -280q-58 -121 -165 -187q-105 -65 -245 -65q-143 0 -249 65zM828 206q90 111 90 312q0 200 -91 312t-249 112
q-161 0 -252 -112q-90 -111 -90 -312q0 -206 88 -313q89 -109 251 -109q164 0 253 110zM298 1425q47 58 128 58q43 0 82 -18q40 -19 94 -52q35 -22 72 -40q22 -11 49 -11q48 0 73 34t25 81h80q0 -104 -46 -160q-47 -57 -128 -57q-45 0 -82 17q-40 19 -94 52q-35 22 -72 40
q-22 11 -49 11q-49 0 -73 -33q-25 -34 -25 -81h-80q0 103 46 159zM328 1849h153v-151h-153v151zM672 1849h153v-151h-153v151z" />
    <glyph glyph-name="uni1E50" unicode="&#x1e50;" horiz-adv-x="1566" 
d="M437 74q-145 89 -225 258q-79 167 -79 397q0 229 78 397q78 169 224 258q149 91 347 91q199 0 348 -91q148 -91 226 -257q78 -167 78 -396q0 -230 -79 -398q-79 -169 -226 -259t-347 -90q-198 0 -345 90zM1164 262q136 166 136 469t-135 467t-383 164q-246 0 -382 -165
q-136 -164 -136 -466t136 -468q137 -167 382 -167q246 0 382 166zM475 1688v106h612v-106h-612zM733 1915l-264 309h154l206 -309h-96z" />
    <glyph glyph-name="uni1E51" unicode="&#x1e51;" horiz-adv-x="1150" 
d="M329 51q-108 66 -166 187q-59 123 -59 280q0 158 59 281q58 120 166 186t249 66q138 0 245 -66q108 -67 165 -186q59 -123 59 -281q0 -157 -59 -280q-58 -121 -165 -187q-105 -65 -245 -65q-143 0 -249 65zM828 206q90 111 90 312q0 200 -91 312t-249 112
q-161 0 -252 -112q-90 -111 -90 -312q0 -206 88 -313q89 -109 251 -109q164 0 253 110zM270 1317v106h613v-106h-613zM528 1565l-270 415h160l207 -415h-97z" />
    <glyph glyph-name="uni1E52" unicode="&#x1e52;" horiz-adv-x="1566" 
d="M437 74q-145 89 -225 258q-79 167 -79 397q0 229 78 397q78 169 224 258q149 91 347 91q199 0 348 -91q148 -91 226 -257q78 -167 78 -396q0 -230 -79 -398q-79 -169 -226 -259t-347 -90q-198 0 -345 90zM1164 262q136 166 136 469t-135 467t-383 164q-246 0 -382 -165
q-136 -164 -136 -466t136 -468q137 -167 382 -167q246 0 382 166zM475 1688v106h612v-106h-612zM829 1915h-96l207 309h154z" />
    <glyph glyph-name="uni1E53" unicode="&#x1e53;" horiz-adv-x="1150" 
d="M329 51q-108 66 -166 187q-59 123 -59 280q0 158 59 281q58 120 166 186t249 66q138 0 245 -66q108 -67 165 -186q59 -123 59 -281q0 -157 -59 -280q-58 -121 -165 -187q-105 -65 -245 -65q-143 0 -249 65zM828 206q90 111 90 312q0 200 -91 312t-249 112
q-161 0 -252 -112q-90 -111 -90 -312q0 -206 88 -313q89 -109 251 -109q164 0 253 110zM270 1317v106h613v-106h-613zM625 1565h-97l207 415h160z" />
    <glyph glyph-name="uni1E5A" unicode="&#x1e5a;" horiz-adv-x="1409" 
d="M1311 0h-131l-183 485q-34 97 -96 132q-61 34 -178 34h-408v-651h-127v1458h564q228 0 352 -103q125 -104 125 -296q0 -142 -75 -238t-214 -135q65 -11 109 -53q45 -44 75 -127zM743 762q359 0 359 299q0 289 -359 289h-430v-588h430zM614 -209h162v-160h-162v160z" />
    <glyph glyph-name="uni1E5B" unicode="&#x1e5b;" horiz-adv-x="714" 
d="M702 1042l-6 -112q-42 8 -94 8q-156 0 -232 -99q-77 -100 -77 -237v-602h-123v741q0 164 -16 285h118l17 -190q38 103 126 159t197 56q43 0 90 -9zM154 -209h161v-160h-161v160z" />
    <glyph glyph-name="uni1E5E" unicode="&#x1e5e;" horiz-adv-x="1409" 
d="M1311 0h-131l-183 485q-34 97 -96 132q-61 34 -178 34h-408v-651h-127v1458h564q228 0 352 -103q125 -104 125 -296q0 -142 -75 -238t-214 -135q65 -11 109 -53q45 -44 75 -127zM743 762q359 0 359 299q0 289 -359 289h-430v-588h430zM389 -342v106h612v-106h-612z" />
    <glyph glyph-name="uni1E5F" unicode="&#x1e5f;" horiz-adv-x="714" 
d="M702 1042l-6 -112q-42 8 -94 8q-156 0 -232 -99q-77 -100 -77 -237v-602h-123v741q0 164 -16 285h118l17 -190q38 103 126 159t197 56q43 0 90 -9zM-72 -342v106h613v-106h-613z" />
    <glyph glyph-name="uni1E60" unicode="&#x1e60;" horiz-adv-x="1255" 
d="M337 30q-136 48 -235 144l54 100q108 -96 220 -137t265 -41q186 0 287 76q102 76 102 213q0 80 -50 130q-50 51 -127 79t-204 57q-174 39 -273 77q-105 40 -177 120t-72 213q0 123 63 217q62 93 182 145q121 52 273 52q147 0 277 -49q128 -48 219 -142l-54 -100
q-102 92 -208 135q-105 43 -234 43q-184 0 -288 -80q-103 -79 -103 -219q0 -120 90 -180q91 -61 264 -101l60 -14q168 -40 260 -76q98 -38 164 -110q67 -73 67 -197q0 -119 -63 -210t-182 -141q-120 -50 -273 -50q-173 0 -304 46zM545 1821h166v-160h-166v160z" />
    <glyph glyph-name="uni1E61" unicode="&#x1e61;" horiz-adv-x="1011" 
d="M109 123l45 96q83 -68 164 -96q84 -29 192 -29q126 0 193 44t67 128q0 69 -44 110q-43 40 -144 64l-174 39q-122 28 -194 103q-71 74 -71 172q0 135 104 216t275 81q108 0 202 -35q93 -35 155 -101l-48 -96q-141 123 -309 123q-117 0 -184 -47q-66 -46 -66 -131
q0 -70 42 -113q40 -42 130 -63l177 -43q276 -61 276 -273q0 -128 -106 -207t-287 -79q-249 0 -395 137zM438 1450h166v-160h-166v160z" />
    <glyph glyph-name="uni1E62" unicode="&#x1e62;" horiz-adv-x="1255" 
d="M337 30q-136 48 -235 144l54 100q108 -96 220 -137t265 -41q186 0 287 76q102 76 102 213q0 80 -50 130q-50 51 -127 79t-204 57q-174 39 -273 77q-105 40 -177 120t-72 213q0 123 63 217q62 93 182 145q121 52 273 52q147 0 277 -49q128 -48 219 -142l-54 -100
q-102 92 -208 135q-105 43 -234 43q-184 0 -288 -80q-103 -79 -103 -219q0 -120 90 -180q91 -61 264 -101l60 -14q168 -40 260 -76q98 -38 164 -110q67 -73 67 -197q0 -119 -63 -210t-182 -141q-120 -50 -273 -50q-173 0 -304 46zM555 -209h162v-160h-162v160z" />
    <glyph glyph-name="uni1E63" unicode="&#x1e63;" horiz-adv-x="1011" 
d="M109 123l45 96q83 -68 164 -96q84 -29 192 -29q126 0 193 44t67 128q0 69 -44 110q-43 40 -144 64l-174 39q-122 28 -194 103q-71 74 -71 172q0 135 104 216t275 81q108 0 202 -35q93 -35 155 -101l-48 -96q-141 123 -309 123q-117 0 -184 -47q-66 -46 -66 -131
q0 -70 42 -113q40 -42 130 -63l177 -43q276 -61 276 -273q0 -128 -106 -207t-287 -79q-249 0 -395 137zM420 -209h162v-160h-162v160z" />
    <glyph glyph-name="uni1E64" unicode="&#x1e64;" horiz-adv-x="1255" 
d="M337 30q-136 48 -235 144l54 100q108 -96 220 -137t265 -41q186 0 287 76q102 76 102 213q0 80 -50 130q-50 51 -127 79t-204 57q-174 39 -273 77q-105 40 -177 120t-72 213q0 123 63 217q62 93 182 145q121 52 273 52q147 0 277 -49q128 -48 219 -142l-54 -100
q-102 92 -208 135q-105 43 -234 43q-184 0 -288 -80q-103 -79 -103 -219q0 -120 90 -180q91 -61 264 -101l60 -14q168 -40 260 -76q98 -38 164 -110q67 -73 67 -197q0 -119 -63 -210t-182 -141q-120 -50 -273 -50q-173 0 -304 46zM680 1583h-96l207 309h153zM317 1894h166
v-159h-166v159z" />
    <glyph glyph-name="uni1E65" unicode="&#x1e65;" horiz-adv-x="1011" 
d="M109 123l45 96q83 -68 164 -96q84 -29 192 -29q126 0 193 44t67 128q0 69 -44 110q-43 40 -144 64l-174 39q-122 28 -194 103q-71 74 -71 172q0 135 104 216t275 81q108 0 202 -35q93 -35 155 -101l-48 -96q-141 123 -309 123q-117 0 -184 -47q-66 -46 -66 -131
q0 -70 42 -113q40 -42 130 -63l177 -43q276 -61 276 -273q0 -128 -106 -207t-287 -79q-249 0 -395 137zM571 1159h-96l207 416h160zM238 1561h165v-160h-165v160z" />
    <glyph glyph-name="uni1E66" unicode="&#x1e66;" horiz-adv-x="1255" 
d="M337 30q-136 48 -235 144l54 100q108 -96 220 -137t265 -41q186 0 287 76q102 76 102 213q0 80 -50 130q-50 51 -127 79t-204 57q-174 39 -273 77q-105 40 -177 120t-72 213q0 123 63 217q62 93 182 145q121 52 273 52q147 0 277 -49q128 -48 219 -142l-54 -100
q-102 92 -208 135q-105 43 -234 43q-184 0 -288 -80q-103 -79 -103 -219q0 -120 90 -180q91 -61 264 -101l60 -14q168 -40 260 -76q98 -38 164 -110q67 -73 67 -197q0 -119 -63 -210t-182 -141q-120 -50 -273 -50q-173 0 -304 46zM784 1892h129l-237 -309h-96l-238 309h129
l158 -223zM545 2152h166v-159h-166v159z" />
    <glyph glyph-name="uni1E67" unicode="&#x1e67;" horiz-adv-x="1011" 
d="M109 123l45 96q83 -68 164 -96q84 -29 192 -29q126 0 193 44t67 128q0 69 -44 110q-43 40 -144 64l-174 39q-122 28 -194 103q-71 74 -71 172q0 135 104 216t275 81q108 0 202 -35q93 -35 155 -101l-48 -96q-141 123 -309 123q-117 0 -184 -47q-66 -46 -66 -131
q0 -70 42 -113q40 -42 130 -63l177 -43q276 -61 276 -273q0 -128 -106 -207t-287 -79q-249 0 -395 137zM678 1577h129l-236 -416h-100l-235 416h129l157 -313zM438 1853h166v-159h-166v159z" />
    <glyph glyph-name="uni1E68" unicode="&#x1e68;" horiz-adv-x="1255" 
d="M337 30q-136 48 -235 144l54 100q108 -96 220 -137t265 -41q186 0 287 76q102 76 102 213q0 80 -50 130q-50 51 -127 79t-204 57q-174 39 -273 77q-105 40 -177 120t-72 213q0 123 63 217q62 93 182 145q121 52 273 52q147 0 277 -49q128 -48 219 -142l-54 -100
q-102 92 -208 135q-105 43 -234 43q-184 0 -288 -80q-103 -79 -103 -219q0 -120 90 -180q91 -61 264 -101l60 -14q168 -40 260 -76q98 -38 164 -110q67 -73 67 -197q0 -119 -63 -210t-182 -141q-120 -50 -273 -50q-173 0 -304 46zM555 -209h162v-160h-162v160zM545 1821h166
v-160h-166v160z" />
    <glyph glyph-name="uni1E69" unicode="&#x1e69;" horiz-adv-x="1011" 
d="M109 123l45 96q83 -68 164 -96q84 -29 192 -29q126 0 193 44t67 128q0 69 -44 110q-43 40 -144 64l-174 39q-122 28 -194 103q-71 74 -71 172q0 135 104 216t275 81q108 0 202 -35q93 -35 155 -101l-48 -96q-141 123 -309 123q-117 0 -184 -47q-66 -46 -66 -131
q0 -70 42 -113q40 -42 130 -63l177 -43q276 -61 276 -273q0 -128 -106 -207t-287 -79q-249 0 -395 137zM420 -209h162v-160h-162v160zM438 1450h166v-160h-166v160z" />
    <glyph glyph-name="uni1E6C" unicode="&#x1e6c;" horiz-adv-x="1220" 
d="M547 0v1348h-522v110h1171v-110h-522v-1348h-127zM528 -209h162v-160h-162v160z" />
    <glyph glyph-name="uni1E6D" unicode="&#x1e6d;" horiz-adv-x="690" 
d="M344 926v-611q0 -123 47 -170t139 -47q56 0 111 19v-113q-64 -16 -133 -16q-137 0 -212 75q-77 77 -77 228v635h-203v100h203v272l125 48v-320h303v-100h-303zM365 -209h161v-160h-161v160z" />
    <glyph glyph-name="uni1E6E" unicode="&#x1e6e;" horiz-adv-x="1220" 
d="M547 0v1348h-522v110h1171v-110h-522v-1348h-127zM303 -342v106h612v-106h-612z" />
    <glyph glyph-name="uni1E6F" unicode="&#x1e6f;" horiz-adv-x="690" 
d="M344 926v-611q0 -123 47 -170t139 -47q56 0 111 19v-113q-64 -16 -133 -16q-137 0 -212 75q-77 77 -77 228v635h-203v100h203v272l125 48v-320h303v-100h-303zM139 -342v106h613v-106h-613z" />
    <glyph glyph-name="uni1E78" unicode="&#x1e78;" horiz-adv-x="1486" 
d="M323 130q-145 148 -145 431v897h127v-911q0 -451 440 -451q216 0 327 114q112 115 112 337v911h125v-897q0 -284 -144 -431q-143 -146 -420 -146q-279 0 -422 146zM466 1795q46 58 128 58q45 0 82 -17q40 -19 94 -52q41 -26 70 -40q26 -13 51 -13q48 0 73 34t25 82h80
q0 -103 -46 -159q-47 -58 -128 -58q-43 0 -83 18q-46 20 -93 50q-35 22 -72 40q-22 11 -49 11q-48 0 -73 -33q-25 -32 -25 -80h-80q0 101 46 159zM793 1915h-97l207 309h154z" />
    <glyph glyph-name="uni1E79" unicode="&#x1e79;" horiz-adv-x="1165" 
d="M995 1026v-1026h-121v186q-49 -98 -139 -149t-207 -51q-181 0 -272 100q-92 101 -92 297v643h123v-635q0 -152 61 -223q62 -72 191 -72q151 0 241 95t90 253v582h125zM302 1425q47 58 128 58q43 0 82 -18q40 -19 94 -52q35 -22 72 -40q22 -11 49 -11q48 0 73 34t25 81h80
q0 -104 -46 -160q-47 -57 -128 -57q-45 0 -82 17q-40 19 -94 52q-35 22 -72 40q-22 11 -49 11q-49 0 -73 -33q-25 -34 -25 -81h-80q0 103 46 159zM629 1565h-97l207 415h160z" />
    <glyph glyph-name="uni1E7A" unicode="&#x1e7a;" horiz-adv-x="1486" 
d="M323 130q-145 148 -145 431v897h127v-911q0 -451 440 -451q216 0 327 114q112 115 112 337v911h125v-897q0 -284 -144 -431q-143 -146 -420 -146q-279 0 -422 146zM438 1688v106h613v-106h-613zM496 2146h153v-149h-153v149zM840 2146h153v-149h-153v149z" />
    <glyph glyph-name="uni1E7B" unicode="&#x1e7b;" horiz-adv-x="1165" 
d="M995 1026v-1026h-121v186q-49 -98 -139 -149t-207 -51q-181 0 -272 100q-92 101 -92 297v643h123v-635q0 -152 61 -223q62 -72 191 -72q151 0 241 95t90 253v582h125zM274 1317v106h613v-106h-613zM332 1849h153v-151h-153v151zM676 1849h153v-151h-153v151z" />
    <glyph glyph-name="Wgrave" unicode="&#x1e80;" horiz-adv-x="2267" 
d="M2064 1458h127l-508 -1458h-110l-438 1255l-441 -1255h-108l-508 1458h127l438 -1282l442 1282l101 -2l440 -1276zM1083 1583l-264 309h154l207 -309h-97z" />
    <glyph glyph-name="wgrave" unicode="&#x1e81;" horiz-adv-x="1767" 
d="M1571 1026h127l-373 -1026h-129l-311 866l-314 -866h-131l-370 1026h133l303 -876l319 876h125l310 -876zM836 1161l-271 416h160l207 -416h-96z" />
    <glyph glyph-name="Wacute" unicode="&#x1e82;" horiz-adv-x="2267" 
d="M2064 1458h127l-508 -1458h-110l-438 1255l-441 -1255h-108l-508 1458h127l438 -1282l442 1282l101 -2l440 -1276zM1180 1583h-97l207 309h154z" />
    <glyph glyph-name="wacute" unicode="&#x1e83;" horiz-adv-x="1767" 
d="M1571 1026h127l-373 -1026h-129l-311 866l-314 -866h-131l-370 1026h133l303 -876l319 876h125l310 -876zM932 1161h-96l206 416h160z" />
    <glyph glyph-name="Wdieresis" unicode="&#x1e84;" horiz-adv-x="2267" 
d="M2064 1458h127l-508 -1458h-110l-438 1255l-441 -1255h-108l-508 1458h127l438 -1282l442 1282l101 -2l440 -1276zM883 1815h153v-150h-153v150zM1227 1815h153v-150h-153v150z" />
    <glyph glyph-name="wdieresis" unicode="&#x1e85;" horiz-adv-x="1767" 
d="M1571 1026h127l-373 -1026h-129l-311 866l-314 -866h-131l-370 1026h133l303 -876l319 876h125l310 -876zM635 1446h153v-152h-153v152zM979 1446h154v-152h-154v152z" />
    <glyph glyph-name="uni1E8E" unicode="&#x1e8e;" horiz-adv-x="1222" 
d="M1237 1458l-563 -858v-600h-127v604l-563 854h147l481 -743l482 743h143zM526 1821h166v-160h-166v160z" />
    <glyph glyph-name="uni1E8F" unicode="&#x1e8f;" horiz-adv-x="1075" 
d="M1040 1026l-483 -1132q-72 -168 -179 -247t-269 -112l-25 98q145 34 222 91q75 56 126 174l43 100l-438 1028h133l371 -901l372 901h127zM455 1450h166v-160h-166v160z" />
    <glyph glyph-name="uni1E92" unicode="&#x1e92;" horiz-adv-x="1208" 
d="M238 109h892v-109h-1040v92l873 1258h-873v108h1020v-92zM535 -209h161v-160h-161v160z" />
    <glyph glyph-name="uni1E93" unicode="&#x1e93;" horiz-adv-x="1054" 
d="M264 102h697v-102h-857v86l682 840h-657v100h809v-94zM442 -209h162v-160h-162v160z" />
    <glyph glyph-name="uni1E97" unicode="&#x1e97;" horiz-adv-x="690" 
d="M344 926v-611q0 -123 47 -170t139 -47q56 0 111 19v-113q-64 -16 -133 -16q-137 0 -212 75q-77 77 -77 228v635h-203v100h203v272l125 48v-320h303v-100h-303zM31 1700h153v-150h-153v150zM375 1700h153v-150h-153v150z" />
    <glyph glyph-name="uni1E9E" unicode="&#x1e9e;" horiz-adv-x="1411" 
d="M1196 635q80 -95 80 -238q0 -121 -55 -215t-157 -145t-233 -51q-107 0 -203 34q-95 34 -173 101l51 104q83 -66 158 -96q76 -31 151 -31q156 0 246 81t90 222t-93 212q-94 71 -274 71h-278v113h207q165 0 252 74q88 75 88 212q0 130 -88 203q-89 74 -248 74
q-203 0 -303 -103q-99 -102 -99 -317v-940h-127v954q0 519 531 519q213 0 338 -104t125 -282q0 -117 -56 -203q-55 -85 -157 -124q147 -30 227 -125z" />
    <glyph glyph-name="uni1EA0" unicode="&#x1ea0;" horiz-adv-x="1488" 
d="M1305 0l-166 389h-787l-168 -389h-131l635 1458h115l633 -1458h-131zM399 500h691l-345 805zM664 -209h161v-160h-161v160z" />
    <glyph glyph-name="uni1EA1" unicode="&#x1ea1;" horiz-adv-x="1210" 
d="M1040 1026v-1026h-125v197q-46 -104 -136 -157q-91 -54 -218 -54q-137 0 -240 64t-160 184t-57 280q0 158 58 282q57 122 161 188q105 67 238 67q122 0 216 -54q91 -52 138 -155v184h125zM827 207q88 110 88 311q0 203 -88 313q-89 111 -249 111q-162 0 -252 -114
t-90 -314q0 -198 90 -308t254 -110q158 0 247 111zM524 -209h162v-160h-162v160z" />
    <glyph glyph-name="uni1EA2" unicode="&#x1ea2;" horiz-adv-x="1488" 
d="M1305 0l-166 389h-787l-168 -389h-131l635 1458h115l633 -1458h-131zM399 500h691l-345 805zM795 1583h-99v33q0 34 24 57t62 43q30 17 42 28q14 12 14 25q0 20 -24 31q-23 10 -66 10q-61 0 -127 -24l-29 82q81 35 162 35q93 0 145 -36q53 -36 53 -95q0 -42 -24 -64
q-23 -21 -70 -45q-38 -23 -49 -32q-14 -11 -14 -29v-19z" />
    <glyph glyph-name="uni1EA3" unicode="&#x1ea3;" horiz-adv-x="1210" 
d="M1040 1026v-1026h-125v197q-46 -104 -136 -157q-91 -54 -218 -54q-137 0 -240 64t-160 184t-57 280q0 158 58 282q57 122 161 188q105 67 238 67q122 0 216 -54q91 -52 138 -155v184h125zM827 207q88 110 88 311q0 203 -88 313q-89 111 -249 111q-162 0 -252 -114
t-90 -314q0 -198 90 -308t254 -110q158 0 247 111zM657 1161h-96v60q0 40 20 68q23 32 60 69q31 29 42 44q13 17 13 38q0 25 -23 38t-65 13q-58 0 -127 -25l-28 82q78 37 163 37q92 0 144 -39q53 -39 53 -98q0 -47 -21 -77q-17 -25 -63 -62q-32 -25 -54 -55q-18 -24 -18 -60
v-33z" />
    <glyph glyph-name="uni1EA4" unicode="&#x1ea4;" horiz-adv-x="1488" 
d="M1305 0l-166 389h-787l-168 -389h-131l635 1458h115l633 -1458h-131zM399 500h691l-345 805zM1001 1792h-88l201 293h152zM588 1583h-129l237 307h97l237 -307h-129l-156 221z" />
    <glyph glyph-name="uni1EA5" unicode="&#x1ea5;" horiz-adv-x="1210" 
d="M1040 1026v-1026h-125v197q-46 -104 -136 -157q-91 -54 -218 -54q-137 0 -240 64t-160 184t-57 280q0 158 58 282q57 122 161 188q105 67 238 67q122 0 216 -54q91 -52 138 -155v184h125zM827 207q88 110 88 311q0 203 -88 313q-89 111 -249 111q-162 0 -252 -114
t-90 -314q0 -198 90 -308t254 -110q158 0 247 111zM862 1372h-88l201 293h151zM449 1161h-130l238 309h96l238 -309h-129l-156 221z" />
    <glyph glyph-name="uni1EA6" unicode="&#x1ea6;" horiz-adv-x="1488" 
d="M1305 0l-166 389h-787l-168 -389h-131l635 1458h115l633 -1458h-131zM399 500h691l-345 805zM1004 1792l-226 293h150l162 -293h-86zM588 1583h-129l237 307h97l237 -307h-129l-156 221z" />
    <glyph glyph-name="uni1EA7" unicode="&#x1ea7;" horiz-adv-x="1210" 
d="M1040 1026v-1026h-125v197q-46 -104 -136 -157q-91 -54 -218 -54q-137 0 -240 64t-160 184t-57 280q0 158 58 282q57 122 161 188q105 67 238 67q122 0 216 -54q91 -52 138 -155v184h125zM827 207q88 110 88 311q0 203 -88 313q-89 111 -249 111q-162 0 -252 -114
t-90 -314q0 -198 90 -308t254 -110q158 0 247 111zM864 1372l-225 293h149l162 -293h-86zM449 1161h-130l238 309h96l238 -309h-129l-156 221z" />
    <glyph glyph-name="uni1EA8" unicode="&#x1ea8;" horiz-adv-x="1488" 
d="M1305 0l-166 389h-787l-168 -389h-131l635 1458h115l633 -1458h-131zM399 500h691l-345 805zM1010 1792h-99v35q0 34 23 54q22 19 63 36q29 12 42 21q14 9 14 24q0 21 -24 31q-23 10 -64 10q-60 0 -129 -23l-29 80q81 35 162 35q92 0 146 -36t54 -95q0 -37 -23 -56
q-25 -20 -69 -38q-30 -14 -50 -27q-17 -11 -17 -33v-18zM588 1583h-129l237 307h97l237 -307h-129l-156 221z" />
    <glyph glyph-name="uni1EA9" unicode="&#x1ea9;" horiz-adv-x="1210" 
d="M1040 1026v-1026h-125v197q-46 -104 -136 -157q-91 -54 -218 -54q-137 0 -240 64t-160 184t-57 280q0 158 58 282q57 122 161 188q105 67 238 67q122 0 216 -54q91 -52 138 -155v184h125zM827 207q88 110 88 311q0 203 -88 313q-89 111 -249 111q-162 0 -252 -114
t-90 -314q0 -198 90 -308t254 -110q158 0 247 111zM870 1372h-98v33q0 34 23 54q23 19 63 36q24 10 42 22q13 9 13 23q0 20 -23 32q-22 11 -65 11q-66 0 -129 -27l-28 84q81 35 161 35q93 0 147 -36t54 -97q0 -35 -22 -53q-23 -18 -70 -41q-30 -14 -50 -27q-18 -12 -18 -30
v-19zM449 1161h-130l238 309h96l238 -309h-129l-156 221z" />
    <glyph glyph-name="uni1EAA" unicode="&#x1eaa;" horiz-adv-x="1488" 
d="M1305 0l-166 389h-787l-168 -389h-131l635 1458h115l633 -1458h-131zM399 500h691l-345 805zM467 2064q47 56 127 56q40 0 80 -14q43 -15 96 -40q24 -13 69 -30q28 -11 52 -11q45 0 72 32q26 30 26 69h80q0 -87 -47 -145q-46 -56 -127 -56q-45 0 -83 14q-47 18 -93 41
q-9 6 -35 17q-27 12 -48 18t-38 6q-45 0 -72 -31q-26 -30 -26 -71h-80q0 89 47 145zM588 1583h-129l237 307h97l237 -307h-129l-156 221z" />
    <glyph glyph-name="uni1EAB" unicode="&#x1eab;" horiz-adv-x="1210" 
d="M1040 1026v-1026h-125v197q-46 -104 -136 -157q-91 -54 -218 -54q-137 0 -240 64t-160 184t-57 280q0 158 58 282q57 122 161 188q105 67 238 67q122 0 216 -54q91 -52 138 -155v184h125zM827 207q88 110 88 311q0 203 -88 313q-89 111 -249 111q-162 0 -252 -114
t-90 -314q0 -198 90 -308t254 -110q158 0 247 111zM328 1642q47 56 127 56q40 0 80 -14q51 -18 96 -39q35 -18 68 -31q26 -10 53 -10q44 0 71 31t27 69h80q0 -86 -47 -144q-46 -57 -127 -57q-42 0 -83 15q-47 18 -93 41q-3 2 -35 16q-27 12 -48 18t-38 6q-45 0 -72 -30
t-27 -70h-79q0 87 47 143zM449 1161h-130l238 309h96l238 -309h-129l-156 221z" />
    <glyph glyph-name="uni1EAC" unicode="&#x1eac;" horiz-adv-x="1488" 
d="M1305 0l-166 389h-787l-168 -389h-131l635 1458h115l633 -1458h-131zM399 500h691l-345 805zM664 -209h161v-160h-161v160zM588 1583h-129l237 309h97l237 -309h-129l-156 223z" />
    <glyph glyph-name="uni1EAD" unicode="&#x1ead;" horiz-adv-x="1210" 
d="M1040 1026v-1026h-125v197q-46 -104 -136 -157q-91 -54 -218 -54q-137 0 -240 64t-160 184t-57 280q0 158 58 282q57 122 161 188q105 67 238 67q122 0 216 -54q91 -52 138 -155v184h125zM827 207q88 110 88 311q0 203 -88 313q-89 111 -249 111q-162 0 -252 -114
t-90 -314q0 -198 90 -308t254 -110q158 0 247 111zM524 -209h162v-160h-162v160zM449 1161h-130l236 416h100l236 -416h-129l-156 312z" />
    <glyph glyph-name="uni1EAE" unicode="&#x1eae;" horiz-adv-x="1488" 
d="M1305 0l-166 389h-787l-168 -389h-131l635 1458h115l633 -1458h-131zM399 500h691l-345 805zM791 1792h-93l205 293h154zM549 1624q-86 51 -131 166l90 41q50 -93 105 -126q56 -34 132 -34q77 0 132 34q54 34 104 126l90 -41q-47 -115 -132 -166q-86 -51 -194 -51
q-111 0 -196 51z" />
    <glyph glyph-name="uni1EAF" unicode="&#x1eaf;" horiz-adv-x="1210" 
d="M1040 1026v-1026h-125v197q-46 -104 -136 -157q-91 -54 -218 -54q-137 0 -240 64t-160 184t-57 280q0 158 58 282q57 122 161 188q105 67 238 67q122 0 216 -54q91 -52 138 -155v184h125zM827 207q88 110 88 311q0 203 -88 313q-89 111 -249 111q-162 0 -252 -114
t-90 -314q0 -198 90 -308t254 -110q158 0 247 111zM651 1372h-92l205 293h154zM410 1201q-86 53 -131 169l90 39q50 -91 105 -124q56 -34 132 -34t131 34q56 35 105 124l90 -39q-46 -116 -132 -169q-85 -52 -194 -52q-111 0 -196 52z" />
    <glyph glyph-name="uni1EB0" unicode="&#x1eb0;" horiz-adv-x="1488" 
d="M1305 0l-166 389h-787l-168 -389h-131l635 1458h115l633 -1458h-131zM399 500h691l-345 805zM698 1792l-266 293h154l205 -293h-93zM550 1624q-85 51 -132 166l90 41q50 -93 105 -126q56 -34 132 -34q77 0 132 34q54 34 104 126l90 -41q-45 -115 -131 -166
q-85 -51 -195 -51q-109 0 -195 51z" />
    <glyph glyph-name="uni1EB1" unicode="&#x1eb1;" horiz-adv-x="1210" 
d="M1040 1026v-1026h-125v197q-46 -104 -136 -157q-91 -54 -218 -54q-137 0 -240 64t-160 184t-57 280q0 158 58 282q57 122 161 188q105 67 238 67q122 0 216 -54q91 -52 138 -155v184h125zM827 207q88 110 88 311q0 203 -88 313q-89 111 -249 111q-162 0 -252 -114
t-90 -314q0 -198 90 -308t254 -110q158 0 247 111zM559 1372l-266 293h153l205 -293h-92zM411 1201q-86 53 -132 169l90 39q50 -91 105 -124q56 -34 132 -34t131 34q56 35 105 124l90 -39q-45 -116 -131 -169q-85 -52 -195 -52t-195 52z" />
    <glyph glyph-name="uni1EB2" unicode="&#x1eb2;" horiz-adv-x="1488" 
d="M1305 0l-166 389h-787l-168 -389h-131l635 1458h115l633 -1458h-131zM399 500h691l-345 805zM795 1792h-99v35q0 34 23 54q23 19 63 36q28 12 42 21t14 24q0 21 -24 31q-23 10 -66 10q-58 0 -127 -23l-29 80q81 35 162 35q93 0 145 -36q53 -36 53 -95q0 -37 -23 -56
q-26 -21 -67 -38q-30 -14 -50 -27q-17 -11 -17 -33v-18zM550 1624q-85 51 -132 166l90 41q50 -93 105 -126q56 -34 132 -34q77 0 132 34q54 34 104 126l90 -41q-45 -115 -131 -166q-85 -51 -195 -51q-109 0 -195 51z" />
    <glyph glyph-name="uni1EB3" unicode="&#x1eb3;" horiz-adv-x="1210" 
d="M1040 1026v-1026h-125v197q-46 -104 -136 -157q-91 -54 -218 -54q-137 0 -240 64t-160 184t-57 280q0 158 58 282q57 122 161 188q105 67 238 67q122 0 216 -54q91 -52 138 -155v184h125zM827 207q88 110 88 311q0 203 -88 313q-89 111 -249 111q-162 0 -252 -114
t-90 -314q0 -198 90 -308t254 -110q158 0 247 111zM655 1372h-98v33q0 34 23 54q22 19 63 36q24 10 42 22q13 9 13 23q0 20 -24 32q-22 11 -66 11q-64 0 -127 -27l-28 84q81 35 161 35q94 0 146 -36q53 -36 53 -97q0 -35 -22 -53q-23 -19 -68 -41q-30 -14 -50 -27
q-18 -12 -18 -30v-19zM411 1201q-86 53 -132 169l90 39q50 -91 105 -124q56 -34 132 -34t131 34q56 35 105 124l90 -39q-45 -116 -131 -169q-85 -52 -195 -52t-195 52z" />
    <glyph glyph-name="uni1EB4" unicode="&#x1eb4;" horiz-adv-x="1488" 
d="M1305 0l-166 389h-787l-168 -389h-131l635 1458h115l633 -1458h-131zM399 500h691l-345 805zM466 2046q46 57 128 57q45 0 83 -17q46 -20 93 -50q13 -8 35 -20q24 -14 48 -22q20 -7 38 -7q48 0 73 32t25 78h80q0 -95 -47 -153t-127 -58q-43 0 -83 18q-46 20 -93 50
q-35 22 -72 40q-22 11 -49 11q-48 0 -73 -34t-25 -79h-80q0 98 46 154zM550 1624q-85 51 -132 166l90 41q50 -93 105 -126q56 -34 132 -34q77 0 132 34q54 34 104 126l90 -41q-45 -115 -131 -166q-85 -51 -195 -51q-109 0 -195 51z" />
    <glyph glyph-name="uni1EB5" unicode="&#x1eb5;" horiz-adv-x="1210" 
d="M1040 1026v-1026h-125v197q-46 -104 -136 -157q-91 -54 -218 -54q-137 0 -240 64t-160 184t-57 280q0 158 58 282q57 122 161 188q105 67 238 67q122 0 216 -54q91 -52 138 -155v184h125zM827 207q88 110 88 311q0 203 -88 313q-89 111 -249 111q-162 0 -252 -114
t-90 -314q0 -198 90 -308t254 -110q158 0 247 111zM327 1624q47 57 128 57q45 0 83 -17q46 -20 93 -50q40 -24 71 -40q22 -11 50 -11q48 0 72 33q26 35 26 79h80q0 -95 -47 -153t-127 -58q-42 0 -83 18q-46 20 -93 50q-35 22 -72 40q-22 11 -49 11q-48 0 -73 -33
q-26 -34 -26 -80h-79q0 98 46 154zM411 1201q-86 53 -132 169l90 39q50 -91 105 -124q56 -34 132 -34t131 34q56 35 105 124l90 -39q-45 -116 -131 -169q-85 -52 -195 -52t-195 52z" />
    <glyph glyph-name="uni1EB6" unicode="&#x1eb6;" horiz-adv-x="1488" 
d="M1305 0l-166 389h-787l-168 -389h-131l635 1458h115l633 -1458h-131zM399 500h691l-345 805zM664 -209h161v-160h-161v160zM549 1661q-86 51 -131 166l92 41q51 -89 105 -124q53 -34 130 -34q75 0 128 34q56 36 106 124l92 -41q-85 -217 -326 -217q-111 0 -196 51z" />
    <glyph glyph-name="uni1EB7" unicode="&#x1eb7;" horiz-adv-x="1210" 
d="M1040 1026v-1026h-125v197q-46 -104 -136 -157q-91 -54 -218 -54q-137 0 -240 64t-160 184t-57 280q0 158 58 282q57 122 161 188q105 67 238 67q122 0 216 -54q91 -52 138 -155v184h125zM827 207q88 110 88 311q0 203 -88 313q-89 111 -249 111q-162 0 -252 -114
t-90 -314q0 -198 90 -308t254 -110q158 0 247 111zM524 -209h162v-160h-162v160zM410 1289q-89 60 -134 188l95 41q46 -103 103 -145q59 -44 132 -44q71 0 130 44t104 145l94 -39q-44 -131 -131 -190q-89 -60 -197 -60q-107 0 -196 60z" />
    <glyph glyph-name="uni1EB8" unicode="&#x1eb8;" horiz-adv-x="1198" 
d="M188 0v1458h899v-108h-774v-553h734v-113h-734v-575h774v-109h-899zM584 -209h161v-160h-161v160z" />
    <glyph glyph-name="uni1EB9" unicode="&#x1eb9;" horiz-adv-x="1112" 
d="M236 528v-6q0 -206 95 -316t277 -110q186 0 338 127l49 -98q-69 -64 -172 -101q-106 -38 -215 -38q-233 0 -368 141q-136 142 -136 389q0 156 61 280q60 121 169 188q110 67 250 67q202 0 316 -131q114 -130 114 -365v-27h-778zM354 863q-87 -84 -110 -238h651
q-12 157 -92 240t-219 83q-142 0 -230 -85zM526 -209h162v-160h-162v160z" />
    <glyph glyph-name="uni1EBA" unicode="&#x1eba;" horiz-adv-x="1198" 
d="M188 0v1458h899v-108h-774v-553h734v-113h-734v-575h774v-109h-899zM715 1583h-99v33q0 34 24 57t62 43q30 17 42 28q14 12 14 25q0 20 -24 31q-23 10 -66 10q-61 0 -127 -24l-29 82q81 35 162 35q92 0 145 -36t53 -95q0 -42 -24 -64q-23 -21 -70 -45q-38 -23 -49 -32
q-14 -11 -14 -29v-19z" />
    <glyph glyph-name="uni1EBB" unicode="&#x1ebb;" horiz-adv-x="1112" 
d="M236 528v-6q0 -206 95 -316t277 -110q186 0 338 127l49 -98q-69 -64 -172 -101q-106 -38 -215 -38q-233 0 -368 141q-136 142 -136 389q0 156 61 280q60 121 169 188q110 67 250 67q202 0 316 -131q114 -130 114 -365v-27h-778zM354 863q-87 -84 -110 -238h651
q-12 157 -92 240t-219 83q-142 0 -230 -85zM635 1161h-96v60q0 42 19 68q23 32 60 69q31 29 42 44q14 19 14 38q0 24 -24 38q-23 13 -64 13q-58 0 -127 -25l-29 82q78 37 164 37q90 0 143 -39q54 -40 54 -98q0 -46 -22 -77q-19 -27 -62 -62q-34 -27 -55 -55q-17 -23 -17 -60
v-33z" />
    <glyph glyph-name="uni1EBC" unicode="&#x1ebc;" horiz-adv-x="1198" 
d="M188 0v1458h899v-108h-774v-553h734v-113h-734v-575h774v-109h-899zM386 1795q46 58 128 58q45 0 82 -17q40 -19 94 -52q41 -26 70 -40q26 -13 51 -13q48 0 73 34t25 82h80q0 -103 -46 -159q-47 -58 -128 -58q-43 0 -83 18q-46 20 -93 50q-35 22 -72 40q-22 11 -49 11
q-48 0 -73 -33q-25 -32 -25 -80h-80q0 101 46 159z" />
    <glyph glyph-name="uni1EBD" unicode="&#x1ebd;" horiz-adv-x="1112" 
d="M236 528v-6q0 -206 95 -316t277 -110q186 0 338 127l49 -98q-69 -64 -172 -101q-106 -38 -215 -38q-233 0 -368 141q-136 142 -136 389q0 156 61 280q60 121 169 188q110 67 250 67q202 0 316 -131q114 -130 114 -365v-27h-778zM354 863q-87 -84 -110 -238h651
q-12 157 -92 240t-219 83q-142 0 -230 -85zM304 1425q47 58 128 58q43 0 82 -18q40 -19 94 -52q35 -22 72 -40q22 -11 49 -11q48 0 73 34t25 81h80q0 -104 -46 -160q-47 -57 -128 -57q-45 0 -82 17q-40 19 -94 52q-35 22 -72 40q-22 11 -49 11q-48 0 -72 -33
q-26 -35 -26 -81h-80q0 103 46 159z" />
    <glyph glyph-name="uni1EBE" unicode="&#x1ebe;" horiz-adv-x="1198" 
d="M188 0v1458h899v-108h-774v-553h734v-113h-734v-575h774v-109h-899zM922 1792h-88l200 293h152zM508 1583h-129l237 307h97l237 -307h-129l-155 221z" />
    <glyph glyph-name="uni1EBF" unicode="&#x1ebf;" horiz-adv-x="1112" 
d="M236 528v-6q0 -206 95 -316t277 -110q186 0 338 127l49 -98q-69 -64 -172 -101q-106 -38 -215 -38q-233 0 -368 141q-136 142 -136 389q0 156 61 280q60 121 169 188q110 67 250 67q202 0 316 -131q114 -130 114 -365v-27h-778zM354 863q-87 -84 -110 -238h651
q-12 157 -92 240t-219 83q-142 0 -230 -85zM840 1372h-88l200 293h152zM426 1161h-129l238 309h96l237 -309h-129l-155 221z" />
    <glyph glyph-name="uni1EC0" unicode="&#x1ec0;" horiz-adv-x="1198" 
d="M188 0v1458h899v-108h-774v-553h734v-113h-734v-575h774v-109h-899zM924 1792l-226 293h150l162 -293h-86zM508 1583h-129l237 307h97l237 -307h-129l-155 221z" />
    <glyph glyph-name="uni1EC1" unicode="&#x1ec1;" horiz-adv-x="1112" 
d="M236 528v-6q0 -206 95 -316t277 -110q186 0 338 127l49 -98q-69 -64 -172 -101q-106 -38 -215 -38q-233 0 -368 141q-136 142 -136 389q0 156 61 280q60 121 169 188q110 67 250 67q202 0 316 -131q114 -130 114 -365v-27h-778zM354 863q-87 -84 -110 -238h651
q-12 157 -92 240t-219 83q-142 0 -230 -85zM842 1372l-226 293h150l162 -293h-86zM426 1161h-129l238 309h96l237 -309h-129l-155 221z" />
    <glyph glyph-name="uni1EC2" unicode="&#x1ec2;" horiz-adv-x="1198" 
d="M188 0v1458h899v-108h-774v-553h734v-113h-734v-575h774v-109h-899zM930 1792h-99v35q0 34 23 54q22 19 64 36q26 11 41 21q14 9 14 24q0 21 -24 31q-23 10 -64 10q-60 0 -129 -23l-29 80q81 35 162 35q92 0 146 -36q55 -37 55 -95q0 -36 -24 -56q-25 -20 -69 -38
q-30 -14 -50 -27q-17 -11 -17 -33v-18zM508 1583h-129l237 307h97l237 -307h-129l-155 221z" />
    <glyph glyph-name="uni1EC3" unicode="&#x1ec3;" horiz-adv-x="1112" 
d="M236 528v-6q0 -206 95 -316t277 -110q186 0 338 127l49 -98q-69 -64 -172 -101q-106 -38 -215 -38q-233 0 -368 141q-136 142 -136 389q0 156 61 280q60 121 169 188q110 67 250 67q202 0 316 -131q114 -130 114 -365v-27h-778zM354 863q-87 -84 -110 -238h651
q-12 157 -92 240t-219 83q-142 0 -230 -85zM848 1372h-98v33q0 35 22 54t64 36q24 10 42 22q13 9 13 23q0 20 -24 32q-22 11 -64 11q-66 0 -129 -27l-29 84q81 35 162 35q92 0 146 -36q55 -37 55 -97q0 -35 -23 -53t-70 -41q-30 -14 -50 -27q-17 -11 -17 -30v-19zM426 1161
h-129l238 309h96l237 -309h-129l-155 221z" />
    <glyph glyph-name="uni1EC4" unicode="&#x1ec4;" horiz-adv-x="1198" 
d="M188 0v1458h899v-108h-774v-553h734v-113h-734v-575h774v-109h-899zM387 2064q47 56 127 56q40 0 80 -14q43 -15 96 -40q24 -13 69 -30q28 -11 52 -11q45 0 72 32q26 30 26 69h80q0 -87 -47 -145q-46 -56 -127 -56q-45 0 -83 14q-47 18 -93 41q-9 6 -35 17q-27 12 -48 18
t-38 6q-45 0 -72 -31q-26 -30 -26 -71h-80q0 89 47 145zM508 1583h-129l237 307h97l237 -307h-129l-155 221z" />
    <glyph glyph-name="uni1EC5" unicode="&#x1ec5;" horiz-adv-x="1112" 
d="M236 528v-6q0 -206 95 -316t277 -110q186 0 338 127l49 -98q-69 -64 -172 -101q-106 -38 -215 -38q-233 0 -368 141q-136 142 -136 389q0 156 61 280q60 121 169 188q110 67 250 67q202 0 316 -131q114 -130 114 -365v-27h-778zM354 863q-87 -84 -110 -238h651
q-12 157 -92 240t-219 83q-142 0 -230 -85zM305 1642q47 56 127 56q40 0 80 -14q51 -18 96 -39q32 -17 69 -31q26 -10 52 -10q45 0 72 31q26 30 26 69h80q0 -86 -47 -144q-46 -57 -127 -57q-43 0 -83 15q-47 18 -93 41q-3 2 -35 16q-27 12 -48 18t-38 6q-44 0 -71 -30
t-27 -70h-80q0 87 47 143zM426 1161h-129l238 309h96l237 -309h-129l-155 221z" />
    <glyph glyph-name="uni1EC6" unicode="&#x1ec6;" horiz-adv-x="1198" 
d="M188 0v1458h899v-108h-774v-553h734v-113h-734v-575h774v-109h-899zM584 -209h161v-160h-161v160zM508 1583h-129l237 309h97l237 -309h-129l-155 223z" />
    <glyph glyph-name="uni1EC7" unicode="&#x1ec7;" horiz-adv-x="1112" 
d="M236 528v-6q0 -206 95 -316t277 -110q186 0 338 127l49 -98q-69 -64 -172 -101q-106 -38 -215 -38q-233 0 -368 141q-136 142 -136 389q0 156 61 280q60 121 169 188q110 67 250 67q202 0 316 -131q114 -130 114 -365v-27h-778zM354 863q-87 -84 -110 -238h651
q-12 157 -92 240t-219 83q-142 0 -230 -85zM526 -209h162v-160h-162v160zM426 1161h-129l235 416h101l235 -416h-129l-155 312z" />
    <glyph glyph-name="uni1EC8" unicode="&#x1ec8;" horiz-adv-x="503" 
d="M188 0v1458h127v-1458h-127zM301 1583h-98v33q0 35 23 57q23 21 63 43q30 17 42 28q13 12 13 25q0 21 -23 31t-67 10q-61 0 -127 -24l-29 82q81 35 162 35q93 0 146 -36t53 -95q0 -41 -25 -64q-24 -22 -69 -45q-42 -25 -50 -32q-14 -11 -14 -29v-19z" />
    <glyph glyph-name="uni1EC9" unicode="&#x1ec9;" horiz-adv-x="466" 
d="M170 0v1026h123v-1026h-123zM287 1161h-97v60q0 40 20 68q23 32 60 69q31 29 42 44q14 19 14 38q0 24 -24 38q-23 13 -64 13q-58 0 -127 -25l-29 82q78 37 164 37q90 0 143 -39t53 -98q0 -47 -21 -77q-17 -25 -63 -62q-32 -25 -54 -55q-17 -23 -17 -60v-33z" />
    <glyph glyph-name="uni1ECA" unicode="&#x1eca;" horiz-adv-x="503" 
d="M188 0v1458h127v-1458h-127zM170 -209h162v-160h-162v160z" />
    <glyph glyph-name="uni1ECB" unicode="&#x1ecb;" horiz-adv-x="466" 
d="M170 0v1026h123v-1026h-123zM152 1450h165v-160h-165v160zM150 -209h161v-160h-161v160z" />
    <glyph glyph-name="uni1ECC" unicode="&#x1ecc;" horiz-adv-x="1566" 
d="M437 74q-145 89 -225 258q-79 167 -79 397q0 229 78 397q78 169 224 258q149 91 347 91q199 0 348 -91q148 -91 226 -257q78 -167 78 -396q0 -230 -79 -398q-79 -169 -226 -259t-347 -90q-198 0 -345 90zM1164 262q136 166 136 469t-135 467t-383 164q-246 0 -382 -165
q-136 -164 -136 -466t136 -468q137 -167 382 -167q246 0 382 166zM700 -209h162v-160h-162v160z" />
    <glyph glyph-name="uni1ECD" unicode="&#x1ecd;" horiz-adv-x="1150" 
d="M329 51q-108 66 -166 187q-59 123 -59 280q0 158 59 281q58 120 166 186t249 66q138 0 245 -66q108 -67 165 -186q59 -123 59 -281q0 -157 -59 -280q-58 -121 -165 -187q-105 -65 -245 -65q-143 0 -249 65zM828 206q90 111 90 312q0 200 -91 312t-249 112
q-161 0 -252 -112q-90 -111 -90 -312q0 -206 88 -313q89 -109 251 -109q164 0 253 110zM496 -209h161v-160h-161v160z" />
    <glyph glyph-name="uni1ECE" unicode="&#x1ece;" horiz-adv-x="1566" 
d="M437 74q-145 89 -225 258q-79 167 -79 397q0 229 78 397q78 169 224 258q149 91 347 91q199 0 348 -91q148 -91 226 -257q78 -167 78 -396q0 -230 -79 -398q-79 -169 -226 -259t-347 -90q-198 0 -345 90zM1164 262q136 166 136 469t-135 467t-383 164q-246 0 -382 -165
q-136 -164 -136 -466t136 -468q137 -167 382 -167q246 0 382 166zM831 1583h-98v33q0 34 24 57t62 43q30 17 42 28q14 12 14 25q0 20 -24 31q-23 10 -67 10q-61 0 -127 -24l-28 82q81 35 162 35q93 0 145 -36q53 -36 53 -95q0 -42 -24 -64q-23 -21 -70 -45q-38 -23 -49 -32
q-15 -12 -15 -29v-19z" />
    <glyph glyph-name="uni1ECF" unicode="&#x1ecf;" horiz-adv-x="1150" 
d="M329 51q-108 66 -166 187q-59 123 -59 280q0 158 59 281q58 120 166 186t249 66q138 0 245 -66q108 -67 165 -186q59 -123 59 -281q0 -157 -59 -280q-58 -121 -165 -187q-105 -65 -245 -65q-143 0 -249 65zM828 206q90 111 90 312q0 200 -91 312t-249 112
q-161 0 -252 -112q-90 -111 -90 -312q0 -206 88 -313q89 -109 251 -109q164 0 253 110zM629 1161h-97v60q0 40 20 68q23 32 60 69q31 29 42 44q14 19 14 38q0 24 -24 38q-23 13 -64 13q-58 0 -127 -25l-29 82q78 37 164 37q90 0 143 -39t53 -98q0 -47 -21 -77
q-17 -25 -63 -62q-32 -25 -54 -55q-17 -23 -17 -60v-33z" />
    <glyph glyph-name="uni1ED0" unicode="&#x1ed0;" horiz-adv-x="1566" 
d="M437 74q-145 89 -225 258q-79 167 -79 397q0 229 78 397q78 169 224 258q149 91 347 91q199 0 348 -91q148 -91 226 -257q78 -167 78 -396q0 -230 -79 -398q-79 -169 -226 -259t-347 -90q-198 0 -345 90zM1164 262q136 166 136 469t-135 467t-383 164q-246 0 -382 -165
q-136 -164 -136 -466t136 -468q137 -167 382 -167q246 0 382 166zM1038 1792h-88l201 293h152zM625 1583h-129l237 307h96l238 -307h-129l-156 221z" />
    <glyph glyph-name="uni1ED1" unicode="&#x1ed1;" horiz-adv-x="1150" 
d="M329 51q-108 66 -166 187q-59 123 -59 280q0 158 59 281q58 120 166 186t249 66q138 0 245 -66q108 -67 165 -186q59 -123 59 -281q0 -157 -59 -280q-58 -121 -165 -187q-105 -65 -245 -65q-143 0 -249 65zM828 206q90 111 90 312q0 200 -91 312t-249 112
q-161 0 -252 -112q-90 -111 -90 -312q0 -206 88 -313q89 -109 251 -109q164 0 253 110zM834 1372h-89l201 293h152zM420 1161h-129l237 309h97l237 -309h-129l-155 221z" />
    <glyph glyph-name="uni1ED2" unicode="&#x1ed2;" horiz-adv-x="1566" 
d="M437 74q-145 89 -225 258q-79 167 -79 397q0 229 78 397q78 169 224 258q149 91 347 91q199 0 348 -91q148 -91 226 -257q78 -167 78 -396q0 -230 -79 -398q-79 -169 -226 -259t-347 -90q-198 0 -345 90zM1164 262q136 166 136 469t-135 467t-383 164q-246 0 -382 -165
q-136 -164 -136 -466t136 -468q137 -167 382 -167q246 0 382 166zM1040 1792l-225 293h150l161 -293h-86zM625 1583h-129l237 307h96l238 -307h-129l-156 221z" />
    <glyph glyph-name="uni1ED3" unicode="&#x1ed3;" horiz-adv-x="1150" 
d="M329 51q-108 66 -166 187q-59 123 -59 280q0 158 59 281q58 120 166 186t249 66q138 0 245 -66q108 -67 165 -186q59 -123 59 -281q0 -157 -59 -280q-58 -121 -165 -187q-105 -65 -245 -65q-143 0 -249 65zM828 206q90 111 90 312q0 200 -91 312t-249 112
q-161 0 -252 -112q-90 -111 -90 -312q0 -206 88 -313q89 -109 251 -109q164 0 253 110zM836 1372l-226 293h150l162 -293h-86zM420 1161h-129l237 309h97l237 -309h-129l-155 221z" />
    <glyph glyph-name="uni1ED4" unicode="&#x1ed4;" horiz-adv-x="1566" 
d="M437 74q-145 89 -225 258q-79 167 -79 397q0 229 78 397q78 169 224 258q149 91 347 91q199 0 348 -91q148 -91 226 -257q78 -167 78 -396q0 -230 -79 -398q-79 -169 -226 -259t-347 -90q-198 0 -345 90zM1164 262q136 166 136 469t-135 467t-383 164q-246 0 -382 -165
q-136 -164 -136 -466t136 -468q137 -167 382 -167q246 0 382 166zM1047 1792h-99v35q0 34 23 54q23 19 63 36q28 12 42 21t14 24q0 21 -24 31q-23 10 -65 10q-60 0 -129 -23l-28 80q81 35 162 35q92 0 146 -36t54 -95q0 -37 -23 -56q-25 -20 -69 -38q-30 -14 -50 -27
q-17 -11 -17 -33v-18zM625 1583h-129l237 307h96l238 -307h-129l-156 221z" />
    <glyph glyph-name="uni1ED5" unicode="&#x1ed5;" horiz-adv-x="1150" 
d="M329 51q-108 66 -166 187q-59 123 -59 280q0 158 59 281q58 120 166 186t249 66q138 0 245 -66q108 -67 165 -186q59 -123 59 -281q0 -157 -59 -280q-58 -121 -165 -187q-105 -65 -245 -65q-143 0 -249 65zM828 206q90 111 90 312q0 200 -91 312t-249 112
q-161 0 -252 -112q-90 -111 -90 -312q0 -206 88 -313q89 -109 251 -109q164 0 253 110zM842 1372h-99v33q0 34 23 54q22 19 63 36q24 10 42 22q14 9 14 23q0 20 -24 32q-22 11 -64 11q-66 0 -129 -27l-29 84q81 35 162 35q92 0 146 -36t54 -97q0 -35 -22 -53
q-23 -18 -70 -41q-30 -14 -50 -27q-17 -11 -17 -30v-19zM420 1161h-129l237 309h97l237 -309h-129l-155 221z" />
    <glyph glyph-name="uni1ED6" unicode="&#x1ed6;" horiz-adv-x="1566" 
d="M437 74q-145 89 -225 258q-79 167 -79 397q0 229 78 397q78 169 224 258q149 91 347 91q199 0 348 -91q148 -91 226 -257q78 -167 78 -396q0 -230 -79 -398q-79 -169 -226 -259t-347 -90q-198 0 -345 90zM1164 262q136 166 136 469t-135 467t-383 164q-246 0 -382 -165
q-136 -164 -136 -466t136 -468q137 -167 382 -167q246 0 382 166zM504 2064q47 56 127 56q40 0 80 -14q43 -15 96 -40q24 -13 69 -30q28 -11 52 -11q44 0 71 32q27 31 27 69h80q0 -87 -47 -145q-46 -56 -127 -56q-45 0 -83 14q-47 18 -93 41q-9 6 -35 17q-27 12 -48 18
t-38 6q-45 0 -72 -31q-26 -30 -26 -71h-80q0 89 47 145zM625 1583h-129l237 307h96l238 -307h-129l-156 221z" />
    <glyph glyph-name="uni1ED7" unicode="&#x1ed7;" horiz-adv-x="1150" 
d="M329 51q-108 66 -166 187q-59 123 -59 280q0 158 59 281q58 120 166 186t249 66q138 0 245 -66q108 -67 165 -186q59 -123 59 -281q0 -157 -59 -280q-58 -121 -165 -187q-105 -65 -245 -65q-143 0 -249 65zM828 206q90 111 90 312q0 200 -91 312t-249 112
q-161 0 -252 -112q-90 -111 -90 -312q0 -206 88 -313q89 -109 251 -109q164 0 253 110zM299 1642q47 56 127 56q40 0 80 -14q51 -18 96 -39q32 -17 69 -31q26 -10 52 -10q45 0 72 31q26 30 26 69h80q0 -86 -47 -144q-47 -57 -127 -57q-43 0 -83 15q-47 18 -93 41
q-3 2 -35 16q-27 12 -48 18t-38 6q-45 0 -72 -30q-26 -29 -26 -70h-80q0 87 47 143zM420 1161h-129l237 309h97l237 -309h-129l-155 221z" />
    <glyph glyph-name="uni1ED8" unicode="&#x1ed8;" horiz-adv-x="1566" 
d="M437 74q-145 89 -225 258q-79 167 -79 397q0 229 78 397q78 169 224 258q149 91 347 91q199 0 348 -91q148 -91 226 -257q78 -167 78 -396q0 -230 -79 -398q-79 -169 -226 -259t-347 -90q-198 0 -345 90zM1164 262q136 166 136 469t-135 467t-383 164q-246 0 -382 -165
q-136 -164 -136 -466t136 -468q137 -167 382 -167q246 0 382 166zM700 -209h162v-160h-162v160zM625 1583h-129l237 309h96l238 -309h-129l-156 223z" />
    <glyph glyph-name="uni1ED9" unicode="&#x1ed9;" horiz-adv-x="1150" 
d="M329 51q-108 66 -166 187q-59 123 -59 280q0 158 59 281q58 120 166 186t249 66q138 0 245 -66q108 -67 165 -186q59 -123 59 -281q0 -157 -59 -280q-58 -121 -165 -187q-105 -65 -245 -65q-143 0 -249 65zM828 206q90 111 90 312q0 200 -91 312t-249 112
q-161 0 -252 -112q-90 -111 -90 -312q0 -206 88 -313q89 -109 251 -109q164 0 253 110zM496 -209h161v-160h-161v160zM420 1161h-129l235 416h101l235 -416h-129l-155 312z" />
    <glyph glyph-name="uni1EDA" unicode="&#x1eda;" horiz-adv-x="1566" 
d="M1358 1457q-77 -80 -211 -87q139 -92 213 -255q74 -165 74 -384q0 -230 -79 -398t-227 -259q-147 -90 -346 -90q-197 0 -344 90t-226 259q-79 168 -79 396q0 230 79 397q80 168 226 258q149 91 353 91q35 0 157 -9q101 -8 131 -8q132 2 186 54t54 178v28h115v-47
q0 -135 -76 -214zM1165 1198q-135 164 -383 164q-246 0 -382 -165q-136 -164 -136 -466t136 -468q137 -167 382 -167q246 0 382 166t136 469t-135 467zM829 1583h-96l207 309h154z" />
    <glyph glyph-name="uni1EDB" unicode="&#x1edb;" horiz-adv-x="1150" 
d="M994 783q53 -115 53 -265q0 -157 -59 -280q-58 -121 -165 -187q-105 -65 -245 -65q-143 0 -249 65q-108 66 -166 187q-59 123 -59 280q0 158 59 281q58 120 166 186t246 66q25 0 53 -2q8 -1 20 -3t16 -2q33 -6 57 -6q106 0 156 56q49 55 49 182v27h114v-48
q0 -109 -50 -185q-50 -75 -144 -105q95 -67 148 -182zM828 206q90 111 90 312q0 200 -91 312t-249 112q-161 0 -252 -112q-90 -111 -90 -312q0 -206 88 -313q89 -109 251 -109q164 0 253 110zM625 1161h-97l207 416h160z" />
    <glyph glyph-name="uni1EDC" unicode="&#x1edc;" horiz-adv-x="1566" 
d="M1358 1457q-77 -80 -211 -87q139 -92 213 -255q74 -165 74 -384q0 -230 -79 -398t-227 -259q-147 -90 -346 -90q-197 0 -344 90t-226 259q-79 168 -79 396q0 230 79 397q80 168 226 258q149 91 353 91q35 0 157 -9q101 -8 131 -8q132 2 186 54t54 178v28h115v-47
q0 -135 -76 -214zM1165 1198q-135 164 -383 164q-246 0 -382 -165q-136 -164 -136 -466t136 -468q137 -167 382 -167q246 0 382 166t136 469t-135 467zM733 1583l-264 309h154l206 -309h-96z" />
    <glyph glyph-name="uni1EDD" unicode="&#x1edd;" horiz-adv-x="1150" 
d="M994 783q53 -115 53 -265q0 -157 -59 -280q-58 -121 -165 -187q-105 -65 -245 -65q-143 0 -249 65q-108 66 -166 187q-59 123 -59 280q0 158 59 281q58 120 166 186t246 66q25 0 53 -2q8 -1 20 -3t16 -2q33 -6 57 -6q106 0 156 56q49 55 49 182v27h114v-48
q0 -109 -50 -185q-50 -75 -144 -105q95 -67 148 -182zM828 206q90 111 90 312q0 200 -91 312t-249 112q-161 0 -252 -112q-90 -111 -90 -312q0 -206 88 -313q89 -109 251 -109q164 0 253 110zM528 1161l-270 416h160l207 -416h-97z" />
    <glyph glyph-name="uni1EDE" unicode="&#x1ede;" horiz-adv-x="1566" 
d="M1358 1457q-77 -80 -211 -87q139 -92 213 -255q74 -165 74 -384q0 -230 -79 -398t-227 -259q-147 -90 -346 -90q-197 0 -344 90t-226 259q-79 168 -79 396q0 230 79 397q80 168 226 258q149 91 353 91q35 0 157 -9q101 -8 131 -8q132 2 186 54t54 178v28h115v-47
q0 -135 -76 -214zM1165 1198q-135 164 -383 164q-246 0 -382 -165q-136 -164 -136 -466t136 -468q137 -167 382 -167q246 0 382 166t136 469t-135 467zM831 1583h-98v33q0 34 24 57t62 43q30 17 42 28q13 12 13 25q0 21 -23 31t-67 10q-61 0 -127 -24l-28 82q81 35 162 35
q93 0 145 -36q53 -36 53 -95q0 -42 -24 -64q-23 -21 -70 -45q-38 -23 -49 -32q-15 -12 -15 -29v-19z" />
    <glyph glyph-name="uni1EDF" unicode="&#x1edf;" horiz-adv-x="1150" 
d="M994 783q53 -115 53 -265q0 -157 -59 -280q-58 -121 -165 -187q-105 -65 -245 -65q-143 0 -249 65q-108 66 -166 187q-59 123 -59 280q0 158 59 281q58 120 166 186t246 66q25 0 53 -2q8 -1 20 -3t16 -2q33 -6 57 -6q106 0 156 56q49 55 49 182v27h114v-48
q0 -109 -50 -185q-50 -75 -144 -105q95 -67 148 -182zM828 206q90 111 90 312q0 200 -91 312t-249 112q-161 0 -252 -112q-90 -111 -90 -312q0 -206 88 -313q89 -109 251 -109q164 0 253 110zM629 1161h-97v60q0 40 20 68q23 32 60 69q31 29 42 44q14 19 14 38q0 24 -24 38
q-23 13 -64 13q-58 0 -127 -25l-29 82q78 37 164 37q90 0 143 -39t53 -98q0 -47 -21 -77q-17 -25 -63 -62q-32 -25 -54 -55q-17 -23 -17 -60v-33z" />
    <glyph glyph-name="uni1EE0" unicode="&#x1ee0;" horiz-adv-x="1566" 
d="M1358 1457q-77 -80 -211 -87q139 -92 213 -255q74 -165 74 -384q0 -230 -79 -398t-227 -259q-147 -90 -346 -90q-197 0 -344 90t-226 259q-79 168 -79 396q0 230 79 397q80 168 226 258q149 91 353 91q35 0 157 -9q101 -8 131 -8q132 2 186 54t54 178v28h115v-47
q0 -135 -76 -214zM1165 1198q-135 164 -383 164q-246 0 -382 -165q-136 -164 -136 -466t136 -468q137 -167 382 -167q246 0 382 166t136 469t-135 467zM503 1795q46 58 128 58q45 0 82 -17q40 -19 94 -52q41 -26 70 -40q26 -13 51 -13q47 0 72 34q26 35 26 82h80
q0 -103 -46 -159q-47 -58 -128 -58q-42 0 -83 18q-46 20 -93 50q-35 22 -72 40q-22 11 -49 11q-47 0 -73 -33q-25 -32 -25 -80h-80q0 101 46 159z" />
    <glyph glyph-name="uni1EE1" unicode="&#x1ee1;" horiz-adv-x="1150" 
d="M994 783q53 -115 53 -265q0 -157 -59 -280q-58 -121 -165 -187q-105 -65 -245 -65q-143 0 -249 65q-108 66 -166 187q-59 123 -59 280q0 158 59 281q58 120 166 186t246 66q25 0 53 -2q8 -1 20 -3t16 -2q33 -6 57 -6q106 0 156 56q49 55 49 182v27h114v-48
q0 -109 -50 -185q-50 -75 -144 -105q95 -67 148 -182zM828 206q90 111 90 312q0 200 -91 312t-249 112q-161 0 -252 -112q-90 -111 -90 -312q0 -206 88 -313q89 -109 251 -109q164 0 253 110zM298 1425q47 58 128 58q43 0 82 -18q40 -19 94 -52q35 -22 72 -40q22 -11 49 -11
q48 0 73 34t25 81h80q0 -104 -46 -160q-47 -57 -128 -57q-45 0 -82 17q-40 19 -94 52q-35 22 -72 40q-22 11 -49 11q-49 0 -73 -33q-25 -34 -25 -81h-80q0 103 46 159z" />
    <glyph glyph-name="uni1EE2" unicode="&#x1ee2;" horiz-adv-x="1566" 
d="M1358 1457q-77 -80 -211 -87q139 -92 213 -255q74 -165 74 -384q0 -230 -79 -398t-227 -259q-147 -90 -346 -90q-197 0 -344 90t-226 259q-79 168 -79 396q0 230 79 397q80 168 226 258q149 91 353 91q35 0 157 -9q101 -8 131 -8q132 2 186 54t54 178v28h115v-47
q0 -135 -76 -214zM1165 1198q-135 164 -383 164q-246 0 -382 -165q-136 -164 -136 -466t136 -468q137 -167 382 -167q246 0 382 166t136 469t-135 467zM702 -209h162v-160h-162v160z" />
    <glyph glyph-name="uni1EE3" unicode="&#x1ee3;" horiz-adv-x="1150" 
d="M994 783q53 -115 53 -265q0 -157 -59 -280q-58 -121 -165 -187q-105 -65 -245 -65q-143 0 -249 65q-108 66 -166 187q-59 123 -59 280q0 158 59 281q58 120 166 186t246 66q25 0 53 -2q8 -1 20 -3t16 -2q33 -6 57 -6q106 0 156 56q49 55 49 182v27h114v-48
q0 -109 -50 -185q-50 -75 -144 -105q95 -67 148 -182zM828 206q90 111 90 312q0 200 -91 312t-249 112q-161 0 -252 -112q-90 -111 -90 -312q0 -206 88 -313q89 -109 251 -109q164 0 253 110zM496 -209h161v-160h-161v160z" />
    <glyph glyph-name="uni1EE4" unicode="&#x1ee4;" horiz-adv-x="1486" 
d="M323 130q-145 148 -145 431v897h127v-911q0 -451 440 -451q216 0 327 114q112 115 112 337v911h125v-897q0 -284 -144 -431q-143 -146 -420 -146q-279 0 -422 146zM664 -209h161v-160h-161v160z" />
    <glyph glyph-name="uni1EE5" unicode="&#x1ee5;" horiz-adv-x="1165" 
d="M995 1026v-1026h-121v186q-49 -98 -139 -149t-207 -51q-181 0 -272 100q-92 101 -92 297v643h123v-635q0 -152 61 -223q62 -72 191 -72q151 0 241 95t90 253v582h125zM500 -209h162v-160h-162v160z" />
    <glyph glyph-name="uni1EE6" unicode="&#x1ee6;" horiz-adv-x="1486" 
d="M323 130q-145 148 -145 431v897h127v-911q0 -451 440 -451q216 0 327 114q112 115 112 337v911h125v-897q0 -284 -144 -431q-143 -146 -420 -146q-279 0 -422 146zM795 1583h-99v33q0 34 24 57t62 43q30 17 42 28q14 12 14 25q0 20 -24 31q-23 10 -66 10q-61 0 -127 -24
l-29 82q81 35 162 35q93 0 145 -36q53 -36 53 -95q0 -42 -24 -64q-23 -21 -70 -45q-38 -23 -49 -32q-14 -11 -14 -29v-19z" />
    <glyph glyph-name="uni1EE7" unicode="&#x1ee7;" horiz-adv-x="1165" 
d="M995 1026v-1026h-121v186q-49 -98 -139 -149t-207 -51q-181 0 -272 100q-92 101 -92 297v643h123v-635q0 -152 61 -223q62 -72 191 -72q151 0 241 95t90 253v582h125zM633 1161h-96v60q0 42 19 68q23 32 60 69q31 29 42 44q14 19 14 38q0 24 -24 38q-23 13 -64 13
q-58 0 -127 -25l-29 82q78 37 164 37q90 0 143 -39t53 -98q0 -47 -21 -77q-19 -27 -62 -62q-34 -27 -55 -55q-17 -23 -17 -60v-33z" />
    <glyph glyph-name="uni1EE8" unicode="&#x1ee8;" horiz-adv-x="1486" 
d="M1554 1718v-47q0 -125 -63 -202t-182 -95v-813q0 -284 -144 -431q-143 -146 -420 -146q-279 0 -422 146q-145 148 -145 431v897h127v-911q0 -451 440 -451q216 0 327 114q112 115 112 337v911h37q116 1 168 55q51 53 51 177v28h114zM793 1583h-97l207 309h154z" />
    <glyph glyph-name="uni1EE9" unicode="&#x1ee9;" horiz-adv-x="1187" 
d="M1245 1303v-48q0 -133 -64 -212q-63 -78 -186 -93v-950h-121v186q-49 -98 -139 -149t-207 -51q-181 0 -272 100q-92 101 -92 297v643h123v-635q0 -152 61 -223q62 -72 191 -72q151 0 241 95t90 253v582h37q119 2 171 60t52 190v27h115zM629 1161h-97l207 416h160z" />
    <glyph glyph-name="uni1EEA" unicode="&#x1eea;" horiz-adv-x="1486" 
d="M1554 1718v-47q0 -125 -63 -202t-182 -95v-813q0 -284 -144 -431q-143 -146 -420 -146q-279 0 -422 146q-145 148 -145 431v897h127v-911q0 -451 440 -451q216 0 327 114q112 115 112 337v911h37q116 1 168 55q51 53 51 177v28h114zM696 1583l-264 309h154l207 -309h-97z
" />
    <glyph glyph-name="uni1EEB" unicode="&#x1eeb;" horiz-adv-x="1187" 
d="M1245 1303v-48q0 -133 -64 -212q-63 -78 -186 -93v-950h-121v186q-49 -98 -139 -149t-207 -51q-181 0 -272 100q-92 101 -92 297v643h123v-635q0 -152 61 -223q62 -72 191 -72q151 0 241 95t90 253v582h37q119 2 171 60t52 190v27h115zM532 1161l-270 416h160l207 -416
h-97z" />
    <glyph glyph-name="uni1EEC" unicode="&#x1eec;" horiz-adv-x="1486" 
d="M1554 1718v-47q0 -125 -63 -202t-182 -95v-813q0 -284 -144 -431q-143 -146 -420 -146q-279 0 -422 146q-145 148 -145 431v897h127v-911q0 -451 440 -451q216 0 327 114q112 115 112 337v911h37q116 1 168 55q51 53 51 177v28h114zM795 1583h-99v33q0 34 24 57t62 43
q30 17 42 28q14 12 14 25q0 20 -24 31q-23 10 -66 10q-61 0 -127 -24l-29 82q81 35 162 35q93 0 145 -36q53 -36 53 -95q0 -42 -24 -64q-23 -21 -70 -45q-38 -23 -49 -32q-14 -11 -14 -29v-19z" />
    <glyph glyph-name="uni1EED" unicode="&#x1eed;" horiz-adv-x="1187" 
d="M1245 1303v-48q0 -133 -64 -212q-63 -78 -186 -93v-950h-121v186q-49 -98 -139 -149t-207 -51q-181 0 -272 100q-92 101 -92 297v643h123v-635q0 -152 61 -223q62 -72 191 -72q151 0 241 95t90 253v582h37q119 2 171 60t52 190v27h115zM633 1161h-96v60q0 42 19 68
q23 32 60 69q31 29 42 44q14 19 14 38q0 24 -24 38q-23 13 -64 13q-58 0 -127 -25l-29 82q78 37 164 37q90 0 143 -39t53 -98q0 -47 -21 -77q-19 -27 -62 -62q-34 -27 -55 -55q-17 -23 -17 -60v-33z" />
    <glyph glyph-name="uni1EEE" unicode="&#x1eee;" horiz-adv-x="1486" 
d="M1554 1718v-47q0 -125 -63 -202t-182 -95v-813q0 -284 -144 -431q-143 -146 -420 -146q-279 0 -422 146q-145 148 -145 431v897h127v-911q0 -451 440 -451q216 0 327 114q112 115 112 337v911h37q116 1 168 55q51 53 51 177v28h114zM466 1795q46 58 128 58q45 0 82 -17
q40 -19 94 -52q41 -26 70 -40q26 -13 51 -13q48 0 73 34t25 82h80q0 -103 -46 -159q-47 -58 -128 -58q-43 0 -83 18q-46 20 -93 50q-35 22 -72 40q-22 11 -49 11q-48 0 -73 -33q-25 -32 -25 -80h-80q0 101 46 159z" />
    <glyph glyph-name="uni1EEF" unicode="&#x1eef;" horiz-adv-x="1187" 
d="M1245 1303v-48q0 -133 -64 -212q-63 -78 -186 -93v-950h-121v186q-49 -98 -139 -149t-207 -51q-181 0 -272 100q-92 101 -92 297v643h123v-635q0 -152 61 -223q62 -72 191 -72q151 0 241 95t90 253v582h37q119 2 171 60t52 190v27h115zM302 1425q47 58 128 58
q43 0 82 -18q40 -19 94 -52q35 -22 72 -40q22 -11 49 -11q48 0 73 34t25 81h80q0 -104 -46 -160q-47 -57 -128 -57q-45 0 -82 17q-40 19 -94 52q-35 22 -72 40q-22 11 -49 11q-49 0 -73 -33q-25 -34 -25 -81h-80q0 103 46 159z" />
    <glyph glyph-name="uni1EF0" unicode="&#x1ef0;" horiz-adv-x="1486" 
d="M1554 1718v-47q0 -125 -63 -202t-182 -95v-813q0 -284 -144 -431q-143 -146 -420 -146q-279 0 -422 146q-145 148 -145 431v897h127v-911q0 -451 440 -451q216 0 327 114q112 115 112 337v911h37q116 1 168 55q51 53 51 177v28h114zM664 -209h161v-160h-161v160z" />
    <glyph glyph-name="uni1EF1" unicode="&#x1ef1;" horiz-adv-x="1187" 
d="M1245 1303v-48q0 -133 -64 -212q-63 -78 -186 -93v-950h-121v186q-49 -98 -139 -149t-207 -51q-181 0 -272 100q-92 101 -92 297v643h123v-635q0 -152 61 -223q62 -72 191 -72q151 0 241 95t90 253v582h37q119 2 171 60t52 190v27h115zM500 -209h162v-160h-162v160z" />
    <glyph glyph-name="Ygrave" unicode="&#x1ef2;" horiz-adv-x="1222" 
d="M1237 1458l-563 -858v-600h-127v604l-563 854h147l481 -743l482 743h143zM561 1583l-264 309h154l206 -309h-96z" />
    <glyph glyph-name="ygrave" unicode="&#x1ef3;" horiz-adv-x="1075" 
d="M1040 1026l-483 -1132q-72 -168 -179 -247t-269 -112l-25 98q145 34 222 91q75 56 126 174l43 100l-438 1028h133l371 -901l372 901h127zM489 1161l-270 416h160l207 -416h-97z" />
    <glyph glyph-name="uni1EF4" unicode="&#x1ef4;" horiz-adv-x="1222" 
d="M1237 1458l-563 -858v-600h-127v604l-563 854h147l481 -743l482 743h143zM528 -209h162v-160h-162v160z" />
    <glyph glyph-name="uni1EF5" unicode="&#x1ef5;" horiz-adv-x="1075" 
d="M1040 1026l-483 -1132q-72 -168 -179 -247t-269 -112l-25 98q145 34 222 91q75 56 126 174l43 100l-438 1028h133l371 -901l372 901h127zM719 -209h162v-160h-162v160z" />
    <glyph glyph-name="uni1EF6" unicode="&#x1ef6;" horiz-adv-x="1222" 
d="M1237 1458l-563 -858v-600h-127v604l-563 854h147l481 -743l482 743h143zM659 1583h-98v33q0 34 24 57t62 43q30 17 42 28q13 12 13 25q0 21 -23 31t-67 10q-61 0 -127 -24l-28 82q81 35 161 35q93 0 146 -36t53 -95q0 -42 -24 -64q-23 -21 -70 -45q-38 -23 -49 -32
q-15 -12 -15 -29v-19z" />
    <glyph glyph-name="uni1EF7" unicode="&#x1ef7;" horiz-adv-x="1075" 
d="M1040 1026l-483 -1132q-72 -168 -179 -247t-269 -112l-25 98q145 34 222 91q75 56 126 174l43 100l-438 1028h133l371 -901l372 901h127zM590 1161h-96v60q0 42 19 68q23 32 60 69q31 29 42 44q14 19 14 38q0 24 -24 38q-23 13 -64 13q-58 0 -127 -25l-29 82
q78 37 164 37q90 0 143 -39t53 -98q0 -47 -21 -77q-19 -27 -62 -62q-34 -27 -55 -55q-17 -23 -17 -60v-33z" />
    <glyph glyph-name="uni1EF8" unicode="&#x1ef8;" horiz-adv-x="1222" 
d="M1237 1458l-563 -858v-600h-127v604l-563 854h147l481 -743l482 743h143zM331 1795q46 58 128 58q45 0 82 -17q40 -19 94 -52q41 -26 70 -40q26 -13 51 -13q47 0 72 34q26 35 26 82h80q0 -103 -46 -159q-47 -58 -128 -58q-42 0 -83 18q-46 20 -93 50q-35 22 -72 40
q-22 11 -49 11q-47 0 -73 -33q-25 -32 -25 -80h-80q0 101 46 159z" />
    <glyph glyph-name="uni1EF9" unicode="&#x1ef9;" horiz-adv-x="1075" 
d="M1040 1026l-483 -1132q-72 -168 -179 -247t-269 -112l-25 98q145 34 222 91q75 56 126 174l43 100l-438 1028h133l371 -901l372 901h127zM259 1425q47 58 128 58q43 0 82 -18q40 -19 94 -52q35 -22 72 -40q22 -11 49 -11q48 0 73 34t25 81h80q0 -104 -46 -160
q-46 -57 -128 -57q-45 0 -82 17q-40 19 -94 52q-35 22 -72 40q-22 11 -49 11q-49 0 -73 -33q-25 -34 -25 -81h-80q0 103 46 159z" />
    <glyph glyph-name="uni2007" unicode="&#x2007;" horiz-adv-x="1241" 
 />
    <glyph glyph-name="uni2008" unicode="&#x2008;" horiz-adv-x="454" 
 />
    <glyph glyph-name="uni2009" unicode="&#x2009;" horiz-adv-x="413" 
 />
    <glyph glyph-name="uni200A" unicode="&#x200a;" horiz-adv-x="206" 
 />
    <glyph glyph-name="uni200B" unicode="&#x200b;" 
 />
    <glyph glyph-name="uni2010" unicode="&#x2010;" horiz-adv-x="868" 
d="M154 496v108h561v-108h-561z" />
    <glyph glyph-name="figuredash" unicode="&#x2012;" horiz-adv-x="1241" 
d="M154 504v90h933v-90h-933z" />
    <glyph glyph-name="endash" unicode="&#x2013;" horiz-adv-x="1034" 
d="M0 504v90h1034v-90h-1034z" />
    <glyph glyph-name="emdash" unicode="&#x2014;" horiz-adv-x="2068" 
d="M0 504v90h2068v-90h-2068z" />
    <glyph glyph-name="uni2015" unicode="&#x2015;" horiz-adv-x="2068" 
d="M0 504v90h2068v-90h-2068z" />
    <glyph glyph-name="quoteleft" unicode="&#x2018;" horiz-adv-x="454" 
d="M315 1249v-176h-174v131q0 78 24 143q24 64 81 121l67 -49q-39 -45 -58 -87q-17 -39 -22 -83h82z" />
    <glyph glyph-name="quoteright" unicode="&#x2019;" horiz-adv-x="454" 
d="M315 1458v-131q0 -77 -24 -142q-23 -62 -82 -124l-66 51q71 80 78 168h-80v178h174z" />
    <glyph glyph-name="quotesinglbase" unicode="&#x201a;" horiz-adv-x="454" 
d="M315 178v-131q0 -77 -24 -143q-23 -64 -82 -123l-66 51q71 80 78 168h-80v178h174z" />
    <glyph glyph-name="quotedblleft" unicode="&#x201c;" horiz-adv-x="774" 
d="M315 1249v-176h-174v131q0 78 24 143q24 64 81 121l67 -49q-39 -45 -58 -87q-17 -39 -22 -83h82zM635 1249v-176h-174v131q0 81 23 143q24 64 81 121l68 -49q-42 -48 -59 -87q-16 -36 -21 -83h82z" />
    <glyph glyph-name="quotedblright" unicode="&#x201d;" horiz-adv-x="774" 
d="M315 1458v-131q0 -77 -24 -142q-23 -62 -82 -124l-66 51q71 80 78 168h-80v178h174zM635 1458v-131q0 -75 -25 -142q-23 -62 -82 -124l-65 51q71 80 78 168h-80v178h174z" />
    <glyph glyph-name="quotedblbase" unicode="&#x201e;" horiz-adv-x="774" 
d="M315 178v-131q0 -77 -24 -143q-23 -64 -82 -123l-66 51q71 80 78 168h-80v178h174zM635 178v-131q0 -74 -25 -143q-23 -64 -82 -123l-65 51q71 80 78 168h-80v178h174z" />
    <glyph glyph-name="dagger" unicode="&#x2020;" horiz-adv-x="651" 
d="M375 1475v-248h235v-82h-235v-803h-99v803h-235v82h235v248h99z" />
    <glyph glyph-name="daggerdbl" unicode="&#x2021;" horiz-adv-x="651" 
d="M375 1475v-248h235v-82h-235v-473h235v-82h-235v-248h-99v248h-235v82h235v473h-235v82h235v248h99z" />
    <glyph glyph-name="bullet" unicode="&#x2022;" horiz-adv-x="1083" 
d="M356 230q-86 48 -137 134t-51 185q0 94 49 179t135 136t191 51q99 0 184 -48q86 -48 137 -132t51 -186q0 -99 -50 -184q-49 -84 -136 -134q-85 -49 -186 -49t-187 48z" />
    <glyph glyph-name="ellipsis" unicode="&#x2026;" horiz-adv-x="1366" 
d="M141 178h174v-178h-174v178zM596 178h176v-178h-176v178zM1051 178h176v-178h-176v178z" />
    <glyph glyph-name="perthousand" unicode="&#x2030;" horiz-adv-x="2727" 
d="M215 694q-90 112 -90 334t90 333q91 112 252 112q163 0 255 -112q91 -110 91 -333q0 -221 -92 -334q-91 -112 -254 -112q-162 0 -252 112zM600 0h-131l842 1458h131zM636 764q54 84 54 264q0 178 -54 263t-169 85q-111 0 -166 -85t-55 -263q0 -180 54 -264t167 -84
q115 0 169 84zM1189 98q-91 112 -91 334q0 223 90 334t254 111t254 -111t90 -334q0 -222 -91 -334t-253 -112t-253 112zM2006 98q-91 112 -91 334q0 223 90 334t254 111q163 0 255 -111q91 -110 91 -334q0 -221 -92 -334q-91 -112 -254 -112q-162 0 -253 112zM1609 168
q54 84 54 264q0 178 -54 262t-167 84t-167 -84t-54 -262q0 -180 54 -264t167 -84t167 84zM2428 168q54 84 54 264q0 178 -54 262t-169 84q-113 0 -167 -84t-54 -262q0 -180 54 -264t167 -84q115 0 169 84z" />
    <glyph glyph-name="minute" unicode="&#x2032;" horiz-adv-x="434" 
d="M176 897l-35 561h152l-33 -561h-84z" />
    <glyph glyph-name="second" unicode="&#x2033;" horiz-adv-x="839" 
d="M176 897l-35 561h152l-33 -561h-84zM584 897l-37 561h151l-32 -561h-82z" />
    <glyph glyph-name="guilsinglleft" unicode="&#x2039;" horiz-adv-x="509" 
d="M326 182l-269 365l273 368h123l-263 -366l256 -367h-120z" />
    <glyph glyph-name="guilsinglright" unicode="&#x203a;" horiz-adv-x="509" 
d="M186 182h-123l261 367l-265 366h125l271 -368z" />
    <glyph glyph-name="fraction" unicode="&#x2044;" horiz-adv-x="344" 
d="M-211 -47l-100 55l866 1497l98 -55z" />
    <glyph glyph-name="uni2070" unicode="&#x2070;" horiz-adv-x="778" 
d="M159 688q-83 113 -83 334q0 224 82 334t231 110q150 0 232 -110q81 -109 81 -334q0 -222 -82 -334q-83 -113 -231 -113q-147 0 -230 113zM534 758q46 83 46 264q0 179 -46 262q-47 84 -145 84q-97 0 -144 -83q-46 -82 -46 -263t46 -264q46 -84 144 -84q99 0 145 84z" />
    <glyph glyph-name="uni2074" unicode="&#x2074;" horiz-adv-x="778" 
d="M727 864v-96h-131v-184h-119v184h-399v88l420 602h98v-594h131zM195 864h282v404z" />
    <glyph glyph-name="uni2075" unicode="&#x2075;" horiz-adv-x="778" 
d="M617 1060q77 -77 77 -200q0 -127 -85 -205q-84 -77 -214 -77q-81 0 -161 30q-77 29 -132 84l52 84q118 -100 237 -100q85 0 138 48t53 132q0 82 -52 132t-127 50q-120 0 -196 -90h-80v510h530v-96h-415v-289q75 64 178 64q120 0 197 -77z" />
    </font>
</defs>
</svg>
