<?xml version="1.0" standalone="no"?>
<!DOCTYPE svg PUBLIC "-//W3C//DTD SVG 1.1//EN" "http://www.w3.org/Graphics/SVG/1.1/DTD/svg11.dtd" >
<svg xmlns="http://www.w3.org/2000/svg" xmlns:xlink="http://www.w3.org/1999/xlink" version="1.1">
<metadata>
Created by FontForge 20170731 at Fri Jul 15 20:19:43 2011
 By Aleksey,,,
Copyright (c) 2011, Sorkin Type Co (www.sorkintype.com)
with Reserved Font Name "Ovo".
</metadata>
<defs>
<font id="Ovo" horiz-adv-x="0" >
  <font-face 
    font-family="Ovo"
    font-weight="400"
    font-stretch="normal"
    units-per-em="2048"
    panose-1="2 2 5 2 7 4 0 6 4 6"
    ascent="1638"
    descent="-410"
    x-height="934"
    cap-height="1356"
    bbox="-235 -534 2023 1770"
    underline-thickness="85"
    underline-position="-126"
    unicode-range="U+0001-FB02"
  />
<missing-glyph horiz-adv-x="450" 
 />
    <glyph glyph-name=".notdef" horiz-adv-x="450" 
 />
    <glyph glyph-name=".null" 
 />
    <glyph glyph-name="nonmarkingreturn" horiz-adv-x="525" 
 />
    <glyph glyph-name="uni0001" 
 />
    <glyph glyph-name="uni0002" 
 />
    <glyph glyph-name="uni0003" 
 />
    <glyph glyph-name="uni0004" 
 />
    <glyph glyph-name="uni0005" 
 />
    <glyph glyph-name="uni0006" 
 />
    <glyph glyph-name="uni0007" 
 />
    <glyph glyph-name="uni0008" 
 />
    <glyph glyph-name="uni0009" unicode="&#x9;" 
 />
    <glyph glyph-name="uni0010" 
 />
    <glyph glyph-name="uni0011" 
 />
    <glyph glyph-name="uni0012" 
 />
    <glyph glyph-name="uni0013" 
 />
    <glyph glyph-name="uni0014" 
 />
    <glyph glyph-name="uni0015" 
 />
    <glyph glyph-name="uni0016" 
 />
    <glyph glyph-name="uni0017" 
 />
    <glyph glyph-name="uni0018" 
 />
    <glyph glyph-name="uni0019" 
 />
    <glyph glyph-name="space" unicode=" " horiz-adv-x="525" 
 />
    <glyph glyph-name="exclam" unicode="!" horiz-adv-x="518" 
d="M378 1343q-60 -477 -77 -988q-2 -45 -31 -45q-14 0 -24.5 11t-10.5 34q-5 378 -74 918l-1 7q0 26 26.5 39.5t67.5 24.5q80 21 102 21t22 -22zM196.5 3.5q-26.5 28.5 -26.5 62t8.5 51.5t23.5 31q30 27 73.5 27t70.5 -28t27 -70.5t-28 -72t-75 -29.5t-73.5 28.5z" />
    <glyph glyph-name="quotedbl" unicode="&#x22;" horiz-adv-x="708" 
d="M409 1314l-1 8q0 27 21 35t49.5 8t47.5 -6t19 -36l-34 -358q-3 -35 -31 -35q-29 0 -33 35zM163 1314l-1 8q0 27 21 35t49.5 8t47.5 -6t19 -36l-34 -358q-3 -35 -31 -35q-29 0 -33 35z" />
    <glyph glyph-name="numbersign" unicode="#" horiz-adv-x="1163" 
d="M306 456h-206l20 85h207l69 275h-205l20 85h206l110 439h93l-110 -439h257l110 439h93l-110 -439h203l-20 -85h-205l-69 -275h203l-20 -85h-204l-114 -456h-91l113 456h-258l-114 -456h-91zM677 541l69 275h-258l-69 -275h258z" />
    <glyph glyph-name="dollar" unicode="$" horiz-adv-x="1019" 
d="M777 1325l42 6q28 0 31 -45.5t8 -74.5t10 -52t8.5 -39t3.5 -26.5t-11.5 -20t-24.5 -9.5q-23 0 -44 47.5t-33.5 71t-29.5 41.5q-34 38 -108 56l-61 -494l112 -74q252 -179 252 -377q0 -247 -240 -331q-85 -29 -208 -29h-17l-15 -126q-3 -27 -44 -38q-12 -3 -24 -3
t-14.5 3.5t-3 12t1 16.5t3.5 20l15 124q-178 30 -200 72q-7 13 -14 59.5t-16.5 84.5t-17.5 68l-14 52q-6 23 -6 38q0 36 27 36q36 0 52 -55q28 -98 50 -127t41 -50q46 -49 111 -79l64 522q-156 102 -235.5 206t-79.5 225q0 138 108 231q115 98 297 98h4l15 118q3 27 44 38
q12 3 24 3t14.5 -4t3 -13t-1 -16.5t-3.5 -18.5l-14 -114q34 -6 65 -16q53 -17 73 -17zM548 1291h-10q-176 0 -236 -105q-19 -34 -19 -74.5t10.5 -70t30.5 -56.5q62 -81 168 -149zM478 58q16 -2 63 -2t100.5 16.5t88.5 44.5q66 54 66 143q-1 129 -193 254l-64 42z" />
    <glyph glyph-name="percent" unicode="%" horiz-adv-x="1457" 
d="M342 18l673 1313q17 34 90 34q16 0 16 -9q0 -13 -12 -34l-673 -1313q-17 -34 -92 -34q-16 0 -16 7.5t14 35.5zM369 709q-56 0 -107 22.5t-90 64.5q-82 88 -82 232q0 147 85 244q82 93 204 93q126 0 201 -95q71 -90 71 -226q0 -146 -85 -242q-82 -93 -197 -93zM375 771
q150 0 150 264q0 196 -94 251q-28 17 -61 17t-62 -17t-50 -50q-46 -70 -46 -191q0 -120 52 -199q48 -75 111 -75zM806 295q0 74 23 136t62 107q82 93 204 93q126 0 201 -95q71 -90 71 -226q0 -146 -85 -242q-82 -93 -196 -93q-117 0 -198 87q-82 88 -82 233zM1091 37
q150 0 150 264q0 196 -94 251q-28 17 -61 17t-62 -17t-50 -50q-46 -70 -46 -191q0 -120 52 -199q48 -75 111 -75z" />
    <glyph glyph-name="ampersand" unicode="&#x26;" horiz-adv-x="1481" 
d="M1426 1101q0 -273 -354 -394q101 -53 114 -193q4 -43 4 -109t-37 -146.5t-106 -142.5q-154 -140 -391 -140q-253 0 -412 153q-154 148 -154 370q0 159 101 288q97 123 246 169q-66 66 -66 133t23.5 116.5t66.5 84.5q90 75 239 75q174 0 238 -53q17 -14 17 -25t-2 -37
t-7 -54q-11 -69 -30 -69q-13 0 -28.5 9t-18.5 27q-27 143 -168 143q-77 0 -128 -56q-48 -54 -48 -120q0 -132 117 -181q34 -14 34 -34t-64.5 -31t-128.5 -45t-109 -85q-90 -105 -90 -269q0 -172 120 -293q122 -124 307 -124q241 0 321 196q28 67 28 136t-12.5 111t-37.5 73
q-56 69 -153 69q-87 0 -164 -63q-75 -60 -93 -144q58 -18 58 -69q0 -31 -18.5 -48.5t-46.5 -17.5t-52 29t-24 76t13.5 95.5t51.5 93.5q82 99 277 154q387 109 456 267q21 48 21 86t-7.5 59t-19.5 35q-23 27 -62.5 27t-45.5 -42q42 -9 42 -42q0 -23 -14.5 -34.5t-40.5 -11.5
t-43.5 21t-17.5 45.5t8.5 46t24.5 38.5q39 41 83 41t74.5 -12t54.5 -36q54 -54 54 -146z" />
    <glyph glyph-name="quotesingle" unicode="'" horiz-adv-x="462" 
d="M163 1314l-1 8q0 27 21 35t49.5 8t47.5 -6t19 -36l-34 -358q-3 -35 -31 -35q-29 0 -33 35z" />
    <glyph glyph-name="parenleft" unicode="(" horiz-adv-x="814" 
d="M398.5 -109.5q-51.5 53.5 -91 115.5t-67.5 127.5t-48 138.5q-42 153 -42 270.5t11 195.5t31 150q85 307 308 468q102 74 170 74q15 0 29.5 -12t14.5 -19.5t-8.5 -13t-21.5 -11.5t-28 -12q-76 -34 -138 -118.5t-103 -187.5q-89 -222 -89 -476q0 -253 89 -477
q98 -245 241 -307q15 -7 28 -12q30 -13 30 -22.5t-14.5 -21.5t-37.5 -12t-67.5 18.5t-94.5 54.5t-101.5 89.5z" />
    <glyph glyph-name="parenright" unicode=")" horiz-adv-x="814" 
d="M114.5 -260q-14.5 12 -14.5 21.5t16 15.5q44 18 69 33q126 75 213 293q90 222 90 477q0 254 -90 476q-99 244 -240 306q-58 25 -58 34.5t14.5 21.5t37 12t67 -18.5t95.5 -55.5q280 -202 339 -618q11 -78 11 -157.5t-11 -158t-31 -150.5q-85 -310 -309 -471
q-101 -73 -169 -73q-15 0 -29.5 12z" />
    <glyph glyph-name="asterisk" unicode="*" horiz-adv-x="808" 
d="M342 1412q0 18 26 18q60 0 112 -35q16 -10 16 -55q0 -71 -53 -200q90 35 123 62t55 49.5t29 22.5t15.5 -9t15.5 -23q17 -36 17 -65t-5 -43.5t-20 -22.5q-28 -15 -92 -15q-83 0 -132 7q58 -93 184 -174q19 -13 19 -23t-10.5 -22t-27.5 -23q-40 -27 -63.5 -27t-39.5 15
t-34 46q-42 72 -69 184q-59 -85 -86 -202q-9 -43 -23 -43q-36 0 -61 24q-46 43 -46 62t11 37.5t33 42.5q48 53 130 103q-61 19 -168 19l-76 -4q-12 0 -12 17.5t6.5 40.5t17.5 42q24 40 52 40q102 0 206 -109q-4 125 -46 239q-5 15 -4 24z" />
    <glyph glyph-name="plus" unicode="+" horiz-adv-x="845" 
d="M380 512h-300v85h300v316h85v-316h300v-85h-300v-316h-85v316z" />
    <glyph glyph-name="comma" unicode="," horiz-adv-x="413" 
d="M215.5 -246.5q-23.5 -22.5 -41 -22.5t-17.5 18q0 9 9.5 26t20.5 39q30 60 30 94q0 60 -52 100q-53 41 -57 58.5t-4 30t11.5 27.5t30.5 28q46 33 76 33t44 -9t26 -26q25 -39 25 -107.5t-16.5 -126.5t-39 -99t-46 -63.5z" />
    <glyph glyph-name="hyphen" unicode="-" horiz-adv-x="687" 
d="M584 615q23 0 23 -18q0 -24 -10.5 -45.5t-22.5 -21.5h-470q-24 0 -24 18q0 24 10.5 45.5t22.5 21.5h471z" />
    <glyph glyph-name="period" unicode="." horiz-adv-x="490" 
d="M160 7.5q-30 32.5 -30 70t9.5 58t26.5 35.5q34 31 83.5 31t80 -32t30.5 -68t-8 -56.5t-24 -36.5q-32 -34 -85 -34t-83 32.5z" />
    <glyph glyph-name="slash" unicode="/" horiz-adv-x="885" 
d="M748 1567q15 34 97 34q16 0 16 -11q0 -5 -9 -32l-716 -1883q-13 -34 -97 -34q-16 0 -16 11q0 5 9 32z" />
    <glyph glyph-name="zero" unicode="0" horiz-adv-x="1282" 
d="M638 -25q-245 0 -404 185q-161 190 -161 492q0 305 172 510q80 96 187 149.5t229 53.5q243 0 396 -200q152 -198 152 -508q0 -302 -162 -494q-159 -188 -403 -188h-6zM652 50q82 0 150.5 42t117.5 121q104 165 104 447q0 278 -117 456q-112 170 -276 170
q-170 0 -277 -161q-110 -167 -110 -444q0 -276 124 -459q117 -172 284 -172z" />
    <glyph glyph-name="one" unicode="1" horiz-adv-x="707" 
d="M176 -15q-65 0 -65 37q0 29 36 29l49 -5q60 0 80 67q18 57 18 204l-3 678q0 119 -73 131q-23 3 -61.5 3t-38.5 27q0 11 7 18.5t61 31.5q148 64 214 128q31 31 50.5 31t19.5 -28q0 -12 -8 -42.5t-10.5 -51t-3.5 -51.5q-3 -53 -3 -197l3 -678q0 -146 13.5 -192t32.5 -62.5
t52 -16.5l48 5q36 0 36 -29q0 -37 -64 -37q-33 0 -70 6q-57 9 -121 9t-115.5 -7.5t-83.5 -7.5z" />
    <glyph glyph-name="two" unicode="2" horiz-adv-x="1082" 
d="M959 206q21 0 21 -35q0 -12 -12 -42l-14 -39q-38 -91 -48.5 -96t-32.5 -5t-103.5 5.5t-176 5.5t-159.5 -2.5t-120 -5t-96 -5t-68 -2.5t-27 24q0 23 48 78l378 408q218 249 218 448q0 155 -85 249q-84 94 -217 94q-162 0 -266 -107q-32 -33 -46.5 -62t-20 -39t-9.5 -16
q-5 -7 -15 -7t-20 7.5t-18 19.5q-20 26 -20 45t10.5 38t29.5 41q42 48 109 86q131 73 261.5 73t220 -32t149.5 -86q122 -108 122 -273q0 -158 -126 -318q-45 -58 -111 -128l-368 -374h445q87 0 103 9t25 20q20 23 39 23z" />
    <glyph glyph-name="three" unicode="3" horiz-adv-x="1096" 
d="M520 1340l245 4q35 0 35 -17q-4 -19 -29 -54l-216 -312q208 -8 332 -141q119 -129 119 -324q0 -220 -142 -368q-147 -153 -374 -153q-188 0 -317 122q-123 117 -123 263q0 29 22 49q38 33 52 33t19 -10.5t9 -63.5t33 -116t77 -106q100 -91 258 -91q143 0 232 91
q98 102 98 284q0 168 -96 278q-96 112 -256 112l-95 -10q-24 0 -24 20q0 19 30 64l202 298q-130 5 -201.5 5t-88.5 -1t-28 -4q-19 -4 -29 -17q-20 -26 -44 -26t-24 28q0 10 13 35q30 55 41.5 86t20 39.5t25.5 8.5z" />
    <glyph glyph-name="four" unicode="4" horiz-adv-x="1144" 
d="M469 -15q-65 0 -65 37q0 29 36 29l49 -5q60 0 81 67q17 57 17 204v164h-43l-465 -9q-29 0 -29 24q0 19 29 54l596 777q42 52 49.5 55t11.5 3q18 0 18 -21.5t-1 -41t-2.5 -43t-3.5 -54t-3 -75.5q-4 -105 -4 -257v-286h135q110 0 173 25q11 4 19 4q22 0 22 -21
q0 -13 -15 -32q-33 -43 -43.5 -65.5t-22.5 -29.5t-43 -7h-225v-164q0 -151 13.5 -194.5t33 -60t51.5 -16.5l48 5q36 0 36 -29q0 -37 -64 -37q-33 0 -70 6q-118 19 -202.5 6.5t-116.5 -12.5zM587 607v484l-363 -484h363z" />
    <glyph glyph-name="five" unicode="5" horiz-adv-x="1139" 
d="M360 959q82 19 183 19t196 -32.5t164 -93.5q146 -129 146 -344q0 -229 -185 -386q-111 -93 -257 -130q-71 -17 -161 -17q-172 0 -301 91q-95 68 -95 124q0 24 14 47q26 42 46 42q14 0 36.5 -45.5t54 -77.5t71.5 -54q84 -47 184 -47t178.5 27t135.5 78q122 109 122 289
q0 169 -102 273q-110 112 -289 112q-160 0 -209 -52q-9 -9 -21 -9q-18 0 -18 24q0 8 1.5 18t3.5 24l67 438q7 42 13 52q10 19 39 19l286 -8q146 0 181 16q6 3 12 3q18 0 18 -26q0 -40 -14 -86t-27.5 -52.5t-47.5 -6.5l-387 13z" />
    <glyph glyph-name="six" unicode="6" horiz-adv-x="1178" 
d="M378 514q-28 0 -28 56t29.5 119.5t78.5 114.5q112 117 248 117q173 0 285 -121.5t112 -313.5q0 -220 -145 -367q-142 -144 -343 -144q-229 0 -377 192q-143 185 -143 451q0 301 179 522q115 142 272 197q79 28 152 28t121 -13.5t81 -33.5q71 -42 71 -90t-45 -77
q-11 -7 -19.5 -7t-17.5 10t-20.5 24.5t-27 32t-37.5 31.5q-54 35 -131.5 35t-150.5 -36.5t-128 -110.5q-120 -161 -120 -451q0 -281 112 -457q107 -170 273 -170q121 0 199 92q84 99 84 272q0 178 -84 280q-76 94 -199 94q-141 0 -216 -146q-23 -44 -31.5 -79.5t-16 -43
t-17.5 -7.5z" />
    <glyph glyph-name="seven" unicode="7" horiz-adv-x="971" 
d="M876 1356q30 0 30 -19q0 -11 -16 -40q-36 -63 -50 -97l-206 -483q-127 -296 -127 -544q0 -84 37 -93q34 -8 34 -28q0 -16 -36 -34q-68 -33 -122.5 -33t-82 26.5t-27.5 69.5t8.5 94t31.5 124q49 149 173 417l217 468q-116 12 -233 12t-168 -0.5t-86.5 -2t-58 -4
t-36.5 -5.5q-24 -6 -40 -18q-28 -20 -46 -20q-27 0 -27 33q0 23 18 54q37 63 41 83q9 40 42 40q63 0 144 -6q156 -10 237.5 -10t129 2.5t86 5.5t71 5.5t62.5 2.5z" />
    <glyph glyph-name="eight" unicode="8" horiz-adv-x="1131" 
d="M377 839q-148 108 -148 237q0 116 93 200q99 89 260 89q156 0 246 -87q80 -77 80 -191q0 -127 -106 -219q-31 -27 -64 -44q245 -116 301 -284q20 -59 20 -138t-36 -158t-101 -139q-142 -130 -359 -130q-211 0 -349 131q-134 126 -134 303q0 141 84 259q80 111 213 171z
M655 863q144 67 144 210q0 149 -129 197q-41 15 -89.5 15t-85 -11.5t-61.5 -32.5q-54 -44 -54 -110q0 -131 275 -268zM210 544q-13 -52 -13 -124t29 -143t80 -121q103 -101 270 -101q127 0 221 77q100 82 100 210q0 116 -69 200q-70 85 -250 178q-96 49 -131 72
q-194 -75 -237 -248z" />
    <glyph glyph-name="nine" unicode="9" horiz-adv-x="1203" 
d="M829 831q35 0 35 -72.5t-28 -137.5t-75 -113q-102 -106 -238 -106q-184 0 -315 132q-133 135 -133 328t141 344q147 159 363 159q238 0 389 -191q145 -186 145 -464q0 -288 -183 -511q-114 -140 -274 -196q-79 -28 -148 -28t-117.5 10.5t-86.5 28.5q-81 38 -81 82
q0 42 27 64q7 7 14 7q10 0 34 -35q53 -76 220 -76q177 0 292 160q122 173 122 468q0 273 -108 438q-106 162 -272 162q-131 0 -216 -104q-90 -108 -90 -290q0 -162 85 -266q88 -107 238 -107q94 0 157 73q64 75 64 195q0 22 12 34t27 12z" />
    <glyph glyph-name="colon" unicode=":" horiz-adv-x="490" 
d="M291 594q-22 -9 -61.5 -9t-69.5 32.5t-30 70t9.5 58t26.5 35.5q34 31 83.5 31t80 -32t30.5 -68t-8 -56.5t-23.5 -36.5t-37.5 -25zM160 7.5q-30 32.5 -30 70t9.5 58t26.5 35.5q34 31 83.5 31t80 -32t30.5 -68t-8 -56.5t-24 -36.5q-32 -34 -85 -34t-83 32.5z" />
    <glyph glyph-name="semicolon" unicode=";" horiz-adv-x="430" 
d="M291 594q-22 -9 -61.5 -9t-69.5 32.5t-30 70t9.5 58t26.5 35.5q34 31 83.5 31t80 -32t30.5 -68t-8 -56.5t-23.5 -36.5t-37.5 -25zM229.5 -246.5q-23.5 -22.5 -41 -22.5t-17.5 18q0 9 9.5 26t20.5 39q30 60 30 94q0 60 -52 100q-53 41 -57 58.5t-4 30t11.5 27.5t30.5 28
q46 33 76 33t44 -9t26 -26q25 -39 25 -107.5t-16.5 -126.5t-39 -99t-46 -63.5z" />
    <glyph glyph-name="less" unicode="&#x3c;" horiz-adv-x="902" 
d="M772 59q0 -74 -23 -74q-12 0 -34 19l-626 485q-24 18 -24 46q0 25 24 46l626 485q22 19 34 19q23 0 23 -74q-1 -18 -21 -33l-563 -443l563 -443q18 -15 21 -33z" />
    <glyph glyph-name="equal" unicode="=" horiz-adv-x="877" 
d="M80 753h717v-85h-717v85zM80 523h717v-85h-717v85z" />
    <glyph glyph-name="greater" unicode="&#x3e;" horiz-adv-x="902" 
d="M153 -15q-23 0 -23 74q0 16 21 33l563 443l-563 443q-21 15 -21 33q0 74 23 74q12 0 34 -19l626 -485q24 -21 24 -46t-24 -46l-626 -485q-22 -19 -34 -19z" />
    <glyph glyph-name="question" unicode="?" horiz-adv-x="933" 
d="M358 409q0 59 76 142q31 34 82 81q113 104 163.5 202t50.5 205q0 108 -74 178q-73 70 -186 70q-199 0 -246 -127q-22 -57 -40 -84t-39.5 -27t-37 7.5t-26.5 18.5q-22 22 -22 51t30.5 71t88.5 79q139 89 340 89q162 0 272 -85q108 -84 108 -210q0 -89 -32 -148
q-56 -102 -140.5 -186t-122.5 -125t-56 -66q-26 -36 -26 -64t8 -39.5t17 -17.5t17 -12t8 -20.5t-9.5 -29t-24.5 -26.5q-35 -26 -71 -26q-108 0 -108 99zM390.5 3.5q-26.5 28.5 -26.5 62t8.5 51.5t23.5 31q30 27 73.5 27t70.5 -28t27 -70.5t-28 -72t-75 -29.5t-73.5 28.5z
" />
    <glyph glyph-name="at" unicode="@" horiz-adv-x="1805" 
d="M1204 71q37 0 106 37t119.5 90t84.5 117q67 129 67 262t-44 230.5t-123 168.5q-170 150 -435 150q-198 0 -375 -106q-170 -102 -272 -272q-103 -175 -103 -375q0 -242 107 -413q92 -147 252 -226q139 -68 273 -68t220.5 39t149.5 100q24 24 44.5 24t36 -5.5t26.5 -14.5
q26 -20 26 -44.5t-40.5 -55.5t-117.5 -61q-149 -57 -355 -57q-300 0 -518 191q-233 206 -233 535q0 252 124 460q119 199 328 314q211 116 466 116q307 0 496 -161q191 -161 191 -421q0 -264 -190 -459q-74 -76 -159 -118q-146 -73 -239 -73q-45 0 -69.5 29t-28.5 99
q-106 -128 -260 -128q-115 0 -181 87q-65 86 -65 229q0 200 145 369q90 106 215 150q62 21 129 21q111 0 196 -67q18 5 42 27q45 40 55 40t18.5 -8t8.5 -19.5t-3 -24t-11 -38.5q-17 -62 -45 -174.5t-44.5 -184t-26.5 -120.5q-20 -91 -20 -141t32 -50zM1130 675
q-56 74 -153 74q-174 0 -251 -233q-28 -88 -28 -196.5t38 -177t102 -68.5q102 0 187 141q10 76 105 460z" />
    <glyph glyph-name="A" unicode="A" horiz-adv-x="1413" 
d="M127.5 -7.5q-44.5 -7.5 -96 -7.5t-51.5 33.5t47 33.5q49 0 70 18q34 31 67 101t61.5 131t65.5 142.5t81.5 182t93.5 213.5q128 297 169 399.5t45.5 113.5t9.5 20q13 21 22 21t15 -2.5t13 -9.5q15 -19 30 -56.5t40.5 -101.5t58.5 -145t70 -174t74.5 -185.5t73 -179.5
t63.5 -157q86 -209 110 -250t40 -57q25 -24 74 -24t49 -33.5t-63 -33.5q-27 0 -46.5 2.5t-39.5 4.5q-58 8 -103 8l-193 -15q-65 0 -65 37q0 30 36 30l60 -7q38 0 50 16.5t12 41.5q0 47 -40 146l-83 208h-555q-24 -60 -44.5 -110t-37.5 -97q-27 -76 -27 -119.5t15.5 -64
t58.5 -20.5l60 5q36 0 36 -29q0 -37 -65 -37l-166 15q-51 0 -95.5 -7.5zM914 542l-238 596q-69 -175 -247 -596h485z" />
    <glyph glyph-name="B" unicode="B" horiz-adv-x="1229" 
d="M130 -15q-65 0 -65 37q0 29 36 29l49 -5q54 0 75 52q23 58 23 219v706q0 168 -17 210t-37 52t-50 10l-43 -5q-36 0 -36 29q0 37 55 37t96 -8t78.5 -8t68.5 4t65 8q96 13 168 13t144.5 -21t124.5 -60q110 -81 110 -210q0 -171 -145 -290q125 -35 210 -140q89 -109 89 -243
q0 -190 -126 -308t-330 -118q-64 0 -149 9q-165 16 -222 16zM405 803q112 -11 182 -11q101 0 124 3t42 20t35 44q37 62 37 132t-24 123.5t-65 91.5q-84 76 -211 76q-61 0 -115 -21q-3 -50 -3.5 -75.5t-1 -45.5t-0.5 -36v-301zM769.5 682.5q-60.5 31.5 -114.5 31.5h-109
q-56 0 -141 -5v-248q0 -224 7 -345q89 -56 229 -56q223 0 293 160q23 54 23 125.5t-22 137t-63.5 117t-102 83z" />
    <glyph glyph-name="C" unicode="C" horiz-adv-x="1488" 
d="M1368 1051q0 -39 -27 -39q-24 0 -39.5 48.5t-58.5 91.5t-103 72q-125 61 -268.5 61t-248 -38.5t-179.5 -110.5q-156 -153 -156 -413q0 -288 176 -475q175 -186 448 -186q304 0 470 279q11 18 23 20q11 0 22 -24t11 -54q0 -50 -85 -130t-206.5 -129t-283 -49t-306 52.5
t-245.5 143.5q-212 190 -212 475q0 322 214 520q214 199 563 199q252 0 417 -67q32 -14 42 -27q20 -28 23.5 -83.5t4.5 -76.5q4 -49 4 -60z" />
    <glyph glyph-name="D" unicode="D" horiz-adv-x="1537" 
d="M133 -15q-65 0 -65 37q0 29 36 29l49 -5q60 0 81 67q17 57 17 204v706q0 147 -14 192.5t-33.5 62t-50.5 16.5l-49 -4q-36 0 -36 29q0 37 55 37t96 -8t81 -8q106 0 176 10q106 15 243.5 15t274 -49t234.5 -139q209 -191 209 -502q0 -295 -205 -491q-212 -204 -556 -204
q-83 0 -161 7q-145 13 -210 13zM408 461q0 -178 9 -331q133 -69 299 -69q121 0 251 57q206 90 269 322q23 82 23 212.5t-44.5 253t-124.5 206.5q-163 173 -439 173q-197 0 -226 -52q-15 -28 -16 -63.5t-1 -69.5v-639z" />
    <glyph glyph-name="E" unicode="E" horiz-adv-x="1153" 
d="M120 -15q-55 0 -55 37q0 29 36 29l49 -5q56 0 76 48q22 55 22 220v709q0 164 -15.5 206.5t-34.5 53.5t-48 11l-49 -4q-36 0 -36 29q0 37 53.5 37t88 -2.5t69.5 -5.5q93 -8 146.5 -8t113.5 2.5t134 5.5q195 8 270.5 8t84 -9t8.5 -24.5t-0.5 -29.5t-1.5 -31
q-1 -23 -6 -68.5t-12 -61t-20 -15.5t-18 6.5t-13.5 30t-30 45t-67.5 35.5q-90 27 -333 27h-89q-24 0 -30.5 -7t-6.5 -32v-421q119 -14 197.5 -14t112 1t55.5 6q39 7 56 35q34 53 55 53q27 0 27 -28l-35 -142l4 -76q0 -72 -34 -72q-29 0 -29 38.5t-4.5 57.5t-25.5 30
q-32 16 -156 16t-223 -11v-237q0 -221 10 -365q81 -18 176 -18t162.5 5t116.5 20q97 29 143 111q20 36 40 36t20 -29q0 -12 -7 -31q-8 -26 -23 -77.5t-23 -74.5t-18 -35q-15 -20 -59 -20t-85 0.5t-86 1.5q-52 2 -161 8q-272 13 -319 9t-71 -6.5t-47 -5t-54 -2.5z" />
    <glyph glyph-name="F" unicode="F" horiz-adv-x="1067" 
d="M133 -15q-65 0 -65 37q0 29 36 29l49 -5q60 0 81 67q17 57 17 204v706q0 147 -14 192.5t-33.5 62t-50.5 16.5l-49 -4q-36 0 -36 29q0 37 53.5 37t87.5 -2.5t69 -5.5q92 -8 139 -8t101 2.5t124 5.5q187 8 260 8t81.5 -9t8.5 -24.5t-0.5 -29.5t-1.5 -31q-1 -23 -6 -68.5
t-12 -61t-20 -15.5t-18 6.5t-13.5 30t-30 45t-68.5 35.5q-89 27 -332 27h-49q-24 0 -30.5 -7t-6.5 -32v-443q95 -11 170 -11t108.5 1t55.5 5q39 8 56 36q34 53 55 53q27 0 27 -28l-35 -142l4 -76q0 -72 -34 -72q-29 0 -29 38.5t-4.5 57.5t-25.5 29q-32 17 -177 17
q-3 0 -171 -8v-362q0 -151 13.5 -194.5t33 -60t51.5 -16.5l54 5q38 0 38 -29q0 -37 -66 -37l-188 15q-73 0 -124 -7.5t-83 -7.5z" />
    <glyph glyph-name="G" unicode="G" horiz-adv-x="1514" 
d="M1406 638q39 0 39 -29q0 -14 -8.5 -21.5t-27 -15t-28 -19t-15.5 -34.5q-10 -44 -10 -106t1 -81.5t3 -39.5q5 -73 10 -95.5t5 -43.5t-26 -45t-69 -45t-99 -37.5t-115 -28.5q-124 -25 -228 -25q-359 0 -566 205q-189 188 -189 475q0 323 209 519q211 197 559 197
q258 0 411 -62q30 -13 41 -27q21 -27 24.5 -84t4.5 -79q4 -50 4 -62q0 -39 -27 -39q-26 0 -40.5 49.5t-57.5 93.5t-103 74q-120 60 -266 60t-247.5 -39.5t-172.5 -113.5q-149 -154 -149 -416q0 -280 171 -474q81 -91 192.5 -143.5t243.5 -52.5q209 0 273 79q41 52 41 142
v217q0 47 -22 58q-29 15 -80 15q-86 0 -86 38t68 38l201 -13z" />
    <glyph glyph-name="H" unicode="H" horiz-adv-x="1522" 
d="M133 -15q-65 0 -65 37q0 29 36 29l49 -5q54 0 75 52q23 58 23 219v706q0 165 -17.5 207.5t-36 53t-44.5 10.5l-49 -4q-36 0 -36 29q0 37 55 37t104.5 -8t103.5 -8t101.5 8t102.5 8t55 -37q0 -29 -36 -29l-48 4q-54 0 -75 -52q-23 -58 -23 -219v-227h707v227
q0 165 -17.5 207.5t-36 53t-44.5 10.5l-49 -4q-36 0 -36 29q0 37 55 37t104.5 -8t103.5 -8t101.5 8t102.5 8t55 -37q0 -29 -36 -29l-48 4q-54 0 -75 -52q-23 -58 -23 -219v-706q0 -163 17.5 -206t36 -54t44.5 -11l48 5q36 0 36 -29q0 -37 -64 -37q-33 0 -70 6q-57 9 -123 9
t-117 -7.5t-83 -7.5q-65 0 -65 37q0 29 36 29l49 -5q54 0 75 52q23 58 23 219v384h-707v-384q0 -163 17.5 -206t36 -54t44.5 -11l48 5q36 0 36 -29q0 -37 -64 -37q-33 0 -70 6q-120 19 -205.5 6.5t-117.5 -12.5z" />
    <glyph glyph-name="I" unicode="I" horiz-adv-x="678" 
d="M146 -15q-65 0 -65 37q0 29 36 29l49 -5q54 0 75 52q23 58 23 219l-5 706q0 165 -17.5 207.5t-36 53t-44.5 10.5l-49 -4q-36 0 -36 29q0 37 55 37t104.5 -8t103.5 -8t103 8t103.5 8t54.5 -37q0 -29 -36 -29l-48 4q-54 0 -75 -52q-23 -58 -23 -219l5 -706
q0 -161 19.5 -205t39.5 -55t46 -11l48 5q36 0 36 -29q0 -37 -64 -37q-33 0 -70 6q-125 20 -212.5 7t-119.5 -13z" />
    <glyph glyph-name="J" unicode="J" horiz-adv-x="667" 
d="M566 1290l-48 4q-58 0 -78 -58q-20 -57 -20 -213v-846q0 -197 -101 -325q-102 -128 -260 -128q-113 0 -152 68q-12 21 -12 46t19.5 43t55 18t61.5 -28.5t29 -79.5q12 -3 38 -3t57 23t55 68q53 99 53 265v879q0 158 -15.5 201.5t-34.5 56.5t-48 13l-49 -4q-36 0 -36 29
q0 37 65 37q32 0 72 -6q75 -10 116.5 -10t67 2.5t47.5 5.5q60 8 90 8q64 0 64 -37q0 -29 -36 -29z" />
    <glyph glyph-name="K" unicode="K" horiz-adv-x="1319" 
d="M133 -15q-65 0 -65 37q0 29 36 29l49 -5q58 0 77 54q21 58 21 217v706q0 162 -16.5 205t-35.5 54.5t-46 11.5l-49 -4q-36 0 -36 29q0 37 55 37t104.5 -8t103 -8t102 8t103 8t54.5 -37q0 -29 -36 -29l-48 4q-55 0 -76 -54q-22 -55 -22 -217v-317l284 337q164 194 173 211
t9 24t-9.5 11t-21.5 7q-31 6 -31 24q0 29 45 29q14 0 32 -2l36 -3q18 -1 34.5 -2.5t28.5 -1.5t31 2l38 5q19 3 35.5 5.5t24.5 2.5q59 0 59 -32q0 -18 -12.5 -21.5t-27.5 -7.5t-41 -16t-62.5 -35.5t-81.5 -61.5q-100 -85 -217 -227l-125 -150l508 -636q97 -97 163 -105
q35 -5 45 -13t10 -20q0 -30 -65 -30h-203q-54 -2 -123 90l-440 588l-96 -114v-247q0 -162 16.5 -205t35.5 -54.5t46 -11.5l48 5q36 0 36 -29q0 -37 -64 -37q-33 0 -70 6q-120 19 -205.5 6.5t-117.5 -12.5z" />
    <glyph glyph-name="L" unicode="L" horiz-adv-x="1097" 
d="M123 -15q-55 0 -55 37q0 29 36 29l49 -5q60 0 81 67q17 57 17 204v706q0 147 -14 192.5t-33.5 62t-50.5 16.5l-49 -4q-36 0 -36 29q0 37 55 37t104.5 -8t103 -8t102 8t103 8t54.5 -37q0 -29 -36 -29l-48 4q-61 0 -82 -67q-16 -53 -16 -204v-565q0 -219 10 -363
q73 -20 161.5 -20t154 10t113.5 30q90 37 140 125q20 36 40 36t20 -29q0 -12 -7 -31q-8 -26 -23 -77.5t-24.5 -79t-21.5 -45.5q-24 -34 -66.5 -34t-80.5 0.5t-79.5 2t-89.5 4t-109 5.5t-106 5.5t-89.5 2.5t-74 -2.5t-53.5 -5t-47 -5t-53 -2.5z" />
    <glyph glyph-name="M" unicode="M" horiz-adv-x="1901" 
d="M128 -15q-63 0 -63 35.5t42 35.5q63 0 89 19q51 37 60 127q2 21 4.5 64t6 100.5t6.5 127t6.5 143t6.5 147.5t5 141q5 167 5 211t-6.5 69t-18.5 41q-22 28 -71 35q-86 12 -86 37q0 17 12.5 27.5t32.5 10.5l157 -14l88 4q24 0 40 -20.5t36 -60.5l484 -1003q17 39 45 103
t61.5 142t71.5 165t75 173t71 165t60 140.5t43 100.5t23.5 55.5t25.5 30.5t45 14l94 -4l120 9q75 0 75 -37q0 -18 -33 -24.5t-56 -11.5t-43 -15q-46 -25 -46 -83l51 -979q8 -129 97 -146q25 -4 49 -4q43 0 43 -35.5t-63 -35.5q-25 0 -43 2.5t-36 4.5q-54 8 -98 8l-213 -15
q-65 0 -65 37q0 31 47 31t68.5 7.5t31.5 23.5q14 24 14 113v94q0 68 -10 276t-14 297q-8 188 -15 285l-473 -1084q-26 -59 -47 -59q-14 0 -23.5 14.5t-25.5 46.5l-484 997q-38 -509 -38 -931q0 -82 133 -82q36 0 36 -29q0 -37 -65 -37l-162 15q-51 0 -96 -7.5t-67 -7.5z
M1471 1219l-1 -1z" />
    <glyph glyph-name="N" unicode="N" horiz-adv-x="1555" 
d="M136 -15q-65 0 -65 37q0 29 36 29l49 -5q60 0 80 67q18 57 18 204v704q0 148 -14 192.5t-33.5 61t-50.5 16.5l-49 -5q-36 0 -36 30q0 39 65 39l131 -15q42 0 75 6l921 -1071v748q0 146 -15.5 192t-35.5 62.5t-52 16.5l-49 -4q-36 0 -36 29q0 37 65 37q25 0 67 -7
q53 -9 96 -9t84 8t96 8t55 -37q0 -29 -36 -29l-49 4q-61 0 -81 -67q-17 -53 -17 -204v-1010q0 -34 -6 -45t-19 -11q-18 0 -57 42l-922 1068v-750q0 -151 13.5 -194.5t33 -60t51.5 -16.5l48 5q36 0 36 -29q0 -37 -57.5 -37t-102 7.5t-86.5 7.5t-82.5 -7.5t-68.5 -7.5z" />
    <glyph glyph-name="O" unicode="O" horiz-adv-x="1585" 
d="M100 677q0 151 56.5 277.5t153 218t223.5 142t274 50.5t273 -53.5t216 -147.5q189 -199 189 -505q0 -290 -195 -485q-199 -199 -506 -199q-300 0 -494 201q-190 198 -190 501zM271 734q0 -130 42.5 -255.5t120.5 -218.5q167 -202 422 -202q197 0 323 148q130 152 130 400
q0 293 -157 486q-156 190 -395 190q-197 0 -339 -150q-147 -156 -147 -398z" />
    <glyph glyph-name="P" unicode="P" horiz-adv-x="1072" 
d="M133 -15q-65 0 -65 37q0 29 36 29l49 -5q60 0 81 67q17 57 17 204v706q0 147 -14 192.5t-33.5 62t-50.5 16.5l-49 -4q-36 0 -36 29q0 37 55 37t104.5 -8t110 -8t107 8t81.5 8q214 0 346 -130q120 -119 120 -287q0 -155 -120 -270q-118 -112 -270 -112q-117 0 -160 46
q-13 14 -13 30.5t9.5 25t23.5 8.5t39 -19q39 -28 97 -28t98.5 22.5t68.5 63.5q58 85 58 229q0 162 -90 258q-87 93 -226 93q-51 0 -75 -14t-24 -48v-907q0 -151 13.5 -194.5t33 -60t51.5 -16.5l48 5q36 0 36 -29q0 -37 -64 -37q-33 0 -70 6q-120 19 -205.5 6.5t-117.5 -12.5
z" />
    <glyph glyph-name="Q" unicode="Q" horiz-adv-x="1569" 
d="M1709 -143q0 -16 -15.5 -29.5t-41.5 -23.5q-57 -23 -106.5 -23t-86 5.5t-83.5 17.5q-101 26 -224 78q-219 93 -369.5 93t-276 53.5t-216.5 147.5q-190 198 -190 499q0 299 210 497q96 92 223 142.5t274 50.5t273 -53.5t216 -147.5q189 -199 189 -505q0 -220 -118 -392
t-318 -246q144 -10 293 -81q118 -56 163.5 -71.5t75 -15.5t44.5 3t25 7q27 10 43 10t16 -16zM271 734q0 -130 42.5 -256t120.5 -220q167 -205 422 -205q196 0 323 150q130 153 130 403q0 293 -157 486q-156 190 -395 190q-197 0 -339 -150q-147 -156 -147 -398z" />
    <glyph glyph-name="R" unicode="R" horiz-adv-x="1302" 
d="M133 -15q-65 0 -65 37q0 29 36 29l49 -5q60 0 81 67q17 57 17 204v706q0 147 -14 192.5t-33.5 62t-50.5 16.5l-49 -4q-36 0 -36 29q0 37 55 37t104.5 -8t103.5 -8t103.5 8t127 8t166.5 -25t150 -71q127 -95 127 -252q0 -174 -143 -300q-46 -40 -102 -68l325 -472
q55 -81 121 -98q19 -5 48 -8q51 -5 51 -33.5t-55 -28.5h-192q-69 0 -125 90l-252 403q-34 53 -65 75.5t-95.5 22.5t-112.5 -3v-271q0 -151 13.5 -194.5t33 -60t51.5 -16.5l48 5q36 0 36 -29q0 -37 -64 -37q-33 0 -70 6q-120 19 -205.5 6.5t-117.5 -12.5zM408 676
q65 -7 125 -7h63q97 0 164 66q78 77 78 210q0 160 -97 253q-91 88 -234 88q-51 0 -75 -14t-24 -48v-548z" />
    <glyph glyph-name="S" unicode="S" horiz-adv-x="1019" 
d="M777 1325l42 6q28 0 31 -45.5t8 -74.5t10 -52t8.5 -39t3.5 -26.5t-11.5 -20t-24.5 -9.5q-23 0 -45 49q-42 93 -70 120q-65 58 -191 58q-176 0 -236 -105q-19 -34 -19 -83t23.5 -92t72 -86.5t123.5 -93.5t161 -109t134 -106.5t78 -94.5q57 -89 57 -173t-24 -149.5
t-78 -114.5q-117 -109 -346 -109q-116 0 -256 51q-32 11 -40 25q-9 17 -16 64t-16.5 85t-17.5 68l-14 52q-6 23 -6 38q0 36 27 36q36 0 52 -55q28 -98 50 -127q85 -112 197 -146q33 -10 88.5 -10t109 16.5t88.5 44.5q66 54 66 131.5t-49.5 140t-119 109t-104 68.5t-64.5 42
q-253 169 -299 336q-12 44 -12 101t28 117t80 105q115 98 297 98q83 0 133 -17q70 -23 91 -23z" />
    <glyph glyph-name="T" unicode="T" horiz-adv-x="1215" 
d="M410 -15q-65 0 -65 37q0 29 36 29l49 -5q60 0 80 67q18 57 18 204v935h-27q-175 0 -279 -36q-72 -26 -98 -89q-19 -46 -40 -46q-29 0 -29 34q0 10 4.5 23t10.5 31q16 48 19 100t11.5 69.5t23.5 17.5t27 -2.5t35 -5.5q60 -8 151 -8h634q74 0 107.5 8t48.5 8q33 0 33 -31
q0 -16 -6 -38q-15 -49 -19.5 -84.5t-8.5 -58t-9 -35.5q-8 -22 -24 -22t-20.5 11.5t-9.5 44.5t-17 54t-32 33q-35 22 -114 22h-215v-935q0 -151 13.5 -194.5t33 -60t51.5 -16.5l48 5q36 0 36 -29q0 -37 -64 -37q-33 0 -70 6q-120 19 -205.5 6.5t-117.5 -12.5z" />
    <glyph glyph-name="U" unicode="U" horiz-adv-x="1506" 
d="M540 1290l-48 4q-61 0 -83 -67q-19 -59 -19 -204v-494q0 -139 20 -199.5t56.5 -110.5t85.5 -85q99 -70 223.5 -70t205.5 29.5t129 88.5q89 108 89 352l-2 489q0 147 -14 192.5t-33.5 62t-50.5 16.5l-49 -4q-36 0 -36 29q0 37 55 37t96 -8t86 -8l165 16q64 0 64 -37
q0 -29 -36 -29l-48 4q-61 0 -81 -67q-17 -58 -17 -204l-2 -540q0 -223 -142 -365q-143 -143 -381 -143q-259 0 -409 143q-153 148 -153 411v494q0 145 -15 191.5t-35 63t-52 16.5l-49 -4q-36 0 -36 29q0 37 55.5 37t108.5 -8t111.5 -8t113 8t109 8t54.5 -37q0 -29 -36 -29z
" />
    <glyph glyph-name="V" unicode="V" horiz-adv-x="1413" 
d="M1330 1356q63 0 63 -35.5t-42 -35.5q-53 0 -75 -22q-40 -38 -74 -128l-431 -1126q-25 -62 -45 -62q-26 0 -54 71l-463 1117q-40 91 -62 115q-35 35 -81 35t-46 36q0 14 16 24.5t44 10.5t46 -2.5t36 -5.5q50 -8 96 -8t97 8t108 8t57 -33t-43 -33q-111 0 -111 -61
q0 -42 40 -137l362 -868l313 865q29 81 29 119q0 82 -124 82q-43 0 -43 33t65 33q32 0 72.5 -8t99.5 -8z" />
    <glyph glyph-name="W" unicode="W" horiz-adv-x="2043" 
d="M1960 1356q63 0 63 -35.5t-42 -35.5q-52 0 -76 -22q-38 -36 -73 -128l-429 -1126q-25 -62 -48 -62q-29 0 -54 71l-236 695l-294 -704q-25 -62 -45 -62q-26 0 -54 71l-466 1113q-42 96 -62 118q-33 36 -78.5 36t-45.5 36q0 14 16 24.5t44 10.5t46 -2.5t36 -5.5
q50 -8 100 -8l173 16q65 0 65 -34q0 -14 -11 -25t-37.5 -11t-45 -3.5t-28.5 -10.5q-16 -10 -16 -34q0 -51 40 -146l363 -871l256 620l-94 279q-33 97 -63 124q-45 39 -99 40.5t-54 36.5q0 14 16 24.5t44 10.5t46 -2.5t37 -5.5q49 -8 99 -8l222 16q65 0 65 -33t-54 -33
q-104 0 -104 -65q0 -59 40 -174l281 -821l308 859q29 82 29 119q0 82 -124 82q-43 0 -43 33t65 33q32 0 72.5 -8t99.5 -8z" />
    <glyph glyph-name="X" unicode="X" horiz-adv-x="1319" 
d="M98 -15q-63 0 -63 34.5t39.5 36t69 13.5t58.5 39q49 45 134 185l236 394l-265 443q-55 95 -80 119q-38 37 -85 37t-47 35t65 35l175 -16q45 0 85.5 8t73.5 8q63 0 63 -31q0 -22 -17 -28t-38 -9t-38 -8t-17 -24q0 -37 39 -104l181 -307l183 304q43 72 43 95q0 46 -78 46
q-36 0 -36 29q0 37 65 37l132 -15q53 0 95 7.5t65 7.5q63 0 63 -35.5t-38.5 -35.5t-67 -8t-57.5 -33q-57 -50 -138 -196l-176 -295l303 -511q111 -186 216 -186q43 0 43 -35.5t-63 -35.5q-26 0 -44 2.5t-36 4.5q-54 8 -97 8l-167 -15q-65 0 -65 37q0 29 29.5 29t43 2.5
t19.5 7.5q10 7 10 26q-2 3 -10.5 32.5t-42.5 86.5l-234 389l-241 -403q-43 -72 -43 -95q0 -46 78 -46q36 0 36 -29q0 -37 -65 -37l-132 15q-50 0 -95 -7.5t-67 -7.5z" />
    <glyph glyph-name="Y" unicode="Y" horiz-adv-x="1260" 
d="M438 -15q-65 0 -65 37q0 29 36 29l49 -5q60 0 80 67q18 57 18 204v350l-315 465q-64 93 -90 117q-42 36 -86.5 36t-44.5 36q0 14 16 24.5t51 10.5t73 -8t82 -8l163 16q65 0 65 -33t-55.5 -33t-55.5 -36q0 -20 36 -76l276 -418l212 336q65 102 70 123t5 29q0 42 -62.5 42
t-62.5 33t65 33q35 0 69 -8t70 -8t67 8t66 8q70 0 70 -35q0 -36 -47 -36q-48 0 -77 -25q-46 -39 -117 -149l-286 -430v-364q0 -151 13.5 -194.5t33 -60t51.5 -16.5l48 5q36 0 36 -29q0 -37 -64 -37q-33 0 -70 6q-120 19 -205.5 6.5t-117.5 -12.5z" />
    <glyph glyph-name="Z" unicode="Z" horiz-adv-x="1312" 
d="M81 -13q-26 0 -26 13q0 10 54 86l824 1159q-98 14 -229 14q-348 0 -444 -76q-31 -25 -48.5 -57.5t-27.5 -40t-22 -7.5q-29 0 -29 31q0 15 4.5 26t10.5 29q18 48 21.5 99.5t15 72t40 20.5t66 -1t87 -3t109 -4t124.5 -4q130 -4 236 -4t173 8t112 8t45 -24q-2 -20 -70 -119
l-789 -1135h515q249 0 329 82q24 26 35.5 53t19 36t21.5 9q29 0 29 -33q0 -7 -11 -52q-22 -83 -27.5 -130t-17 -57.5t-37.5 -10.5t-102 9t-191 9z" />
    <glyph glyph-name="bracketleft" unicode="[" horiz-adv-x="712" 
d="M585 -208q27 0 27 -15q0 -22 -14.5 -35.5t-24.5 -13.5h-341q-20 0 -26 6.5t-6 26.5v1636q0 20 6 26.5t26 6.5h341q25 0 37 -38q2 -8 2 -11q0 -15 -27 -15q-148 0 -228 -17v-1540q80 -17 228 -17z" />
    <glyph glyph-name="backslash" unicode="\" horiz-adv-x="885" 
d="M33 1558q-9 27 -9 35t15.5 8t31.5 -2.5t29 -6.5q31 -11 37 -25l716 -1883q9 -27 9 -35t-15 -8t-30.5 2t-29.5 7q-32 10 -38 25z" />
    <glyph glyph-name="bracketright" unicode="]" horiz-adv-x="712" 
d="M100 -223q0 15 27 15q148 0 228 17v1540q-80 17 -228 17q-27 0 -27 15q0 22 14.5 35.5t24.5 13.5h341q20 0 26 -6.5t6 -26.5v-1636q0 -20 -6 -26.5t-26 -6.5h-341q-25 0 -37 38q-2 8 -2 11z" />
    <glyph glyph-name="asciicircum" unicode="^" horiz-adv-x="848" 
d="M144 866q-64 0 -64 23q0 12 16 34l282 409q18 24 46 24t46 -24l282 -409q16 -24 16 -34q0 -23 -62 -23q-24 0 -40 21l-244 345l-240 -345q-14 -21 -38 -21z" />
    <glyph glyph-name="underscore" unicode="_" horiz-adv-x="622" 
d="M622 1v-85h-622v85h622z" />
    <glyph glyph-name="grave" unicode="`" horiz-adv-x="557" 
d="M92 1221q-19 9 -19 24t6.5 33.5t16.5 33.5q22 33 34 33q16 0 29 -8l282 -179q29 -18 29 -32.5t-10 -25t-20 -10.5q-10 -1 -69 23z" />
    <glyph glyph-name="a" unicode="a" horiz-adv-x="1033" 
d="M992 134q29 0 29 -26.5t-58 -50.5t-81 -43.5t-34 -29t-26 -9.5q-30 0 -50 25t-54 107q-57 -65 -138.5 -98.5t-161.5 -33.5q-151 0 -234 77t-83 211t125.5 217.5t320.5 83.5q58 0 153 -20v78q0 257 -217 257q-115 0 -169 -106q-47 -95 -92 -95q-33 0 -57.5 19t-24.5 48
t30 64.5t80 64.5q118 69 259 69q250 0 323 -163q27 -58 27 -142v-399q0 -77 15 -99t42 -22t44 8t32 8zM700 451q-72 41 -182 41t-176.5 -55t-66.5 -147.5t51 -154t131 -61.5q171 0 246 112q-3 28 -3 62v203z" />
    <glyph glyph-name="b" unicode="b" horiz-adv-x="1125" 
d="M300 47q-16 -7 -43 -27q-46 -35 -59 -35t-21.5 9t-8.5 22t5 28.5t8 34t5 46.5q5 70 5 168l3 811q0 94 -16 122.5t-33 38.5t-54.5 16t-37.5 31q0 23 51 33q123 26 168 51q60 34 81 34q23 0 23 -23q0 -11 -4 -23q-21 -54 -22 -137t-1 -135v-305q78 101 215 128q40 8 77 8
q187 0 299 -139q104 -131 104 -336q0 -220 -139 -359q-134 -134 -313 -134t-292 72zM349 198q36 -72 104.5 -110t143 -38t124 25t83.5 71q72 97 72 263q0 196 -78 314q-77 117 -204 117q-113 0 -196 -80q-28 -27 -49 -64v-498z" />
    <glyph glyph-name="c" unicode="c" horiz-adv-x="950" 
d="M83 458q0 106 38.5 196.5t104.5 154.5q140 134 353 134q126 -4 219 -59q95 -55 99 -135q0 -43 -57 -57q-15 -3 -27 -3q-46 0 -75 63q-57 119 -193 119q-120 0 -201 -99q-86 -105 -86 -277q0 -191 89 -307q93 -122 254 -122q110 0 193 84q36 36 54 36q37 0 37 -37
q0 -36 -71 -88q-115 -86 -283 -86q-201 0 -327 137q-121 133 -121 346z" />
    <glyph glyph-name="d" unicode="d" horiz-adv-x="1101" 
d="M793 89q-107 -114 -281 -114q-204 0 -322 141q-109 132 -109 336t134 347q135 144 336 144q132 0 221 -50v211q0 94 -15 122.5t-32 38.5t-54.5 16t-37.5 31q0 23 51 33q120 25 165 51q61 34 82 34q23 0 23 -23q0 -11 -4 -23q-21 -54 -22 -137t-1 -135v-819
q0 -110 13 -142t26 -41.5t31 -9.5l60 13q29 0 29 -26q0 -15 -12.5 -25t-42.5 -23t-50 -27t-35 -26q-34 -29 -53 -29q-65 0 -100 132zM772 744q-91 124 -252 124q-121 0 -194 -93q-78 -98 -78 -268q0 -198 101 -317q94 -112 225 -112q133 0 203 94q-5 37 -5 86v486z" />
    <glyph glyph-name="e" unicode="e" horiz-adv-x="985" 
d="M112.5 265q-31.5 88 -31.5 195.5t37 197.5t102 154q135 133 333 133q164 0 265 -108q96 -104 96 -257q0 -50 -13.5 -68.5t-33.5 -22t-55 -6t-85 -5.5t-111.5 -6t-125.5 -7q-147 -9 -236 -18q22 -269 206 -349q60 -26 128 -26q144 0 228 84q36 36 55 36q36 0 36 -43
q0 -22 -30 -53t-86 -64q-99 -57 -231 -57t-215.5 36.5t-142 101t-90 152.5zM252 521q469 24 494 51q9 10 9 59t-19 95.5t-51 79.5q-66 67 -164 67q-111 0 -187 -93q-80 -97 -82 -259z" />
    <glyph glyph-name="f" unicode="f" horiz-adv-x="696" 
d="M157 -15q-67 0 -67 37q0 29 37 29l40 -5q23 0 37.5 8.5t21.5 36.5q13 47 13 226v522l-94 2q-17 0 -17 19q0 37 12.5 48.5t20.5 11.5h78v3q0 419 176 521q61 36 146 36q73 0 109.5 -15.5t53.5 -25t32 -21.5q34 -30 34 -58.5t-19 -45t-38 -16.5t-30 1.5t-23 8.5
q-24 13 -46 38l-30 34q-8 9 -18 15q-23 13 -63.5 13t-64 -28.5t-36.5 -87.5q-20 -95 -20 -354v-18h210q32 0 32 -27q0 -32 -13.5 -46.5t-21.5 -14.5l-207 4v-517q0 -185 12 -221t28.5 -43t43.5 -7l99 7q45 0 45 -35t-73 -35l-230 15q-51 0 -93.5 -7.5t-76.5 -7.5z" />
    <glyph glyph-name="g" unicode="g" horiz-adv-x="1038" 
d="M348 322q-58 -49 -58 -64t7.5 -26.5t32.5 -23.5q57 -25 195.5 -40.5t231.5 -42.5t151 -65q110 -72 110 -200q0 -137 -145 -237q-146 -100 -346 -100q-201 0 -327 82q-127 83 -127 210q0 162 214 245q-117 35 -137 90q-7 17 -7 35q0 50 142 168q-146 93 -146 269
q2 135 105 226q108 95 280 95q75 0 148 -27q44 99 124 156q69 50 141 50q83 0 115 -61q10 -18 10 -41t-24.5 -42t-46.5 -19q-41 0 -64 19q-37 31 -72 31t-68.5 -33.5t-50.5 -91.5q157 -96 157 -265q0 -134 -109 -228q-113 -96 -276 -96q-91 0 -160 27zM455.5 383.5
q42.5 -19.5 84 -19.5t74 14t56.5 42q51 60 51 149t-15.5 141.5t-45.5 89.5q-61 75 -168 75q-123 0 -170 -127q-14 -40 -14 -100.5t19.5 -115t52.5 -92t75.5 -57zM367 40q-142 -55 -142 -192q0 -89 96 -156q102 -71 257 -71q226 0 284 99q21 35 21 81t-15 78t-54 57
q-79 52 -276 77q-130 15 -171 27z" />
    <glyph glyph-name="h" unicode="h" horiz-adv-x="1215" 
d="M134 -15q-66 0 -66 37q0 29 37 29l50 -5q23 0 38 8.5t23 36.5q16 51 16 226v786q0 95 -15 123.5t-32 38.5t-54.5 16t-37.5 31q0 23 51 33q119 25 164 50q61 35 83.5 35t22.5 -23q0 -11 -4 -23q-21 -54 -22 -137t-1 -136v-390q83 159 235 207q48 15 96 15q146 0 226 -85
t80 -265v-276q0 -175 12 -214.5t27 -48t38 -8.5l50 5q37 0 37 -29q0 -37 -67 -37q-38 0 -81 7.5t-92.5 7.5t-94 -7.5t-82.5 -7.5q-67 0 -67 37q0 29 37 29l50 -5q23 0 38 8.5t24 36.5q16 50 16 226v228q0 285 -210 285q-152 0 -231 -158q-28 -55 -41 -130v-225
q0 -175 12 -214.5t27 -48t38 -8.5l50 5q37 0 37 -29q0 -37 -66 -37q-38 0 -79 7.5t-94 7.5t-96.5 -7.5t-81.5 -7.5z" />
    <glyph glyph-name="i" unicode="i" horiz-adv-x="585" 
d="M380.5 1169.5q-28.5 -29.5 -77 -29.5t-75 28.5t-26.5 62t9 51.5t23 31q31 27 75.5 27t72 -28t27.5 -70.5t-28.5 -72zM134 -15q-67 0 -67 37q0 29 37 29l50 -5q23 0 38 8.5t24 36.5q16 50 16 226v301q0 99 -13.5 125.5t-30.5 36t-56.5 15t-39.5 31.5q0 23 52 34
q119 24 164 49q62 35 85 35t23 -23q0 -11 -4 -23q-23 -69 -23 -272v-309q0 -176 12.5 -215t27.5 -47.5t38 -8.5l50 5q37 0 37 -29q0 -37 -67 -37q-38 0 -81.5 7.5t-93.5 7.5t-95 -7.5t-83 -7.5z" />
    <glyph glyph-name="j" unicode="j" horiz-adv-x="570" 
d="M376.5 1169.5q-28.5 -29.5 -77 -29.5t-75 28.5t-26.5 62t9 51.5t23 31q31 27 75.5 27t72 -28t27.5 -70.5t-28.5 -72zM79 -448q153 0 153 402v664q0 102 -14 127.5t-33.5 34t-60 15t-40.5 31.5q0 23 37.5 30.5t65.5 14t55 14.5q58 18 86 34q45 25 67 25t22 -23
q0 -11 -4 -23q-23 -69 -23 -272v-639q0 -372 -201 -474q-65 -33 -127.5 -33t-102.5 9.5t-71 26.5q-68 37 -68 93q0 24 24 44t52.5 20t47 -14.5t36.5 -41t27.5 -38.5t18.5 -18q12 -9 34 -9h19z" />
    <glyph glyph-name="k" unicode="k" horiz-adv-x="1097" 
d="M116 -15q-66 0 -66 37q0 29 37 29l50 -5q23 0 38 8.5t23 36.5q16 51 16 226v786q0 95 -15 123.5t-32 38.5t-54.5 16t-37.5 31q0 23 51 33q119 25 164 50q61 35 83.5 35t22.5 -23q0 -11 -4 -23q-21 -54 -22 -137t-1 -136v-598l300 286q26 24 26 38.5t-12 22t-27 14.5
q-38 17 -38 36q0 25 44 25l116 -10l170 10q65 0 65 -29q0 -26 -55 -31q-58 -6 -105 -40.5t-79 -62.5l-202 -177l315 -473q45 -73 123 -73q46 0 56.5 -6.5t10.5 -23.5q0 -34 -59 -34l-116 11l-81 -11q-32 0 -50.5 22t-34.5 42l-287 437l-80 -71v-98q0 -236 30 -261
q11 -10 28 -10l50 5q36 0 36 -29q0 -37 -66 -37q-29 0 -66 7.5t-88.5 7.5t-95 -7.5t-81.5 -7.5z" />
    <glyph glyph-name="l" unicode="l" horiz-adv-x="590" 
d="M122 -15q-66 0 -66 37q0 29 37 29l50 -5q23 0 38 8.5t23 36.5q16 51 16 226v745q0 166 -69 176q-50 8 -50 33q0 23 47 32.5t85 24t67 28t49.5 23.5t29.5 10q23 0 23 -23q0 -11 -4 -23q-21 -54 -22 -137t-1 -136v-753q0 -175 12 -214.5t27 -48t38 -8.5l50 5q37 0 37 -29
q0 -37 -66 -37q-38 0 -79 7.5t-94 7.5t-96.5 -7.5t-81.5 -7.5z" />
    <glyph glyph-name="m" unicode="m" horiz-adv-x="1794" 
d="M124 -15q-66 0 -66 37q0 29 37 29l50 -5q23 0 38 8.5t23 36.5q16 51 16 226v299q0 100 -13 126.5t-30.5 36t-56.5 15.5t-39 31q0 23 51 33q119 25 164 50q61 35 83.5 35t22.5 -23q0 -11 -4.5 -23t-9.5 -29q-7 -27 -11 -104q89 129 223 167q43 12 86 12q234 0 289 -208
q89 148 235 193q46 15 93 15q146 0 226 -85t80 -265v-276q0 -175 12 -214.5t27 -48t38 -8.5l50 5q37 0 37 -29q0 -37 -67 -37q-38 0 -81 7.5t-92.5 7.5t-94 -7.5t-82.5 -7.5q-67 0 -67 37q0 29 37 29l50 -5q23 0 38 8.5t24 36.5q16 50 16 226v228q0 219 -118 267
q-38 15 -81.5 15t-81.5 -15.5t-71 -45.5q-73 -65 -110 -172v-277q0 -175 12 -214.5t27 -48t38 -8.5l50 5q37 0 37 -29q0 -37 -67 -37q-38 0 -81 7.5t-92.5 7.5t-94 -7.5t-82.5 -7.5q-67 0 -67 37q0 29 37 29l50 -5q23 0 38 8.5t24 36.5q16 50 16 226v228q0 219 -117 267
q-39 15 -82.5 15t-81.5 -15.5t-72 -45.5q-72 -65 -109 -172v-277q0 -175 12 -214.5t27 -48t38 -8.5l50 5q37 0 37 -29q0 -37 -66 -37q-38 0 -79 7.5t-94 7.5t-96.5 -7.5t-81.5 -7.5z" />
    <glyph glyph-name="n" unicode="n" horiz-adv-x="1197" 
d="M121 -15q-66 0 -66 37q0 29 37 29l53 -5q23 0 38 8.5t23 36.5q16 51 16 226v299q0 101 -13.5 126.5t-32.5 35t-59 16t-40 31.5q0 23 51 33q129 27 172 51q59 34 81.5 34t22.5 -23q0 -11 -4 -23q-19 -48 -22 -155q57 97 142.5 149t169 52t141.5 -21t99 -64q84 -90 84 -265
v-276q0 -175 12 -214.5t27 -48t38 -8.5l52 5q37 0 37 -29q0 -37 -67 -37q-39 0 -82.5 7.5t-93 7.5t-94.5 -7.5t-84 -7.5q-67 0 -67 37q0 29 37 29l52 -5q23 0 38 8.5t24 36.5q16 50 16 226v228q0 286 -208 286q-147 0 -229 -133q-29 -49 -45 -120v-261q0 -175 12 -214.5
t27 -48t38 -8.5l53 5q37 0 37 -29q0 -37 -66 -37q-38 0 -80.5 7.5t-95.5 7.5t-97.5 -7.5t-83.5 -7.5z" />
    <glyph glyph-name="o" unicode="o" horiz-adv-x="1099" 
d="M76 444q0 97 35 188t99 160q140 151 349 151q232 0 357 -139q113 -126 113 -327q0 -203 -135 -351q-138 -151 -348 -151q-232 0 -356 139q-114 126 -114 330zM245 486q0 -98 27 -183t74 -141q93 -114 235 -114q126 0 205 100q82 104 82 268q0 217 -100 340
q-94 113 -236 113q-126 0 -205 -100q-82 -104 -82 -283z" />
    <glyph glyph-name="p" unicode="p" horiz-adv-x="1169" 
d="M87 -351l84 -7q13 0 21 6t13 28q9 40 9 176v765q0 94 -15 122.5t-32 38.5t-54.5 16t-37.5 31q0 23 51 33q120 25 165 51q61 34 82 34q23 0 23 -23q0 -11 -4.5 -23t-9.5 -28q-7 -26 -11 -99q122 173 308 173q189 0 301 -135q108 -131 108 -340q0 -205 -134 -348
q-135 -145 -334 -145q-144 0 -251 76v-199q0 -189 16 -204q7 -6 18 -6l134 11q20 0 32 -12.5t12 -26.5q0 -43 -73 -43l-211 15q-51 0 -96.5 -7.5t-83.5 -7.5t-52.5 13.5t-14.5 28.5t10 25.5t27 10.5zM369 221q59 -122 195 -160q43 -12 92 -12t98.5 21.5t86.5 66.5
q81 99 81 276q0 197 -85 315q-80 112 -201 112q-124 0 -218 -108q-29 -34 -49 -76v-435z" />
    <glyph glyph-name="q" unicode="q" horiz-adv-x="1115" 
d="M800 100q-103 -125 -290 -125q-190 0 -312 133q-117 129 -117 329q0 199 131 349q84 97 212 137q63 20 135 20q146 0 264 -71q50 18 92.5 44.5t51.5 26.5t18.5 -8.5t9 -18t-8.5 -25t-13 -30t-8.5 -28.5t-5.5 -36q-4 -44 -4 -142v-747q0 -173 12 -210.5t27 -44.5t38 -7
l50 5q37 0 37 -32q0 -16 -14.5 -29.5t-53 -13.5t-83.5 7.5t-99 7.5t-104 -7.5t-113.5 -7.5t-63.5 45q0 33 48 33l86 -7q27 0 42.5 5t23.5 30q12 39 12 226v192zM563 78q164 0 237 133v483q-56 118 -180 160q-41 13 -92.5 13t-104 -26t-91.5 -76q-84 -108 -84 -289
q0 -183 90 -292q89 -106 225 -106z" />
    <glyph glyph-name="r" unicode="r" horiz-adv-x="793" 
d="M117 -15q-67 0 -67 37q0 29 37 29l50 -5q23 0 38 8.5t23 36.5q16 51 16 226v299q0 102 -12.5 127.5t-30 35t-57 15.5t-39.5 31q0 23 51 33q119 25 164 50q61 35 83.5 35t22.5 -23q0 -11 -4.5 -23t-9.5 -29q-8 -34 -12 -128q87 146 210 182q36 11 80.5 11t79 -32t34.5 -68
t-8 -53t-20 -29q-26 -26 -46.5 -26t-31.5 10.5t-25 38.5q-25 50 -56 50t-59 -13.5t-56 -40.5q-61 -57 -103 -155v-298q0 -190 10.5 -223.5t26 -40t42.5 -6.5l89 8q20 0 32 -9.5t12 -23.5q0 -37 -73 -37l-211 15q-51 0 -96.5 -7.5t-83.5 -7.5z" />
    <glyph glyph-name="s" unicode="s" horiz-adv-x="877" 
d="M111 126.5q-26 39.5 -26 62t6.5 34t17.5 21.5q26 25 50.5 25t37.5 -11.5t24.5 -45t33 -64.5t51.5 -54q65 -49 159 -49q83 0 141 41q61 42 61 105q0 64 -55 112q-59 51 -175 97.5t-165 78.5t-80 68q-59 69 -59 158q0 102 92.5 170t232.5 68q121 0 204 -51q72 -45 72 -95
q0 -26 -26.5 -44.5t-50 -18.5t-36.5 9.5t-39 49.5q-51 79 -155 79q-117 0 -155 -70q-11 -20 -11 -43t9.5 -44.5t35.5 -44.5q55 -46 202 -107q288 -119 288 -305q0 -125 -101 -204q-102 -79 -262 -79q-142 0 -250 79q-46 33 -72 72.5z" />
    <glyph glyph-name="t" unicode="t" horiz-adv-x="686" 
d="M642 844q0 -27 -32 -27l-284 3v-554q0 -155 75 -184q23 -9 54 -9t56.5 10.5t45.5 22.5t34 22.5t26.5 10.5t22.5 -14t10 -28q0 -35 -89 -84q-68 -38 -171 -38t-161 73.5t-58 203.5v571h-61q-72 0 -72 37q0 27 40 37t69 35.5t47.5 58t29.5 67.5t20 64q22 66 50 66
q32 0 32 -57v-226l281 6q21 0 33 -50q2 -11 2 -17z" />
    <glyph glyph-name="u" unicode="u" horiz-adv-x="1167" 
d="M1086 132q29 0 29 -26q0 -14 -12.5 -24t-38.5 -20.5t-41 -17.5t-28 -14q-21 -11 -46 -28q-42 -27 -57.5 -27t-28 7.5t-25.5 27.5q-30 47 -32 138q-85 -120 -218 -153q-41 -10 -96 -10t-113.5 18.5t-100.5 60.5q-90 87 -90 264v288q0 96 -11.5 125t-25 39t-35.5 14
q-45 10 -45 33q0 25 51 35q113 23 150 45q53 30 73 30t20 -23q0 -11 -5 -23q-20 -54 -21 -134t-1 -133v-256q0 -208 134 -254q40 -13 79 -13t73.5 9.5t67.5 29.5q71 45 113 132l3 366q0 85 -15 109.5t-33 32.5t-56.5 14t-38.5 32q0 23 48.5 33t89.5 24.5t72.5 27.5t52 22.5
t28.5 9.5q23 0 23 -23q0 -11 -5 -23q-20 -54 -21 -137t-1 -136v-375q0 -77 13 -98q20 -33 57 -33z" />
    <glyph glyph-name="v" unicode="v" horiz-adv-x="997" 
d="M998 935q41 0 41 -25q0 -21 -38 -34.5t-56.5 -25t-36.5 -33.5q-30 -38 -79 -148l-303 -665q-14 -29 -27 -29q-20 0 -32 29l-336 743q-30 64 -45 84q-26 31 -70 42t-44 38q0 9 10.5 16.5t30.5 7.5l155 -11q63 0 95 4q56 7 92 7q72 0 72 -29q0 -30 -84 -34q-62 -3 -62 -41
q0 -33 22 -79l238 -524l207 480q38 89 38 117t-14 36t-53.5 11.5t-57 10.5t-17.5 23q0 29 68 29l170 -10z" />
    <glyph glyph-name="w" unicode="w" horiz-adv-x="1501" 
d="M1518 934q41 0 41 -25q0 -21 -38 -34.5t-55.5 -25.5t-33.5 -35q-26 -37 -73 -150l-283 -660q-12 -29 -26 -29q-21 0 -33 29l-271 629l-260 -629q-12 -29 -26 -29q-21 0 -33 29l-306 738q-26 68 -42 87q-27 33 -70.5 43.5t-43.5 37.5q0 9 10.5 16.5t30.5 7.5l155 -11
q60 0 89 4q51 7 84 7q68 0 68 -29q0 -30 -80 -34q-49 -2 -53 -27q-1 -7 -1 -17q0 -23 21 -80l208 -501l201 497l-22 52q-24 56 -50 70q-10 5 -23 10q-38 14 -38 36.5t45 22.5l128 -11q62 0 93 4q54 7 105.5 7t51.5 -29q0 -30 -80 -34q-62 -3 -62 -41q0 -39 40 -128l204 -468
l139 346q66 166 70 199.5t4 48.5q0 38 -52 42.5t-69.5 11.5t-17.5 23q0 29 68 29l170 -10z" />
    <glyph glyph-name="x" unicode="x" horiz-adv-x="1037" 
d="M59 -15q-41 0 -41 25q0 21 38 34.5t60 29t47 39.5t54.5 58t70.5 80l154 199l-222 293q-81 104 -166 127q-43 12 -43 37q0 9 10.5 16.5t30.5 7.5l175 -11l151 11q68 0 68 -29q0 -17 -16 -23t-35 -9.5t-35 -10t-16 -22.5q-1 -22 52 -89l148 -196l124 156q78 100 78 124.5
t-16 31t-35 11t-35 10.5t-16 21q0 29 58 29l160 -10l106 10q41 0 41 -25q0 -21 -38 -34.5t-61 -28.5t-48 -39q-41 -38 -123 -139l-146 -181l240 -315q41 -54 75.5 -85t79 -42.5t44.5 -36.5q0 -9 -10.5 -16.5t-31 -7.5t-34 1.5t-26.5 3.5q-74 14 -136 6q-84 -11 -135.5 -11
t-51.5 29q0 31 60 34q42 2 42 32q0 22 -52 88l-165 217l-136 -173q-75 -90 -75 -133q0 -17 16 -23t35 -9.5t35 -9.5t16 -19q0 -33 -58 -33l-148 10z" />
    <glyph glyph-name="y" unicode="y" horiz-adv-x="950" 
d="M961 935q41 0 41 -25q0 -21 -37.5 -34.5t-57.5 -25t-37 -32.5q-35 -43 -74 -149l-150 -408q-193 -526 -279 -633q-85 -108 -202 -108q-81 0 -117 22q-60 38 -60 78q0 28 20 46q33 31 60.5 31t48.5 -9.5t40.5 -21t35.5 -21t29 -9.5t27.5 2t31.5 13.5t37 35.5t44 67
q53 97 119 274q-43 32 -136 231l-221 488q-30 65 -46 83q-26 33 -69.5 43.5t-43.5 37.5q0 9 10.5 16.5t30.5 7.5l155 -11q61 0 92 4q53 7 87 7q68 0 68 -29q0 -30 -80 -34q-51 -3 -58 -27q-2 -7 -2 -15q0 -13 30 -78l244 -551q1 0 1 2t1 4l170 501q15 45 25.5 74.5t10.5 50
t-14 28.5t-54 11q-75 7 -75 35t68 28l170 -10z" />
    <glyph glyph-name="z" unicode="z" horiz-adv-x="983" 
d="M114 0q-34 0 -34 20q0 12 14 32l562 796h-125q-202 0 -270 -36q-49 -28 -69 -81q-20 -52 -46 -52t-26 29q0 4 5.5 25.5t12.5 51.5q17 81 17 121.5t22 40.5q11 0 23 -5q54 -20 136.5 -21t135.5 -1h373q34 0 34 -23q0 -12 -17 -36l-548 -789h161q241 0 300 44
q37 27 60 73.5t32 56t23 9.5q20 0 20 -25q0 -23 -14.5 -66.5t-17 -72t-4.5 -51.5q-5 -55 -27 -55t-45 2.5t-53 4.5q-90 8 -167 8h-468z" />
    <glyph glyph-name="braceleft" unicode="{" horiz-adv-x="754" 
d="M470 269l-7 -251q0 -104 20.5 -143t48 -58t61.5 -25q61 -11 61 -37q0 -9 -9.5 -18t-29.5 -9q-139 0 -232 138q-97 143 -97 377q0 54 7 112q13 109 13 131q0 57 -91 78q-15 4 -15 15t15 14.5t41 13.5q50 20 50 74q0 13 -7 71q-13 109 -13 196t26 182.5t71 161.5
q93 138 232 138q20 0 29.5 -9t9.5 -21q0 -23 -47.5 -31.5t-75 -27.5t-43.5 -49q-25 -48 -25 -152l7 -251q-4 -137 -28 -188.5t-50.5 -76.5t-63.5 -45q77 -42 106 -106q32 -69 36 -204z" />
    <glyph glyph-name="bar" unicode="|" horiz-adv-x="529" 
d="M217 1594h95v-1951h-95v1951z" />
    <glyph glyph-name="braceright" unicode="}" horiz-adv-x="754" 
d="M284 889l7 251q0 104 -20.5 143t-48 58t-61.5 25q-61 11 -61 37q0 9 9.5 18t29.5 9q139 0 232 -138q97 -143 97 -377q0 -54 -7 -112q-13 -109 -13 -131q0 -57 91 -78q15 -4 15 -15t-15 -14.5t-41 -13.5q-50 -20 -50 -74q0 -13 7 -71q13 -109 13 -196t-26 -182.5
t-71 -161.5q-93 -138 -232 -138q-20 0 -29.5 9t-9.5 18q0 26 47.5 34.5t75 27.5t43.5 48q25 48 25 153l-7 251q2 134 27 187t51.5 78t63.5 45q-109 55 -132 191q-9 50 -10 119z" />
    <glyph glyph-name="asciitilde" unicode="~" horiz-adv-x="1057" 
d="M955 677q37 0 37 -45q0 -38 -47.5 -108t-77.5 -100.5t-57 -47.5q-46 -30 -96 -30t-103 23.5t-111.5 60t-87 52.5t-49.5 24q-33 14 -73.5 14t-73 -27.5t-62.5 -74t-38 -59.5t-14 -13q-37 0 -37 45q0 46 47.5 112t77.5 96.5t57 47.5q48 30 85 30t57 -3.5t43 -12.5
q35 -14 100 -54.5t97.5 -58t58.5 -27.5q45 -18 82 -18t70 27t63 74t38 60t14 13z" />
    <glyph glyph-name="nonbreakingspace" unicode="&#xa0;" horiz-adv-x="440" 
 />
    <glyph glyph-name="exclamdown" unicode="&#xa1;" horiz-adv-x="518" 
d="M330 1043q-27 -28 -59.5 -28t-51.5 7t-33 20q-32 28 -32 72t26.5 72.5t73.5 28.5t75 -29.5t28 -72t-27 -70.5zM144 -90l1 7q69 540 74 918q0 23 10.5 34t22.5 11q31 0 33 -45q12 -362 38 -614q36 -344 37.5 -370t-25.5 -26q-16 0 -77 16t-87.5 29.5t-26.5 39.5z" />
    <glyph glyph-name="cent" unicode="&#xa2;" horiz-adv-x="960" 
d="M818 61q-116 -86 -262 -86q-42 0 -62 2l-41 -330q-3 -27 -45 -38q-11 -3 -23 -3t-14.5 3.5t-3 12t1 16.5t3.5 20l41 333q-149 37 -239 167q-88 124 -88 295q0 208 128 343q123 131 317 145l42 340q3 27 45 38q11 3 23 3t14.5 -4t3 -13t-1 -16.5t-3.5 -18.5l-41 -329
q102 -10 186 -71q84 -60 84 -128q0 -40 -57 -52q-14 -3 -32 -3q-45 0 -68 53q-43 103 -122 124l-98 -785q50 -13 98 -13q110 0 193 84q36 36 53 36q38 0 38 -37q0 -36 -70 -88zM522 869q-110 -13 -184 -110q-81 -107 -81 -252q0 -284 171 -393z" />
    <glyph glyph-name="sterling" unicode="&#xa3;" horiz-adv-x="1173" 
d="M489 104q-103 -130 -225 -130q-87 0 -134 48q-40 39 -40 82.5t11.5 74t35.5 53.5q54 53 128 53t152 -24q8 54 8 145t-51 244h-237q-24 0 -24 18q0 24 10.5 45.5t22.5 21.5h197q-72 184 -72 272.5t29.5 149t83.5 107.5q118 101 300 101q178 0 291 -79q47 -33 69.5 -71
t22.5 -60.5t-9 -35t-22 -22.5q-29 -21 -55 -21t-41.5 16t-30 53.5t-31.5 61t-42 39.5q-54 35 -146 35q-251 0 -251 -216q0 -65 24.5 -140.5t47.5 -140.5l17 -49h355q23 0 23 -18q0 -24 -10.5 -45.5t-22.5 -21.5h-316q42 -133 42 -231.5t-45 -202.5q237 -73 419 -73
q44 0 61 19q25 29 40 29q24 0 24 -28q0 -35 -26 -83.5t-38 -64.5t-25 -25q-22 -15 -62 -15q-211 0 -458 129zM392 157q-71 41 -108.5 41t-53.5 -6.5t-28 -16.5q-23 -20 -23 -52t24 -54.5t64 -22.5q84 0 125 111z" />
    <glyph glyph-name="currency" unicode="&#xa4;" horiz-adv-x="1103" 
d="M867 922q87 -112 87 -263t-88 -264l127 -126q10 -10 10 -17t-3 -18t-8 -22q-14 -26 -29 -26q-7 0 -17 10l-139 139q-109 -91 -261.5 -91t-255.5 85l-133 -133q-10 -10 -16.5 -10t-16.5 10q-24 24 -24 43.5t10 29.5l121 121q-86 111 -86 266t92 265l-127 127
q-10 10 -10 17t3 18t9 21q13 27 28 27q7 0 17 -10l140 -140q108 89 255.5 89t254.5 -88l139 139q10 10 17.5 10t15 -8t13.5 -19q11 -21 11 -33.5t-10 -22.5zM544 335q62 0 116.5 18.5t97.5 57.5q94 87 94 247q0 147 -90 236q-86 84 -213 84q-142 0 -223 -91
q-79 -88 -79 -226q0 -142 83 -233q84 -93 214 -93z" />
    <glyph glyph-name="yen" unicode="&#xa5;" horiz-adv-x="1260" 
d="M438 -15q-65 0 -65 37q0 29 36 29l49 -5q60 0 80 67q18 57 18 204v141h-321q-24 0 -24 18q0 24 10.5 45.5t22.5 21.5h312v125h-321q-24 0 -24 18q0 24 10.5 45.5t22.5 21.5h254l-257 379q-64 93 -90 117q-42 36 -86.5 36t-44.5 36q0 14 16 24.5t51 10.5t73 -8t82 -8
l163 16q65 0 65 -33t-55.5 -33t-55.5 -36q0 -20 36 -76l276 -418l212 336q65 102 70 123t5 29q0 42 -62.5 42t-62.5 33t65 33q35 0 69 -8t70 -8t67 8t66 8q70 0 70 -35q0 -36 -47 -36q-48 0 -76 -25q-44 -38 -118 -149l-239 -358h261q23 0 23 -18q0 -24 -10.5 -45.5
t-22.5 -21.5h-298v-125h308q23 0 23 -18q0 -24 -10.5 -45.5t-22.5 -21.5h-298v-141q0 -151 13.5 -194.5t33 -60t51.5 -16.5l48 5q36 0 36 -29q0 -37 -64 -37q-33 0 -70 6q-120 19 -205.5 6.5t-117.5 -12.5z" />
    <glyph glyph-name="brokenbar" unicode="&#xa6;" horiz-adv-x="529" 
d="M217 1592h95v-826h-95v826zM217 467h95v-827h-95v827z" />
    <glyph glyph-name="section" unicode="&#xa7;" horiz-adv-x="1111" 
d="M800 -103q2 -20 2 -55.5t-23 -87.5t-65 -92q-95 -91 -243 -91q-124 0 -207 51q-72 45 -72 95q0 26 26.5 44.5t50 18.5t36.5 -9.5t36 -44.5q56 -87 148 -87q85 0 137 49q47 44 47 110q0 69 -44 136q-58 89 -192 219t-186 195t-81 123q-50 97 -50 237q0 155 114 266
q35 34 77 55q-2 20 -2 55.5t23 87.5t66 92q94 91 242 91q124 0 206 -51q73 -45 73 -95q0 -26 -26.5 -44.5t-50 -18.5t-36.5 9.5t-36 44.5q-56 87 -148 87q-85 0 -138 -49q-46 -44 -46 -110q0 -70 44 -136q60 -91 193 -220t185 -194t82 -124q49 -98 49 -236q0 -157 -114 -266
q-35 -34 -77 -55zM327 956q-99 -70 -99 -188q0 -95 36 -158q58 -100 209 -249q264 -260 310 -391q100 69 100 188q0 95 -36 158q-58 100 -209 249q-213 210 -276 317q-23 39 -35 74z" />
    <glyph glyph-name="dieresis" unicode="&#xa8;" horiz-adv-x="719" 
d="M610.5 1140.5q-28.5 -29.5 -77 -29.5t-75 28.5t-26.5 62t9 51.5t23 31q31 27 75.5 27t72 -28t27.5 -70.5t-28.5 -72zM258.5 1140.5q-28.5 -29.5 -77 -29.5t-75 28.5t-26.5 62t9 51.5t23 31q31 27 75.5 27t72 -28t27.5 -70.5t-28.5 -72z" />
    <glyph glyph-name="copyright" unicode="&#xa9;" horiz-adv-x="1582" 
d="M134 387.5q-54 127.5 -54 254t24.5 216.5t70 167t109.5 140t142 107q164 93 341.5 93t309 -52t225.5 -143q200 -192 200 -481q0 -323 -203 -520q-200 -194 -520 -194q-298 0 -497 193q-94 92 -148 219.5zM204.5 919.5q-45.5 -109.5 -45.5 -221.5t24.5 -199.5t68.5 -158.5
t103.5 -126t130.5 -92q142 -75 286 -75t258 41.5t200 121.5q188 175 188 469q0 266 -178 438q-180 175 -464 175q-266 0 -444 -180q-82 -83 -127.5 -192.5zM372 658q0 88 34.5 164.5t95.5 131.5q131 118 337 118q138 0 250 -44q28 -12 33 -35q11 -42 11 -120q0 -38 -24 -38
q-11 0 -29 35q-36 72 -71 92q-80 46 -165.5 46t-140.5 -22.5t-93 -64.5q-79 -87 -79 -231q0 -146 97 -256q99 -112 239 -112q80 0 126 25q85 46 135 133q8 12 15 12t17.5 -24.5t10.5 -46.5t-7.5 -34t-27.5 -32q-110 -106 -294 -106q-215 0 -345 117q-125 113 -125 292z" />
    <glyph glyph-name="ordfeminine" unicode="&#xaa;" horiz-adv-x="941" 
d="M572 870q-68 -84 -187 -84q-109 0 -175 56q-63 56 -63 140.5t77 140t232 55.5q41 0 102 -14v49q0 87 -23 113q-37 43 -107 43t-106 -59q-38 -61 -68.5 -61t-49 14.5t-18.5 34.5t20.5 44t55.5 44q82 44 183 44q236 0 236 -203v-259q0 -70 25 -79q9 -3 21 -3l48 9
q18 0 18 -18q0 -16 -35 -33.5t-54 -26t-28 -14.5q-24 -17 -37 -17q-38 0 -67 84zM426 862q85 0 132 84v135q-46 28 -103.5 28t-84 -9t-44.5 -25q-39 -33 -39 -70.5t10 -61.5t28 -42q39 -39 101 -39z" />
    <glyph glyph-name="guillemotleft" unicode="&#xab;" horiz-adv-x="936" 
d="M772 268q39 -56 39 -85t-19 -29q-17 0 -31 17.5t-36 46.5t-51.5 61t-59 60t-60 53t-56.5 46q-38 32 -38 41q0 10 32 36t62.5 51t59.5 53q62 60 97.5 105.5t43.5 55.5t14 16q10 9 23 9q19 0 18 -21q0 -38 -38 -93l-146 -212zM422 268q39 -56 39 -85t-19 -29
q-17 0 -31 17.5t-36.5 46.5t-52 61.5t-58.5 60.5q-48 46 -95 82.5t-53 44t-6 12.5q0 10 32 36t62.5 51t59.5 53q62 60 97.5 105.5t43.5 55.5t14 16q10 9 23 9q19 0 18 -21q0 -38 -38 -93l-146 -212z" />
    <glyph glyph-name="logicalnot" unicode="&#xac;" horiz-adv-x="965" 
d="M80 639h795v-331h-85v246h-710v85z" />
    <glyph glyph-name="uni00AD" unicode="&#xad;" horiz-adv-x="1229" 
 />
    <glyph glyph-name="registered" unicode="&#xae;" horiz-adv-x="1582" 
d="M80 668q0 153 50.5 281t143.5 220q198 196 512 196t516 -195q200 -192 200 -481q0 -323 -203 -520q-200 -194 -520 -194q-298 0 -497 193q-202 197 -202 500zM159 682q0 -136 49.5 -254.5t135.5 -203.5q181 -177 446 -177t440 163q188 175 188 469q0 266 -178 438
q-180 175 -464 175q-270 0 -444 -171q-173 -169 -173 -439zM763 276l-154 10l-140 -10q-25 0 -37.5 10.5t-12.5 21.5q0 30 33 30l42 -4q36 0 46 30q8 21 8 101v431q0 80 -6 99q-12 32 -48 32l-42 -4q-33 0 -33 30q0 11 12.5 21.5t37.5 10.5l153 -10l179 11q149 0 229 -62
q75 -56 75 -138t-46.5 -141.5t-134.5 -88.5l171 -247q34 -53 61 -61q10 -3 33 -5q42 -4 42 -30.5t-53 -26.5h-131q-42 0 -74 52l-148 238q-13 32 -24 44.5t-27 12.5h-29l-40 -1h-21v-167q0 -80 6 -99q12 -32 48 -32l42 4q33 0 33 -30q0 -32 -50 -32zM684 694q67 -5 117.5 -5
t77 11t44.5 30q36 40 36 116t-51 128.5t-137.5 52.5t-86.5 -38v-295z" />
    <glyph glyph-name="macron" unicode="&#xaf;" horiz-adv-x="667" 
d="M564 1250q23 0 23 -18q0 -42 -15.5 -60t-21.5 -18h-446q-24 0 -24 18q0 42 15.5 60t21.5 18h447z" />
    <glyph glyph-name="degree" unicode="&#xb0;" horiz-adv-x="520" 
d="M332.5 1012q-35.5 -14 -75.5 -14t-73.5 13.5t-59.5 38.5q-54 52 -54 136q0 74 58 126.5t136 52.5q128 0 172 -109q14 -33 14 -72.5t-15 -73.5t-41 -59t-61.5 -39zM187 1108q28 -31 62.5 -31t52 6t31.5 19q32 30 32 79.5t-29.5 78t-73 28.5t-73.5 -28t-30 -74.5t28 -77.5z
" />
    <glyph glyph-name="plusminus" unicode="&#xb1;" horiz-adv-x="845" 
d="M380 651h-300v85h300v316h85v-316h300v-85h-300v-301h-85v301zM80 269h685v-85h-685v85z" />
    <glyph glyph-name="twosuperior" unicode="&#xb2;" horiz-adv-x="760" 
d="M411 770l-310 -10q-31 0 -31 16t33 52l173 193q40 47 81.5 94t75.5 93q77 106 77 188.5t-45.5 132.5t-120.5 50q-128 0 -185 -116q-17 -34 -24.5 -34t-17 6t-18.5 15q-22 22 -22 35t7.5 28.5t21.5 32.5q87 110 264 110q216 0 280 -131q20 -41 20 -84t-13.5 -79t-41.5 -77
q-46 -67 -170 -200l-168 -179h256q59 0 78 14.5t24.5 21t14.5 6.5q20 0 20 -22q0 -15 -14.5 -60.5t-22.5 -63.5q-19 -40 -34 -40z" />
    <glyph glyph-name="threesuperior" unicode="&#xb3;" horiz-adv-x="837" 
d="M351 1656l235 3q23 0 23 -9.5t-19 -37.5l-151 -224q142 -6 232 -86q91 -82 91 -206q0 -128 -97 -231q-106 -113 -266 -113q-140 0 -239 82q-95 77 -95 176q0 30 51 60q12 6 18 6q10 0 13.5 -39.5t23.5 -79.5t53 -69q72 -62 175 -62q100 0 164 58q67 61 67 157
q0 112 -76 169q-64 50 -177 50l-71 -8q-16 0 -16 15q0 12 20 43l136 210h-192q-51 0 -64 -11t-17 -16t-16 -5q-17 0 -17 16t16.5 47t33.5 85q7 25 28 25z" />
    <glyph glyph-name="acute" unicode="&#xb4;" horiz-adv-x="557" 
d="M187 1113q-62 -24 -71 -23.5t-18.5 12t-9.5 22.5t5 16.5t24 17.5l282 179q13 8 22 8t20 -9t21 -24q23 -37 23 -56.5t-4 -24.5t-15 -10z" />
    <glyph glyph-name="mu" unicode="&#xb5;" horiz-adv-x="1172" 
d="M291 57l14 -165q0 -102 17.5 -136.5t36 -47.5t41.5 -18q40 -10 40 -37t-10 -50.5t-26 -42.5q-37 -40 -72 -40t-60 20.5t-46 67.5q-46 108 -46 317v691q0 100 -12.5 127t-27.5 36.5t-38.5 14.5t-35 11t-11.5 17.5t7.5 20t47 16.5t78 22.5t67.5 28t49.5 23.5t29.5 10
q23 0 23 -23q0 -11 -5 -23q-20 -54 -21 -137t-1 -136v-308q0 -215 223 -215q78 0 146 49t108 155v311q0 102 -14 127.5t-32.5 34.5t-46.5 14q-53 8 -53 33q0 23 51 33q130 27 173 52q59 33 79 33t20 -23q0 -11 -4 -23q-21 -54 -22 -137t-1 -136v-375q0 -77 13 -98
q20 -33 57 -33l68 14q29 0 29 -26q0 -14 -12.5 -24t-38.5 -20.5t-41.5 -17t-29.5 -14.5q-27 -14 -50 -29q-40 -26 -57 -26t-29 8t-23 29q-27 52 -34 149q-58 -85 -140 -130.5t-189 -45.5t-189 72z" />
    <glyph glyph-name="mu" unicode="&#x3bc;" horiz-adv-x="1172" 
d="M291 57l14 -165q0 -102 17.5 -136.5t36 -47.5t41.5 -18q40 -10 40 -37t-10 -50.5t-26 -42.5q-37 -40 -72 -40t-60 20.5t-46 67.5q-46 108 -46 317v691q0 100 -12.5 127t-27.5 36.5t-38.5 14.5t-35 11t-11.5 17.5t7.5 20t47 16.5t78 22.5t67.5 28t49.5 23.5t29.5 10
q23 0 23 -23q0 -11 -5 -23q-20 -54 -21 -137t-1 -136v-308q0 -215 223 -215q78 0 146 49t108 155v311q0 102 -14 127.5t-32.5 34.5t-46.5 14q-53 8 -53 33q0 23 51 33q130 27 173 52q59 33 79 33t20 -23q0 -11 -4 -23q-21 -54 -22 -137t-1 -136v-375q0 -77 13 -98
q20 -33 57 -33l68 14q29 0 29 -26q0 -14 -12.5 -24t-38.5 -20.5t-41.5 -17t-29.5 -14.5q-27 -14 -50 -29q-40 -26 -57 -26t-29 8t-23 29q-27 52 -34 149q-58 -85 -140 -130.5t-189 -45.5t-189 72z" />
    <glyph glyph-name="paragraph" unicode="&#xb6;" horiz-adv-x="1188" 
d="M721 1298q-7 -53 -7 -233v-915q0 -144 -5 -166t-16 -29q-36 -23 -75 -23t-39 5t6 12.5t13 28.5q20 55 20 157v921q0 168 -12 245h-5q-128 0 -215 -91q-87 -90 -87 -214q0 -278 189 -347q37 -14 37 -27q0 -23 -54.5 -23t-120.5 27.5t-118 77.5q-117 111 -117 279
q0 159 114 265q128 119 357 125l254 -8q82 0 130.5 4.5t74 4.5t44.5 -13t19 -34q0 -39 -59 -39l-122 5q-7 -53 -7 -228v-867q0 -144 -5 -166t-16 -29q-36 -23 -75 -23t-39 5t6 12.5t13 28.5q20 55 20 157v873q0 169 -12 239z" />
    <glyph glyph-name="periodcentered" unicode="&#xb7;" horiz-adv-x="580" 
d="M336 515q-22 -9 -61.5 -9t-69.5 32.5t-30 70t9.5 58t25.5 35.5q35 31 84.5 31t80 -32t30.5 -68t-8 -56.5t-23.5 -36.5t-37.5 -25z" />
    <glyph glyph-name="cedilla" unicode="&#xb8;" horiz-adv-x="518" 
d="M285 -249q-25 13 -65.5 28.5t-40.5 46.5q0 57 75 205l68 -18q-27 -48 -49 -121q92 -30 128.5 -72.5t36.5 -92t-15.5 -81t-42.5 -55.5q-58 -52 -142 -52q-64 0 -100 16q-58 26 -58 53q0 40 34 74q9 9 18 9q13 0 32 -30q39 -61 102 -61q52 0 73 41q7 14 7 30.5t-4.5 29
t-18 25t-38.5 25.5z" />
    <glyph glyph-name="onesuperior" unicode="&#xb9;" horiz-adv-x="573" 
d="M443 760l-154 10l-149 -10q-25 0 -37.5 10.5t-12.5 21.5q0 30 33 30l42 -4q36 0 47 30q7 21 7 101v424q0 50 -13 65q-19 21 -54 24q-53 5 -53 26t28 30.5t57 23t56 28.5q58 34 84.5 60.5t43.5 26.5t17 -26q0 -7 -3.5 -18.5t-7.5 -35.5q-10 -72 -10 -170v-458q0 -80 6 -99
q12 -32 48 -32l42 4q33 0 33 -30q0 -32 -50 -32z" />
    <glyph glyph-name="ordmasculine" unicode="&#xba;" horiz-adv-x="932" 
d="M456 786q-75 0 -133 27t-97 72q-75 88 -75 227q2 132 95 224q93 94 229 94q134 0 220 -90q87 -90 87 -232q0 -132 -90 -226q-93 -96 -236 -96zM411 873.5q34 -19.5 69.5 -19.5t64 14t49.5 42q45 62 45 187t-49 194.5t-134 69.5q-69 0 -115 -61q-48 -63 -48 -145.5
t15.5 -135.5t42 -89.5t60.5 -56z" />
    <glyph glyph-name="guillemotright" unicode="&#xbb;" horiz-adv-x="936" 
d="M494 154q-19 0 -19 20q0 38 39 94l145 211l-145 212q-41 57 -40 85.5t20 28.5q17 0 31 -17.5t36 -46.5t51.5 -61.5t58.5 -60.5q44 -43 93 -81q59 -46 61 -55q2 -13 -31 -39t-63 -51t-59 -53q-53 -48 -93 -99.5t-48 -61.5t-14 -15q-10 -10 -23 -10zM164 691
q-40 57 -39.5 85.5t19.5 28.5q17 0 31 -17.5t36 -46.5t51.5 -61.5t58.5 -60.5q44 -43 93 -81q59 -46 61 -55q2 -13 -31 -39t-63 -51t-59 -53q-53 -48 -93 -99.5t-48 -61.5t-14 -15q-10 -10 -23 -10q-19 0 -19 20q0 38 39 94l145 211z" />
    <glyph glyph-name="onequarter" unicode="&#xbc;" horiz-adv-x="1732" 
d="M453 489l-154 10l-149 -10q-25 0 -37.5 10.5t-12.5 21.5q0 30 33 30l42 -4q36 0 47 29q7 22 7 102v424q0 50 -13 65q-19 21 -54 24q-53 5 -53 26t28 30.5t57 23t56 29.5q58 33 84.5 59.5t43.5 26.5t17 -26q0 -7 -3.5 -18.5t-7.5 -35.5q-10 -72 -10 -170v-458q0 -80 6 -99
q12 -32 48 -32l42 4q33 0 33 -30q0 -32 -50 -32zM331 24l863 1298q23 34 95 34q16 0 16 -8q0 -14 -17 -35l-863 -1298q-24 -30 -92 -30q-16 0 -16 10.5t14 28.5zM901 284q-31 0 -31 16q-2 13 19 36l468 525q34 39 51.5 39t17.5 -20t-1.5 -36t-3.5 -48q-5 -78 -5 -226v-203
h84q71 0 96 10t35.5 10t10.5 -12.5t-11.5 -31.5t-20 -34.5t-16 -20t-27.5 -4.5h-151v-113q0 -78 6 -95q11 -28 48 -28l42 4q33 0 33 -30q0 -32 -50 -32l-154 10l-152 -10q-25 0 -37.5 10.5t-12.5 21.5q0 30 33 30l42 -4q36 0 46 30q8 21 8 101v105h-367zM1268 367v296
l-270 -296h270z" />
    <glyph glyph-name="onehalf" unicode="&#xbd;" horiz-adv-x="1829" 
d="M473 489l-154 10l-149 -10q-25 0 -37.5 10.5t-12.5 21.5q0 30 33 30l42 -4q36 0 47 29q7 22 7 102v424q0 50 -13 65q-19 21 -54 24q-53 5 -53 26t28 30.5t57 23t56 29.5q58 33 84.5 59.5t43.5 26.5t17 -26q0 -7 -3.5 -18.5t-7.5 -35.5q-10 -72 -10 -170v-458q0 -80 6 -99
q12 -32 48 -32l42 4q33 0 33 -30q0 -32 -50 -32zM351 24l863 1298q23 34 95 34q16 0 16 -8q0 -14 -17 -35l-863 -1298q-24 -30 -92 -30q-16 0 -16 10.5t14 28.5zM1100 -10q-31 0 -31 16t33 52l173 193q40 47 81.5 94t75.5 93q77 106 77 188.5t-45.5 132.5t-119.5 50
q-129 0 -186 -116q-17 -34 -24.5 -34t-17 6t-18.5 15q-22 22 -22 35t7.5 28.5t20.5 32.5q88 110 265 110q216 0 280 -131q20 -41 20 -84t-13.5 -79t-41.5 -77q-46 -67 -170 -200l-168 -179h256q59 0 78 14.5t24.5 21t14.5 6.5q20 0 20 -22q0 -15 -14.5 -60.5t-22.5 -63.5
q-19 -40 -34 -40l-188 8z" />
    <glyph glyph-name="threequarters" unicode="&#xbe;" horiz-adv-x="1907" 
d="M351 1357l235 3q23 0 23 -9.5t-19 -37.5l-151 -224q142 -6 232 -87q91 -81 91 -205q0 -128 -97 -231q-106 -113 -266 -113q-140 0 -239 81q-95 78 -95 177q0 30 51 59q12 7 18 7q10 0 13.5 -39.5t23.5 -79.5t53 -69q72 -62 175 -62q100 0 164 58q67 61 67 157
q0 112 -76 170q-64 49 -177 49l-71 -8q-16 0 -16 15q0 12 20 43l136 210h-192q-51 0 -64 -11t-17 -16t-16 -5q-17 0 -17 16t16.5 47t33.5 85q7 25 28 25zM507 24l863 1298q23 34 95 34q16 0 16 -8q0 -14 -17 -35l-863 -1298q-24 -30 -92 -30q-16 0 -16 10.5t14 28.5z
M1086 284q-31 0 -31 16q-2 13 19 36l468 525q34 39 51.5 39t17.5 -20t-1.5 -36t-3.5 -48q-5 -78 -5 -226v-203h84q71 0 96 10t35.5 10t10.5 -12.5t-11.5 -31.5t-20 -34.5t-16 -20t-27.5 -4.5h-151v-113q0 -78 7 -95q10 -28 47 -28l42 4q33 0 33 -30q0 -32 -50 -32l-154 10
l-152 -10q-25 0 -37.5 10.5t-12.5 21.5q0 30 33 30l42 -4q36 0 47 30q7 21 7 101v105h-367zM1453 367v296l-270 -296h270z" />
    <glyph glyph-name="questiondown" unicode="&#xbf;" horiz-adv-x="933" 
d="M502 1021q-19 -7 -51.5 -7t-59.5 28t-27 70.5t27.5 72t75 29.5t74 -28.5t26.5 -62t-8.5 -51.5t-23 -31t-33.5 -20zM61.5 3q-28.5 54 -28.5 106.5t9.5 93t31.5 82.5q45 83 130.5 167t123.5 125t56 67q26 36 26 64t-8 39t-17 17.5t-17 12t-8 20.5q0 29 24 48q45 34 81 34
q108 0 108 -99q0 -59 -76 -142q-31 -34 -82 -81q-113 -105 -163.5 -202.5t-50.5 -204.5q0 -108 73 -178q74 -70 187 -70q199 0 246 127q21 57 38.5 84t40 27t38 -7.5t26.5 -18.5q22 -22 22 -51t-30.5 -71t-89.5 -80q-138 -88 -339 -88q-162 0 -272 86q-51 39 -79.5 93z" />
    <glyph glyph-name="Agrave" unicode="&#xc0;" horiz-adv-x="1413" 
d="M516 1636q-19 7 -19 23.5t7.5 35.5t17.5 33q22 33 34 33q10 0 23 -8l339 -183q21 -12 21 -25t-9 -26t-18 -13q-11 0 -71 20zM127.5 -7.5q-44.5 -7.5 -96 -7.5t-51.5 33.5t47 33.5q49 0 70 18q34 31 67 101t61.5 131t65.5 142.5t81.5 182t93.5 213.5q128 297 169 399.5
t45.5 113.5t9.5 20q13 21 22 21t15 -2.5t13 -9.5q15 -19 30 -56.5t40.5 -101.5t58.5 -145t70 -174t74.5 -185.5t73 -179.5t63.5 -157q86 -209 110 -250t40 -57q25 -24 74 -24t49 -33.5t-63 -33.5q-27 0 -46.5 2.5t-39.5 4.5q-58 8 -103 8l-193 -15q-65 0 -65 37q0 30 36 30
l60 -7q38 0 50 16.5t12 41.5q0 47 -40 146l-83 208h-555q-24 -60 -44.5 -110t-37.5 -97q-27 -76 -27 -119.5t15.5 -64t58.5 -20.5l60 5q36 0 36 -29q0 -37 -65 -37l-166 15q-51 0 -95.5 -7.5zM914 542l-238 596q-69 -175 -247 -596h485z" />
    <glyph glyph-name="Aacute" unicode="&#xc1;" horiz-adv-x="1413" 
d="M595 1529q-60 -20 -70 -20t-19 13t-9 23q0 16 21 28l339 183q13 8 20 8t17 -9t20 -23q25 -37 25 -57.5t-4 -26t-15 -9.5zM127.5 -7.5q-44.5 -7.5 -96 -7.5t-51.5 33.5t47 33.5q49 0 70 18q34 31 67 101t61.5 131t65.5 142.5t81.5 182t93.5 213.5q128 297 169 399.5
t45.5 113.5t9.5 20q13 21 22 21t15 -2.5t13 -9.5q15 -19 30 -56.5t40.5 -101.5t58.5 -145t70 -174t74.5 -185.5t73 -179.5t63.5 -157q86 -209 110 -250t40 -57q25 -24 74 -24t49 -33.5t-63 -33.5q-27 0 -46.5 2.5t-39.5 4.5q-58 8 -103 8l-193 -15q-65 0 -65 37q0 30 36 30
l60 -7q38 0 50 16.5t12 41.5q0 47 -40 146l-83 208h-555q-24 -60 -44.5 -110t-37.5 -97q-27 -76 -27 -119.5t15.5 -64t58.5 -20.5l60 5q36 0 36 -29q0 -37 -65 -37l-166 15q-51 0 -95.5 -7.5zM914 542l-238 596q-69 -175 -247 -596h485z" />
    <glyph glyph-name="Acircumflex" unicode="&#xc2;" horiz-adv-x="1413" 
d="M530 1520q-29 -19 -38.5 -19t-22 13t-12.5 22q0 13 17 28l190 169q14 12 22.5 19.5t13.5 11.5q9 6 15 6t9.5 -1t9.5 -5q8 -5 38 -31l190 -169q17 -15 17 -26t-12.5 -24t-20.5 -13q-11 0 -40 19l-188 118zM127.5 -7.5q-44.5 -7.5 -96 -7.5t-51.5 33.5t47 33.5q49 0 70 18
q34 31 67 101t61.5 131t65.5 142.5t81.5 182t93.5 213.5q128 297 169 399.5t45.5 113.5t9.5 20q13 21 22 21t15 -2.5t13 -9.5q15 -19 30 -56.5t40.5 -101.5t58.5 -145t70 -174t74.5 -185.5t73 -179.5t63.5 -157q86 -209 110 -250t40 -57q25 -24 74 -24t49 -33.5t-63 -33.5
q-27 0 -46.5 2.5t-39.5 4.5q-58 8 -103 8l-193 -15q-65 0 -65 37q0 30 36 30l60 -7q38 0 50 16.5t12 41.5q0 47 -40 146l-83 208h-555q-24 -60 -44.5 -110t-37.5 -97q-27 -76 -27 -119.5t15.5 -64t58.5 -20.5l60 5q36 0 36 -29q0 -37 -65 -37l-166 15q-51 0 -95.5 -7.5z
M914 542l-238 596q-69 -175 -247 -596h485z" />
    <glyph glyph-name="Atilde" unicode="&#xc3;" horiz-adv-x="1413" 
d="M466 1515q-2 -3 -11 -3t-23.5 11.5t-14.5 34t14.5 56.5t39.5 60q55 59 125 59q79 0 160 -60q58 -44 82 -47.5t44 -3.5q46 0 82 96q5 15 15.5 15t25 -11.5t14.5 -34t-15 -57t-40 -60.5q-54 -58 -124 -58q-63 0 -97.5 19.5t-57.5 36.5q-63 47 -87 51.5t-44 4.5
q-46 0 -82 -97q-4 -9 -6 -12zM127.5 -7.5q-44.5 -7.5 -96 -7.5t-51.5 33.5t47 33.5q49 0 70 18q34 31 67 101t61.5 131t65.5 142.5t81.5 182t93.5 213.5q128 297 169 399.5t45.5 113.5t9.5 20q13 21 22 21t15 -2.5t13 -9.5q15 -19 30 -56.5t40.5 -101.5t58.5 -145t70 -174
t74.5 -185.5t73 -179.5t63.5 -157q86 -209 110 -250t40 -57q25 -24 74 -24t49 -33.5t-63 -33.5q-27 0 -46.5 2.5t-39.5 4.5q-58 8 -103 8l-193 -15q-65 0 -65 37q0 30 36 30l60 -7q38 0 50 16.5t12 41.5q0 47 -40 146l-83 208h-555q-24 -60 -44.5 -110t-37.5 -97
q-27 -76 -27 -119.5t15.5 -64t58.5 -20.5l60 5q36 0 36 -29q0 -37 -65 -37l-166 15q-51 0 -95.5 -7.5zM914 542l-238 596q-69 -175 -247 -596h485z" />
    <glyph glyph-name="Adieresis" unicode="&#xc4;" horiz-adv-x="1413" 
d="M1018.5 1571.5q-28.5 -29.5 -77 -29.5t-75 28.5t-26.5 62t9 51.5t23 31q31 27 75.5 27t72 -28t27.5 -70.5t-28.5 -72zM568.5 1571.5q-28.5 -29.5 -77 -29.5t-75 28.5t-26.5 62t9 51.5t23 31q31 27 75.5 27t72 -28t27.5 -70.5t-28.5 -72zM127.5 -7.5q-44.5 -7.5 -96 -7.5
t-51.5 33.5t47 33.5q49 0 70 18q34 31 67 101t61.5 131t65.5 142.5t81.5 182t93.5 213.5q128 297 169 399.5t45.5 113.5t9.5 20q13 21 22 21t15 -2.5t13 -9.5q15 -19 30 -56.5t40.5 -101.5t58.5 -145t70 -174t74.5 -185.5t73 -179.5t63.5 -157q86 -209 110 -250t40 -57
q25 -24 74 -24t49 -33.5t-63 -33.5q-27 0 -46.5 2.5t-39.5 4.5q-58 8 -103 8l-193 -15q-65 0 -65 37q0 30 36 30l60 -7q38 0 50 16.5t12 41.5q0 47 -40 146l-83 208h-555q-24 -60 -44.5 -110t-37.5 -97q-27 -76 -27 -119.5t15.5 -64t58.5 -20.5l60 5q36 0 36 -29
q0 -37 -65 -37l-166 15q-51 0 -95.5 -7.5zM914 542l-238 596q-69 -175 -247 -596h485z" />
    <glyph glyph-name="Aring" unicode="&#xc5;" horiz-adv-x="1413" 
d="M127.5 -7.5q-44.5 -7.5 -96 -7.5t-51.5 33.5t47 33.5q49 0 70 18q34 31 67 101t61.5 131t65.5 142.5t81.5 182t93.5 213.5q128 297 206 492l9 23q-81 11 -125 65t-44 117t16.5 100t45.5 63q60 57 145 57q144 0 191 -113q15 -38 15 -84.5t-13.5 -81.5t-37.5 -60
q-46 -51 -118 -62l15 -33q14 -35 39.5 -99t58.5 -145t70 -174t74.5 -185.5t73 -179.5t63.5 -157q83 -203 109 -247t43 -60q24 -24 72.5 -24t48.5 -33.5t-63 -33.5q-27 0 -46.5 2.5t-39.5 4.5q-58 8 -103 8l-193 -15q-65 0 -65 37q0 30 36 30l60 -7q38 0 50 16.5t12 41.5
q0 47 -40 146l-83 208h-555q-24 -60 -44.5 -110t-37.5 -97q-27 -76 -27 -119.5t15.5 -64t58.5 -20.5l60 5q36 0 36 -29q0 -37 -65 -37l-166 15q-51 0 -95.5 -7.5zM678.5 1432q20.5 -11 42.5 -11t42 9t35 26q33 39 33 84t-9 69t-24 42q-32 38 -67.5 38t-56 -10t-35.5 -28
q-31 -37 -31 -79t9 -67t25 -43.5t36.5 -29.5zM914 542l-238 596q-69 -175 -247 -596h485z" />
    <glyph glyph-name="AE" unicode="&#xc6;" horiz-adv-x="1908" 
d="M173 -7.5q-51 -7.5 -102 -7.5t-51 33t35 33q61 0 105 33q82 63 155 176l659 1010q-30 24 -82 24l-49 -4q-36 0 -36 29q0 37 93 37l314 -16q32 0 89 2.5t129 5.5q190 8 264.5 8t83 -9t8.5 -24.5t-0.5 -29.5t-1.5 -31q-1 -23 -6 -68.5t-12 -61t-20 -15.5t-18 6.5t-13.5 30
t-30 45t-68.5 35.5q-89 27 -332 27h-89q-24 0 -30.5 -7t-6.5 -32v-421q119 -14 197.5 -14t112 1t55.5 6q39 7 56 35q34 53 55 53q27 0 27 -28l-35 -142l4 -76q0 -72 -34 -72q-29 0 -29 38.5t-4.5 57.5t-24.5 30q-33 16 -157 16t-223 -11v-237q0 -221 10 -365q81 -18 176 -18
t162.5 5t117.5 20q96 29 142 111q20 36 40 36t20 -29q0 -12 -6 -31q-9 -26 -24 -77.5t-23 -74.5t-17 -35q-16 -20 -60 -20t-85 0.5t-87 1.5q-51 2 -160 8q-272 13 -319 9t-71 -6.5t-47 -5t-54 -2.5q-55 0 -55 37q0 29 36 29l49 -5q56 0 75 48q23 55 23 220v143h-456
l-133 -205q-70 -108 -70 -157t71 -49l60 5q36 0 36 -29q0 -37 -65 -37l-162 15q-60 0 -111 -7.5zM1002 1222l1 -7q0 6 -1 7zM1001 542l2 -6v623l-401 -617h399z" />
    <glyph glyph-name="Ccedilla" unicode="&#xc7;" horiz-adv-x="1488" 
d="M725 -181q0 47 50 161q-306 29 -493 220q-182 185 -182 446q0 322 214 520q214 199 563 199q252 0 417 -67q32 -14 42 -27q20 -28 23.5 -83.5t4.5 -76.5q4 -49 4 -60q0 -39 -27 -39q-24 0 -39.5 48.5t-58.5 91.5t-103 72q-125 61 -268.5 61t-248 -38.5t-179.5 -110.5
q-156 -153 -156 -413q0 -288 176 -475q175 -186 448 -186q304 0 470 279q11 18 23 20q11 0 22 -24t11 -54q0 -50 -85.5 -130.5t-206.5 -129t-265 -48.5h-16q-8 0 -16 1q-18 -43 -30 -84q92 -30 128.5 -72.5t36.5 -92t-15.5 -81t-42.5 -55.5q-58 -52 -142 -52q-64 0 -100 16
q-58 26 -58 53q0 40 34 74q9 9 18 9q13 0 32 -30q39 -61 102 -61q52 0 73 41q7 14 7 30.5t-4.5 29t-17.5 25.5q-27 24 -77 43t-59 29t-9 21z" />
    <glyph glyph-name="Egrave" unicode="&#xc8;" horiz-adv-x="1153" 
d="M418 1636q-19 7 -19 23.5t7.5 35.5t17.5 33q22 33 34 33q10 0 23 -8l339 -183q21 -12 21 -25t-9 -26t-18 -13q-11 0 -71 20zM120 -15q-55 0 -55 37q0 29 36 29l49 -5q56 0 76 48q22 55 22 220v709q0 164 -15.5 206.5t-34.5 53.5t-48 11l-49 -4q-36 0 -36 29q0 37 53.5 37
t88 -2.5t69.5 -5.5q93 -8 146.5 -8t113.5 2.5t134 5.5q195 8 270.5 8t84 -9t8.5 -24.5t-0.5 -29.5t-1.5 -31q-1 -23 -6 -68.5t-12 -61t-20 -15.5t-18 6.5t-13.5 30t-30 45t-67.5 35.5q-90 27 -333 27h-89q-24 0 -30.5 -7t-6.5 -32v-421q119 -14 197.5 -14t112 1t55.5 6
q39 7 56 35q34 53 55 53q27 0 27 -28l-35 -142l4 -76q0 -72 -34 -72q-29 0 -29 38.5t-4.5 57.5t-25.5 30q-32 16 -156 16t-223 -11v-237q0 -221 10 -365q81 -18 176 -18t162.5 5t116.5 20q97 29 143 111q20 36 40 36t20 -29q0 -12 -7 -31q-8 -26 -23 -77.5t-23 -74.5
t-18 -35q-15 -20 -59 -20t-85 0.5t-86 1.5q-52 2 -161 8q-272 13 -319 9t-71 -6.5t-47 -5t-54 -2.5z" />
    <glyph glyph-name="Eacute" unicode="&#xc9;" horiz-adv-x="1153" 
d="M497 1529q-60 -20 -70 -20t-19 13t-9 23q0 16 21 28l339 183q13 8 20 8t17 -9t20 -23q25 -37 25 -57.5t-4 -26t-15 -9.5zM120 -15q-55 0 -55 37q0 29 36 29l49 -5q56 0 76 48q22 55 22 220v709q0 164 -15.5 206.5t-34.5 53.5t-48 11l-49 -4q-36 0 -36 29q0 37 53.5 37
t88 -2.5t69.5 -5.5q93 -8 146.5 -8t113.5 2.5t134 5.5q195 8 270.5 8t84 -9t8.5 -24.5t-0.5 -29.5t-1.5 -31q-1 -23 -6 -68.5t-12 -61t-20 -15.5t-18 6.5t-13.5 30t-30 45t-67.5 35.5q-90 27 -333 27h-89q-24 0 -30.5 -7t-6.5 -32v-421q119 -14 197.5 -14t112 1t55.5 6
q39 7 56 35q34 53 55 53q27 0 27 -28l-35 -142l4 -76q0 -72 -34 -72q-29 0 -29 38.5t-4.5 57.5t-25.5 30q-32 16 -156 16t-223 -11v-237q0 -221 10 -365q81 -18 176 -18t162.5 5t116.5 20q97 29 143 111q20 36 40 36t20 -29q0 -12 -7 -31q-8 -26 -23 -77.5t-23 -74.5
t-18 -35q-15 -20 -59 -20t-85 0.5t-86 1.5q-52 2 -161 8q-272 13 -319 9t-71 -6.5t-47 -5t-54 -2.5z" />
    <glyph glyph-name="Ecircumflex" unicode="&#xca;" horiz-adv-x="1153" 
d="M432 1520q-29 -19 -38.5 -19t-22 13t-12.5 22q0 13 17 28l190 169q14 12 22.5 19.5t13.5 11.5q9 6 15 6t9.5 -1t9.5 -5q8 -6 38 -31l190 -169q17 -15 17 -26t-12.5 -24t-20.5 -13q-11 0 -40 19l-188 118zM120 -15q-55 0 -55 37q0 29 36 29l49 -5q56 0 76 48q22 55 22 220
v709q0 164 -15.5 206.5t-34.5 53.5t-48 11l-49 -4q-36 0 -36 29q0 37 53.5 37t88 -2.5t69.5 -5.5q93 -8 146.5 -8t113.5 2.5t134 5.5q195 8 270.5 8t84 -9t8.5 -24.5t-0.5 -29.5t-1.5 -31q-1 -23 -6 -68.5t-12 -61t-20 -15.5t-18 6.5t-13.5 30t-30 45t-67.5 35.5
q-90 27 -333 27h-89q-24 0 -30.5 -7t-6.5 -32v-421q119 -14 197.5 -14t112 1t55.5 6q39 7 56 35q34 53 55 53q27 0 27 -28l-35 -142l4 -76q0 -72 -34 -72q-29 0 -29 38.5t-4.5 57.5t-25.5 30q-32 16 -156 16t-223 -11v-237q0 -221 10 -365q81 -18 176 -18t162.5 5t116.5 20
q97 29 143 111q20 36 40 36t20 -29q0 -12 -7 -31q-8 -26 -23 -77.5t-23 -74.5t-18 -35q-15 -20 -59 -20t-85 0.5t-86 1.5q-52 2 -161 8q-272 13 -319 9t-71 -6.5t-47 -5t-54 -2.5z" />
    <glyph glyph-name="Edieresis" unicode="&#xcb;" horiz-adv-x="1153" 
d="M920.5 1571.5q-28.5 -29.5 -77 -29.5t-75 28.5t-26.5 62t9 51.5t23 31q31 27 75.5 27t72 -28t27.5 -70.5t-28.5 -72zM470.5 1571.5q-28.5 -29.5 -77 -29.5t-75 28.5t-26.5 62t9 51.5t23 31q31 27 75.5 27t72 -28t27.5 -70.5t-28.5 -72zM120 -15q-55 0 -55 37q0 29 36 29
l49 -5q56 0 76 48q22 55 22 220v709q0 164 -15.5 206.5t-34.5 53.5t-48 11l-49 -4q-36 0 -36 29q0 37 53.5 37t88 -2.5t69.5 -5.5q93 -8 146.5 -8t113.5 2.5t134 5.5q195 8 270.5 8t84 -9t8.5 -24.5t-0.5 -29.5t-1.5 -31q-1 -23 -6 -68.5t-12 -61t-20 -15.5t-18 6.5
t-13.5 30t-30 45t-67.5 35.5q-90 27 -333 27h-89q-24 0 -30.5 -7t-6.5 -32v-421q119 -14 197.5 -14t112 1t55.5 6q39 7 56 35q34 53 55 53q27 0 27 -28l-35 -142l4 -76q0 -72 -34 -72q-29 0 -29 38.5t-4.5 57.5t-25.5 30q-32 16 -156 16t-223 -11v-237q0 -221 10 -365
q81 -18 176 -18t162.5 5t116.5 20q97 29 143 111q20 36 40 36t20 -29q0 -12 -7 -31q-8 -26 -23 -77.5t-23 -74.5t-18 -35q-15 -20 -59 -20t-85 0.5t-86 1.5q-52 2 -161 8q-272 13 -319 9t-71 -6.5t-47 -5t-54 -2.5z" />
    <glyph glyph-name="Igrave" unicode="&#xcc;" horiz-adv-x="678" 
d="M142 1636q-19 7 -19 23.5t7.5 35.5t17.5 33q22 33 34 33q10 0 23 -8l339 -183q21 -12 21 -25t-9 -26t-18 -13q-11 0 -71 20zM146 -15q-65 0 -65 37q0 29 36 29l49 -5q54 0 75 52q23 58 23 219l-5 706q0 165 -17.5 207.5t-36 53t-44.5 10.5l-49 -4q-36 0 -36 29
q0 37 55 37t104.5 -8t103.5 -8t103 8t103.5 8t54.5 -37q0 -29 -36 -29l-48 4q-54 0 -75 -52q-23 -58 -23 -219l5 -706q0 -161 19.5 -205t39.5 -55t46 -11l48 5q36 0 36 -29q0 -37 -64 -37q-33 0 -70 6q-125 20 -212.5 7t-119.5 -13z" />
    <glyph glyph-name="Iacute" unicode="&#xcd;" horiz-adv-x="678" 
d="M221 1529q-60 -20 -70 -20t-19 13t-9 23q0 16 21 28l339 183q13 8 20 8t17 -9t20 -23q25 -37 25 -57.5t-4 -26t-15 -9.5zM146 -15q-65 0 -65 37q0 29 36 29l49 -5q54 0 75 52q23 58 23 219l-5 706q0 165 -17.5 207.5t-36 53t-44.5 10.5l-49 -4q-36 0 -36 29q0 37 55 37
t104.5 -8t103.5 -8t103 8t103.5 8t54.5 -37q0 -29 -36 -29l-48 4q-54 0 -75 -52q-23 -58 -23 -219l5 -706q0 -161 19.5 -205t39.5 -55t46 -11l48 5q36 0 36 -29q0 -37 -64 -37q-33 0 -70 6q-125 20 -212.5 7t-119.5 -13z" />
    <glyph glyph-name="Icircumflex" unicode="&#xce;" horiz-adv-x="678" 
d="M156 1520q-29 -19 -38.5 -19t-22 13t-12.5 22q0 13 17 28l190 169q14 12 22.5 19.5t13.5 11.5q9 6 15 6t9.5 -1t9.5 -5q8 -6 38 -31l190 -169q17 -15 17 -26t-12.5 -24t-20.5 -13q-11 0 -40 19l-188 118zM146 -15q-65 0 -65 37q0 29 36 29l49 -5q54 0 75 52q23 58 23 219
l-5 706q0 165 -17.5 207.5t-36 53t-44.5 10.5l-49 -4q-36 0 -36 29q0 37 55 37t104.5 -8t103.5 -8t103 8t103.5 8t54.5 -37q0 -29 -36 -29l-48 4q-54 0 -75 -52q-23 -58 -23 -219l5 -706q0 -161 19.5 -205t39.5 -55t46 -11l48 5q36 0 36 -29q0 -37 -64 -37q-33 0 -70 6
q-125 20 -212.5 7t-119.5 -13z" />
    <glyph glyph-name="Idieresis" unicode="&#xcf;" horiz-adv-x="678" 
d="M644.5 1571.5q-28.5 -29.5 -77 -29.5t-75 28.5t-26.5 62t9 51.5t23 31q31 27 75.5 27t72 -28t27.5 -70.5t-28.5 -72zM194.5 1571.5q-28.5 -29.5 -77 -29.5t-75 28.5t-26.5 62t9 51.5t23 31q31 27 75.5 27t72 -28t27.5 -70.5t-28.5 -72zM146 -15q-65 0 -65 37q0 29 36 29
l49 -5q54 0 75 52q23 58 23 219l-5 706q0 165 -17.5 207.5t-36 53t-44.5 10.5l-49 -4q-36 0 -36 29q0 37 55 37t104.5 -8t103.5 -8t103 8t103.5 8t54.5 -37q0 -29 -36 -29l-48 4q-54 0 -75 -52q-23 -58 -23 -219l5 -706q0 -161 19.5 -205t39.5 -55t46 -11l48 5q36 0 36 -29
q0 -37 -64 -37q-33 0 -70 6q-125 20 -212.5 7t-119.5 -13z" />
    <glyph glyph-name="Eth" unicode="&#xd0;" horiz-adv-x="1537" 
d="M133 -15q-65 0 -65 37q0 29 36 29l49 -5q60 0 81 67q17 57 17 204v331h-149q-24 0 -24 18q0 24 10.5 45.5t22.5 21.5h140v290q0 147 -14 192.5t-33.5 62t-50.5 16.5l-49 -4q-36 0 -36 29q0 37 55 37t96 -8t81 -8q106 0 176 10q106 15 243.5 15t274 -49t234.5 -139
q209 -191 209 -502q0 -295 -205 -491q-212 -204 -556 -204q-83 0 -161 7q-145 13 -210 13zM714 733q23 0 23 -18q0 -24 -10.5 -45.5t-22.5 -21.5h-296v-187q0 -178 9 -331q133 -69 299 -69q121 0 251 57q206 90 269 322q23 82 23 212.5t-44.5 253t-124.5 206.5
q-163 173 -439 173q-197 0 -226 -52q-15 -28 -16 -63.5t-1 -69.5v-367h306z" />
    <glyph glyph-name="Ntilde" unicode="&#xd1;" horiz-adv-x="1555" 
d="M546 1515q-2 -3 -11 -3t-23.5 11.5t-14.5 34t14.5 56.5t39.5 60q55 59 125 59q79 0 160 -60q58 -44 82 -47.5t44 -3.5q46 0 82 96q5 15 15.5 15t25 -11.5t14.5 -34t-15 -57t-40 -60.5q-54 -58 -124 -58q-63 0 -97.5 19.5t-57.5 36.5q-63 47 -87 51.5t-44 4.5
q-46 0 -82 -97q-4 -9 -6 -12zM136 -15q-65 0 -65 37q0 29 36 29l49 -5q60 0 80 67q18 57 18 204v704q0 148 -14 192.5t-33.5 61t-50.5 16.5l-49 -5q-36 0 -36 30q0 39 65 39l131 -15q42 0 75 6l921 -1071v748q0 146 -15.5 192t-35.5 62.5t-52 16.5l-49 -4q-36 0 -36 29
q0 37 65 37q25 0 67 -7q53 -9 96 -9t84 8t96 8t55 -37q0 -29 -36 -29l-49 4q-61 0 -81 -67q-17 -53 -17 -204v-1010q0 -34 -6 -45t-19 -11q-18 0 -57 42l-922 1068v-750q0 -151 13.5 -194.5t33 -60t51.5 -16.5l48 5q36 0 36 -29q0 -37 -57.5 -37t-102 7.5t-86.5 7.5
t-82.5 -7.5t-68.5 -7.5z" />
    <glyph glyph-name="Ograve" unicode="&#xd2;" horiz-adv-x="1585" 
d="M590 1636q-19 7 -19 23.5t7.5 35.5t17.5 33q22 33 34 33q10 0 23 -8l339 -183q21 -12 21 -25t-9 -26t-18 -13q-11 0 -71 20zM100 677q0 151 56.5 277.5t153 218t223.5 142t274 50.5t273 -53.5t216 -147.5q189 -199 189 -505q0 -290 -195 -485q-199 -199 -506 -199
q-300 0 -494 201q-190 198 -190 501zM271 734q0 -130 42.5 -255.5t120.5 -218.5q167 -202 422 -202q197 0 323 148q130 152 130 400q0 293 -157 486q-156 190 -395 190q-197 0 -339 -150q-147 -156 -147 -398z" />
    <glyph glyph-name="Oacute" unicode="&#xd3;" horiz-adv-x="1585" 
d="M669 1529q-60 -20 -70 -20t-19 13t-9 23q0 16 21 28l339 183q13 8 20 8t17 -9t20 -23q25 -37 25 -57.5t-4 -26t-15 -9.5zM100 677q0 151 56.5 277.5t153 218t223.5 142t274 50.5t273 -53.5t216 -147.5q189 -199 189 -505q0 -290 -195 -485q-199 -199 -506 -199
q-300 0 -494 201q-190 198 -190 501zM271 734q0 -130 42.5 -255.5t120.5 -218.5q167 -202 422 -202q197 0 323 148q130 152 130 400q0 293 -157 486q-156 190 -395 190q-197 0 -339 -150q-147 -156 -147 -398z" />
    <glyph glyph-name="Ocircumflex" unicode="&#xd4;" horiz-adv-x="1585" 
d="M604 1520q-29 -19 -38.5 -19t-22 13t-12.5 22q0 13 17 28l190 169q14 12 22.5 19.5t13.5 11.5q9 6 15 6t9.5 -1t9.5 -5q8 -5 38 -31l190 -169q17 -15 17 -26t-12.5 -24t-20.5 -13q-11 0 -40 19l-188 118zM100 677q0 151 56.5 277.5t153 218t223.5 142t274 50.5t273 -53.5
t216 -147.5q189 -199 189 -505q0 -290 -195 -485q-199 -199 -506 -199q-300 0 -494 201q-190 198 -190 501zM271 734q0 -130 42.5 -255.5t120.5 -218.5q167 -202 422 -202q197 0 323 148q130 152 130 400q0 293 -157 486q-156 190 -395 190q-197 0 -339 -150
q-147 -156 -147 -398z" />
    <glyph glyph-name="Otilde" unicode="&#xd5;" horiz-adv-x="1585" 
d="M540 1515q-2 -3 -11 -3t-23.5 11.5t-14.5 34t14.5 56.5t39.5 60q55 59 125 59q79 0 160 -60q58 -44 82 -47.5t44 -3.5q46 0 82 96q5 15 15.5 15t25 -11.5t14.5 -34t-15 -57t-40 -60.5q-54 -58 -124 -58q-63 0 -97.5 19.5t-57.5 36.5q-63 47 -87 51.5t-44 4.5
q-46 0 -82 -97q-4 -9 -6 -12zM100 677q0 151 56.5 277.5t153 218t223.5 142t274 50.5t273 -53.5t216 -147.5q189 -199 189 -505q0 -290 -195 -485q-199 -199 -506 -199q-300 0 -494 201q-190 198 -190 501zM271 734q0 -130 42.5 -255.5t120.5 -218.5q167 -202 422 -202
q197 0 323 148q130 152 130 400q0 293 -157 486q-156 190 -395 190q-197 0 -339 -150q-147 -156 -147 -398z" />
    <glyph glyph-name="Odieresis" unicode="&#xd6;" horiz-adv-x="1585" 
d="M1092.5 1571.5q-28.5 -29.5 -77 -29.5t-75 28.5t-26.5 62t9 51.5t23 31q31 27 75.5 27t72 -28t27.5 -70.5t-28.5 -72zM642.5 1571.5q-28.5 -29.5 -77 -29.5t-75 28.5t-26.5 62t9 51.5t23 31q31 27 75.5 27t72 -28t27.5 -70.5t-28.5 -72zM100 677q0 151 56.5 277.5
t153 218t223.5 142t274 50.5t273 -53.5t216 -147.5q189 -199 189 -505q0 -290 -195 -485q-199 -199 -506 -199q-300 0 -494 201q-190 198 -190 501zM271 734q0 -130 42.5 -255.5t120.5 -218.5q167 -202 422 -202q197 0 323 148q130 152 130 400q0 293 -157 486
q-156 190 -395 190q-197 0 -339 -150q-147 -156 -147 -398z" />
    <glyph glyph-name="multiply" unicode="&#xd7;" horiz-adv-x="775" 
d="M80 343l247 247l-247 248l60 60l247 -248l248 248l60 -60l-248 -248l248 -247l-60 -60l-248 247l-247 -247z" />
    <glyph glyph-name="Oslash" unicode="&#xd8;" horiz-adv-x="1585" 
d="M784 -25q-227 0 -395 117l-138 -177q-24 -34 -107 -34q-16 0 -16 9t30 47l163 209q-221 202 -221 529q0 299 210 497q96 92 223 142.5t268 50.5q221 0 386 -110l110 141q13 20 53 27t55 7t15 -8q0 -11 -19 -35l-145 -185q229 -204 229 -543q0 -290 -195 -485
q-199 -199 -506 -199zM1101 1145q-145 137 -344 137q-197 0 -339 -150q-147 -156 -147 -385q0 -276 151 -473zM480 209q157 -151 376 -151q197 0 323 148q130 152 130 400q0 282 -148 474z" />
    <glyph glyph-name="Ugrave" unicode="&#xd9;" horiz-adv-x="1506" 
d="M590 1636q-19 7 -19 23.5t7.5 35.5t17.5 33q22 33 34 33q10 0 23 -8l339 -183q21 -12 21 -25t-9 -26t-18 -13q-11 0 -71 20zM540 1290l-48 4q-61 0 -83 -67q-19 -59 -19 -204v-494q0 -139 20 -199.5t56.5 -110.5t85.5 -85q99 -70 223.5 -70t205.5 29.5t129 88.5
q89 108 89 352l-2 489q0 147 -14 192.5t-33.5 62t-50.5 16.5l-49 -4q-36 0 -36 29q0 37 55 37t96 -8t86 -8l165 16q64 0 64 -37q0 -29 -36 -29l-48 4q-61 0 -81 -67q-17 -58 -17 -204l-2 -540q0 -223 -142 -365q-143 -143 -381 -143q-259 0 -409 143q-153 148 -153 411v494
q0 145 -15 191.5t-35 63t-52 16.5l-49 -4q-36 0 -36 29q0 37 55.5 37t108.5 -8t111.5 -8t113 8t109 8t54.5 -37q0 -29 -36 -29z" />
    <glyph glyph-name="Uacute" unicode="&#xda;" horiz-adv-x="1506" 
d="M669 1529q-60 -20 -70 -20t-19 13t-9 23q0 16 21 28l339 183q13 8 20 8t17 -9t20 -23q25 -37 25 -57.5t-4 -26t-15 -9.5zM540 1290l-48 4q-61 0 -83 -67q-19 -59 -19 -204v-494q0 -139 20 -199.5t56.5 -110.5t85.5 -85q99 -70 223.5 -70t205.5 29.5t129 88.5
q89 108 89 352l-2 489q0 147 -14 192.5t-33.5 62t-50.5 16.5l-49 -4q-36 0 -36 29q0 37 55 37t96 -8t86 -8l165 16q64 0 64 -37q0 -29 -36 -29l-48 4q-61 0 -81 -67q-17 -58 -17 -204l-2 -540q0 -223 -142 -365q-143 -143 -381 -143q-259 0 -409 143q-153 148 -153 411v494
q0 145 -15 191.5t-35 63t-52 16.5l-49 -4q-36 0 -36 29q0 37 55.5 37t108.5 -8t111.5 -8t113 8t109 8t54.5 -37q0 -29 -36 -29z" />
    <glyph glyph-name="Ucircumflex" unicode="&#xdb;" horiz-adv-x="1506" 
d="M604 1520q-29 -19 -38.5 -19t-22 13t-12.5 22q0 13 17 28l190 169q14 12 22.5 19.5t13.5 11.5q9 6 15 6t9.5 -1t9.5 -5q8 -5 38 -31l190 -169q17 -15 17 -26t-12.5 -24t-20.5 -13q-11 0 -40 19l-188 118zM540 1290l-48 4q-61 0 -83 -67q-19 -59 -19 -204v-494
q0 -139 20 -199.5t56.5 -110.5t85.5 -85q99 -70 223.5 -70t205.5 29.5t129 88.5q89 108 89 352l-2 489q0 147 -14 192.5t-33.5 62t-50.5 16.5l-49 -4q-36 0 -36 29q0 37 55 37t96 -8t86 -8l165 16q64 0 64 -37q0 -29 -36 -29l-48 4q-61 0 -81 -67q-17 -58 -17 -204l-2 -540
q0 -223 -142 -365q-143 -143 -381 -143q-259 0 -409 143q-153 148 -153 411v494q0 145 -15 191.5t-35 63t-52 16.5l-49 -4q-36 0 -36 29q0 37 55.5 37t108.5 -8t111.5 -8t113 8t109 8t54.5 -37q0 -29 -36 -29z" />
    <glyph glyph-name="Udieresis" unicode="&#xdc;" horiz-adv-x="1506" 
d="M1092.5 1571.5q-28.5 -29.5 -77 -29.5t-75 28.5t-26.5 62t9 51.5t23 31q31 27 75.5 27t72 -28t27.5 -70.5t-28.5 -72zM642.5 1571.5q-28.5 -29.5 -77 -29.5t-75 28.5t-26.5 62t9 51.5t23 31q31 27 75.5 27t72 -28t27.5 -70.5t-28.5 -72zM540 1290l-48 4q-61 0 -83 -67
q-19 -59 -19 -204v-494q0 -139 20 -199.5t56.5 -110.5t85.5 -85q99 -70 223.5 -70t205.5 29.5t129 88.5q89 108 89 352l-2 489q0 147 -14 192.5t-33.5 62t-50.5 16.5l-49 -4q-36 0 -36 29q0 37 55 37t96 -8t86 -8l165 16q64 0 64 -37q0 -29 -36 -29l-48 4q-61 0 -81 -67
q-17 -58 -17 -204l-2 -540q0 -223 -142 -365q-143 -143 -381 -143q-259 0 -409 143q-153 148 -153 411v494q0 145 -15 191.5t-35 63t-52 16.5l-49 -4q-36 0 -36 29q0 37 55.5 37t108.5 -8t111.5 -8t113 8t109 8t54.5 -37q0 -29 -36 -29z" />
    <glyph glyph-name="Yacute" unicode="&#xdd;" horiz-adv-x="1260" 
d="M528 1529q-60 -20 -70 -20t-19 13t-9 23q0 16 21 28l339 183q13 8 20 8t17 -9t20 -23q25 -37 25 -57.5t-4 -26t-15 -9.5zM438 -15q-65 0 -65 37q0 29 36 29l49 -5q60 0 80 67q18 57 18 204v350l-315 465q-64 93 -90 117q-42 36 -86.5 36t-44.5 36q0 14 16 24.5t51 10.5
t73 -8t82 -8l163 16q65 0 65 -33t-55.5 -33t-55.5 -36q0 -20 36 -76l276 -418l212 336q65 102 70 123t5 29q0 42 -62.5 42t-62.5 33t65 33q35 0 69 -8t70 -8t67 8t66 8q70 0 70 -35q0 -36 -47 -36q-48 0 -77 -25q-46 -39 -117 -149l-286 -430v-364q0 -151 13.5 -194.5
t33 -60t51.5 -16.5l48 5q36 0 36 -29q0 -37 -64 -37q-33 0 -70 6q-120 19 -205.5 6.5t-117.5 -12.5z" />
    <glyph glyph-name="Thorn" unicode="&#xde;" horiz-adv-x="1072" 
d="M133 -15q-65 0 -65 37q0 29 36 29l49 -5q54 0 75 52q23 58 23 219v706q0 165 -17.5 207.5t-36 53t-44.5 10.5l-49 -4q-36 0 -36 29q0 37 55 37t104.5 -8t103.5 -8t101.5 8t102.5 8t55 -37q0 -29 -36 -29l-48 4q-52 0 -73 -46q-23 -51 -25 -194l118 13q214 0 346 -131
q120 -118 120 -286q0 -155 -120 -270q-118 -112 -270 -112q-117 0 -160 46q-13 14 -13 30.5t9.5 25t23.5 8.5t39 -18q39 -29 97 -29t98.5 22.5t68.5 63.5q58 85 58 229q0 162 -90 258q-87 93 -226 93q-95 0 -99 -56v-624q0 -163 17.5 -206t36 -54t44.5 -11l48 5q36 0 36 -29
q0 -37 -64 -37q-33 0 -70 6q-120 19 -205.5 6.5t-117.5 -12.5z" />
    <glyph glyph-name="germandbls" unicode="&#xdf;" horiz-adv-x="1209" 
d="M127 -15q-67 0 -67 37q0 29 37 29l50 -5q23 0 38 8.5t23 36.5q16 51 16 226v521l-134 3q-17 0 -17 19q0 37 12.5 48.5t20.5 11.5h118v80q0 206 102 320q97 110 271 110q147 0 239 -88q84 -80 84 -199q0 -168 -127 -272q-44 -36 -105 -62q186 -26 314 -161
q127 -135 127 -302q0 -159 -97 -262q-102 -109 -273 -109q-102 0 -173 40q-68 38 -68 86q0 43 59 73q15 7 29 7t26.5 -7.5t22.5 -32.5t23.5 -41.5t31.5 -29.5q40 -27 82 -27q169 0 169 269q0 315 -237 408q-74 30 -167 36q-12 -2 -22 -2q-48 0 -48 38t55 38h13
q100 11 155 79t55 183q0 129 -61 201q-57 68 -149 68q-94 0 -135 -74q-41 -75 -41 -252v-718q0 -186 21 -251q5 -18 10 -42v-7q0 -24 -28 -24l-75 7q-51 0 -96.5 -7.5t-83.5 -7.5z" />
    <glyph glyph-name="agrave" unicode="&#xe0;" horiz-adv-x="1033" 
d="M332 1221q-19 9 -19 24t6.5 33.5t16.5 33.5q22 33 34 33q16 0 29 -8l282 -179q29 -18 29 -31.5t-9.5 -25t-18.5 -11.5q-13 0 -71 23zM992 134q29 0 29 -26q0 -27 -58 -51t-81 -43.5t-34 -29t-26.5 -9.5t-27 5.5t-22.5 19.5q-20 25 -54 107q-57 -65 -138.5 -98.5
t-161.5 -33.5t-137.5 20.5t-97.5 57.5q-82 76 -82 199q0 145 128 230q123 82 318 82q58 0 153 -20v78q0 257 -217 257q-65 0 -96 -21q-47 -34 -72.5 -85t-48.5 -73t-43.5 -22t-33.5 5t-24 13q-25 20 -25 49t30 64.5t80 64.5q118 69 259 69q250 0 323 -163q27 -58 27 -142
v-399q0 -77 12 -94q18 -27 45 -27t44 8t32 8zM700 451q-72 41 -191 41q-101 0 -167.5 -55t-66.5 -148q0 -92 51 -153q51 -62 131 -62q171 0 246 112q-3 28 -3 62v203z" />
    <glyph glyph-name="aacute" unicode="&#xe1;" horiz-adv-x="1033" 
d="M427 1113q-62 -24 -71 -23.5t-18.5 12t-9.5 22.5t5 16.5t24 17.5l282 179q13 8 22 8t20 -9t21 -24q23 -37 23 -56.5t-4 -24.5t-15 -10zM992 134q29 0 29 -26q0 -27 -58 -51t-81 -43.5t-34 -29t-26.5 -9.5t-27 5.5t-22.5 19.5q-20 25 -54 107q-57 -65 -138.5 -98.5
t-161.5 -33.5t-137.5 20.5t-97.5 57.5q-82 76 -82 199q0 145 128 230q123 82 318 82q58 0 153 -20v78q0 257 -217 257q-65 0 -96 -21q-47 -34 -72.5 -85t-48.5 -73t-43.5 -22t-33.5 5t-24 13q-25 20 -25 49t30 64.5t80 64.5q118 69 259 69q250 0 323 -163q27 -58 27 -142
v-399q0 -77 12 -94q18 -27 45 -27t44 8t32 8zM700 451q-72 41 -191 41q-101 0 -167.5 -55t-66.5 -148q0 -92 51 -153q51 -62 131 -62q171 0 246 112q-3 28 -3 62v203z" />
    <glyph glyph-name="acircumflex" unicode="&#xe2;" horiz-adv-x="1033" 
d="M357 1103q-30 -21 -38.5 -21t-21 13t-12.5 21q0 14 17 31l165 167q34 37 51 37t51 -37l165 -167q17 -17 17 -28t-12.5 -24t-20.5 -13q-9 0 -39 21l-161 114zM992 134q29 0 29 -26q0 -27 -58 -51t-81 -43.5t-34 -29t-26.5 -9.5t-27 5.5t-22.5 19.5q-20 25 -54 107
q-57 -65 -138.5 -98.5t-161.5 -33.5t-137.5 20.5t-97.5 57.5q-82 76 -82 199q0 145 128 230q123 82 318 82q58 0 153 -20v78q0 257 -217 257q-65 0 -96 -21q-47 -34 -72.5 -85t-48.5 -73t-43.5 -22t-33.5 5t-24 13q-25 20 -25 49t30 64.5t80 64.5q118 69 259 69
q250 0 323 -163q27 -58 27 -142v-399q0 -77 12 -94q18 -27 45 -27t44 8t32 8zM700 451q-72 41 -191 41q-101 0 -167.5 -55t-66.5 -148q0 -92 51 -153q51 -62 131 -62q171 0 246 112q-3 28 -3 62v203z" />
    <glyph glyph-name="atilde" unicode="&#xe3;" horiz-adv-x="1033" 
d="M286.5 1106q-10.5 0 -25 11.5t-14.5 33t14.5 55.5t38.5 61q52 60 116 60q48 0 76 -16.5t62 -42.5q68 -52 98 -52t47 24t27 52q13 35 20 35q14 0 28.5 -11.5t14.5 -33.5t-14.5 -55.5t-38.5 -60.5q-52 -60 -116 -60q-47 0 -75.5 16.5t-63.5 43.5q-69 52 -98 52t-46.5 -24.5
t-28.5 -56t-21.5 -31.5zM992 134q29 0 29 -26q0 -27 -58 -51t-81 -43.5t-34 -29t-26.5 -9.5t-27 5.5t-22.5 19.5q-20 25 -54 107q-57 -65 -138.5 -98.5t-161.5 -33.5t-137.5 20.5t-97.5 57.5q-82 76 -82 199q0 145 128 230q123 82 318 82q58 0 153 -20v78q0 257 -217 257
q-65 0 -96 -21q-47 -34 -72.5 -85t-48.5 -73t-43.5 -22t-33.5 5t-24 13q-25 20 -25 49t30 64.5t80 64.5q118 69 259 69q250 0 323 -163q27 -58 27 -142v-399q0 -77 12 -94q18 -27 45 -27t44 8t32 8zM700 451q-72 41 -191 41q-101 0 -167.5 -55t-66.5 -148q0 -92 51 -153
q51 -62 131 -62q171 0 246 112q-3 28 -3 62v203z" />
    <glyph glyph-name="adieresis" unicode="&#xe4;" horiz-adv-x="1033" 
d="M769.5 1140.5q-28.5 -29.5 -77 -29.5t-75 28.5t-26.5 62t9 51.5t24 31q30 27 74.5 27t72 -28t27.5 -70.5t-28.5 -72zM417.5 1140.5q-28.5 -29.5 -77 -29.5t-75 28.5t-26.5 62t9 51.5t24 31q30 27 74.5 27t72 -28t27.5 -70.5t-28.5 -72zM992 134q29 0 29 -26
q0 -27 -58 -51t-81 -43.5t-34 -29t-26.5 -9.5t-27 5.5t-22.5 19.5q-20 25 -54 107q-57 -65 -138.5 -98.5t-161.5 -33.5t-137.5 20.5t-97.5 57.5q-82 76 -82 199q0 145 128 230q123 82 318 82q58 0 153 -20v78q0 257 -217 257q-65 0 -96 -21q-47 -34 -72.5 -85t-48.5 -73
t-43.5 -22t-33.5 5t-24 13q-25 20 -25 49t30 64.5t80 64.5q118 69 259 69q250 0 323 -163q27 -58 27 -142v-399q0 -77 12 -94q18 -27 45 -27t44 8t32 8zM700 451q-72 41 -191 41q-101 0 -167.5 -55t-66.5 -148q0 -92 51 -153q51 -62 131 -62q171 0 246 112q-3 28 -3 62v203z
" />
    <glyph glyph-name="aring" unicode="&#xe5;" horiz-adv-x="1033" 
d="M593.5 1114q-37.5 -13 -82 -13t-82.5 15t-65 42q-54 54 -54 146q0 87 62 144q60 57 145 57q144 0 191 -113q15 -38 15 -87.5t-17.5 -88t-46 -64t-66 -38.5zM476.5 1180q20.5 -11 42.5 -11t42 9t35 26q33 39 33 84t-9 69t-24 42q-32 38 -67.5 38t-56 -10t-35.5 -28
q-31 -37 -31 -79t9 -67t25 -43.5t36.5 -29.5zM992 134q29 0 29 -26q0 -27 -58 -51t-81 -43.5t-34 -29t-26.5 -9.5t-27 5.5t-22.5 19.5q-20 25 -54 107q-57 -65 -138.5 -98.5t-161.5 -33.5t-137.5 20.5t-97.5 57.5q-82 76 -82 199q0 145 128 230q123 82 318 82q58 0 153 -20
v78q0 257 -217 257q-65 0 -96 -21q-47 -34 -72.5 -85t-48.5 -73t-43.5 -22t-33.5 5t-24 13q-25 20 -25 49t30 64.5t80 64.5q118 69 259 69q250 0 323 -163q27 -58 27 -142v-399q0 -77 12 -94q18 -27 45 -27t44 8t32 8zM700 451q-72 41 -191 41q-101 0 -167.5 -55t-66.5 -148
q0 -92 51 -153q51 -62 131 -62q171 0 246 112q-3 28 -3 62v203z" />
    <glyph glyph-name="ae" unicode="&#xe6;" horiz-adv-x="1560" 
d="M1124 -25q-257 0 -361 190q-48 -94 -132.5 -142t-174 -48t-151.5 22t-107 61q-97 83 -97 204q0 144 128 225q122 77 318 77q58 0 153 -20v73q0 133 -45.5 195t-149.5 62q-66 0 -106 -26.5t-63 -75.5q-45 -94 -100 -94q-44 0 -71 38q-8 12 -8 36t30.5 59.5t82.5 64.5
q118 67 261 67q216 0 292 -154q132 154 322 154q163 0 256 -107q87 -100 87 -256q0 -50 -13.5 -68.5t-33.5 -22t-53 -5.5t-80 -4.5t-104 -5t-117 -4.5q-140 -3 -228 -3q9 -290 189 -373q60 -28 128 -28q135 0 217 84q34 36 58 36q33 0 33 -37q0 -22 -30 -53t-86 -64
q-99 -57 -244 -57zM861 552l205 -1q192 0 218 5t35.5 15.5t9.5 59.5t-16 95t-45 78q-59 67 -155 67q-103 0 -171 -85q-69 -87 -81 -234zM295 372q-17 -37 -17 -82.5t17 -84.5t46 -69q61 -62 150 -62q187 0 239 170q-28 90 -30 203q-72 41 -191 41q-161 0 -214 -116z" />
    <glyph glyph-name="ccedilla" unicode="&#xe7;" horiz-adv-x="950" 
d="M440 -181q0 50 49 158q-184 14 -296 149q-110 131 -110 327q0 218 143 356q140 134 353 134q126 -4 219 -59q95 -55 99 -135q0 -43 -57 -57q-15 -3 -27 -3q-46 0 -75 63q-57 119 -193 119q-120 0 -201 -99q-86 -105 -86 -277q0 -191 89 -307q93 -122 254 -122
q110 0 193 84q36 36 54 36q37 0 37 -37q0 -36 -71 -88q-107 -80 -250 -85q-18 -43 -30 -84q92 -30 128.5 -72.5t36.5 -92t-15.5 -81t-42.5 -55.5q-59 -52 -142 -52q-64 0 -100 16q-58 26 -58 53q0 40 34 74q9 9 17 9q14 0 33 -30q39 -61 102 -61q53 0 73 41q7 14 7 30.5
t-4.5 29t-18.5 25.5q-26 24 -76 43t-59 29t-9 21z" />
    <glyph glyph-name="egrave" unicode="&#xe8;" horiz-adv-x="985" 
d="M309 1221q-19 9 -19 24t6.5 33.5t16.5 33.5q22 33 33 33q17 0 30 -8l282 -179q29 -18 29 -31.5t-9.5 -25t-17.5 -11.5q-14 0 -72 23zM112.5 265q-31.5 88 -31.5 195.5t37 197.5t102 154q135 133 333 133q164 0 265 -108q96 -104 96 -257q0 -50 -13.5 -68.5t-33.5 -22
t-55 -6t-85 -5.5t-111.5 -6t-125.5 -7q-147 -9 -236 -18q22 -269 206 -349q60 -26 128 -26q144 0 228 84q36 36 55 36q36 0 36 -43q0 -22 -30 -53t-86 -64q-99 -57 -231 -57t-215.5 36.5t-142 101t-90 152.5zM252 521q469 24 494 51q9 10 9 59t-19 95.5t-51 79.5
q-66 67 -164 67q-111 0 -187 -93q-80 -97 -82 -259z" />
    <glyph glyph-name="eacute" unicode="&#xe9;" horiz-adv-x="985" 
d="M404 1113q-62 -24 -71 -23.5t-18.5 12t-9.5 22.5t5 16.5t24 17.5l282 179q13 8 22 8t20 -9t20 -24q24 -37 24 -56.5t-4 -24.5t-15 -10zM112.5 265q-31.5 88 -31.5 195.5t37 197.5t102 154q135 133 333 133q164 0 265 -108q96 -104 96 -257q0 -50 -13.5 -68.5t-33.5 -22
t-55 -6t-85 -5.5t-111.5 -6t-125.5 -7q-147 -9 -236 -18q22 -269 206 -349q60 -26 128 -26q144 0 228 84q36 36 55 36q36 0 36 -43q0 -22 -30 -53t-86 -64q-99 -57 -231 -57t-215.5 36.5t-142 101t-90 152.5zM252 521q469 24 494 51q9 10 9 59t-19 95.5t-51 79.5
q-66 67 -164 67q-111 0 -187 -93q-80 -97 -82 -259z" />
    <glyph glyph-name="ecircumflex" unicode="&#xea;" horiz-adv-x="985" 
d="M334 1103q-30 -21 -38.5 -21t-21 13t-12.5 21q0 14 17 31l165 167q34 37 51 37t51 -37l165 -167q17 -17 17 -28t-12.5 -24t-19.5 -13q-10 0 -40 21l-161 114zM112.5 265q-31.5 88 -31.5 195.5t37 197.5t102 154q135 133 333 133q164 0 265 -108q96 -104 96 -257
q0 -50 -13.5 -68.5t-33.5 -22t-55 -6t-85 -5.5t-111.5 -6t-125.5 -7q-147 -9 -236 -18q22 -269 206 -349q60 -26 128 -26q144 0 228 84q36 36 55 36q36 0 36 -43q0 -22 -30 -53t-86 -64q-99 -57 -231 -57t-215.5 36.5t-142 101t-90 152.5zM252 521q469 24 494 51q9 10 9 59
t-19 95.5t-51 79.5q-66 67 -164 67q-111 0 -187 -93q-80 -97 -82 -259z" />
    <glyph glyph-name="edieresis" unicode="&#xeb;" horiz-adv-x="985" 
d="M746.5 1140.5q-28.5 -29.5 -77 -29.5t-75 28.5t-26.5 62t9 51.5t23 31q31 27 75.5 27t72 -28t27.5 -70.5t-28.5 -72zM394.5 1140.5q-28.5 -29.5 -77 -29.5t-75 28.5t-26.5 62t9 51.5t23 31q31 27 75.5 27t72 -28t27.5 -70.5t-28.5 -72zM112.5 265q-31.5 88 -31.5 195.5
t37 197.5t102 154q135 133 333 133q164 0 265 -108q96 -104 96 -257q0 -50 -13.5 -68.5t-33.5 -22t-55 -6t-85 -5.5t-111.5 -6t-125.5 -7q-147 -9 -236 -18q22 -269 206 -349q60 -26 128 -26q144 0 228 84q36 36 55 36q36 0 36 -43q0 -22 -30 -53t-86 -64q-99 -57 -231 -57
t-215.5 36.5t-142 101t-90 152.5zM252 521q469 24 494 51q9 10 9 59t-19 95.5t-51 79.5q-66 67 -164 67q-111 0 -187 -93q-80 -97 -82 -259z" />
    <glyph glyph-name="igrave" unicode="&#xec;" horiz-adv-x="582" 
d="M123 1221q-19 9 -19 24t6.5 33.5t16.5 33.5q22 33 33 33q17 0 30 -8l282 -179q29 -18 29 -31.5t-9.5 -25t-17.5 -11.5q-15 0 -72 23zM134 -15q-67 0 -67 37q0 29 37 29l50 -5q23 0 38 8.5t24 36.5q16 50 16 226v301q0 99 -13.5 125.5t-30.5 36t-56.5 15t-39.5 31.5
q0 23 52 34q114 23 161 49q62 35 85 35t23 -23q0 -11 -4 -23q-23 -69 -23 -272v-309q0 -176 12.5 -215t27.5 -47.5t38 -8.5l50 5q37 0 37 -29q0 -37 -67 -37q-38 0 -81.5 7.5t-93.5 7.5t-93.5 -7.5t-81.5 -7.5z" />
    <glyph glyph-name="iacute" unicode="&#xed;" horiz-adv-x="582" 
d="M218 1113q-62 -24 -71 -23.5t-18.5 12t-9.5 22.5t5 16.5t24 17.5l282 179q13 8 22 8t20 -9t20 -24q24 -37 24 -56.5t-4 -24.5t-15 -10zM134 -15q-67 0 -67 37q0 29 37 29l50 -5q23 0 38 8.5t24 36.5q16 50 16 226v301q0 99 -13.5 125.5t-30.5 36t-56.5 15t-39.5 31.5
q0 23 52 34q114 23 161 49q62 35 85 35t23 -23q0 -11 -4 -23q-23 -69 -23 -272v-309q0 -176 12.5 -215t27.5 -47.5t38 -8.5l50 5q37 0 37 -29q0 -37 -67 -37q-38 0 -81.5 7.5t-93.5 7.5t-93.5 -7.5t-81.5 -7.5z" />
    <glyph glyph-name="icircumflex" unicode="&#xee;" horiz-adv-x="582" 
d="M148 1103q-30 -21 -38.5 -21t-21 13t-12.5 21q0 14 17 31l165 167q34 37 51 37t51 -37l165 -167q17 -17 17 -28t-12.5 -24t-19.5 -13q-10 0 -40 21l-161 114zM134 -15q-67 0 -67 37q0 29 37 29l50 -5q23 0 38 8.5t24 36.5q16 50 16 226v301q0 99 -13.5 125.5t-30.5 36
t-56.5 15t-39.5 31.5q0 23 52 34q114 23 161 49q62 35 85 35t23 -23q0 -11 -4 -23q-23 -69 -23 -272v-309q0 -176 12.5 -215t27.5 -47.5t38 -8.5l50 5q37 0 37 -29q0 -37 -67 -37q-38 0 -81.5 7.5t-93.5 7.5t-93.5 -7.5t-81.5 -7.5z" />
    <glyph glyph-name="idieresis" unicode="&#xef;" horiz-adv-x="582" 
d="M560.5 1140.5q-28.5 -29.5 -77 -29.5t-75 28.5t-26.5 62t9 51.5t23 31q31 27 75.5 27t72 -28t27.5 -70.5t-28.5 -72zM208.5 1140.5q-28.5 -29.5 -77 -29.5t-75 28.5t-26.5 62t9 51.5t23 31q31 27 75.5 27t72 -28t27.5 -70.5t-28.5 -72zM134 -15q-67 0 -67 37q0 29 37 29
l50 -5q23 0 38 8.5t24 36.5q16 50 16 226v301q0 99 -13.5 125.5t-30.5 36t-56.5 15t-39.5 31.5q0 23 52 34q114 23 161 49q62 35 85 35t23 -23q0 -11 -4 -23q-23 -69 -23 -272v-309q0 -176 12.5 -215t27.5 -47.5t38 -8.5l50 5q37 0 37 -29q0 -37 -67 -37q-38 0 -81.5 7.5
t-93.5 7.5t-93.5 -7.5t-81.5 -7.5z" />
    <glyph glyph-name="eth" unicode="&#xf0;" horiz-adv-x="1107" 
d="M80 440q0 96 35 178t97 141q130 124 335 124q169 0 296 -100q-32 178 -177 349l-189 -70q-25 -10 -34 -10t-16.5 4.5t-16.5 11.5q-21 16 -21 25t6.5 13.5t36.5 16.5l170 78q-111 107 -221 157q-70 30 -70 36.5t7 12.5t16 11q23 12 40.5 12t59 -16.5t88.5 -43.5
q109 -60 178 -121l165 77q19 8 28 9t14.5 2t16.5 -7.5t21 -19.5q24 -28 24 -40.5t-9.5 -18.5t-38.5 -16l-148 -60q181 -203 234 -484q17 -91 17 -197.5t-31 -204.5t-91 -167q-128 -147 -352 -147q-209 0 -342 139q-128 133 -128 326zM259 470q0 -89 26.5 -168t72.5 -136
q96 -121 231 -121q122 0 199 101q73 96 73 221.5t-24.5 206t-68.5 133.5q-86 105 -228 105q-120 0 -198 -86q-83 -92 -83 -256z" />
    <glyph glyph-name="ntilde" unicode="&#xf1;" horiz-adv-x="1197" 
d="M386.5 1106q-10.5 0 -25 11.5t-14.5 33t14.5 55.5t38.5 61q52 60 116 60q48 0 76 -16.5t62 -42.5q68 -52 98 -52t47 24t27 52q13 35 20 35q14 0 28.5 -11.5t14.5 -33.5t-14.5 -55.5t-38.5 -60.5q-52 -60 -116 -60q-47 0 -75.5 16.5t-63.5 43.5q-69 52 -98 52t-46.5 -24.5
t-28.5 -56t-21.5 -31.5zM121 -15q-66 0 -66 37q0 29 37 29l53 -5q23 0 38 8.5t23 36.5q16 51 16 226v299q0 101 -13.5 126.5t-32.5 35t-59 16t-40 31.5q0 23 51 33q129 27 172 51q59 34 81.5 34t22.5 -23q0 -11 -4 -23q-19 -48 -22 -155q57 97 142.5 149t169 52t141.5 -21
t99 -64q84 -90 84 -265v-276q0 -175 12 -214.5t27 -48t38 -8.5l52 5q37 0 37 -29q0 -37 -67 -37q-39 0 -82.5 7.5t-93 7.5t-94.5 -7.5t-84 -7.5q-67 0 -67 37q0 29 37 29l52 -5q23 0 38 8.5t24 36.5q16 50 16 226v228q0 286 -208 286q-147 0 -229 -133q-29 -49 -45 -120
v-261q0 -175 12 -214.5t27 -48t38 -8.5l53 5q37 0 37 -29q0 -37 -66 -37q-38 0 -80.5 7.5t-95.5 7.5t-97.5 -7.5t-83.5 -7.5z" />
    <glyph glyph-name="ograve" unicode="&#xf2;" horiz-adv-x="1099" 
d="M387 1221q-19 9 -19 24t6.5 33.5t16.5 33.5q22 33 33 33q17 0 30 -8l282 -179q29 -18 29 -31.5t-9.5 -25t-17.5 -11.5q-14 0 -72 23zM76 444q0 97 35 188t99 160q140 151 349 151q232 0 357 -139q113 -126 113 -327q0 -203 -135 -351q-138 -151 -348 -151
q-232 0 -356 139q-114 126 -114 330zM245 486q0 -98 27 -183t74 -141q93 -114 235 -114q126 0 205 100q82 104 82 268q0 217 -100 340q-94 113 -236 113q-126 0 -205 -100q-82 -104 -82 -283z" />
    <glyph glyph-name="oacute" unicode="&#xf3;" horiz-adv-x="1099" 
d="M482 1113q-62 -24 -71 -23.5t-18.5 12t-9.5 22.5t5 16.5t24 17.5l282 179q13 8 22 8t20 -9t20 -24q24 -37 24 -56.5t-4 -24.5t-15 -10zM76 444q0 97 35 188t99 160q140 151 349 151q232 0 357 -139q113 -126 113 -327q0 -203 -135 -351q-138 -151 -348 -151
q-232 0 -356 139q-114 126 -114 330zM245 486q0 -98 27 -183t74 -141q93 -114 235 -114q126 0 205 100q82 104 82 268q0 217 -100 340q-94 113 -236 113q-126 0 -205 -100q-82 -104 -82 -283z" />
    <glyph glyph-name="ocircumflex" unicode="&#xf4;" horiz-adv-x="1099" 
d="M412 1103q-30 -21 -38.5 -21t-21 13t-12.5 21q0 14 17 31l165 167q34 37 51 37t51 -37l165 -167q17 -17 17 -28t-12.5 -24t-19.5 -13q-10 0 -40 21l-161 114zM76 444q0 97 35 188t99 160q140 151 349 151q232 0 357 -139q113 -126 113 -327q0 -203 -135 -351
q-138 -151 -348 -151q-232 0 -356 139q-114 126 -114 330zM245 486q0 -98 27 -183t74 -141q93 -114 235 -114q126 0 205 100q82 104 82 268q0 217 -100 340q-94 113 -236 113q-126 0 -205 -100q-82 -104 -82 -283z" />
    <glyph glyph-name="otilde" unicode="&#xf5;" horiz-adv-x="1099" 
d="M341.5 1106q-10.5 0 -25 11.5t-14.5 33t14.5 55.5t37.5 61q53 60 117 60q48 0 76 -16.5t63 -42.5q67 -52 97 -52t47 24t28 52q12 35 19 35q14 0 28.5 -11.5t14.5 -33.5t-14.5 -55.5t-37.5 -60.5q-53 -60 -117 -60q-47 0 -75.5 16.5t-63.5 43.5q-69 52 -98 52t-46.5 -24.5
t-28.5 -56t-21.5 -31.5zM76 444q0 97 35 188t99 160q140 151 349 151q232 0 357 -139q113 -126 113 -327q0 -203 -135 -351q-138 -151 -348 -151q-232 0 -356 139q-114 126 -114 330zM245 486q0 -98 27 -183t74 -141q93 -114 235 -114q126 0 205 100q82 104 82 268
q0 217 -100 340q-94 113 -236 113q-126 0 -205 -100q-82 -104 -82 -283z" />
    <glyph glyph-name="odieresis" unicode="&#xf6;" horiz-adv-x="1099" 
d="M824.5 1140.5q-28.5 -29.5 -77 -29.5t-75 28.5t-26.5 62t9 51.5t23 31q31 27 75.5 27t72 -28t27.5 -70.5t-28.5 -72zM472.5 1140.5q-28.5 -29.5 -77 -29.5t-75 28.5t-26.5 62t9 51.5t23 31q31 27 75.5 27t72 -28t27.5 -70.5t-28.5 -72zM76 444q0 97 35 188t99 160
q140 151 349 151q232 0 357 -139q113 -126 113 -327q0 -203 -135 -351q-138 -151 -348 -151q-232 0 -356 139q-114 126 -114 330zM245 486q0 -98 27 -183t74 -141q93 -114 235 -114q126 0 205 100q82 104 82 268q0 217 -100 340q-94 113 -236 113q-126 0 -205 -100
q-82 -104 -82 -283z" />
    <glyph glyph-name="divide" unicode="&#xf7;" horiz-adv-x="895" 
d="M505 823.5q-21 -22.5 -57 -22.5t-55.5 21.5t-19.5 55t24 54t56.5 20.5t52.5 -21t20 -53t-21 -54.5zM80 639h735v-85h-735v85zM392.5 272.5q-19.5 21.5 -19.5 55t24 54t56.5 20.5t52.5 -21t20 -53t-21 -54.5t-57 -22.5t-55.5 21.5z" />
    <glyph glyph-name="oslash" unicode="&#xf8;" horiz-adv-x="1099" 
d="M681 -6q-64 -19 -160.5 -19t-188.5 39l-67 -99q-21 -34 -107 -34q-16 0 -16 8q0 11 19 35l91 134q-176 125 -176 383q0 207 134 351q140 151 349 151q147 0 253 -58l71 105q13 20 52.5 27t55 7t15.5 -8q0 -11 -19 -35l-101 -149q143 -129 143 -355q0 -203 -135 -351
q-88 -96 -213 -132zM742 783q-89 86 -210 86q-126 0 -205 -100q-82 -104 -82 -268q0 -204 88 -323zM397 110q83 -62 184 -62q126 0 205 100q82 104 82 268q0 177 -67 290z" />
    <glyph glyph-name="ugrave" unicode="&#xf9;" horiz-adv-x="1167" 
d="M407 1221q-19 9 -19 24t6.5 33.5t16.5 33.5q22 33 33 33q17 0 30 -8l282 -179q29 -18 29 -31.5t-9.5 -25t-17.5 -11.5q-14 0 -72 23zM1086 132q29 0 29 -26q0 -14 -12.5 -24t-38.5 -20.5t-41 -17.5t-28 -14q-21 -11 -46 -28q-42 -27 -57.5 -27t-28 7.5t-25.5 27.5
q-30 47 -32 138q-85 -120 -218 -153q-41 -10 -96 -10t-113.5 18.5t-100.5 60.5q-90 87 -90 264v288q0 96 -11.5 125t-25 39t-35.5 14q-45 10 -45 33q0 25 51 35q113 23 150 45q53 30 73 30t20 -23q0 -11 -5 -23q-20 -54 -21 -134t-1 -133v-256q0 -208 134 -254
q40 -13 79 -13t73.5 9.5t67.5 29.5q71 45 113 132l3 366q0 85 -15 109.5t-33 32.5t-56.5 14t-38.5 32q0 23 48.5 33t89.5 24.5t72.5 27.5t52 22.5t28.5 9.5q23 0 23 -23q0 -11 -5 -23q-20 -54 -21 -137t-1 -136v-375q0 -77 13 -98q20 -33 57 -33z" />
    <glyph glyph-name="uacute" unicode="&#xfa;" horiz-adv-x="1167" 
d="M502 1113q-62 -24 -71 -23.5t-18.5 12t-9.5 22.5t5 16.5t24 17.5l282 179q13 8 22 8t20 -9t20 -24q24 -37 24 -56.5t-4 -24.5t-15 -10zM1086 132q29 0 29 -26q0 -14 -12.5 -24t-38.5 -20.5t-41 -17.5t-28 -14q-21 -11 -46 -28q-42 -27 -57.5 -27t-28 7.5t-25.5 27.5
q-30 47 -32 138q-85 -120 -218 -153q-41 -10 -96 -10t-113.5 18.5t-100.5 60.5q-90 87 -90 264v288q0 96 -11.5 125t-25 39t-35.5 14q-45 10 -45 33q0 25 51 35q113 23 150 45q53 30 73 30t20 -23q0 -11 -5 -23q-20 -54 -21 -134t-1 -133v-256q0 -208 134 -254
q40 -13 79 -13t73.5 9.5t67.5 29.5q71 45 113 132l3 366q0 85 -15 109.5t-33 32.5t-56.5 14t-38.5 32q0 23 48.5 33t89.5 24.5t72.5 27.5t52 22.5t28.5 9.5q23 0 23 -23q0 -11 -5 -23q-20 -54 -21 -137t-1 -136v-375q0 -77 13 -98q20 -33 57 -33z" />
    <glyph glyph-name="ucircumflex" unicode="&#xfb;" horiz-adv-x="1167" 
d="M432 1103q-30 -21 -38.5 -21t-21 13t-12.5 21q0 14 17 31l165 167q34 37 51 37t51 -37l165 -167q17 -17 17 -28t-12.5 -24t-19.5 -13q-10 0 -40 21l-161 114zM1086 132q29 0 29 -26q0 -14 -12.5 -24t-38.5 -20.5t-41 -17.5t-28 -14q-21 -11 -46 -28q-42 -27 -57.5 -27
t-28 7.5t-25.5 27.5q-30 47 -32 138q-85 -120 -218 -153q-41 -10 -96 -10t-113.5 18.5t-100.5 60.5q-90 87 -90 264v288q0 96 -11.5 125t-25 39t-35.5 14q-45 10 -45 33q0 25 51 35q113 23 150 45q53 30 73 30t20 -23q0 -11 -5 -23q-20 -54 -21 -134t-1 -133v-256
q0 -208 134 -254q40 -13 79 -13t73.5 9.5t67.5 29.5q71 45 113 132l3 366q0 85 -15 109.5t-33 32.5t-56.5 14t-38.5 32q0 23 48.5 33t89.5 24.5t72.5 27.5t52 22.5t28.5 9.5q23 0 23 -23q0 -11 -5 -23q-20 -54 -21 -137t-1 -136v-375q0 -77 13 -98q20 -33 57 -33z" />
    <glyph glyph-name="udieresis" unicode="&#xfc;" horiz-adv-x="1167" 
d="M844.5 1140.5q-28.5 -29.5 -77 -29.5t-75 28.5t-26.5 62t9 51.5t23 31q31 27 75.5 27t72 -28t27.5 -70.5t-28.5 -72zM492.5 1140.5q-28.5 -29.5 -77 -29.5t-75 28.5t-26.5 62t9 51.5t23 31q31 27 75.5 27t72 -28t27.5 -70.5t-28.5 -72zM1086 132q29 0 29 -26
q0 -14 -12.5 -24t-38.5 -20.5t-41 -17.5t-28 -14q-21 -11 -46 -28q-42 -27 -57.5 -27t-28 7.5t-25.5 27.5q-30 47 -32 138q-85 -120 -218 -153q-41 -10 -96 -10t-113.5 18.5t-100.5 60.5q-90 87 -90 264v288q0 96 -11.5 125t-25 39t-35.5 14q-45 10 -45 33q0 25 51 35
q113 23 150 45q53 30 73 30t20 -23q0 -11 -5 -23q-20 -54 -21 -134t-1 -133v-256q0 -208 134 -254q40 -13 79 -13t73.5 9.5t67.5 29.5q71 45 113 132l3 366q0 85 -15 109.5t-33 32.5t-56.5 14t-38.5 32q0 23 48.5 33t89.5 24.5t72.5 27.5t52 22.5t28.5 9.5q23 0 23 -23
q0 -11 -5 -23q-20 -54 -21 -137t-1 -136v-375q0 -77 13 -98q20 -33 57 -33z" />
    <glyph glyph-name="yacute" unicode="&#xfd;" horiz-adv-x="950" 
d="M392 1113q-62 -24 -71 -23.5t-18.5 12t-9.5 22.5t5 16.5t24 17.5l282 179q13 8 22 8t20 -9t20 -24q24 -37 24 -56.5t-4 -24.5t-15 -10zM961 935q41 0 41 -25q0 -21 -37.5 -34.5t-57.5 -25t-37 -32.5q-35 -43 -74 -149l-150 -408q-193 -526 -279 -633q-85 -108 -202 -108
q-81 0 -117 22q-60 38 -60 78q0 28 20 46q33 31 60.5 31t48.5 -9.5t40.5 -21t35.5 -21t29 -9.5t27.5 2t31.5 13.5t37 35.5t44 67q53 97 119 274q-43 32 -136 231l-221 488q-30 65 -46 83q-26 33 -69.5 43.5t-43.5 37.5q0 9 10.5 16.5t30.5 7.5l155 -11q61 0 92 4q53 7 87 7
q68 0 68 -29q0 -30 -80 -34q-51 -3 -58 -27q-2 -7 -2 -15q0 -13 30 -78l244 -551q1 0 1 2t1 4l170 501q15 45 25.5 74.5t10.5 50t-14 28.5t-54 11q-75 7 -75 35t68 28l170 -10z" />
    <glyph glyph-name="thorn" unicode="&#xfe;" horiz-adv-x="1169" 
d="M87 -411l50 -5q23 0 38 8t23 36q16 50 16 224v1250q0 94 -15 122.5t-32 38.5t-54.5 16t-37.5 31t51 35q120 25 165 51q61 34 82 34q23 0 23 -23q0 -11 -5 -23t-8 -26.5t-5.5 -32.5t-4.5 -43q-4 -50 -4 -136v-379q120 176 310 176q189 0 301 -135q108 -131 108 -340
q0 -205 -134 -348q-135 -145 -334 -145q-144 0 -251 76v-199q0 -190 10.5 -223.5t26 -40t42.5 -6.5l92 9q20 0 32 -9.5t12 -23.5q0 -38 -76 -38l-211 15q-51 0 -96.5 -7.5t-83.5 -7.5q-67 0 -67 40q0 29 37 29zM369 221q59 -122 195 -160q43 -12 92 -12t98.5 21.5t86.5 66.5
q81 99 81 276q0 197 -85 315q-80 112 -201 112q-124 0 -218 -108q-29 -34 -49 -76v-435z" />
    <glyph glyph-name="ydieresis" unicode="&#xff;" horiz-adv-x="950" 
d="M734.5 1140.5q-28.5 -29.5 -77 -29.5t-75 28.5t-26.5 62t9 51.5t23 31q31 27 75.5 27t72 -28t27.5 -70.5t-28.5 -72zM382.5 1140.5q-28.5 -29.5 -77 -29.5t-75 28.5t-26.5 62t9 51.5t23 31q31 27 75.5 27t72 -28t27.5 -70.5t-28.5 -72zM961 935q41 0 41 -25
q0 -21 -37.5 -34.5t-57.5 -25t-37 -32.5q-35 -43 -74 -149l-150 -408q-193 -526 -279 -633q-85 -108 -202 -108q-81 0 -117 22q-60 38 -60 78q0 28 20 46q33 31 60.5 31t48.5 -9.5t40.5 -21t35.5 -21t29 -9.5t27.5 2t31.5 13.5t37 35.5t44 67q53 97 119 274q-43 32 -136 231
l-221 488q-30 65 -46 83q-26 33 -69.5 43.5t-43.5 37.5q0 9 10.5 16.5t30.5 7.5l155 -11q61 0 92 4q53 7 87 7q68 0 68 -29q0 -30 -80 -34q-51 -3 -58 -27q-2 -7 -2 -15q0 -13 30 -78l244 -551q1 0 1 2t1 4l170 501q15 45 25.5 74.5t10.5 50t-14 28.5t-54 11q-75 7 -75 35
t68 28l170 -10z" />
    <glyph glyph-name="hbar" unicode="&#x127;" horiz-adv-x="1215" 
d="M134 -15q-66 0 -66 37q0 29 37 29l50 -5q23 0 38 8.5t23 36.5q16 51 16 226v720h-114q-21 0 -21 15q0 24 14 38t20 14l101 6q-2 92 -16.5 119.5t-31 37t-54 14t-37.5 31.5q0 23 51 33q119 25 164 50q61 35 83.5 35t22.5 -23q0 -11 -4 -23q-21 -54 -22 -134t-1 -130
l191 12q23 0 23 -18q0 -40 -15.5 -58.5t-25.5 -18.5h-173v-316q83 159 235 207q48 15 96 15q146 0 226 -85t80 -265v-276q0 -175 12 -214.5t27 -48t38 -8.5l50 5q37 0 37 -29q0 -37 -67 -37q-38 0 -81 7.5t-92.5 7.5t-94 -7.5t-82.5 -7.5q-67 0 -67 37q0 29 37 29l50 -5
q23 0 38 8.5t24 36.5q16 50 16 226v228q0 285 -210 285q-152 0 -231 -158q-28 -55 -41 -130v-225q0 -175 12 -214.5t27 -48t38 -8.5l50 5q37 0 37 -29q0 -37 -66 -37q-38 0 -79 7.5t-94 7.5t-96.5 -7.5t-81.5 -7.5z" />
    <glyph glyph-name="Itilde" unicode="&#x128;" horiz-adv-x="678" 
d="M92 1515q-2 -3 -11 -3t-23.5 11.5t-14.5 34t14.5 56.5t39.5 60q55 59 125 59q79 0 160 -60q58 -44 82 -47.5t44 -3.5q46 0 82 96q5 15 15.5 15t25 -11.5t14.5 -34t-15 -57t-40 -60.5q-54 -58 -124 -58q-63 0 -97.5 19.5t-57.5 36.5q-63 47 -87 51.5t-44 4.5
q-46 0 -82 -97q-4 -9 -6 -12zM146 -15q-65 0 -65 37q0 29 36 29l49 -5q54 0 75 52q23 58 23 219l-5 706q0 165 -17.5 207.5t-36 53t-44.5 10.5l-49 -4q-36 0 -36 29q0 37 55 37t104.5 -8t103.5 -8t103 8t103.5 8t54.5 -37q0 -29 -36 -29l-48 4q-54 0 -75 -52
q-23 -58 -23 -219l5 -706q0 -161 19.5 -205t39.5 -55t46 -11l48 5q36 0 36 -29q0 -37 -64 -37q-33 0 -70 6q-125 20 -212.5 7t-119.5 -13z" />
    <glyph glyph-name="itilde" unicode="&#x129;" horiz-adv-x="582" 
d="M77.5 1106q-10.5 0 -25 11.5t-14.5 33t14.5 55.5t37.5 61q53 60 117 60q48 0 76 -16.5t63 -42.5q67 -52 97 -52t47 24t28 52q12 35 19 35q14 0 28.5 -11.5t14.5 -33.5t-14.5 -55.5t-37.5 -60.5q-53 -60 -117 -60q-47 0 -75.5 16.5t-63.5 43.5q-69 52 -98 52t-46.5 -24.5
t-28.5 -56t-21.5 -31.5zM134 -15q-67 0 -67 37q0 29 37 29l50 -5q23 0 38 8.5t24 36.5q16 50 16 226v301q0 99 -13.5 125.5t-30.5 36t-56.5 15t-39.5 31.5q0 23 52 34q114 23 161 49q62 35 85 35t23 -23q0 -11 -4 -23q-23 -69 -23 -272v-309q0 -176 12.5 -215t27.5 -47.5
t38 -8.5l50 5q37 0 37 -29q0 -37 -67 -37q-38 0 -81.5 7.5t-93.5 7.5t-93.5 -7.5t-81.5 -7.5z" />
    <glyph glyph-name="dotlessi" unicode="&#x131;" horiz-adv-x="582" 
d="M134 -15q-67 0 -67 37q0 29 37 29l50 -5q23 0 38 8.5t24 36.5q16 50 16 226v301q0 99 -13.5 125.5t-30.5 36t-56.5 15t-39.5 31.5q0 23 52 34q114 23 161 49q62 35 85 35t23 -23q0 -11 -4 -23q-23 -69 -23 -272v-309q0 -176 12.5 -215t27.5 -47.5t38 -8.5l50 5
q37 0 37 -29q0 -37 -67 -37q-38 0 -81.5 7.5t-93.5 7.5t-93.5 -7.5t-81.5 -7.5z" />
    <glyph glyph-name="IJ" unicode="&#x132;" horiz-adv-x="1345" 
d="M1244 1290l-48 4q-58 0 -78 -58q-20 -57 -20 -213v-846q0 -197 -101 -325q-102 -128 -260 -128q-113 0 -152 68q-12 21 -12 46t19.5 43t55 18t61.5 -28.5t29 -79.5q12 -3 38 -3t57 23t55 68q53 99 53 265v879q0 158 -15.5 201.5t-34.5 56.5t-48 13l-49 -4q-36 0 -36 29
q0 37 65 37q32 0 72 -6q75 -10 116.5 -10t67 2.5t47.5 5.5q61 8 90 8q64 0 64 -37q0 -29 -36 -29zM146 -15q-65 0 -65 37q0 29 36 29l49 -5q54 0 75 52q23 58 23 219l-5 706q0 165 -17.5 207.5t-36 53t-44.5 10.5l-49 -4q-36 0 -36 29q0 37 55 37t104.5 -8t103.5 -8t103 8
t103.5 8t54.5 -37q0 -29 -36 -29l-48 4q-54 0 -75 -52q-23 -58 -23 -219l5 -706q0 -161 19.5 -205t39.5 -55t46 -11l48 5q36 0 36 -29q0 -37 -64 -37q-33 0 -70 6q-125 20 -212.5 7t-119.5 -13z" />
    <glyph glyph-name="ij" unicode="&#x133;" horiz-adv-x="1097" 
d="M903.5 1169.5q-28.5 -29.5 -77 -29.5t-75 28.5t-26.5 62t9 51.5t24 31q30 27 74.5 27t72 -28t27.5 -70.5t-28.5 -72zM380.5 1169.5q-28.5 -29.5 -77 -29.5t-75 28.5t-26.5 62t9 51.5t23 31q31 27 75.5 27t72 -28t27.5 -70.5t-28.5 -72zM944 921q0 -11 -4 -23
q-23 -69 -23 -272v-639q0 -372 -201 -474q-65 -33 -127.5 -33t-102.5 9.5t-71 26.5q-68 37 -68 93q0 24 24 44t52.5 20t47 -14.5t36.5 -41t27.5 -38.5t17.5 -18q13 -9 35 -9h19q153 0 153 402v664q0 102 -14 127.5t-33.5 34t-60 15t-40.5 31.5q0 23 37.5 30.5t65.5 14
t54 14.5q59 18 87 34q45 25 67 25t22 -23zM134 -15q-67 0 -67 37q0 29 37 29l50 -5q23 0 38 8.5t24 36.5q16 50 16 226v301q0 99 -13.5 125.5t-30.5 36t-56.5 15t-39.5 31.5q0 23 52 34q119 24 164 49q62 35 85 35t23 -23q0 -11 -4 -23q-23 -69 -23 -272v-309
q0 -176 12.5 -215t27.5 -47.5t38 -8.5l50 5q37 0 37 -29q0 -37 -67 -37q-38 0 -81.5 7.5t-93.5 7.5t-95 -7.5t-83 -7.5z" />
    <glyph glyph-name="Jcircumflex" unicode="&#x134;" horiz-adv-x="667" 
d="M158 1520q-29 -19 -38.5 -19t-22 13t-12.5 22q0 13 17 28l190 169q14 12 22.5 19.5t13.5 11.5q9 6 15 6t9.5 -1t9.5 -5q8 -6 38 -31l190 -169q17 -15 17 -26t-12.5 -24t-20.5 -13q-11 0 -40 19l-188 118zM566 1290l-48 4q-58 0 -78 -58q-20 -57 -20 -213v-846
q0 -197 -101 -325q-102 -128 -260 -128q-113 0 -152 68q-12 21 -12 46t19.5 43t55 18t61.5 -28.5t29 -79.5q12 -3 38 -3t57 23t55 68q53 99 53 265v879q0 158 -15.5 201.5t-34.5 56.5t-48 13l-49 -4q-36 0 -36 29q0 37 65 37q32 0 72 -6q75 -10 116.5 -10t67 2.5t47.5 5.5
q60 8 90 8q64 0 64 -37q0 -29 -36 -29z" />
    <glyph glyph-name="jcircumflex" unicode="&#x135;" horiz-adv-x="570" 
d="M145 1103q-30 -21 -38.5 -21t-21 13t-12.5 21q0 14 17 31l165 167q34 37 51 37t51 -37l165 -167q17 -17 17 -28t-12.5 -24t-20.5 -13q-9 0 -39 21l-161 114zM394 944q23 0 23 -23q0 -11 -4 -23q-23 -69 -23 -272v-639q0 -355 -210 -440q-66 -27 -128.5 -27t-105.5 12.5
t-78 33.5q-78 48 -78 103q0 24 24 44t52.5 20t47 -14.5t38 -43t34 -44t28.5 -24.5q22 -15 57 -15t65 18t52 60q44 88 44 284v664q0 101 -12.5 126.5t-30 35t-56.5 15.5t-39 31q0 23 52 33q122 25 166 51q61 34 82 34z" />
    <glyph glyph-name="kcommaaccent" unicode="&#x137;" horiz-adv-x="1097" 
d="M116 -15q-66 0 -66 37q0 29 37 29l50 -5q23 0 38 8.5t23 36.5q16 51 16 226v786q0 95 -15 123.5t-32 38.5t-54.5 16t-37.5 31q0 23 51 33q119 25 164 50q61 35 83.5 35t22.5 -23q0 -11 -4 -23q-21 -54 -22 -137t-1 -136v-598l300 286q26 24 26 38.5t-12 22t-27 14.5
q-38 17 -38 36q0 25 44 25l116 -10l170 10q65 0 65 -29q0 -26 -55 -31q-58 -6 -105 -40.5t-79 -62.5l-202 -177l315 -473q45 -73 123 -73q46 0 56.5 -6.5t10.5 -23.5q0 -34 -59 -34l-116 11l-81 -11q-32 0 -50.5 22t-34.5 42l-287 437l-80 -71v-98q0 -236 30 -261
q11 -10 28 -10l50 5q36 0 36 -29q0 -37 -66 -37q-29 0 -66 7.5t-88.5 7.5t-95 -7.5t-81.5 -7.5zM455 -209q0 22 29 45q54 41 84.5 41t52 -34t21.5 -93q0 -101 -32 -171.5t-51.5 -91.5t-42.5 -21t-23 18q0 7 8 21.5t17 34.5q25 54 25 86q0 51 -27.5 78.5t-37.5 38t-16 17.5
q-7 11 -7 31z" />
    <glyph glyph-name="kgreenlandic" unicode="&#x138;" horiz-adv-x="1139" 
d="M117 -15q-66 0 -66 37q0 29 37 29l50 -5q23 0 38 8.5t24 36.5q15 51 15 226v320q0 95 -15 123.5t-32 38.5t-54.5 16t-37.5 31q0 23 52 33q118 25 163 50q61 35 83.5 35t22.5 -23q0 -11 -5 -23q-20 -54 -21 -137t-1 -136v-170l328 302q38 35 38 55t-12 27.5t-26 14.5
q-39 17 -39 36q0 25 44 25l116 -10l170 10q65 0 65 -29q0 -26 -55 -31q-58 -6 -105 -40.5t-79 -62.5l-241 -213l324 -433q54 -73 129 -77q41 -2 51 -8.5t10 -21.5q0 -34 -59 -34l-116 11l-81 -11q-34 0 -52 21.5t-33 42.5l-296 401l-81 -72v-61q0 -236 30 -261
q11 -10 28 -10l50 5q36 0 36 -29q0 -37 -66 -37q-29 0 -66 7.5t-88.5 7.5t-95 -7.5t-81.5 -7.5z" />
    <glyph glyph-name="Ldotaccent" unicode="&#x13f;" horiz-adv-x="1241" 
d="M123 -15q-55 0 -55 37q0 29 36 29l49 -5q60 0 81 67q17 57 17 204v706q0 147 -14 192.5t-33.5 62t-50.5 16.5l-49 -4q-36 0 -36 29q0 37 55 37t104.5 -8t103 -8t102 8t103 8t54.5 -37q0 -29 -36 -29l-48 4q-61 0 -82 -67q-16 -53 -16 -204v-565q0 -219 10 -363
q73 -20 161.5 -20t154 10t113.5 30q90 37 140 125q20 36 40 36t20 -29q0 -12 -7 -31q-8 -26 -23 -77.5t-24.5 -79t-21.5 -45.5q-24 -34 -66.5 -34t-80.5 0.5t-79.5 2t-89.5 4t-109 5.5t-106 5.5t-89.5 2.5t-74 -2.5t-53.5 -5t-47 -5t-53 -2.5zM962 637.5q-30 32.5 -30 70
t9.5 58t26.5 35.5q34 31 83.5 31t80 -32t30.5 -68t-8 -56.5t-24 -36.5q-32 -34 -85 -34t-83 32.5z" />
    <glyph glyph-name="ldot" unicode="&#x140;" horiz-adv-x="795" 
d="M122 -15q-66 0 -66 37q0 29 37 29l50 -5q23 0 38 8.5t23 36.5q16 51 16 226v745q0 166 -69 176q-50 8 -50 33q0 23 47 32.5t85 24t67 28t49.5 23.5t29.5 10q23 0 23 -23q0 -11 -4 -23q-21 -54 -22 -137t-1 -136v-753q0 -175 12 -214.5t27 -48t38 -8.5l50 5q37 0 37 -29
q0 -37 -66 -37q-38 0 -79 7.5t-94 7.5t-96.5 -7.5t-81.5 -7.5zM726 626q-22 -9 -61.5 -9t-69.5 32.5t-30 70t9.5 58t25.5 35.5q35 31 84.5 31t80 -32t30.5 -68t-8 -56.5t-23.5 -36.5t-37.5 -25z" />
    <glyph glyph-name="Lslash" unicode="&#x141;" horiz-adv-x="1097" 
d="M123 -15q-55 0 -55 37q0 29 36 29l49 -5q60 0 81 67q17 57 17 204v265l-124 -65q-12 -6 -19 -6t-15 16t-8 35q0 26 13 33l153 81v347q0 147 -14 192.5t-33.5 62t-50.5 16.5l-49 -4q-36 0 -36 29q0 37 55 37t104.5 -8t103 -8t102 8t103 8t54.5 -37q0 -29 -36 -29l-48 4
q-61 0 -82 -67q-16 -53 -16 -204v-264l198 105q32 17 40 17t15 -15.5t7 -32.5q0 -30 -16 -39l-244 -129v-207q0 -219 10 -363q73 -20 161.5 -20t154 10t113.5 30q90 37 140 125q20 36 40 36t20 -29q0 -12 -7 -31q-8 -26 -23 -77.5t-24.5 -79t-21.5 -45.5q-24 -34 -66.5 -34
t-80.5 0.5t-79.5 2t-89.5 4t-109 5.5t-106 5.5t-89.5 2.5t-74 -2.5t-53.5 -5t-47 -5t-53 -2.5z" />
    <glyph glyph-name="lslash" unicode="&#x142;" horiz-adv-x="590" 
d="M122 -15q-66 0 -66 37q0 29 37 29l50 -5q23 0 38 8.5t23 36.5q16 51 16 226v314l-140 -74q-12 -6 -19 -6t-15 16t-8 35q0 26 13 33l169 89v338q0 166 -69 176q-50 8 -50 33q0 23 47 32.5t85 24t67 28t49.5 23.5t29.5 10q23 0 23 -23q0 -11 -4 -23q-21 -54 -22 -137
t-1 -136v-264l120 64q32 17 40 17t15 -15.5t7 -32.5q0 -30 -16 -39l-166 -88v-395q0 -175 12 -214.5t27 -48t38 -8.5l50 5q37 0 37 -29q0 -37 -66 -37q-38 0 -79 7.5t-94 7.5t-96.5 -7.5t-81.5 -7.5z" />
    <glyph glyph-name="Nacute" unicode="&#x143;" horiz-adv-x="1555" 
d="M675 1529q-60 -20 -70 -20t-19 13t-9 23q0 16 21 28l339 183q13 8 20 8t17 -9t20 -23q25 -37 25 -57.5t-4 -26t-15 -9.5zM136 -15q-65 0 -65 37q0 29 36 29l49 -5q60 0 80 67q18 57 18 204v704q0 148 -14 192.5t-33.5 61t-50.5 16.5l-49 -5q-36 0 -36 30q0 39 65 39
l131 -15q42 0 75 6l921 -1071v748q0 146 -15.5 192t-35.5 62.5t-52 16.5l-49 -4q-36 0 -36 29q0 37 65 37q25 0 67 -7q53 -9 96 -9t84 8t96 8t55 -37q0 -29 -36 -29l-49 4q-61 0 -81 -67q-17 -53 -17 -204v-1010q0 -34 -6 -45t-19 -11q-18 0 -57 42l-922 1068v-750
q0 -151 13.5 -194.5t33 -60t51.5 -16.5l48 5q36 0 36 -29q0 -37 -57.5 -37t-102 7.5t-86.5 7.5t-82.5 -7.5t-68.5 -7.5z" />
    <glyph glyph-name="nacute" unicode="&#x144;" horiz-adv-x="1197" 
d="M527 1113q-62 -24 -71 -23.5t-18.5 12t-9.5 22.5t5 16.5t24 17.5l282 179q13 8 22 8t20 -9t21 -24q23 -37 23 -56.5t-4 -24.5t-15 -10zM121 -15q-66 0 -66 37q0 29 37 29l53 -5q23 0 38 8.5t23 36.5q16 51 16 226v299q0 101 -13.5 126.5t-32.5 35t-59 16t-40 31.5
q0 23 51 33q129 27 172 51q59 34 81.5 34t22.5 -23q0 -11 -4 -23q-19 -48 -22 -155q57 97 142.5 149t169 52t141.5 -21t99 -64q84 -90 84 -265v-276q0 -175 12 -214.5t27 -48t38 -8.5l52 5q37 0 37 -29q0 -37 -67 -37q-39 0 -82.5 7.5t-93 7.5t-94.5 -7.5t-84 -7.5
q-67 0 -67 37q0 29 37 29l52 -5q23 0 38 8.5t24 36.5q16 50 16 226v228q0 286 -208 286q-147 0 -229 -133q-29 -49 -45 -120v-261q0 -175 12 -214.5t27 -48t38 -8.5l53 5q37 0 37 -29q0 -37 -66 -37q-38 0 -80.5 7.5t-95.5 7.5t-97.5 -7.5t-83.5 -7.5z" />
    <glyph glyph-name="OE" unicode="&#x152;" horiz-adv-x="2028" 
d="M1918 109.5q-15 -51.5 -23.5 -74.5t-22.5 -35q-22 -20 -83 -20t-107 0.5t-94 2.5q-91 4 -178 11q-210 19 -275.5 11t-114.5 -14q-133 -16 -260.5 -16t-253 53.5t-216.5 147.5q-190 198 -190 499q0 299 210 497q96 92 223 142.5t268 50.5q98 0 189 -11q175 -21 237 -21
t130 3.5t149 7.5q209 12 297 12t96.5 -9t8.5 -24.5t-0.5 -29.5t-1.5 -31q-1 -23 -6 -68.5t-12 -61t-20 -15.5t-18 6.5t-13.5 30t-30 45t-68.5 35.5q-89 27 -332 27h-89q-24 0 -30.5 -7t-6.5 -32v-421q119 -14 197.5 -14t112 1t55.5 6q39 7 56 35q34 53 55 53q27 0 27 -28
l-35 -142l4 -76q0 -72 -34 -72q-29 0 -29 38.5t-4.5 57.5t-24.5 30q-33 16 -157 16t-223 -11v-237q0 -221 10 -365q81 -18 176 -18t162.5 5t117.5 20q96 29 142 111q20 36 40 36t20 -20.5t-7.5 -43t-22.5 -74zM309.5 962q-38.5 -98 -38.5 -228t42.5 -255.5t120.5 -218.5
q167 -202 422 -202q102 0 191 32q45 16 57 33q19 25 19 71v938q0 50 -21 68q-31 26 -97 47q-110 35 -222.5 35t-205.5 -40t-161 -111t-106.5 -169z" />
    <glyph glyph-name="oe" unicode="&#x153;" horiz-adv-x="1756" 
d="M1308 -25q-251 0 -375 194q-64 -88 -163.5 -141t-222.5 -53t-210 40.5t-144 108.5q-113 135 -113 340q2 197 142 338q139 141 344 141q121 0 218.5 -51t158.5 -142q136 193 386 193q163 0 258 -107q89 -100 89 -256q0 -50 -13.5 -68.5t-33 -22t-54 -5.5t-83.5 -4.5
t-109 -5t-123 -4.5q-145 -3 -233 -3q12 -288 203 -373q62 -28 130 -28q139 0 221 84q34 36 58 36q33 0 33 -37q0 -22 -30 -53t-86 -64q-99 -57 -248 -57zM1029 552h191h128q101 2 125.5 5.5t34 14t9.5 59.5t-17 95t-46 78q-61 67 -157 67q-104 0 -178 -85q-76 -88 -90 -234z
M252 501q0 -98 27 -185.5t73 -147.5q92 -121 229 -121q116 0 191 91q81 100 81 279q0 216 -92 338q-87 115 -228 115q-119 0 -197 -94q-84 -100 -84 -275z" />
    <glyph glyph-name="Racute" unicode="&#x154;" horiz-adv-x="1302" 
d="M445 1529q-60 -20 -70 -20t-19 13t-9 23q0 16 21 28l339 183q13 8 20 8t17 -9t20 -23q25 -37 25 -57.5t-4 -26t-15 -9.5zM133 -15q-65 0 -65 37q0 29 36 29l49 -5q60 0 81 67q17 57 17 204v706q0 147 -14 192.5t-33.5 62t-50.5 16.5l-49 -4q-36 0 -36 29q0 37 55 37
t104.5 -8t103.5 -8t103.5 8t127 8t166.5 -25t150 -71q127 -95 127 -252q0 -174 -143 -300q-46 -40 -102 -68l325 -472q55 -81 121 -98q19 -5 48 -8q51 -5 51 -33.5t-55 -28.5h-192q-69 0 -125 90l-252 403q-34 53 -65 75.5t-95.5 22.5t-112.5 -3v-271q0 -151 13.5 -194.5
t33 -60t51.5 -16.5l48 5q36 0 36 -29q0 -37 -64 -37q-33 0 -70 6q-120 19 -205.5 6.5t-117.5 -12.5zM408 676q65 -7 125 -7h63q97 0 164 66q78 77 78 210q0 160 -97 253q-91 88 -234 88q-51 0 -75 -14t-24 -48v-548z" />
    <glyph glyph-name="Rcommaaccent" unicode="&#x156;" horiz-adv-x="1302" 
d="M133 -15q-65 0 -65 37q0 29 36 29l49 -5q60 0 81 67q17 57 17 204v706q0 147 -14 192.5t-33.5 62t-50.5 16.5l-49 -4q-36 0 -36 29q0 37 55 37t104.5 -8t103.5 -8t103.5 8t127 8t166.5 -25t150 -71q127 -95 127 -252q0 -174 -143 -300q-46 -40 -102 -68l325 -472
q55 -81 121 -98q19 -5 48 -8q51 -5 51 -33.5t-55 -28.5h-192q-69 0 -125 90l-252 403q-34 53 -65 75.5t-95.5 22.5t-112.5 -3v-271q0 -151 13.5 -194.5t33 -60t51.5 -16.5l48 5q36 0 36 -29q0 -37 -64 -37q-33 0 -70 6q-120 19 -205.5 6.5t-117.5 -12.5zM408 676
q65 -7 125 -7h63q97 0 164 66q78 77 78 210q0 160 -97 253q-91 88 -234 88q-51 0 -75 -14t-24 -48v-548zM599 -209q0 22 29 45q54 41 84.5 41t52 -34t21.5 -93q0 -101 -32 -171.5t-51.5 -91.5t-42.5 -21t-23 18q0 7 8 21.5t17 34.5q25 54 25 86q0 51 -27.5 78.5t-37.5 38
t-16 17.5q-7 11 -7 31z" />
    <glyph glyph-name="rcommaaccent" unicode="&#x157;" horiz-adv-x="793" 
d="M117 -15q-67 0 -67 37q0 29 37 29l50 -5q23 0 38 8.5t23 36.5q16 51 16 226v299q0 102 -12.5 127.5t-30 35t-57 15.5t-39.5 31q0 23 51 33q119 25 164 50q61 35 83.5 35t22.5 -23q0 -11 -4.5 -23t-9.5 -29q-8 -34 -12 -128q87 146 210 182q36 11 80.5 11t79 -32t34.5 -68
t-8 -53t-20 -29q-26 -26 -46.5 -26t-31.5 10.5t-25 38.5q-25 50 -56 50t-59 -13.5t-56 -40.5q-61 -57 -103 -155v-298q0 -190 10.5 -223.5t26 -40t42.5 -6.5l89 8q20 0 32 -9.5t12 -23.5q0 -37 -73 -37l-211 15q-51 0 -96.5 -7.5t-83.5 -7.5zM200 -209q0 22 29 45
q54 41 84.5 41t52 -34t21.5 -93q0 -101 -32 -171.5t-51.5 -91.5t-42.5 -21t-23 18q0 7 8 21.5t17 34.5q25 54 25 86q0 51 -27.5 78.5t-37.5 38t-15 17.5q-8 11 -8 31z" />
    <glyph glyph-name="Rcaron" unicode="&#x158;" horiz-adv-x="1302" 
d="M575.5 1502q-3.5 -1 -8 -1t-8 1t-9.5 4q-8 6 -36 32l-190 169q-17 15 -17 26t12.5 24t20.5 13q11 0 40 -19l188 -119l188 119q29 19 38.5 19t22 -13t12.5 -21q0 -14 -17 -29l-190 -169q-15 -13 -23.5 -20.5t-14 -11t-9 -4.5zM133 -15q-65 0 -65 37q0 29 36 29l49 -5
q60 0 81 67q17 57 17 204v706q0 147 -14 192.5t-33.5 62t-50.5 16.5l-49 -4q-36 0 -36 29q0 37 55 37t104.5 -8t103.5 -8t103.5 8t127 8t166.5 -25t150 -71q127 -95 127 -252q0 -174 -143 -300q-46 -40 -102 -68l325 -472q55 -81 121 -98q19 -5 48 -8q51 -5 51 -33.5
t-55 -28.5h-192q-69 0 -125 90l-252 403q-34 53 -65 75.5t-95.5 22.5t-112.5 -3v-271q0 -151 13.5 -194.5t33 -60t51.5 -16.5l48 5q36 0 36 -29q0 -37 -64 -37q-33 0 -70 6q-120 19 -205.5 6.5t-117.5 -12.5zM408 676q65 -7 125 -7h63q97 0 164 66q78 77 78 210
q0 160 -97 253q-91 88 -234 88q-51 0 -75 -14t-24 -48v-548z" />
    <glyph glyph-name="rcaron" unicode="&#x159;" horiz-adv-x="793" 
d="M389.5 1075q-3.5 -1 -8 -1t-8 1t-9.5 5q-8 5 -36 31l-190 169q-17 15 -17 26t12.5 24t20.5 13q11 0 40 -19l188 -119l188 119q29 19 38.5 19t22 -13t12.5 -22q0 -13 -17 -28l-190 -169q-15 -13 -23.5 -20.5t-14 -11t-9 -4.5zM117 -15q-67 0 -67 37q0 29 37 29l50 -5
q23 0 38 8.5t23 36.5q16 51 16 226v299q0 102 -12.5 127.5t-30 35t-57 15.5t-39.5 31q0 23 51 33q119 25 164 50q61 35 83.5 35t22.5 -23q0 -11 -4.5 -23t-9.5 -29q-8 -34 -12 -128q87 146 210 182q36 11 80.5 11t79 -32t34.5 -68t-8 -53t-20 -29q-26 -26 -46.5 -26
t-31.5 10.5t-25 38.5q-25 50 -56 50t-59 -13.5t-56 -40.5q-61 -57 -103 -155v-298q0 -190 10.5 -223.5t26 -40t42.5 -6.5l89 8q20 0 32 -9.5t12 -23.5q0 -37 -73 -37l-211 15q-51 0 -96.5 -7.5t-83.5 -7.5z" />
    <glyph glyph-name="dotlessj" unicode="&#x237;" horiz-adv-x="562" 
d="M369 944q23 0 23 -23q0 -11 -4 -23q-23 -69 -23 -272v-639q0 -355 -209 -440q-67 -27 -129.5 -27t-105.5 12.5t-77 33.5q-79 48 -79 103q0 24 24 44t52.5 20t47 -14.5t38 -43t34 -44t27.5 -24.5q23 -15 58 -15t65 18t51 60q45 88 45 284v664q0 101 -12.5 126.5t-30 35
t-56.5 15.5t-39 31q0 23 51 33q123 25 167 51q61 34 82 34z" />
    <glyph glyph-name="circumflex" unicode="&#x2c6;" horiz-adv-x="606" 
d="M142 1103q-30 -21 -38.5 -21t-21 13t-12.5 21q0 14 17 31l165 167q34 37 51 37t51 -37l165 -167q17 -17 17 -28t-12.5 -24t-19.5 -13q-10 0 -40 21l-161 114z" />
    <glyph glyph-name="caron" unicode="&#x2c7;" horiz-adv-x="1229" 
d="M360.5 1075q-3.5 -1 -8 -1t-8 1t-8.5 5q-9 5 -37 31l-190 169q-17 15 -17 26t12.5 24t19.5 13q12 0 41 -19l188 -119l188 119q29 19 38.5 19t22 -13t12.5 -22q0 -13 -17 -28l-190 -169q-15 -13 -23.5 -20.5t-14 -11t-9 -4.5z" />
    <glyph glyph-name="ring" unicode="&#x2da;" horiz-adv-x="478" 
d="M314.5 1114q-37.5 -13 -82 -13t-82.5 15t-64 42q-55 54 -55 146q0 87 61 144t146 57q144 0 190 -113q16 -38 16 -87.5t-17.5 -88t-46 -64t-66 -38.5zM197.5 1180q20.5 -11 42.5 -11t42 9t35 26q33 39 33 84t-9 69t-24 42q-32 38 -67.5 38t-56 -10t-35.5 -28
q-31 -37 -31 -79t9 -67t25 -43.5t36.5 -29.5z" />
    <glyph glyph-name="tilde" unicode="&#x2dc;" horiz-adv-x="702" 
d="M119.5 1106q-10.5 0 -25 11.5t-14.5 33t14.5 55.5t37.5 61q53 60 117 60q48 0 76 -16.5t63 -42.5q67 -52 97 -52t47 24t28 52q12 35 19 35q14 0 28.5 -11.5t14.5 -33.5t-14.5 -55.5t-37.5 -60.5q-53 -60 -117 -60q-47 0 -75.5 16.5t-63.5 43.5q-69 52 -98 52t-46.5 -24.5
t-28.5 -56t-21.5 -31.5z" />
    <glyph glyph-name="dotaccentcmb" unicode="&#x307;" horiz-adv-x="490" 
d="M160 7.5q-30 32.5 -30 70t9.5 58t26.5 35.5q34 31 83.5 31t80 -32t30.5 -68t-8 -56.5t-24 -36.5q-32 -34 -85 -34t-83 32.5z" />
    <glyph glyph-name="endash" unicode="&#x2013;" horiz-adv-x="963" 
d="M860 615q23 0 23 -18q0 -24 -10.5 -45.5t-22.5 -21.5h-746q-24 0 -24 18q0 24 10.5 45.5t22.5 21.5h747z" />
    <glyph glyph-name="emdash" unicode="&#x2014;" horiz-adv-x="1342" 
d="M1239 615q23 0 23 -18q0 -24 -10.5 -45.5t-22.5 -21.5h-1125q-24 0 -24 18q0 24 10.5 45.5t22.5 21.5h1126z" />
    <glyph glyph-name="quoteleft" unicode="&#x2018;" horiz-adv-x="531" 
d="M281 930q-4 0 -17 2t-30.5 18.5t-29.5 41.5q-27 51 -27 117.5t22.5 119.5t52 89.5t58 55.5t38.5 19t17 -7.5t7 -16.5q0 -22 -17 -34.5t-28 -27t-21 -32.5q-26 -44 -26 -84.5t15.5 -66.5t34 -43t34 -32t15.5 -33.5t-5 -32t-16 -25.5q-26 -28 -68 -28h-9z" />
    <glyph glyph-name="quoteright" unicode="&#x2019;" horiz-adv-x="531" 
d="M182 905q-9 0 -16 7.5t-7 16.5q0 20 16.5 33.5t28 27.5t22.5 32q25 45 25 85.5t-15.5 66.5t-34 43t-34 31.5t-15.5 33.5t5 32.5t16 25.5q26 28 59.5 28t54 -14t35.5 -38q32 -53 32 -122t-19.5 -119t-46.5 -85q-49 -64 -106 -85z" />
    <glyph glyph-name="quotesinglbase" unicode="&#x201a;" horiz-adv-x="531" 
d="M206 63.5q-17 16.5 -35.5 32.5t-18.5 35t5 32.5t16 25.5q26 28 59.5 28t54 -14t35.5 -39q32 -52 32 -122.5t-22.5 -123.5t-52 -89.5t-58 -55.5t-38.5 -19t-17 7.5t-7 16.5q0 20 16.5 33.5t28 27.5t22.5 33q25 44 25 83.5t-14 65.5t-31 42.5z" />
    <glyph glyph-name="quotedblleft" unicode="&#x201c;" horiz-adv-x="821" 
d="M571 930q-4 0 -17 2t-30.5 18.5t-29.5 41.5q-27 51 -27 117.5t22.5 119.5t52 89.5t58 55.5t38.5 19t17 -7.5t7 -16.5q0 -22 -17 -34.5t-28 -27t-21 -32.5q-26 -44 -26 -84.5t15.5 -66.5t34 -43t34 -32t15.5 -33.5t-5 -32t-16 -25.5q-26 -28 -68 -28h-9zM281 930
q-4 0 -17 2t-30.5 18.5t-29.5 41.5q-27 51 -27 117.5t22.5 119.5t52 89.5t58 55.5t38.5 19t17 -7.5t7 -16.5q0 -22 -17 -34.5t-28 -27t-21 -32.5q-26 -44 -26 -84.5t15.5 -66.5t34 -43t34 -32t15.5 -33.5t-5 -32t-16 -25.5q-26 -28 -68 -28h-9z" />
    <glyph glyph-name="quotedblright" unicode="&#x201d;" horiz-adv-x="821" 
d="M472 905q-9 0 -16 7.5t-7 16.5q0 20 16.5 33.5t28 27.5t22.5 32q25 45 25 85.5t-15.5 66.5t-34 43t-34 31.5t-15.5 33.5t5 32.5t16 25.5q26 28 59.5 28t54 -14t35.5 -38q32 -53 32 -122t-19.5 -119t-46.5 -85q-49 -64 -106 -85zM182 905q-9 0 -16 7.5t-7 16.5
q0 20 16.5 33.5t28 27.5t22.5 32q25 45 25 85.5t-15.5 66.5t-34 43t-34 31.5t-15.5 33.5t5 32.5t16 25.5q26 28 59.5 28t54 -14t35.5 -38q32 -53 32 -122t-19.5 -119t-46.5 -85q-49 -64 -106 -85z" />
    <glyph glyph-name="quotedblbase" unicode="&#x201e;" horiz-adv-x="821" 
d="M496 63.5q-17 16.5 -35.5 32.5t-18.5 35t5 32.5t16 25.5q26 28 59.5 28t54 -14t35.5 -39q32 -52 32 -122.5t-22.5 -123.5t-52 -89.5t-58 -55.5t-38.5 -19t-17 7.5t-7 16.5q0 20 16.5 33.5t28 27.5t22.5 33q25 44 25 83.5t-14 65.5t-31 42.5zM206 63.5
q-17 16.5 -35.5 32.5t-18.5 35t5 32.5t16 25.5q26 28 59.5 28t54 -14t35.5 -39q32 -52 32 -122.5t-22.5 -123.5t-52 -89.5t-58 -55.5t-38.5 -19t-17 7.5t-7 16.5q0 20 16.5 33.5t28 27.5t22.5 33q25 44 25 83.5t-14 65.5t-31 42.5z" />
    <glyph glyph-name="dagger" unicode="&#x2020;" horiz-adv-x="885" 
d="M404 1063h-228v85h205v445h104v-445h225v-85h-206v-1063h-100v1063z" />
    <glyph glyph-name="daggerdbl" unicode="&#x2021;" horiz-adv-x="885" 
d="M405 534h-229v85h205l14 199v245h-219v85h205v445h104v-445h224v-85h-207v-444h208v-85h-205v-534h-100v534z" />
    <glyph glyph-name="bullet" unicode="&#x2022;" horiz-adv-x="472" 
d="M232 404q-40 0 -72 13t-54 37q-46 49 -46 127q0 73 55 123q53 47 108.5 47t87 -13t53.5 -36q48 -49 48 -122q0 -74 -48 -124q-51 -52 -132 -52z" />
    <glyph glyph-name="ellipsis" unicode="&#x2026;" horiz-adv-x="1470" 
d="M1140 7.5q-30 32.5 -30 70t9.5 58t26.5 35.5q34 31 83.5 31t80 -32t30.5 -68t-8 -56.5t-24 -36.5q-32 -34 -85 -34t-83 32.5zM650 7.5q-30 32.5 -30 70t9.5 58t26.5 35.5q34 31 83.5 31t80 -32t30.5 -68t-8 -56.5t-24 -36.5q-32 -34 -85 -34t-83 32.5zM160 7.5
q-30 32.5 -30 70t9.5 58t26.5 35.5q34 31 83.5 31t80 -32t30.5 -68t-8 -56.5t-24 -36.5q-32 -34 -85 -34t-83 32.5z" />
    <glyph glyph-name="perthousand" unicode="&#x2030;" horiz-adv-x="2105" 
d="M342 18l673 1313q17 34 90 34q16 0 16 -9q0 -13 -12 -34l-673 -1313q-17 -34 -92 -34q-16 0 -16 7.5t14 35.5zM369 709q-56 0 -107 22.5t-90 64.5q-82 88 -82 232q0 147 85 244q82 93 204 93q126 0 201 -95q71 -90 71 -226q0 -146 -85 -242q-82 -93 -197 -93zM375 771
q150 0 150 264q0 196 -94 251q-28 17 -61 17t-62 -17t-50 -50q-46 -70 -46 -191q0 -120 52 -199q48 -75 111 -75zM1454 295q0 74 23 136t62 107q82 93 204 93q126 0 201 -95q71 -90 71 -226q0 -146 -85 -242q-82 -93 -196 -93q-117 0 -198 87q-82 88 -82 233zM806 295
q0 74 23 136t62 107q82 93 204 93q126 0 201 -95q71 -90 71 -226q0 -146 -85 -242q-82 -93 -196 -93q-117 0 -198 87q-82 88 -82 233zM1739 37q150 0 150 264q0 196 -94 251q-28 17 -61 17t-62 -17t-50 -50q-46 -70 -46 -191q0 -120 52 -199q48 -75 111 -75zM1091 37
q150 0 150 264q0 196 -94 251q-28 17 -61 17t-62 -17t-50 -50q-46 -70 -46 -191q0 -120 52 -199q48 -75 111 -75z" />
    <glyph glyph-name="guilsinglleft" unicode="&#x2039;" horiz-adv-x="586" 
d="M422 268q39 -56 39 -85t-19 -29q-17 0 -31 17.5t-36.5 46.5t-52 61.5t-58.5 60.5q-48 46 -95 82.5t-53 44t-6 12.5q0 10 32 36t62.5 51t59.5 53q62 60 97.5 105.5t43.5 55.5t14 16q10 9 23 9q19 0 18 -21q0 -38 -38 -93l-146 -212z" />
    <glyph glyph-name="guilsinglright" unicode="&#x203a;" horiz-adv-x="586" 
d="M164 691q-40 57 -39.5 85.5t19.5 28.5q17 0 31 -17.5t36 -46.5t51.5 -61.5t58.5 -60.5q44 -43 93 -81q59 -46 61 -55q2 -13 -31 -39t-63 -51t-59 -53q-53 -48 -93 -99.5t-48 -61.5t-14 -15q-10 -10 -23 -10q-19 0 -19 20q0 38 39 94l145 211z" />
    <glyph glyph-name="Euro" unicode="&#x20ac;" horiz-adv-x="1391" 
d="M1055 615q23 0 23 -18q0 -24 -10.5 -45.5t-22.5 -21.5h-621q42 -212 169 -340t301 -128q127 0 197 34t113.5 74.5t65.5 77.5t27 40t13 3.5t19 -18.5t11 -52t-16 -57.5t-43 -49.5q-154 -139 -418 -139q-267 0 -441 170q-156 152 -191 385h-142q-24 0 -24 18
q0 24 10.5 45.5t22.5 21.5h125q-1 8 -1 15v16q0 42 4 84h-137q-24 0 -24 18q0 24 10.5 45.5t22.5 21.5h143q52 235 229 388q186 162 445 162q152 0 252 -29q174 -50 174 -91q0 -13 -17 -43.5t-26.5 -64.5t-16 -60t-14 -41t-24.5 -15q-28 0 -28 51q0 96 -53 133
q-114 80 -285 80q-165 0 -296 -121q-145 -133 -171 -349h725q23 0 23 -18q0 -24 -10.5 -45.5t-22.5 -21.5h-720v-7q0 -43 5 -108h645z" />
    <glyph glyph-name="trademark" unicode="&#x2122;" horiz-adv-x="1592" 
d="M857 733l-101 8l-82 -8q-31 0 -31 16t13.5 17.5t31.5 5.5q45 10 50 70q4 52 6.5 109.5t5 107.5t4.5 98q4 96 4 138t-6.5 55.5t-17 21t-22 10t-22.5 4.5q-23 4 -23 14q0 19 23 19l78 -7l59 2q12 0 20 -10.5t18 -30.5l224 -463l206 479q12 27 38 27l87 -2l60 5q37 0 37 -19
q0 -9 -14 -11t-31 -7q-44 -12 -44 -48l26 -490q2 -46 19 -57.5t29 -14t22 -4.5q24 -3 24 -17q0 -18 -31 -18l-109 8l-106 -8q-33 0 -33 17t30 17t40.5 12t10.5 38v69q0 35 -5.5 137.5t-7.5 147t-4 82.5t-3 61l-236 -541q-14 -29 -22.5 -29t-13 7t-12.5 23l-225 463
q-16 -283 -16 -430q0 -41 66 -41q18 0 18 -14q0 -19 -32 -19zM390 733l-98 8l-110 -8q-33 0 -33 19q0 14 18 14l25 -2q32 0 41 33t9 102l-1 448h-14q-106 0 -134 -15.5t-35 -29t-12 -27.5q-10 -24 -23 -24t-13 14t7 33t9 51q6 70 21 70q5 0 11.5 -1.5t17.5 -3.5q26 -3 75 -3
h317q39 0 55 4t23 4q17 0 17 -16q0 -13 -3 -28q-7 -28 -11 -59q-8 -62 -21 -62q-9 0 -14 30.5t-20.5 46.5t-54.5 16h-108v-448q0 -69 8.5 -102t40.5 -33l24 2q18 0 18 -14q0 -19 -32 -19zM1346 1350l-1 -1z" />
    <glyph glyph-name="fi" unicode="&#xfb01;" horiz-adv-x="1281" 
d="M157 -15q-67 0 -67 37q0 29 37 29l40 -5q23 0 37.5 8.5t21.5 36.5q13 47 13 226v522l-94 2q-17 0 -17 19q0 37 12.5 48.5t20.5 11.5h78v3q0 419 176 521q61 36 146 36q73 0 109.5 -15.5t53.5 -25t32 -21.5q34 -30 34 -58.5t-19 -45t-38 -16.5t-30 1.5t-23 8.5
q-24 13 -46 38l-30 34q-8 9 -18 15q-23 13 -63.5 13t-64 -28.5t-36.5 -87.5q-20 -95 -20 -354v-18h210q32 0 32 -27q0 -32 -13.5 -46.5t-21.5 -14.5l-207 4v-517q0 -185 12 -221t28.5 -43t43.5 -7l99 7q45 0 45 -35t-73 -35l-230 15q-51 0 -93.5 -7.5t-76.5 -7.5z
M1076.5 1169.5q-28.5 -29.5 -77 -29.5t-75 28.5t-26.5 62t9 51.5t23 31q31 27 75.5 27t72 -28t27.5 -70.5t-28.5 -72zM830 -15q-67 0 -67 37q0 29 37 29l50 -5q23 0 38 8.5t24 36.5q16 50 16 226v301q0 99 -13.5 125.5t-30.5 36t-56.5 15t-39.5 31.5q0 23 52 34
q119 24 164 49q62 35 85 35t23 -23q0 -11 -4 -23q-23 -69 -23 -272v-309q0 -176 12.5 -215t27.5 -47.5t38 -8.5l50 5q37 0 37 -29q0 -37 -67 -37q-38 0 -81.5 7.5t-93.5 7.5t-95 -7.5t-83 -7.5z" />
    <glyph glyph-name="fl" unicode="&#xfb02;" horiz-adv-x="1286" 
d="M157 -15q-67 0 -67 37q0 29 37 29l40 -5q23 0 37.5 8.5t21.5 36.5q13 47 13 226v522l-94 2q-17 0 -17 19q0 37 12.5 48.5t20.5 11.5h78v3q0 419 176 521q61 36 146 36q73 0 109.5 -15.5t53.5 -25t32 -21.5q34 -30 34 -58.5t-19 -45t-38 -16.5t-30 1.5t-23 8.5
q-24 13 -46 38l-30 34q-8 9 -18 15q-23 13 -63.5 13t-64 -28.5t-36.5 -87.5q-20 -95 -20 -354v-18h210q32 0 32 -27q0 -32 -13.5 -46.5t-21.5 -14.5l-207 4v-517q0 -185 12 -221t28.5 -43t43.5 -7l99 7q45 0 45 -35t-73 -35l-230 15q-51 0 -93.5 -7.5t-76.5 -7.5zM818 -15
q-66 0 -66 37q0 29 37 29l50 -5q23 0 38 8.5t23 36.5q16 51 16 226v745q0 166 -69 176q-50 8 -50 33q0 23 47 32.5t85 24t67 28t49.5 23.5t29.5 10q23 0 23 -23q0 -11 -4 -23q-21 -54 -22 -137t-1 -136v-753q0 -175 12 -214.5t27 -48t38 -8.5l50 5q37 0 37 -29
q0 -37 -66 -37q-38 0 -79 7.5t-94 7.5t-96.5 -7.5t-81.5 -7.5z" />
  </font>
</defs>
</svg>
